<?xml version="1.0" standalone="no"?>
 <!DOCTYPE svg PUBLIC "-//W3C//DTD SVG 1.1//EN" 
 "http://www.w3.org/Graphics/SVG/1.1/DTD/svg11.dtd"> 
<svg
  xmlns:svg="http://www.w3.org/2000/svg"
  xmlns="http://www.w3.org/2000/svg"
  xmlns:xlink="http://www.w3.org/1999/xlink"
  version="1.1"
  width="67.310000cm" height="45.593000cm" viewBox="0 0 265000 179500">
<title>SVG Picture created as Motherboard-Dwgs_User.svg date 2022/04/22 03:15:18 </title>
  <desc>Picture generated by PCBNEW </desc>
<g style="fill:#000000; fill-opacity:1;stroke:#000000; stroke-opacity:1;
stroke-linecap:round; stroke-linejoin:round;"
 transform="translate(0 0) scale(1 1)">
</g>
<g style="fill:#000000; fill-opacity:0.0; 
stroke:#000000; stroke-width:-0.000393701; stroke-opacity:1; 
stroke-linecap:round; stroke-linejoin:round;">
</g>
<g style="fill:#C2C2C2; fill-opacity:0.0; 
stroke:#C2C2C2; stroke-width:-0.000393701; stroke-opacity:1; 
stroke-linecap:round; stroke-linejoin:round;">
</g>
<g style="fill:#C2C2C2; fill-opacity:0.0; 
stroke:#C2C2C2; stroke-width:118.11; stroke-opacity:1; 
stroke-linecap:round; stroke-linejoin:round;">
<text x="59984.3" y="74779.5"
textLength="7472.72" font-size="787.402" lengthAdjust="spacingAndGlyphs"
text-anchor="start" opacity="0">Jumper settings:</text>
<path d="M60370 74160
L60370 74582
L60342 74667
L60285 74723
L60201 74751
L60145 74751
" />
<path d="M60904 74357
L60904 74751
" />
<path d="M60651 74357
L60651 74667
L60679 74723
L60735 74751
L60820 74751
L60876 74723
L60904 74695
" />
<path d="M61185 74751
L61185 74357
" />
<path d="M61185 74413
L61214 74385
L61270 74357
L61354 74357
L61410 74385
L61438 74442
L61438 74751
" />
<path d="M61438 74442
L61467 74385
L61523 74357
L61607 74357
L61663 74385
L61692 74442
L61692 74751
" />
<path d="M61973 74357
L61973 74948
" />
<path d="M61973 74385
L62029 74357
L62142 74357
L62198 74385
L62226 74413
L62254 74470
L62254 74638
L62226 74695
L62198 74723
L62142 74751
L62029 74751
L61973 74723
" />
<path d="M62732 74723
L62676 74751
L62563 74751
L62507 74723
L62479 74667
L62479 74442
L62507 74385
L62563 74357
L62676 74357
L62732 74385
L62760 74442
L62760 74498
L62479 74554
" />
<path d="M63013 74751
L63013 74357
" />
<path d="M63013 74470
L63041 74413
L63070 74385
L63126 74357
L63182 74357
" />
<path d="M63801 74723
L63857 74751
L63969 74751
L64026 74723
L64054 74667
L64054 74638
L64026 74582
L63969 74554
L63885 74554
L63829 74526
L63801 74470
L63801 74442
L63829 74385
L63885 74357
L63969 74357
L64026 74385
" />
<path d="M64532 74723
L64476 74751
L64363 74751
L64307 74723
L64279 74667
L64279 74442
L64307 74385
L64363 74357
L64476 74357
L64532 74385
L64560 74442
L64560 74498
L64279 74554
" />
<path d="M64729 74357
L64954 74357
" />
<path d="M64813 74160
L64813 74667
L64841 74723
L64897 74751
L64954 74751
" />
<path d="M65066 74357
L65291 74357
" />
<path d="M65151 74160
L65151 74667
L65179 74723
L65235 74751
L65291 74751
" />
<path d="M65488 74751
L65488 74357
" />
<path d="M65488 74160
L65460 74188
L65488 74217
L65516 74188
L65488 74160
L65488 74217
" />
<path d="M65769 74357
L65769 74751
" />
<path d="M65769 74413
L65797 74385
L65854 74357
L65938 74357
L65994 74385
L66022 74442
L66022 74751
" />
<path d="M66557 74357
L66557 74835
L66528 74892
L66500 74920
L66444 74948
L66360 74948
L66303 74920
" />
<path d="M66557 74723
L66500 74751
L66388 74751
L66332 74723
L66303 74695
L66275 74638
L66275 74470
L66303 74413
L66332 74385
L66388 74357
L66500 74357
L66557 74385
" />
<path d="M66810 74723
L66866 74751
L66978 74751
L67035 74723
L67063 74667
L67063 74638
L67035 74582
L66978 74554
L66894 74554
L66838 74526
L66810 74470
L66810 74442
L66838 74385
L66894 74357
L66978 74357
L67035 74385
" />
<path d="M67316 74695
L67344 74723
L67316 74751
L67288 74723
L67316 74695
L67316 74751
" />
<path d="M67316 74385
L67344 74413
L67316 74442
L67288 74413
L67316 74385
L67316 74442
" />
<g >
</g>
<g >
</g>
<g >
</g>
<g >
</g>
<g >
</g>
<g >
</g>
<g >
</g>
<g >
</g>
<g >
</g>
<g >
</g>
<g >
</g>
<g >
</g>
<g >
</g>
<g >
</g>
<g >
</g>
<g >
</g>
<g >
</g>
<g >
</g>
<g >
</g>
<g >
</g>
<g >
</g>
<g >
</g>
<g >
</g>
<g >
</g>
<g >
</g>
<g >
</g>
<g >
</g>
<g >
</g>
<g >
</g>
<g >
</g>
<g >
</g>
<g >
</g>
<g >
</g>
<g >
</g>
<g >
</g>
<g >
</g>
<g >
</g>
<g >
</g>
<g >
</g>
<g >
</g>
<g >
</g>
<g >
</g>
<g >
</g>
<g >
</g>
<g >
</g>
<g >
</g>
<g >
</g>
<g >
</g>
<g >
</g>
<g >
</g>
<g >
</g>
<g >
</g>
<g >
</g>
<g >
</g>
<g >
</g>
<g >
</g>
<g >
</g>
<g >
</g>
<g >
</g>
<g >
</g>
<g >
</g>
<g >
</g>
<g >
</g>
<g >
</g>
<g >
</g>
<g >
</g>
<g >
</g>
<g >
</g>
<g >
</g>
<g >
</g>
<g >
</g>
<g >
</g>
<g >
</g>
<g >
</g>
<g >
</g>
<g >
</g>
<g >
</g>
<g >
</g>
<g >
</g>
<g >
</g>
<g >
</g>
<g >
</g>
<g >
</g>
<g >
</g>
<g >
</g>
<g >
</g>
<g >
</g>
<g >
</g>
<g >
</g>
<g >
</g>
<g >
</g>
<g >
</g>
<g >
</g>
<g >
</g>
<g >
</g>
<g >
</g>
<g >
</g>
<g >
</g>
<g >
</g>
<g >
</g>
<g >
</g>
<g >
</g>
<g >
</g>
<g >
</g>
<g >
</g>
<g >
</g>
<g >
</g>
<g >
</g>
<g >
</g>
<g >
</g>
<g >
</g>
<g >
</g>
<g >
</g>
<g >
</g>
<g >
</g>
<g >
</g>
<g >
</g>
<g >
</g>
<g >
</g>
<g >
</g>
<g >
</g>
<g >
</g>
<g >
</g>
<g >
</g>
<g >
</g>
<g >
</g>
<g >
</g>
<g >
</g>
<g >
</g>
<g >
</g>
</g>
<g style="fill:#000000; fill-opacity:0.0; 
stroke:#000000; stroke-width:118.11; stroke-opacity:1; 
stroke-linecap:round; stroke-linejoin:round;">
</g>
<g style="fill:#C2C200; fill-opacity:0.0; 
stroke:#C2C200; stroke-width:118.11; stroke-opacity:1; 
stroke-linecap:round; stroke-linejoin:round;">
</g>
<g style="fill:#C2C200; fill-opacity:0.0; 
stroke:#C2C200; stroke-width:39.3701; stroke-opacity:1; 
stroke-linecap:round; stroke-linejoin:round;">
<circle cx="984.252" cy="984.252" r="656.168" /> 
<path d="M0 984
L1968 984
" />
<path d="M984 0
L984 1968
" />
<circle cx="59984.3" cy="169484" r="656.168" /> 
<path d="M59000 169484
L60968 169484
" />
<path d="M59984 168500
L59984 170468
" />
<circle cx="254984" cy="169484" r="656.168" /> 
<path d="M254000 169484
L255968 169484
" />
<path d="M254984 168500
L254984 170468
" />
<circle cx="254984" cy="74484.3" r="656.168" /> 
<path d="M254000 74484
L255968 74484
" />
<path d="M254984 73500
L254984 75468
" />
<circle cx="59984.3" cy="74484.3" r="656.168" /> 
<path d="M59000 74484
L60968 74484
" />
<path d="M59984 73500
L59984 75468
" />
<path d="M49984 179484
L49984 64484
" />
<path d="M264984 64484
L264984 179484
" />
<path d="M49984 64484
L264984 64484
" />
<path d="M264984 179484
L49984 179484
" />
<g >
</g>
<g >
</g>
<g >
</g>
<g >
</g>
<g >
</g>
<g >
</g>
<g >
</g>
<g >
</g>
<g >
</g>
<g >
</g>
<g >
</g>
<g >
</g>
<g >
</g>
<g >
</g>
<g >
</g>
<g >
</g>
<g >
</g>
<g >
</g>
<g >
</g>
<g >
</g>
<g >
</g>
<g >
</g>
<g >
</g>
<g >
</g>
<g >
</g>
<g >
</g>
<g >
</g>
<g >
</g>
<g >
</g>
<g >
</g>
<g >
</g>
<g >
</g>
<g >
</g>
<g >
</g>
<g >
</g>
<g >
</g>
<g >
</g>
<g >
</g>
<g >
</g>
<g >
</g>
<g >
</g>
<g >
</g>
<g >
</g>
<g >
</g>
<g >
</g>
<g >
</g>
<g >
</g>
<g >
</g>
<g >
</g>
<g >
</g>
<g >
</g>
<g >
</g>
<g >
</g>
<g >
</g>
<g >
</g>
<g >
</g>
<g >
</g>
<g >
</g>
<g >
</g>
<g >
</g>
<g >
</g>
<g >
</g>
<g >
</g>
<g >
</g>
<g >
</g>
<g >
</g>
<g >
</g>
<g >
</g>
<g >
</g>
<g >
</g>
<g >
</g>
<g >
</g>
<g >
</g>
<g >
</g>
<g >
</g>
<g >
</g>
<g >
</g>
<g >
</g>
<g >
</g>
<g >
</g>
<g >
</g>
<g >
</g>
<g >
</g>
<g >
</g>
<g >
</g>
<g >
</g>
<g >
</g>
<g >
</g>
<g >
</g>
<g >
</g>
<g >
</g>
<g >
</g>
<g >
</g>
<g >
</g>
<g >
</g>
<g >
</g>
<g >
</g>
<g >
</g>
<g >
</g>
<g >
</g>
<g >
</g>
<g >
</g>
<g >
</g>
<g >
</g>
<g >
</g>
<g >
</g>
<g >
</g>
<g >
</g>
<g >
</g>
<g >
</g>
<g >
</g>
<g >
</g>
<g >
</g>
<g >
</g>
<g >
</g>
<g >
</g>
<g >
</g>
<g >
</g>
<g >
</g>
<g >
</g>
<g >
</g>
<g >
</g>
<g >
</g>
<g >
</g>
<g >
</g>
<g >
</g>
<g >
</g>
<g >
</g>
<g >
</g>
<g >
</g>
</g> 
</svg>
