<?xml version="1.0" standalone="no"?>
 <!DOCTYPE svg PUBLIC "-//W3C//DTD SVG 1.1//EN" 
 "http://www.w3.org/Graphics/SVG/1.1/DTD/svg11.dtd"> 
<svg
  xmlns:svg="http://www.w3.org/2000/svg"
  xmlns="http://www.w3.org/2000/svg"
  xmlns:xlink="http://www.w3.org/1999/xlink"
  version="1.1"
  width="51.417220cm" height="33.505140cm" viewBox="0 0 202430 131910">
<title>SVG Picture created as Motherboard-Dwgs_User.svg date 2022/05/03 21:08:38 </title>
  <desc>Picture generated by PCBNEW </desc>
<g style="fill:#000000; fill-opacity:1;stroke:#000000; stroke-opacity:1;
stroke-linecap:round; stroke-linejoin:round;"
 transform="translate(0 0) scale(1 1)">
</g>
<g style="fill:#000000; fill-opacity:0.0; 
stroke:#000000; stroke-width:-0.000393701; stroke-opacity:1; 
stroke-linecap:round; stroke-linejoin:round;">
</g>
<g style="fill:#C2C2C2; fill-opacity:0.0; 
stroke:#C2C2C2; stroke-width:-0.000393701; stroke-opacity:1; 
stroke-linecap:round; stroke-linejoin:round;">
</g>
<g style="fill:#C2C2C2; fill-opacity:0.0; 
stroke:#C2C2C2; stroke-width:59.0551; stroke-opacity:1; 
stroke-linecap:round; stroke-linejoin:round;">
<g transform="rotate(-270 200508 65050.2)">
<text x="200508" y="65247"
textLength="3863.8" font-size="524.934" lengthAdjust="spacingAndGlyphs"
text-anchor="middle" opacity="0">330.200 mm</text>
</g>
<path d="M200723 63212
L200723 63456
L200573 63325
L200573 63381
L200554 63419
L200535 63437
L200498 63456
L200404 63456
L200367 63437
L200348 63419
L200329 63381
L200329 63269
L200348 63231
L200367 63212
" />
<path d="M200723 63587
L200723 63831
L200573 63700
L200573 63756
L200554 63794
L200535 63812
L200498 63831
L200404 63831
L200367 63812
L200348 63794
L200329 63756
L200329 63644
L200348 63606
L200367 63587
" />
<path d="M200723 64075
L200723 64112
L200704 64150
L200685 64169
L200648 64187
L200573 64206
L200479 64206
L200404 64187
L200367 64169
L200348 64150
L200329 64112
L200329 64075
L200348 64037
L200367 64019
L200404 64000
L200479 63981
L200573 63981
L200648 64000
L200685 64019
L200704 64037
L200723 64075
" />
<path d="M200367 64375
L200348 64394
L200329 64375
L200348 64356
L200367 64375
L200329 64375
" />
<path d="M200685 64544
L200704 64562
L200723 64600
L200723 64693
L200704 64731
L200685 64750
L200648 64768
L200610 64768
L200554 64750
L200329 64525
L200329 64768
" />
<path d="M200723 65012
L200723 65050
L200704 65087
L200685 65106
L200648 65125
L200573 65143
L200479 65143
L200404 65125
L200367 65106
L200348 65087
L200329 65050
L200329 65012
L200348 64975
L200367 64956
L200404 64937
L200479 64918
L200573 64918
L200648 64937
L200685 64956
L200704 64975
L200723 65012
" />
<path d="M200723 65387
L200723 65425
L200704 65462
L200685 65481
L200648 65500
L200573 65518
L200479 65518
L200404 65500
L200367 65481
L200348 65462
L200329 65425
L200329 65387
L200348 65350
L200367 65331
L200404 65312
L200479 65293
L200573 65293
L200648 65312
L200685 65331
L200704 65350
L200723 65387
" />
<path d="M200329 65987
L200592 65987
" />
<path d="M200554 65987
L200573 66006
L200592 66043
L200592 66100
L200573 66137
L200535 66156
L200329 66156
" />
<path d="M200535 66156
L200573 66175
L200592 66212
L200592 66268
L200573 66306
L200535 66325
L200329 66325
" />
<path d="M200329 66512
L200592 66512
" />
<path d="M200554 66512
L200573 66531
L200592 66568
L200592 66625
L200573 66662
L200535 66681
L200329 66681
" />
<path d="M200535 66681
L200573 66699
L200592 66737
L200592 66793
L200573 66831
L200535 66849
L200329 66849
" />
<path d="M201019 50
L201019 130050
" />
<path d="M201019 50
L200788 50
" />
<path d="M201019 130050
L200788 130050
" />
<path d="M201019 130050
L200788 129606
" />
<path d="M201019 130050
L201250 129606
" />
<path d="M201019 50
L200788 493
" />
<path d="M201019 50
L201250 493
" />
<text x="100020" y="131759"
textLength="3863.8" font-size="524.934" lengthAdjust="spacingAndGlyphs"
text-anchor="middle" opacity="0">508.000 mm</text>
<path d="M98407 131346
L98219 131346
L98201 131533
L98219 131515
L98257 131496
L98351 131496
L98388 131515
L98407 131533
L98426 131571
L98426 131665
L98407 131702
L98388 131721
L98351 131740
L98257 131740
L98219 131721
L98201 131702
" />
<path d="M98669 131346
L98707 131346
L98744 131365
L98763 131383
L98782 131421
L98801 131496
L98801 131590
L98782 131665
L98763 131702
L98744 131721
L98707 131740
L98669 131740
L98632 131721
L98613 131702
L98594 131665
L98576 131590
L98576 131496
L98594 131421
L98613 131383
L98632 131365
L98669 131346
" />
<path d="M99026 131515
L98988 131496
L98969 131477
L98951 131440
L98951 131421
L98969 131383
L98988 131365
L99026 131346
L99101 131346
L99138 131365
L99157 131383
L99176 131421
L99176 131440
L99157 131477
L99138 131496
L99101 131515
L99026 131515
L98988 131533
L98969 131552
L98951 131590
L98951 131665
L98969 131702
L98988 131721
L99026 131740
L99101 131740
L99138 131721
L99157 131702
L99176 131665
L99176 131590
L99157 131552
L99138 131533
L99101 131515
" />
<path d="M99344 131702
L99363 131721
L99344 131740
L99326 131721
L99344 131702
L99344 131740
" />
<path d="M99607 131346
L99644 131346
L99682 131365
L99700 131383
L99719 131421
L99738 131496
L99738 131590
L99719 131665
L99700 131702
L99682 131721
L99644 131740
L99607 131740
L99569 131721
L99550 131702
L99532 131665
L99513 131590
L99513 131496
L99532 131421
L99550 131383
L99569 131365
L99607 131346
" />
<path d="M99982 131346
L100019 131346
L100057 131365
L100075 131383
L100094 131421
L100113 131496
L100113 131590
L100094 131665
L100075 131702
L100057 131721
L100019 131740
L99982 131740
L99944 131721
L99925 131702
L99907 131665
L99888 131590
L99888 131496
L99907 131421
L99925 131383
L99944 131365
L99982 131346
" />
<path d="M100357 131346
L100394 131346
L100432 131365
L100450 131383
L100469 131421
L100488 131496
L100488 131590
L100469 131665
L100450 131702
L100432 131721
L100394 131740
L100357 131740
L100319 131721
L100300 131702
L100282 131665
L100263 131590
L100263 131496
L100282 131421
L100300 131383
L100319 131365
L100357 131346
" />
<path d="M100957 131740
L100957 131477
" />
<path d="M100957 131515
L100975 131496
L101013 131477
L101069 131477
L101107 131496
L101125 131533
L101125 131740
" />
<path d="M101125 131533
L101144 131496
L101182 131477
L101238 131477
L101275 131496
L101294 131533
L101294 131740
" />
<path d="M101482 131740
L101482 131477
" />
<path d="M101482 131515
L101500 131496
L101538 131477
L101594 131477
L101631 131496
L101650 131533
L101650 131740
" />
<path d="M101650 131533
L101669 131496
L101706 131477
L101763 131477
L101800 131496
L101819 131533
L101819 131740
" />
<path d="M19 131050
L200019 131050
" />
<path d="M19 131050
L19 131281
" />
<path d="M200019 131050
L200019 131281
" />
<path d="M200019 131050
L199576 131281
" />
<path d="M200019 131050
L199576 130819
" />
<path d="M19 131050
L463 131281
" />
<path d="M19 131050
L463 130819
" />
<g >
</g>
<g >
</g>
<g >
</g>
<g >
</g>
<g >
</g>
<g >
</g>
<g >
</g>
<g >
</g>
<g >
</g>
<g >
</g>
<g >
</g>
<g >
</g>
<g >
</g>
<g >
</g>
<g >
</g>
<g >
</g>
<g >
</g>
<g >
</g>
<g >
</g>
<g >
</g>
<g >
</g>
<g >
</g>
<g >
</g>
<g >
</g>
<g >
</g>
<g >
</g>
<g >
</g>
<g >
</g>
<g >
</g>
<g >
</g>
<g >
</g>
<g >
</g>
<g >
</g>
<g >
</g>
<g >
</g>
<g >
</g>
<g >
</g>
<g >
</g>
<g >
</g>
<g >
</g>
<g >
</g>
<g >
</g>
<g >
</g>
<g >
</g>
<g >
</g>
<g >
</g>
<g >
</g>
<g >
</g>
<g >
</g>
<g >
</g>
<g >
</g>
<g >
</g>
<g >
</g>
<g >
</g>
<g >
</g>
<g >
</g>
<g >
</g>
<g >
</g>
<g >
</g>
<g >
</g>
<g >
</g>
<g >
</g>
<g >
</g>
<g >
</g>
<g >
</g>
<g >
</g>
<g >
</g>
<g >
</g>
<g >
</g>
<g >
</g>
<g >
</g>
<g >
</g>
<g >
</g>
<g >
</g>
<g >
</g>
<g >
</g>
<g >
</g>
<g >
</g>
<g >
</g>
<g >
</g>
<g >
</g>
<g >
</g>
<g >
</g>
<g >
</g>
<g >
</g>
<g >
</g>
<g >
</g>
<g >
</g>
<g >
</g>
<g >
</g>
<g >
</g>
<g >
</g>
<g >
</g>
<g >
</g>
<g >
</g>
<g >
</g>
<g >
</g>
<g >
</g>
<g >
</g>
<g >
</g>
<g >
</g>
<g >
</g>
<g >
</g>
<g >
</g>
<g >
</g>
<g >
</g>
<g >
</g>
<g >
</g>
<g >
</g>
<g >
</g>
<g >
</g>
<g >
</g>
<g >
</g>
<g >
</g>
<g >
</g>
<g >
</g>
<g >
</g>
<g >
</g>
<g >
</g>
<g >
</g>
<g >
</g>
<g >
</g>
<g >
</g>
<g >
</g>
<g >
</g>
<g >
</g>
<g >
</g>
<g >
</g>
<g >
</g>
<g >
</g>
<g >
</g>
<g >
</g>
<g >
</g>
<g >
</g>
<g >
</g>
<g >
</g>
<g >
</g>
<g >
</g>
<g >
</g>
<g >
</g>
<g >
</g>
<g >
</g>
<g >
</g>
<g >
</g>
<g >
</g>
<g >
</g>
<g >
</g>
<g >
</g>
<g >
</g>
<g >
</g>
<g >
</g>
<g >
</g>
<g >
</g>
<g >
</g>
<g >
</g>
<g >
</g>
<g >
</g>
<g >
</g>
<g >
</g>
<g >
</g>
<g >
</g>
<g >
</g>
<g >
</g>
<g >
</g>
<g >
</g>
<g >
</g>
<g >
</g>
<g >
</g>
<g >
</g>
<g >
</g>
<g >
</g>
<g >
</g>
<g >
</g>
<g >
</g>
<g >
</g>
<g >
</g>
<g >
</g>
<g >
</g>
<g >
</g>
<g >
</g>
<g >
</g>
<g >
</g>
<g >
</g>
<g >
</g>
<g >
</g>
<g >
</g>
<g >
</g>
<g >
</g>
<g >
</g>
<g >
</g>
<g >
</g>
<g >
</g>
<g >
</g>
</g>
<g style="fill:#000000; fill-opacity:0.0; 
stroke:#000000; stroke-width:59.0551; stroke-opacity:1; 
stroke-linecap:round; stroke-linejoin:round;">
</g>
<g style="fill:#C2C200; fill-opacity:0.0; 
stroke:#C2C200; stroke-width:59.0551; stroke-opacity:1; 
stroke-linecap:round; stroke-linejoin:round;">
</g>
<g style="fill:#C2C200; fill-opacity:0.0; 
stroke:#C2C200; stroke-width:39.3701; stroke-opacity:1; 
stroke-linecap:round; stroke-linejoin:round;">
<path d="M200019 130050
L200019 120050
" />
<path d="M19 130050
L200019 130050
" />
<path d="M19 120050
L19 130050
" />
<path d="M200019 50
L200019 120050
" />
<path d="M200019 50
L19 50
" />
<path d="M19 120050
L19 50
" />
<g >
</g>
<g >
</g>
<g >
</g>
<g >
</g>
<g >
</g>
<g >
</g>
<g >
</g>
<g >
</g>
<g >
</g>
<g >
</g>
<g >
</g>
<g >
</g>
<g >
</g>
<g >
</g>
<g >
</g>
<g >
</g>
<g >
</g>
<g >
</g>
<g >
</g>
<g >
</g>
<g >
</g>
<g >
</g>
<g >
</g>
<g >
</g>
<g >
</g>
<g >
</g>
<g >
</g>
<g >
</g>
<g >
</g>
<g >
</g>
<g >
</g>
<g >
</g>
<g >
</g>
<g >
</g>
<g >
</g>
<g >
</g>
<g >
</g>
<g >
</g>
<g >
</g>
<g >
</g>
<g >
</g>
<g >
</g>
<g >
</g>
<g >
</g>
<g >
</g>
<g >
</g>
<g >
</g>
<g >
</g>
<g >
</g>
<g >
</g>
<g >
</g>
<g >
</g>
<g >
</g>
<g >
</g>
<g >
</g>
<g >
</g>
<g >
</g>
<g >
</g>
<g >
</g>
<g >
</g>
<g >
</g>
<g >
</g>
<g >
</g>
<g >
</g>
<g >
</g>
<g >
</g>
<g >
</g>
<g >
</g>
<g >
</g>
<g >
</g>
<g >
</g>
<g >
</g>
<g >
</g>
<g >
</g>
<g >
</g>
<g >
</g>
<g >
</g>
<g >
</g>
<g >
</g>
<g >
</g>
<g >
</g>
<g >
</g>
<g >
</g>
<g >
</g>
<g >
</g>
<g >
</g>
<g >
</g>
<g >
</g>
<g >
</g>
<g >
</g>
<g >
</g>
<g >
</g>
<g >
</g>
<g >
</g>
<g >
</g>
<g >
</g>
<g >
</g>
<g >
</g>
<g >
</g>
<g >
</g>
<g >
</g>
<g >
</g>
<g >
</g>
<g >
</g>
<g >
</g>
<g >
</g>
<g >
</g>
<g >
</g>
<g >
</g>
<g >
</g>
<g >
</g>
<g >
</g>
<g >
</g>
<g >
</g>
<g >
</g>
<g >
</g>
<g >
</g>
<g >
</g>
<g >
</g>
<g >
</g>
<g >
</g>
<g >
</g>
<g >
</g>
<g >
</g>
<g >
</g>
<g >
</g>
<g >
</g>
<g >
</g>
<g >
</g>
<g >
</g>
<g >
</g>
<g >
</g>
<g >
</g>
<g >
</g>
<g >
</g>
<g >
</g>
<g >
</g>
<g >
</g>
<g >
</g>
<g >
</g>
<g >
</g>
<g >
</g>
<g >
</g>
<g >
</g>
<g >
</g>
<g >
</g>
<g >
</g>
<g >
</g>
<g >
</g>
<g >
</g>
<g >
</g>
<g >
</g>
<g >
</g>
<g >
</g>
<g >
</g>
<g >
</g>
<g >
</g>
<g >
</g>
<g >
</g>
<g >
</g>
<g >
</g>
<g >
</g>
<g >
</g>
<g >
</g>
<g >
</g>
<g >
</g>
<g >
</g>
<g >
</g>
<g >
</g>
<g >
</g>
<g >
</g>
<g >
</g>
<g >
</g>
<g >
</g>
<g >
</g>
<g >
</g>
<g >
</g>
<g >
</g>
<g >
</g>
<g >
</g>
<g >
</g>
<g >
</g>
<g >
</g>
<g >
</g>
<g >
</g>
<g >
</g>
<g >
</g>
<g >
</g>
<g >
</g>
<g >
</g>
<g >
</g>
<g >
</g>
<g >
</g>
</g> 
</svg>
