<?xml version="1.0" standalone="no"?>
 <!DOCTYPE svg PUBLIC "-//W3C//DTD SVG 1.1//EN" 
 "http://www.w3.org/Graphics/SVG/1.1/DTD/svg11.dtd"> 
<svg
  xmlns:svg="http://www.w3.org/2000/svg"
  xmlns="http://www.w3.org/2000/svg"
  xmlns:xlink="http://www.w3.org/1999/xlink"
  version="1.1"
  width="51.417220cm" height="33.505140cm" viewBox="0 0 202430 131910">
<title>SVG Picture created as Motherboard-F_CrtYd.svg date 2022/05/05 11:05:14 </title>
  <desc>Picture generated by PCBNEW </desc>
<g style="fill:#000000; fill-opacity:1;stroke:#000000; stroke-opacity:1;
stroke-linecap:round; stroke-linejoin:round;"
 transform="translate(0 0) scale(1 1)">
</g>
<g style="fill:#000000; fill-opacity:0.0; 
stroke:#000000; stroke-width:-0.000393701; stroke-opacity:1; 
stroke-linecap:round; stroke-linejoin:round;">
</g>
<g style="fill:#C2C2C2; fill-opacity:0.0; 
stroke:#C2C2C2; stroke-width:-0.000393701; stroke-opacity:1; 
stroke-linecap:round; stroke-linejoin:round;">
</g>
<g style="fill:#C2C2C2; fill-opacity:0.0; 
stroke:#C2C2C2; stroke-width:19.685; stroke-opacity:1; 
stroke-linecap:round; stroke-linejoin:round;">
<path d="M61609 37398
L61609 40153
" />
<path d="M61510 40252
L57967 40252
" />
<path d="M57869 40153
L57869 37398
" />
<path d="M57967 37299
L61510 37299
" />
<path d="M57869 40252
L57967 40252
" />
<path d="M57869 40153
L57869 40252
" />
<path d="M57869 37299
L57967 37299
" />
<path d="M57869 37398
L57869 37299
" />
<path d="M61609 37299
L61609 37398
" />
<path d="M61510 37299
L61609 37299
" />
<path d="M61609 40252
L61609 40153
" />
<path d="M61510 40252
L61609 40252
" />
<path d="M73208 39097
L77893 35947
" />
<path d="M73208 29294
L77893 32443
" />
<path d="M68248 39097
L63562 35947
" />
<path d="M68248 29294
L63562 32443
" />
<path d="M77852.9 35975.6 A2135.17 2135.17 0.0 0 0 77893.7 32443.9" />
<path d="M63563 32443.9 A2135.17 2135.17 0.0 0 0 63603.8 35975.6" />
<path d="M68248 39097.4 A5493.4 5493.4 0.0 0 0 73235.9 39083.6" />
<path d="M73235.9 29308.2 A5493.4 5493.4 0.0 0 0 68248 29294.3" />
<path d="M123354 108711
L123354 100853
" />
<path d="M123814 108711
L123354 108711
" />
<path d="M123814 125932
L123814 108711
" />
<path d="M133224 125932
L123814 125932
" />
<path d="M133224 105695
L133224 125932
" />
<path d="M125559 105695
L133224 105695
" />
<path d="M125559 100853
L125559 105695
" />
<path d="M123354 100853
L125559 100853
" />
<path d="M96362 109660
L92149 109660
" />
<path d="M96362 116924
L96362 109660
" />
<path d="M92149 116924
L96362 116924
" />
<path d="M92149 109660
L92149 116924
" />
<path d="M94952 24810
L99086 24810
" />
<path d="M94952 16558
L94952 24810
" />
<path d="M99086 16558
L94952 16558
" />
<path d="M99086 24810
L99086 16558
" />
<path d="M31446 106503
L33257 106503
" />
<path d="M31446 105676
L31446 106503
" />
<path d="M33257 105676
L31446 105676
" />
<path d="M33257 106503
L33257 105676
" />
<path d="M16662 103303
L18473 103303
" />
<path d="M16662 102476
L16662 103303
" />
<path d="M18473 102476
L16662 102476
" />
<path d="M18473 103303
L18473 102476
" />
<path d="M37612 54203
L39423 54203
" />
<path d="M37612 53376
L37612 54203
" />
<path d="M39423 53376
L37612 53376
" />
<path d="M39423 54203
L39423 53376
" />
<path d="M41173 97626
L39362 97626
" />
<path d="M41173 98453
L41173 97626
" />
<path d="M39362 98453
L41173 98453
" />
<path d="M39362 97626
L39362 98453
" />
<path d="M93362 104203
L95173 104203
" />
<path d="M93362 103376
L93362 104203
" />
<path d="M95173 103376
L93362 103376
" />
<path d="M95173 104203
L95173 103376
" />
<path d="M93346 118953
L95157 118953
" />
<path d="M93346 118126
L93346 118953
" />
<path d="M95157 118126
L93346 118126
" />
<path d="M95157 118953
L95157 118126
" />
<path d="M57862 93703
L59673 93703
" />
<path d="M57862 92876
L57862 93703
" />
<path d="M59673 92876
L57862 92876
" />
<path d="M59673 93703
L59673 92876
" />
<path d="M6612 53703
L8423 53703
" />
<path d="M6612 52876
L6612 53703
" />
<path d="M8423 52876
L6612 52876
" />
<path d="M8423 53703
L8423 52876
" />
<path d="M47112 45703
L48923 45703
" />
<path d="M47112 44876
L47112 45703
" />
<path d="M48923 44876
L47112 44876
" />
<path d="M48923 45703
L48923 44876
" />
<path d="M51096 90126
L51096 91937
" />
<path d="M51923 90126
L51096 90126
" />
<path d="M51923 91937
L51923 90126
" />
<path d="M51096 91937
L51923 91937
" />
<path d="M85846 118953
L87657 118953
" />
<path d="M85846 118126
L85846 118953
" />
<path d="M87657 118126
L85846 118126
" />
<path d="M87657 118953
L87657 118126
" />
<path d="M147612 104453
L149423 104453
" />
<path d="M147612 103626
L147612 104453
" />
<path d="M149423 103626
L147612 103626
" />
<path d="M149423 104453
L149423 103626
" />
<path d="M26612 53703
L28423 53703
" />
<path d="M26612 52876
L26612 53703
" />
<path d="M28423 52876
L26612 52876
" />
<path d="M28423 53703
L28423 52876
" />
<path d="M127846 104203
L129657 104203
" />
<path d="M127846 103376
L127846 104203
" />
<path d="M129657 103376
L127846 103376
" />
<path d="M129657 104203
L129657 103376
" />
<path d="M78362 118953
L80173 118953
" />
<path d="M78362 118126
L78362 118953
" />
<path d="M80173 118126
L78362 118126
" />
<path d="M80173 118953
L80173 118126
" />
<path d="M40612 74103
L42423 74103
" />
<path d="M40612 73276
L40612 74103
" />
<path d="M42423 73276
L40612 73276
" />
<path d="M42423 74103
L42423 73276
" />
<path d="M22596 95142
L22596 96953
" />
<path d="M23423 95142
L22596 95142
" />
<path d="M23423 96953
L23423 95142
" />
<path d="M22596 96953
L23423 96953
" />
<path d="M71907 127876
L70096 127876
" />
<path d="M71907 128703
L71907 127876
" />
<path d="M70096 128703
L71907 128703
" />
<path d="M70096 127876
L70096 128703
" />
<path d="M107612 104453
L109423 104453
" />
<path d="M107612 103626
L107612 104453
" />
<path d="M109423 103626
L107612 103626
" />
<path d="M109423 104453
L109423 103626
" />
<path d="M19112 62703
L20923 62703
" />
<path d="M19112 61876
L19112 62703
" />
<path d="M20923 61876
L19112 61876
" />
<path d="M20923 62703
L20923 61876
" />
<path d="M183407 31626
L181596 31626
" />
<path d="M183407 32453
L183407 31626
" />
<path d="M181596 32453
L183407 32453
" />
<path d="M181596 31626
L181596 32453
" />
<path d="M177846 108203
L179657 108203
" />
<path d="M177846 107376
L177846 108203
" />
<path d="M179657 107376
L177846 107376
" />
<path d="M179657 108203
L179657 107376
" />
<path d="M12923 102437
L12923 100626
" />
<path d="M12096 102437
L12923 102437
" />
<path d="M12096 100626
L12096 102437
" />
<path d="M12923 100626
L12096 100626
" />
<path d="M50362 126703
L52173 126703
" />
<path d="M50362 125876
L50362 126703
" />
<path d="M52173 125876
L50362 125876
" />
<path d="M52173 126703
L52173 125876
" />
<path d="M157862 108203
L159673 108203
" />
<path d="M157862 107376
L157862 108203
" />
<path d="M159673 107376
L157862 107376
" />
<path d="M159673 108203
L159673 107376
" />
<path d="M117112 18203
L118923 18203
" />
<path d="M117112 17376
L117112 18203
" />
<path d="M118923 17376
L117112 17376
" />
<path d="M118923 18203
L118923 17376
" />
<path d="M12423 94937
L12423 93126
" />
<path d="M11596 94937
L12423 94937
" />
<path d="M11596 93126
L11596 94937
" />
<path d="M12423 93126
L11596 93126
" />
<path d="M199423 29937
L199423 28126
" />
<path d="M198596 29937
L199423 29937
" />
<path d="M198596 28126
L198596 29937
" />
<path d="M199423 28126
L198596 28126
" />
<path d="M125112 20203
L126923 20203
" />
<path d="M125112 19376
L125112 20203
" />
<path d="M126923 19376
L125112 19376
" />
<path d="M126923 20203
L126923 19376
" />
<path d="M18407 127876
L16596 127876
" />
<path d="M18407 128703
L18407 127876
" />
<path d="M16596 128703
L18407 128703
" />
<path d="M16596 127876
L16596 128703
" />
<path d="M137862 108203
L139673 108203
" />
<path d="M137862 107376
L137862 108203
" />
<path d="M139673 107376
L137862 107376
" />
<path d="M139673 108203
L139673 107376
" />
<path d="M147096 40953
L148907 40953
" />
<path d="M147096 40126
L147096 40953
" />
<path d="M148907 40126
L147096 40126
" />
<path d="M148907 40953
L148907 40126
" />
<path d="M125112 8703
L126923 8703
" />
<path d="M125112 7876
L125112 8703
" />
<path d="M126923 7876
L125112 7876
" />
<path d="M126923 8703
L126923 7876
" />
<path d="M172923 29937
L172923 28126
" />
<path d="M172096 29937
L172923 29937
" />
<path d="M172096 28126
L172096 29937
" />
<path d="M172923 28126
L172096 28126
" />
<path d="M2423 87453
L2423 85642
" />
<path d="M1596 87453
L2423 87453
" />
<path d="M1596 85642
L1596 87453
" />
<path d="M2423 85642
L1596 85642
" />
<path d="M168923 46687
L168923 44876
" />
<path d="M168096 46687
L168923 46687
" />
<path d="M168096 44876
L168096 46687
" />
<path d="M168923 44876
L168096 44876
" />
<path d="M136362 20203
L138173 20203
" />
<path d="M136362 19376
L136362 20203
" />
<path d="M138173 19376
L136362 19376
" />
<path d="M138173 20203
L138173 19376
" />
<path d="M117862 108203
L119673 108203
" />
<path d="M117862 107376
L117862 108203
" />
<path d="M119673 107376
L117862 107376
" />
<path d="M119673 108203
L119673 107376
" />
<path d="M147612 69203
L149423 69203
" />
<path d="M147612 68376
L147612 69203
" />
<path d="M149423 68376
L147612 68376
" />
<path d="M149423 69203
L149423 68376
" />
<path d="M141112 40953
L142923 40953
" />
<path d="M141112 40126
L141112 40953
" />
<path d="M142923 40126
L141112 40126
" />
<path d="M142923 40953
L142923 40126
" />
<path d="M136112 8703
L137923 8703
" />
<path d="M136112 7876
L136112 8703
" />
<path d="M137923 7876
L136112 7876
" />
<path d="M137923 8703
L137923 7876
" />
<path d="M99612 107953
L101423 107953
" />
<path d="M99612 107126
L99612 107953
" />
<path d="M101423 107126
L99612 107126
" />
<path d="M101423 107953
L101423 107126
" />
<path d="M134112 43703
L135923 43703
" />
<path d="M134112 42876
L134112 43703
" />
<path d="M135923 42876
L134112 42876
" />
<path d="M135923 43703
L135923 42876
" />
<path d="M107862 77953
L109673 77953
" />
<path d="M107862 77126
L107862 77953
" />
<path d="M109673 77126
L107862 77126
" />
<path d="M109673 77953
L109673 77126
" />
<path d="M135112 69203
L136923 69203
" />
<path d="M135112 68376
L135112 69203
" />
<path d="M136923 68376
L135112 68376
" />
<path d="M136923 69203
L136923 68376
" />
<path d="M160096 69203
L161907 69203
" />
<path d="M160096 68376
L160096 69203
" />
<path d="M161907 68376
L160096 68376
" />
<path d="M161907 69203
L161907 68376
" />
<path d="M167612 77703
L169423 77703
" />
<path d="M167612 76876
L167612 77703
" />
<path d="M169423 76876
L167612 76876
" />
<path d="M169423 77703
L169423 76876
" />
<path d="M127862 77953
L129673 77953
" />
<path d="M127862 77126
L127862 77953
" />
<path d="M129673 77126
L127862 77126
" />
<path d="M129673 77953
L129673 77126
" />
<path d="M122096 69203
L123907 69203
" />
<path d="M122096 68376
L122096 69203
" />
<path d="M123907 68376
L122096 68376
" />
<path d="M123907 69203
L123907 68376
" />
<path d="M188112 104453
L189923 104453
" />
<path d="M188112 103626
L188112 104453
" />
<path d="M189923 103626
L188112 103626
" />
<path d="M189923 104453
L189923 103626
" />
<path d="M147862 77953
L149673 77953
" />
<path d="M147862 77126
L147862 77953
" />
<path d="M149673 77126
L147862 77126
" />
<path d="M149673 77953
L149673 77126
" />
<path d="M167862 104203
L169673 104203
" />
<path d="M167862 103376
L167862 104203
" />
<path d="M169673 103376
L167862 103376
" />
<path d="M169673 104203
L169673 103376
" />
<circle cx="197760" cy="127790" r="1358.27" /> 
<circle cx="197760" cy="2790.2" r="1358.27" /> 
<circle cx="110260" cy="127790" r="1358.27" /> 
<circle cx="110260" cy="2790.2" r="1358.27" /> 
<circle cx="2759.69" cy="127790" r="1358.27" /> 
<circle cx="2759.69" cy="2790.2" r="1358.27" /> 
<path d="M61688 106195
L57830 106195
" />
<path d="M61688 129345
L61688 106195
" />
<path d="M57830 129345
L61688 129345
" />
<path d="M57830 106195
L57830 129345
" />
<path d="M46675 93378
L46675 101237
" />
<path d="M46214 93378
L46675 93378
" />
<path d="M46214 76158
L46214 93378
" />
<path d="M36804 76158
L46214 76158
" />
<path d="M36804 96394
L36804 76158
" />
<path d="M44470 96394
L36804 96394
" />
<path d="M44470 101237
L44470 96394
" />
<path d="M46675 101237
L44470 101237
" />
<path d="M96362 94910
L92149 94910
" />
<path d="M96362 102174
L96362 94910
" />
<path d="M92149 102174
L96362 102174
" />
<path d="M92149 94910
L92149 102174
" />
<path d="M123344 82189
L123344 74331
" />
<path d="M123804 82189
L123344 82189
" />
<path d="M123804 99410
L123804 82189
" />
<path d="M133214 99410
L123804 99410
" />
<path d="M133214 79174
L133214 99410
" />
<path d="M125549 79174
L133214 79174
" />
<path d="M125549 74331
L125549 79174
" />
<path d="M123344 74331
L125549 74331
" />
<path d="M193098 40624
L200956 40624
" />
<path d="M193098 41085
L193098 40624
" />
<path d="M169893 41085
L193098 41085
" />
<path d="M169893 50494
L169893 41085
" />
<path d="M196114 50494
L169893 50494
" />
<path d="M196114 42829
L196114 50494
" />
<path d="M200956 42829
L196114 42829
" />
<path d="M200956 40624
L200956 42829
" />
<path d="M102612 98660
L98399 98660
" />
<path d="M102612 105924
L102612 98660
" />
<path d="M98399 105924
L102612 105924
" />
<path d="M98399 98660
L98399 105924
" />
<path d="M180862 98910
L176649 98910
" />
<path d="M180862 106174
L180862 98910
" />
<path d="M176649 106174
L180862 106174
" />
<path d="M176649 98910
L176649 106174
" />
<path d="M160862 98910
L156649 98910
" />
<path d="M160862 106174
L160862 98910
" />
<path d="M156649 106174
L160862 106174
" />
<path d="M156649 98910
L156649 106174
" />
<path d="M140862 98910
L136649 98910
" />
<path d="M140862 106174
L140862 98910
" />
<path d="M136649 106174
L140862 106174
" />
<path d="M136649 98910
L136649 106174
" />
<path d="M120862 98910
L116649 98910
" />
<path d="M120862 106174
L120862 98910
" />
<path d="M116649 106174
L120862 106174
" />
<path d="M116649 98910
L116649 106174
" />
<path d="M113346 85130
L117173 85130
" />
<path d="M113346 83949
L113346 85130
" />
<path d="M117173 83949
L113346 83949
" />
<path d="M117173 85130
L117173 83949
" />
<path d="M181728 3341
L179326 3341
" />
<path d="M179326 3341
L179326 24739
" />
<path d="M179326 24739
L181728 24739
" />
<path d="M181728 24739
L181728 3341
" />
<path d="M139122 9920
L134909 9920
" />
<path d="M139122 18187
L139122 9920
" />
<path d="M134909 18187
L139122 18187
" />
<path d="M134909 9920
L134909 18187
" />
<path d="M163344 82201
L163344 74343
" />
<path d="M163804 82201
L163344 82201
" />
<path d="M163804 99422
L163804 82201
" />
<path d="M173214 99422
L163804 99422
" />
<path d="M173214 79185
L173214 99422
" />
<path d="M165549 79185
L173214 79185
" />
<path d="M165549 74343
L165549 79185
" />
<path d="M163344 74343
L165549 74343
" />
<path d="M143391 82189
L143391 74331
" />
<path d="M143852 82189
L143391 82189
" />
<path d="M143852 99410
L143852 82189
" />
<path d="M153261 99410
L143852 99410
" />
<path d="M153261 79174
L153261 99410
" />
<path d="M145596 79174
L153261 79174
" />
<path d="M145596 74331
L145596 79174
" />
<path d="M143391 74331
L145596 74331
" />
<path d="M103354 82189
L103354 74331
" />
<path d="M103814 82189
L103354 82189
" />
<path d="M103814 99410
L103814 82189
" />
<path d="M113224 99410
L103814 99410
" />
<path d="M113224 79174
L113224 99410
" />
<path d="M105558 79174
L113224 79174
" />
<path d="M105558 74331
L105558 79174
" />
<path d="M103354 74331
L105558 74331
" />
<path d="M164623 52910
L157399 52910
" />
<path d="M164623 67181
L164623 52910
" />
<path d="M157399 67181
L164623 67181
" />
<path d="M157399 52910
L157399 67181
" />
<path d="M152123 52910
L144899 52910
" />
<path d="M152123 67181
L152123 52910
" />
<path d="M144899 67181
L152123 67181
" />
<path d="M144899 52910
L144899 67181
" />
<path d="M139623 52910
L132399 52910
" />
<path d="M139623 67181
L139623 52910
" />
<path d="M132399 67181
L139623 67181
" />
<path d="M132399 52910
L132399 67181
" />
<path d="M173346 85130
L177173 85130
" />
<path d="M173346 83949
L173346 85130
" />
<path d="M177173 83949
L173346 83949
" />
<path d="M177173 85130
L177173 83949
" />
<path d="M153346 85130
L157173 85130
" />
<path d="M153346 83949
L153346 85130
" />
<path d="M157173 83949
L153346 83949
" />
<path d="M157173 85130
L157173 83949
" />
<path d="M133346 85130
L137173 85130
" />
<path d="M133346 83949
L133346 85130
" />
<path d="M137173 83949
L133346 83949
" />
<path d="M137173 85130
L137173 83949
" />
<path d="M151468 3331
L149066 3331
" />
<path d="M149066 3331
L149066 24729
" />
<path d="M149066 24729
L151468 24729
" />
<path d="M151468 24729
L151468 3331
" />
<path d="M60862 84410
L56649 84410
" />
<path d="M60862 91674
L60862 84410
" />
<path d="M56649 91674
L60862 91674
" />
<path d="M56649 84410
L56649 91674
" />
<path d="M150112 42160
L145899 42160
" />
<path d="M150112 49424
L150112 42160
" />
<path d="M145899 49424
L150112 49424
" />
<path d="M145899 42160
L145899 49424
" />
<path d="M137112 34660
L132899 34660
" />
<path d="M137112 41924
L137112 34660
" />
<path d="M132899 41924
L137112 41924
" />
<path d="M132899 34660
L132899 41924
" />
<path d="M144112 42160
L139899 42160
" />
<path d="M144112 49424
L144112 42160
" />
<path d="M139899 49424
L144112 49424
" />
<path d="M139899 42160
L139899 49424
" />
<path d="M69991 21860
L65928 21860
" />
<path d="M69991 23120
L69991 21860
" />
<path d="M65928 23120
L69991 23120
" />
<path d="M65928 21860
L65928 23120
" />
<path d="M65689 21581
L65689 17518
" />
<path d="M64429 21581
L65689 21581
" />
<path d="M64429 17518
L64429 21581
" />
<path d="M65689 17518
L64429 17518
" />
<path d="M71489 21581
L71489 17518
" />
<path d="M70229 21581
L71489 21581
" />
<path d="M70229 17518
L70229 21581
" />
<path d="M71489 17518
L70229 17518
" />
<path d="M69991 16060
L65928 16060
" />
<path d="M69991 17320
L69991 16060
" />
<path d="M65928 17320
L69991 17320
" />
<path d="M65928 16060
L65928 17320
" />
<path d="M21649 97152
L21649 92939
" />
<path d="M13381 97152
L21649 97152
" />
<path d="M13381 92939
L13381 97152
" />
<path d="M21649 92939
L13381 92939
" />
<path d="M183354 108711
L183354 100853
" />
<path d="M183814 108711
L183354 108711
" />
<path d="M183814 125932
L183814 108711
" />
<path d="M193224 125932
L183814 125932
" />
<path d="M193224 105695
L193224 125932
" />
<path d="M185559 105695
L193224 105695
" />
<path d="M185559 100853
L185559 105695
" />
<path d="M183354 100853
L185559 100853
" />
<path d="M163354 108711
L163354 100853
" />
<path d="M163814 108711
L163354 108711
" />
<path d="M163814 125932
L163814 108711
" />
<path d="M173224 125932
L163814 125932
" />
<path d="M173224 105695
L173224 125932
" />
<path d="M165559 105695
L173224 105695
" />
<path d="M165559 100853
L165559 105695
" />
<path d="M163354 100853
L165559 100853
" />
<path d="M143354 108711
L143354 100853
" />
<path d="M143814 108711
L143354 108711
" />
<path d="M143814 125932
L143814 108711
" />
<path d="M153224 125932
L143814 125932
" />
<path d="M153224 105695
L153224 125932
" />
<path d="M145559 105695
L153224 105695
" />
<path d="M145559 100853
L145559 105695
" />
<path d="M143354 100853
L145559 100853
" />
<path d="M64854 103951
L64854 96093
" />
<path d="M65314 103951
L64854 103951
" />
<path d="M65314 127156
L65314 103951
" />
<path d="M74724 127156
L65314 127156
" />
<path d="M74724 100935
L74724 127156
" />
<path d="M67059 100935
L74724 100935
" />
<path d="M67059 96093
L67059 100935
" />
<path d="M64854 96093
L67059 96093
" />
<path d="M27354 110711
L27354 102853
" />
<path d="M27814 110711
L27354 110711
" />
<path d="M27814 127932
L27814 110711
" />
<path d="M37224 127932
L27814 127932
" />
<path d="M37224 107695
L37224 127932
" />
<path d="M29559 107695
L37224 107695
" />
<path d="M29559 102853
L29559 107695
" />
<path d="M27354 102853
L29559 102853
" />
<path d="M14854 66711
L14854 58853
" />
<path d="M15314 66711
L14854 66711
" />
<path d="M15314 89916
L15314 66711
" />
<path d="M24724 89916
L15314 89916
" />
<path d="M24724 63695
L24724 89916
" />
<path d="M17059 63695
L24724 63695
" />
<path d="M17059 58853
L17059 63695
" />
<path d="M14854 58853
L17059 58853
" />
<path d="M103354 108711
L103354 100853
" />
<path d="M103814 108711
L103354 108711
" />
<path d="M103814 125932
L103814 108711
" />
<path d="M113224 125932
L103814 125932
" />
<path d="M113224 105695
L113224 125932
" />
<path d="M105559 105695
L113224 105695
" />
<path d="M105559 100853
L105559 105695
" />
<path d="M103354 100853
L105559 100853
" />
<path d="M2846 118148
L11192 118148
" />
<path d="M2846 112951
L2846 118148
" />
<path d="M11192 112951
L2846 112951
" />
<path d="M11192 118148
L11192 112951
" />
<path d="M12846 49148
L21192 49148
" />
<path d="M12846 43951
L12846 49148
" />
<path d="M21192 43951
L12846 43951
" />
<path d="M21192 49148
L21192 43951
" />
<path d="M174129 26937
L174129 31150
" />
<path d="M181393 26937
L174129 26937
" />
<path d="M181393 31150
L181393 26937
" />
<path d="M174129 31150
L181393 31150
" />
<path d="M3629 91937
L3629 96150
" />
<path d="M10893 91937
L3629 91937
" />
<path d="M10893 96150
L10893 91937
" />
<path d="M3629 96150
L10893 96150
" />
<path d="M88862 109660
L84649 109660
" />
<path d="M88862 116924
L88862 109660
" />
<path d="M84649 116924
L88862 116924
" />
<path d="M84649 109660
L84649 116924
" />
<path d="M3629 99437
L3629 103650
" />
<path d="M10893 99437
L3629 99437
" />
<path d="M10893 103650
L10893 99437
" />
<path d="M3629 103650
L10893 103650
" />
<path d="M81362 109670
L77149 109670
" />
<path d="M81362 116934
L81362 109670
" />
<path d="M77149 116934
L81362 116934
" />
<path d="M77149 109670
L77149 116934
" />
<path d="M190590 26829
L190590 31042
" />
<path d="M197854 26829
L190590 26829
" />
<path d="M197854 31042
L197854 26829
" />
<path d="M190590 31042
L197854 31042
" />
<path d="M19612 104660
L15399 104660
" />
<path d="M19612 111924
L19612 104660
" />
<path d="M15399 111924
L19612 111924
" />
<path d="M15399 104660
L15399 111924
" />
<path d="M53362 116410
L49149 116410
" />
<path d="M53362 124677
L53362 116410
" />
<path d="M49149 124677
L53362 124677
" />
<path d="M49149 116410
L49149 124677
" />
<path d="M21133 114420
L13909 114420
" />
<path d="M21133 126684
L21133 114420
" />
<path d="M13909 126684
L21133 126684
" />
<path d="M13909 114420
L13909 126684
" />
<path d="M50602 46939
L46448 46939
" />
<path d="M50602 51152
L50602 46939
" />
<path d="M46448 51152
L50602 51152
" />
<path d="M46448 46939
L46448 51152
" />
<path d="M182389 26927
L182389 31140
" />
<path d="M189653 26927
L182389 26927
" />
<path d="M189653 31140
L189653 26927
" />
<path d="M182389 31140
L189653 31140
" />
<path d="M29622 44420
L25409 44420
" />
<path d="M29622 51684
L29622 44420
" />
<path d="M25409 51684
L29622 51684
" />
<path d="M25409 44420
L25409 51684
" />
<path d="M40622 44920
L36409 44920
" />
<path d="M40622 52184
L40622 44920
" />
<path d="M36409 52184
L40622 52184
" />
<path d="M36409 44920
L36409 52184
" />
<path d="M3629 84437
L3629 88650
" />
<path d="M10893 84437
L3629 84437
" />
<path d="M10893 88650
L10893 84437
" />
<path d="M3629 88650
L10893 88650
" />
<path d="M139122 21420
L134909 21420
" />
<path d="M139122 31676
L139122 21420
" />
<path d="M134909 31676
L139122 31676
" />
<path d="M134909 21420
L134909 31676
" />
<path d="M128122 21420
L123909 21420
" />
<path d="M128122 31676
L128122 21420
" />
<path d="M123909 31676
L128122 31676
" />
<path d="M123909 21420
L123909 31676
" />
<path d="M120112 19410
L115899 19410
" />
<path d="M120112 26674
L120112 19410
" />
<path d="M115899 26674
L120112 26674
" />
<path d="M115899 19410
L115899 26674
" />
<path d="M99086 2290
L94952 2290
" />
<path d="M99086 10542
L99086 2290
" />
<path d="M94952 10542
L99086 10542
" />
<path d="M94952 2290
L94952 10542
" />
<path d="M86180 33439
L82027 33439
" />
<path d="M86180 37652
L86180 33439
" />
<path d="M82027 37652
L86180 37652
" />
<path d="M82027 33439
L82027 37652
" />
<path d="M126623 52910
L119399 52910
" />
<path d="M126623 67181
L126623 52910
" />
<path d="M119399 67181
L126623 67181
" />
<path d="M119399 52910
L119399 67181
" />
<path d="M9612 44410
L5399 44410
" />
<path d="M9612 51674
L9612 44410
" />
<path d="M5399 51674
L9612 51674
" />
<path d="M5399 44410
L5399 51674
" />
<path d="M43622 62920
L39409 62920
" />
<path d="M43622 73176
L43622 62920
" />
<path d="M39409 73176
L43622 73176
" />
<path d="M39409 62920
L39409 73176
" />
<path d="M128122 9920
L123909 9920
" />
<path d="M128122 18187
L128122 9920
" />
<path d="M123909 18187
L128122 18187
" />
<path d="M123909 9920
L123909 18187
" />
<path d="M55112 82410
L50899 82410
" />
<path d="M55112 89674
L55112 82410
" />
<path d="M50899 89674
L55112 89674
" />
<path d="M50899 82410
L50899 89674
" />
<path d="M82952 24810
L87086 24810
" />
<path d="M82952 16558
L82952 24810
" />
<path d="M87086 16558
L82952 16558
" />
<path d="M87086 24810
L87086 16558
" />
<path d="M60818 27050
L44047 27050
" />
<path d="M60818 27050
L60818 7207
" />
<path d="M44047 7207
L44047 27050
" />
<path d="M44047 7207
L60818 7207
" />
<path d="M45169 48058
L45169 50813
" />
<path d="M45070 50912
L41527 50912
" />
<path d="M41429 50813
L41429 48058
" />
<path d="M41527 47959
L45070 47959
" />
<path d="M41429 50912
L41527 50912
" />
<path d="M41429 50813
L41429 50912
" />
<path d="M41429 47959
L41527 47959
" />
<path d="M41429 48058
L41429 47959
" />
<path d="M45169 47959
L45169 48058
" />
<path d="M45070 47959
L45169 47959
" />
<path d="M45169 50912
L45169 50813
" />
<path d="M45070 50912
L45169 50912
" />
<path d="M81169 8558
L81169 11313
" />
<path d="M81070 11412
L77527 11412
" />
<path d="M77429 11313
L77429 8558
" />
<path d="M77527 8459
L81070 8459
" />
<path d="M77429 11412
L77527 11412
" />
<path d="M77429 11313
L77429 11412
" />
<path d="M77429 8459
L77527 8459
" />
<path d="M77429 8558
L77429 8459
" />
<path d="M81169 8459
L81169 8558
" />
<path d="M81070 8459
L81169 8459
" />
<path d="M81169 11412
L81169 11313
" />
<path d="M81070 11412
L81169 11412
" />
<path d="M73346 8262
L75433 8262
" />
<path d="M73346 11806
L73346 8262
" />
<path d="M75433 11806
L73346 11806
" />
<path d="M75433 8262
L75433 11806
" />
<path d="M194096 111630
L197923 111630
" />
<path d="M194096 110449
L194096 111630
" />
<path d="M197923 110449
L194096 110449
" />
<path d="M197923 111630
L197923 110449
" />
<path d="M174096 111630
L177923 111630
" />
<path d="M174096 110449
L174096 111630
" />
<path d="M177923 110449
L174096 110449
" />
<path d="M177923 111630
L177923 110449
" />
<path d="M153846 111630
L157673 111630
" />
<path d="M153846 110449
L153846 111630
" />
<path d="M157673 110449
L153846 110449
" />
<path d="M157673 111630
L157673 110449
" />
<path d="M49433 56459
L45606 56459
" />
<path d="M49433 57640
L49433 56459
" />
<path d="M45606 57640
L49433 57640
" />
<path d="M45606 56459
L45606 57640
" />
<path d="M49433 53959
L45606 53959
" />
<path d="M49433 55140
L49433 53959
" />
<path d="M45606 55140
L49433 55140
" />
<path d="M45606 53959
L45606 55140
" />
<path d="M133846 111630
L137673 111630
" />
<path d="M133846 110449
L133846 111630
" />
<path d="M137673 110449
L133846 110449
" />
<path d="M137673 111630
L137673 110449
" />
<path d="M6606 73640
L10433 73640
" />
<path d="M6606 72459
L6606 73640
" />
<path d="M10433 72459
L6606 72459
" />
<path d="M10433 73640
L10433 72459
" />
<path d="M2106 71640
L5933 71640
" />
<path d="M2106 70459
L2106 71640
" />
<path d="M5933 70459
L2106 70459
" />
<path d="M5933 71640
L5933 70459
" />
<path d="M3419 65626
L3419 69453
" />
<path d="M4600 65626
L3419 65626
" />
<path d="M4600 69453
L4600 65626
" />
<path d="M3419 69453
L4600 69453
" />
<path d="M117673 110449
L113846 110449
" />
<path d="M117673 111630
L117673 110449
" />
<path d="M113846 111630
L117673 111630
" />
<path d="M113846 110449
L113846 111630
" />
<path d="M32336 91620
L36163 91620
" />
<path d="M32336 90439
L32336 91620
" />
<path d="M36163 90439
L32336 90439
" />
<path d="M36163 91620
L36163 90439
" />
<path d="M77429 15636
L77429 19463
" />
<path d="M78610 15636
L77429 15636
" />
<path d="M78610 19463
L78610 15636
" />
<path d="M77429 19463
L78610 19463
" />
<path d="M87433 29959
L83606 29959
" />
<path d="M87433 31140
L87433 29959
" />
<path d="M83606 31140
L87433 31140
" />
<path d="M83606 29959
L83606 31140
" />
<path d="M88610 37463
L88610 33636
" />
<path d="M87429 37463
L88610 37463
" />
<path d="M87429 33636
L87429 37463
" />
<path d="M88610 33636
L87429 33636
" />
<path d="M82933 25959
L79106 25959
" />
<path d="M82933 27140
L82933 25959
" />
<path d="M79106 27140
L82933 27140
" />
<path d="M79106 25959
L79106 27140
" />
<path d="M87429 6636
L87429 10463
" />
<path d="M88610 6636
L87429 6636
" />
<path d="M88610 10463
L88610 6636
" />
<path d="M87429 10463
L88610 10463
" />
<path d="M82429 6636
L82429 10463
" />
<path d="M83610 6636
L82429 6636
" />
<path d="M83610 10463
L83610 6636
" />
<path d="M82429 10463
L83610 10463
" />
<path d="M92429 6636
L92429 10463
" />
<path d="M93610 6636
L92429 6636
" />
<path d="M93610 10463
L93610 6636
" />
<path d="M92429 10463
L93610 10463
" />
<path d="M120110 8463
L120110 4636
" />
<path d="M118929 8463
L120110 8463
" />
<path d="M118929 4636
L118929 8463
" />
<path d="M120110 4636
L118929 4636
" />
<path d="M117610 8463
L117610 4636
" />
<path d="M116429 8463
L117610 8463
" />
<path d="M116429 4636
L116429 8463
" />
<path d="M117610 4636
L116429 4636
" />
<path d="M115110 8463
L115110 4636
" />
<path d="M113929 8463
L115110 8463
" />
<path d="M113929 4636
L113929 8463
" />
<path d="M115110 4636
L113929 4636
" />
<path d="M112610 8463
L112610 4636
" />
<path d="M111429 8463
L112610 8463
" />
<path d="M111429 4636
L111429 8463
" />
<path d="M112610 4636
L111429 4636
" />
<path d="M110110 8463
L110110 4636
" />
<path d="M108929 8463
L110110 8463
" />
<path d="M108929 4636
L108929 8463
" />
<path d="M110110 4636
L108929 4636
" />
<path d="M107610 8463
L107610 4636
" />
<path d="M106429 8463
L107610 8463
" />
<path d="M106429 4636
L106429 8463
" />
<path d="M107610 4636
L106429 4636
" />
<path d="M105110 8463
L105110 4636
" />
<path d="M103929 8463
L105110 8463
" />
<path d="M103929 4636
L103929 8463
" />
<path d="M105110 4636
L103929 4636
" />
<path d="M102610 8463
L102610 4636
" />
<path d="M101429 8463
L102610 8463
" />
<path d="M101429 4636
L101429 8463
" />
<path d="M102610 4636
L101429 4636
" />
<path d="M77086 20290
L72952 20290
" />
<path d="M77086 28542
L77086 20290
" />
<path d="M72952 28542
L77086 28542
" />
<path d="M72952 20290
L72952 28542
" />
<path d="M42311 5597
L37905 5597
" />
<path d="M42311 5597
L42311 502
" />
<path d="M37905 502
L37905 5597
" />
<path d="M37905 502
L42311 502
" />
<path d="M178218 32831
L176801 32831
" />
<path d="M178218 36237
L178218 32831
" />
<path d="M176801 36237
L178218 36237
" />
<path d="M176801 32831
L176801 36237
" />
<path d="M23728 53341
L22311 53341
" />
<path d="M23728 55762
L23728 53341
" />
<path d="M22311 55762
L23728 55762
" />
<path d="M22311 53341
L22311 55762
" />
<path d="M18728 53341
L17311 53341
" />
<path d="M18728 55762
L18728 53341
" />
<path d="M17311 55762
L18728 55762
" />
<path d="M17311 53341
L17311 55762
" />
<path d="M13728 53341
L12311 53341
" />
<path d="M13728 55762
L13728 53341
" />
<path d="M12311 55762
L13728 55762
" />
<path d="M12311 53341
L12311 55762
" />
<path d="M10811 67341
L10811 68758
" />
<path d="M13232 67341
L10811 67341
" />
<path d="M13232 68758
L13232 67341
" />
<path d="M10811 68758
L13232 68758
" />
<path d="M4811 76758
L6228 76758
" />
<path d="M4811 74337
L4811 76758
" />
<path d="M6228 74337
L4811 74337
" />
<path d="M6228 76758
L6228 74337
" />
<path d="M9311 76758
L10728 76758
" />
<path d="M9311 74337
L9311 76758
" />
<path d="M10728 74337
L9311 74337
" />
<path d="M10728 76758
L10728 74337
" />
<path d="M191728 3341
L189326 3341
" />
<path d="M189326 3341
L189326 24739
" />
<path d="M189326 24739
L191728 24739
" />
<path d="M191728 24739
L191728 3341
" />
<path d="M161728 3341
L159326 3341
" />
<path d="M159326 3341
L159326 24739
" />
<path d="M159326 24739
L161728 24739
" />
<path d="M161728 24739
L161728 3341
" />
<path d="M171728 3341
L169326 3341
" />
<path d="M169326 3341
L169326 24739
" />
<path d="M169326 24739
L171728 24739
" />
<path d="M171728 24739
L171728 3341
" />
<path d="M196448 35258
L185051 35258
" />
<path d="M196448 32857
L196448 35258
" />
<path d="M185051 32857
L196448 32857
" />
<path d="M185051 35258
L185051 32857
" />
<path d="M4311 124337
L4311 126758
" />
<path d="M9724 124337
L4311 124337
" />
<path d="M9724 126758
L9724 124337
" />
<path d="M4311 126758
L9724 126758
" />
<path d="M65649 538
L69389 538
" />
<path d="M65649 4081
L65649 538
" />
<path d="M64862 4081
L65649 4081
" />
<path d="M64862 5656
L64862 4081
" />
<path d="M65649 5656
L64862 5656
" />
<path d="M65649 6443
L65649 5656
" />
<path d="M66732 6443
L65649 6443
" />
<path d="M66732 6837
L66732 6443
" />
<path d="M68307 6837
L66732 6837
" />
<path d="M68307 6443
L68307 6837
" />
<path d="M69291 6443
L68307 6443
" />
<path d="M69389 6443
L69389 538
" />
<path d="M69291 6443
L69389 6443
" />
<path d="M32031 2502
L36007 2502
" />
<path d="M32031 12739
L32031 2502
" />
<path d="M36007 2502
L36007 12739
" />
<path d="M36007 12739
L32031 12739
" />
<path d="M89299 5821
L89299 3282
" />
<path d="M86740 5821
L89299 5821
" />
<path d="M86740 3282
L86740 5821
" />
<path d="M89299 3282
L86740 3282
" />
<path d="M84299 5821
L84299 3282
" />
<path d="M81740 5821
L84299 5821
" />
<path d="M81740 3282
L81740 5821
" />
<path d="M84299 3282
L81740 3282
" />
<path d="M94299 5821
L94299 3282
" />
<path d="M91740 5821
L94299 5821
" />
<path d="M91740 3282
L91740 5821
" />
<path d="M94299 3282
L91740 3282
" />
<circle cx="52519.7" cy="47558.1" r="1082.68" /> 
<circle cx="99519.7" cy="11558.1" r="1082.68" /> 
<circle cx="96511.8" cy="12040.2" r="1082.68" /> 
<circle cx="74511.8" cy="14050.2" r="1082.68" /> 
<path d="M52917 50136
L51106 50136
" />
<path d="M52917 50963
L52917 50136
" />
<path d="M51106 50963
L52917 50963
" />
<path d="M51106 50136
L51106 50963
" />
<path d="M45122 52963
L46933 52963
" />
<path d="M45122 52136
L45122 52963
" />
<path d="M46933 52136
L45122 52136
" />
<path d="M46933 52963
L46933 52136
" />
<path d="M95596 13142
L95596 14953
" />
<path d="M96423 13142
L95596 13142
" />
<path d="M96423 14953
L96423 13142
" />
<path d="M95596 14953
L96423 14953
" />
<path d="M97606 13152
L97606 14963
" />
<path d="M98433 13152
L97606 13152
" />
<path d="M98433 14963
L98433 13152
" />
<path d="M97606 14963
L98433 14963
" />
<path d="M84917 13636
L83106 13636
" />
<path d="M84917 14463
L84917 13636
" />
<path d="M83106 14463
L84917 14463
" />
<path d="M83106 13636
L83106 14463
" />
<path d="M85122 14463
L86933 14463
" />
<path d="M85122 13636
L85122 14463
" />
<path d="M86933 13636
L85122 13636
" />
<path d="M86933 14463
L86933 13636
" />
<g >
</g>
<g >
</g>
<g >
</g>
<g >
</g>
<g >
</g>
<g >
</g>
<g >
</g>
<g >
</g>
<g >
</g>
<g >
</g>
<g >
</g>
<g >
</g>
<g >
</g>
<g >
</g>
<g >
</g>
<g >
</g>
<g >
</g>
<g >
</g>
<g >
</g>
<g >
</g>
<g >
</g>
<g >
</g>
<g >
</g>
<g >
</g>
<g >
</g>
<g >
</g>
<g >
</g>
<g >
</g>
<g >
</g>
<g >
</g>
<g >
</g>
<g >
</g>
<g >
</g>
<g >
</g>
<g >
</g>
<g >
</g>
<g >
</g>
<g >
</g>
<g >
</g>
<g >
</g>
<g >
</g>
<g >
</g>
<g >
</g>
<g >
</g>
<g >
</g>
<g >
</g>
<g >
</g>
<g >
</g>
<g >
</g>
<g >
</g>
<g >
</g>
<g >
</g>
<g >
</g>
<g >
</g>
<g >
</g>
<g >
</g>
<g >
</g>
<g >
</g>
<g >
</g>
<g >
</g>
<g >
</g>
<g >
</g>
<g >
</g>
<g >
</g>
<g >
</g>
<g >
</g>
<g >
</g>
<g >
</g>
<g >
</g>
<g >
</g>
<g >
</g>
<g >
</g>
<g >
</g>
<g >
</g>
<g >
</g>
<g >
</g>
<g >
</g>
<g >
</g>
<g >
</g>
<g >
</g>
<g >
</g>
<g >
</g>
<g >
</g>
<g >
</g>
<g >
</g>
<g >
</g>
<g >
</g>
<g >
</g>
<g >
</g>
<g >
</g>
<g >
</g>
<g >
</g>
<g >
</g>
<g >
</g>
<g >
</g>
<g >
</g>
<g >
</g>
<g >
</g>
<g >
</g>
<g >
</g>
<g >
</g>
<g >
</g>
<g >
</g>
<g >
</g>
<g >
</g>
<g >
</g>
<g >
</g>
<g >
</g>
<g >
</g>
<g >
</g>
<g >
</g>
<g >
</g>
<g >
</g>
<g >
</g>
<g >
</g>
<g >
</g>
<g >
</g>
<g >
</g>
<g >
</g>
<g >
</g>
<g >
</g>
<g >
</g>
<g >
</g>
<g >
</g>
<g >
</g>
<g >
</g>
<g >
</g>
<g >
</g>
<g >
</g>
<g >
</g>
<g >
</g>
<g >
</g>
<g >
</g>
<g >
</g>
<g >
</g>
<g >
</g>
<g >
</g>
<g >
</g>
<g >
</g>
<g >
</g>
<g >
</g>
<g >
</g>
<g >
</g>
<g >
</g>
<g >
</g>
<g >
</g>
<g >
</g>
<g >
</g>
<g >
</g>
<g >
</g>
<g >
</g>
<g >
</g>
<g >
</g>
<g >
</g>
<g >
</g>
<g >
</g>
<g >
</g>
<g >
</g>
<g >
</g>
<g >
</g>
<g >
</g>
<g >
</g>
<g >
</g>
<g >
</g>
<g >
</g>
<g >
</g>
<g >
</g>
<g >
</g>
<g >
</g>
<g >
</g>
<g >
</g>
<g >
</g>
<g >
</g>
<g >
</g>
<g >
</g>
<g >
</g>
<g >
</g>
<g >
</g>
<g >
</g>
<g >
</g>
<g >
</g>
<g >
</g>
<g >
</g>
<g >
</g>
<g >
</g>
<g >
</g>
<g >
</g>
<g >
</g>
<g >
</g>
<g >
</g>
<g >
</g>
<g >
</g>
<g >
</g>
</g>
<g style="fill:#000000; fill-opacity:0.0; 
stroke:#000000; stroke-width:19.685; stroke-opacity:1; 
stroke-linecap:round; stroke-linejoin:round;">
</g>
<g style="fill:#C2C200; fill-opacity:0.0; 
stroke:#C2C200; stroke-width:19.685; stroke-opacity:1; 
stroke-linecap:round; stroke-linejoin:round;">
</g>
<g style="fill:#C2C200; fill-opacity:0.0; 
stroke:#C2C200; stroke-width:39.3701; stroke-opacity:1; 
stroke-linecap:round; stroke-linejoin:round;">
<path d="M200019 130050
L200019 120050
" />
<path d="M19 130050
L200019 130050
" />
<path d="M19 120050
L19 130050
" />
<path d="M200019 50
L200019 120050
" />
<path d="M200019 50
L19 50
" />
<path d="M19 120050
L19 50
" />
<g >
</g>
<g >
</g>
<g >
</g>
<g >
</g>
<g >
</g>
<g >
</g>
<g >
</g>
<g >
</g>
<g >
</g>
<g >
</g>
<g >
</g>
<g >
</g>
<g >
</g>
<g >
</g>
<g >
</g>
<g >
</g>
<g >
</g>
<g >
</g>
<g >
</g>
<g >
</g>
<g >
</g>
<g >
</g>
<g >
</g>
<g >
</g>
<g >
</g>
<g >
</g>
<g >
</g>
<g >
</g>
<g >
</g>
<g >
</g>
<g >
</g>
<g >
</g>
<g >
</g>
<g >
</g>
<g >
</g>
<g >
</g>
<g >
</g>
<g >
</g>
<g >
</g>
<g >
</g>
<g >
</g>
<g >
</g>
<g >
</g>
<g >
</g>
<g >
</g>
<g >
</g>
<g >
</g>
<g >
</g>
<g >
</g>
<g >
</g>
<g >
</g>
<g >
</g>
<g >
</g>
<g >
</g>
<g >
</g>
<g >
</g>
<g >
</g>
<g >
</g>
<g >
</g>
<g >
</g>
<g >
</g>
<g >
</g>
<g >
</g>
<g >
</g>
<g >
</g>
<g >
</g>
<g >
</g>
<g >
</g>
<g >
</g>
<g >
</g>
<g >
</g>
<g >
</g>
<g >
</g>
<g >
</g>
<g >
</g>
<g >
</g>
<g >
</g>
<g >
</g>
<g >
</g>
<g >
</g>
<g >
</g>
<g >
</g>
<g >
</g>
<g >
</g>
<g >
</g>
<g >
</g>
<g >
</g>
<g >
</g>
<g >
</g>
<g >
</g>
<g >
</g>
<g >
</g>
<g >
</g>
<g >
</g>
<g >
</g>
<g >
</g>
<g >
</g>
<g >
</g>
<g >
</g>
<g >
</g>
<g >
</g>
<g >
</g>
<g >
</g>
<g >
</g>
<g >
</g>
<g >
</g>
<g >
</g>
<g >
</g>
<g >
</g>
<g >
</g>
<g >
</g>
<g >
</g>
<g >
</g>
<g >
</g>
<g >
</g>
<g >
</g>
<g >
</g>
<g >
</g>
<g >
</g>
<g >
</g>
<g >
</g>
<g >
</g>
<g >
</g>
<g >
</g>
<g >
</g>
<g >
</g>
<g >
</g>
<g >
</g>
<g >
</g>
<g >
</g>
<g >
</g>
<g >
</g>
<g >
</g>
<g >
</g>
<g >
</g>
<g >
</g>
<g >
</g>
<g >
</g>
<g >
</g>
<g >
</g>
<g >
</g>
<g >
</g>
<g >
</g>
<g >
</g>
<g >
</g>
<g >
</g>
<g >
</g>
<g >
</g>
<g >
</g>
<g >
</g>
<g >
</g>
<g >
</g>
<g >
</g>
<g >
</g>
<g >
</g>
<g >
</g>
<g >
</g>
<g >
</g>
<g >
</g>
<g >
</g>
<g >
</g>
<g >
</g>
<g >
</g>
<g >
</g>
<g >
</g>
<g >
</g>
<g >
</g>
<g >
</g>
<g >
</g>
<g >
</g>
<g >
</g>
<g >
</g>
<g >
</g>
<g >
</g>
<g >
</g>
<g >
</g>
<g >
</g>
<g >
</g>
<g >
</g>
<g >
</g>
<g >
</g>
<g >
</g>
<g >
</g>
<g >
</g>
<g >
</g>
<g >
</g>
<g >
</g>
<g >
</g>
<g >
</g>
<g >
</g>
<g >
</g>
<g >
</g>
<g >
</g>
</g> 
</svg>
