<?xml version="1.0" standalone="no"?>
 <!DOCTYPE svg PUBLIC "-//W3C//DTD SVG 1.1//EN" 
 "http://www.w3.org/Graphics/SVG/1.1/DTD/svg11.dtd"> 
<svg
  xmlns:svg="http://www.w3.org/2000/svg"
  xmlns="http://www.w3.org/2000/svg"
  xmlns:xlink="http://www.w3.org/1999/xlink"
  version="1.1"
  width="67.310000cm" height="45.593000cm" viewBox="0 0 265000 179500">
<title>SVG Picture created as Motherboard-F_CrtYd.svg date 2022/04/22 03:15:18 </title>
  <desc>Picture generated by PCBNEW </desc>
<g style="fill:#000000; fill-opacity:1;stroke:#000000; stroke-opacity:1;
stroke-linecap:round; stroke-linejoin:round;"
 transform="translate(0 0) scale(1 1)">
</g>
<g style="fill:#000000; fill-opacity:0.0; 
stroke:#000000; stroke-width:-0.000393701; stroke-opacity:1; 
stroke-linecap:round; stroke-linejoin:round;">
</g>
<g style="fill:#C2C2C2; fill-opacity:0.0; 
stroke:#C2C2C2; stroke-width:-0.000393701; stroke-opacity:1; 
stroke-linecap:round; stroke-linejoin:round;">
</g>
<g style="fill:#C2C2C2; fill-opacity:0.0; 
stroke:#C2C2C2; stroke-width:19.685; stroke-opacity:1; 
stroke-linecap:round; stroke-linejoin:round;">
<path d="M203775 73275
L203775 94692
" />
<path d="M203775 94692
L206196 94692
" />
<path d="M206196 94692
L206196 73275
" />
<path d="M206196 73275
L203775 73275
" />
<path d="M223275 73275
L223275 94692
" />
<path d="M223275 94692
L225696 94692
" />
<path d="M225696 94692
L225696 73275
" />
<path d="M225696 73275
L223275 73275
" />
<path d="M233275 73275
L233275 94692
" />
<path d="M233275 94692
L235696 94692
" />
<path d="M235696 94692
L235696 73275
" />
<path d="M235696 73275
L233275 73275
" />
<path d="M243275 73275
L243275 94692
" />
<path d="M243275 94692
L245696 94692
" />
<path d="M245696 94692
L245696 73275
" />
<path d="M245696 73275
L243275 73275
" />
<path d="M213775 73275
L213775 94692
" />
<path d="M213775 94692
L216196 94692
" />
<path d="M216196 94692
L216196 73275
" />
<path d="M216196 73275
L213775 73275
" />
<circle cx="54984.3" cy="174484" r="1358.27" /> 
<circle cx="54984.3" cy="69484.3" r="1358.27" /> 
<circle cx="259984" cy="69484.3" r="1358.27" /> 
<circle cx="259984" cy="174484" r="1358.27" /> 
<circle cx="159984" cy="174484" r="1358.27" /> 
<circle cx="159984" cy="69484.3" r="1358.27" /> 
<path d="M53775 112275
L53775 117688
" />
<path d="M53775 117688
L56196 117688
" />
<path d="M56196 117688
L56196 112275
" />
<path d="M56196 112275
L53775 112275
" />
<path d="M161897 133074
L161897 131893
" />
<path d="M161897 131893
L158070 131893
" />
<path d="M158070 131893
L158070 133074
" />
<path d="M158070 133074
L161897 133074
" />
<path d="M91374 114854
L91374 125110
" />
<path d="M91374 125110
L95586 125110
" />
<path d="M95586 125110
L95586 114854
" />
<path d="M95586 114854
L91374 114854
" />
<path d="M247374 166354
L247374 173618
" />
<path d="M247374 173618
L251586 173618
" />
<path d="M251586 173618
L251586 166354
" />
<path d="M251586 166354
L247374 166354
" />
<path d="M126570 165397
L127397 165397
" />
<path d="M127397 165397
L127397 163586
" />
<path d="M127397 163586
L126570 163586
" />
<path d="M126570 163586
L126570 165397
" />
<path d="M116775 68775
L119177 68775
" />
<path d="M119177 68775
L119177 80173
" />
<path d="M119177 80173
L116775 80173
" />
<path d="M116775 80173
L116775 68775
" />
<path d="M75114 131874
L67850 131874
" />
<path d="M67850 131874
L67850 136086
" />
<path d="M67850 136086
L75114 136086
" />
<path d="M75114 136086
L75114 131874
" />
<path d="M172649 134822
L172649 142681
" />
<path d="M172188 134822
L172649 134822
" />
<path d="M172188 117602
L172188 134822
" />
<path d="M162779 117602
L172188 117602
" />
<path d="M162779 137838
L162779 117602
" />
<path d="M170444 137838
L162779 137838
" />
<path d="M170444 142681
L170444 137838
" />
<path d="M172649 142681
L170444 142681
" />
<path d="M189818 103145
L189818 95287
" />
<path d="M190279 103145
L189818 103145
" />
<path d="M190279 120366
L190279 103145
" />
<path d="M199688 120366
L190279 120366
" />
<path d="M199688 100129
L199688 120366
" />
<path d="M192023 100129
L199688 100129
" />
<path d="M192023 95287
L192023 100129
" />
<path d="M189818 95287
L192023 95287
" />
<path d="M120917 169724
L120917 177976
" />
<path d="M120917 177976
L125051 177976
" />
<path d="M125051 177976
L125051 169724
" />
<path d="M125051 169724
L120917 169724
" />
<path d="M67157 136582
L67157 131385
" />
<path d="M67157 131385
L58811 131385
" />
<path d="M58811 131385
L58811 136582
" />
<path d="M58811 136582
L67157 136582
" />
<path d="M145157 83082
L145157 77885
" />
<path d="M145157 77885
L136811 77885
" />
<path d="M136811 77885
L136811 83082
" />
<path d="M136811 83082
L145157 83082
" />
<path d="M249874 113354
L249874 120618
" />
<path d="M249874 120618
L254086 120618
" />
<path d="M254086 120618
L254086 113354
" />
<path d="M254086 113354
L249874 113354
" />
<path d="M252874 154854
L252874 162118
" />
<path d="M252874 162118
L257086 162118
" />
<path d="M257086 162118
L257086 154854
" />
<path d="M257086 154854
L252874 154854
" />
<path d="M249374 133854
L249374 141118
" />
<path d="M249374 141118
L253586 141118
" />
<path d="M253586 141118
L253586 133854
" />
<path d="M253586 133854
L249374 133854
" />
<path d="M239874 120354
L239874 127618
" />
<path d="M239874 127618
L244086 127618
" />
<path d="M244086 127618
L244086 120354
" />
<path d="M244086 120354
L239874 120354
" />
<path d="M98374 92354
L98374 100622
" />
<path d="M98374 100622
L102586 100622
" />
<path d="M102586 100622
L102586 92354
" />
<path d="M102586 92354
L98374 92354
" />
<path d="M239874 138354
L239874 145618
" />
<path d="M239874 145618
L244086 145618
" />
<path d="M244086 145618
L244086 138354
" />
<path d="M244086 138354
L239874 138354
" />
<path d="M249874 122854
L249874 130118
" />
<path d="M249874 130118
L254086 130118
" />
<path d="M254086 130118
L254086 122854
" />
<path d="M254086 122854
L249874 122854
" />
<path d="M246374 144354
L246374 151618
" />
<path d="M246374 151618
L250586 151618
" />
<path d="M250586 151618
L250586 144354
" />
<path d="M250586 144354
L246374 144354
" />
<path d="M239874 129354
L239874 136618
" />
<path d="M239874 136618
L244086 136618
" />
<path d="M244086 136618
L244086 129354
" />
<path d="M244086 129354
L239874 129354
" />
<path d="M208374 128354
L208374 136622
" />
<path d="M208374 136622
L212586 136622
" />
<path d="M212586 136622
L212586 128354
" />
<path d="M212586 128354
L208374 128354
" />
<path d="M114393 81874
L114393 102090
" />
<path d="M114393 102090
L121559 102090
" />
<path d="M121559 102090
L121559 81874
" />
<path d="M121559 81874
L114393 81874
" />
<path d="M240874 151854
L240874 159118
" />
<path d="M240874 159118
L245086 159118
" />
<path d="M245086 159118
L245086 151854
" />
<path d="M245086 151854
L240874 151854
" />
<path d="M210374 162354
L210374 170622
" />
<path d="M210374 170622
L214586 170622
" />
<path d="M214586 170622
L214586 162354
" />
<path d="M214586 162354
L210374 162354
" />
<path d="M57354 118594
L69618 118594
" />
<path d="M69618 118594
L69618 111370
" />
<path d="M69618 111370
L57354 111370
" />
<path d="M57354 111370
L57354 118594
" />
<path d="M216374 128354
L216374 136622
" />
<path d="M216374 136622
L220586 136622
" />
<path d="M220586 136622
L220586 128354
" />
<path d="M220586 128354
L216374 128354
" />
<path d="M236874 162354
L236874 176625
" />
<path d="M236874 176625
L244098 176625
" />
<path d="M244098 176625
L244098 162354
" />
<path d="M244098 162354
L236874 162354
" />
<path d="M134913 97874
L134913 102086
" />
<path d="M134913 102086
L139066 102086
" />
<path d="M139066 102086
L139066 97874
" />
<path d="M139066 97874
L134913 97874
" />
<path d="M74114 120874
L59842 120874
" />
<path d="M59842 120874
L59842 128098
" />
<path d="M59842 128098
L74114 128098
" />
<path d="M74114 128098
L74114 120874
" />
<path d="M146874 76354
L146874 83618
" />
<path d="M146874 83618
L151086 83618
" />
<path d="M151086 83618
L151086 76354
" />
<path d="M151086 76354
L146874 76354
" />
<path d="M134874 89354
L134874 96618
" />
<path d="M134874 96618
L139086 96618
" />
<path d="M139086 96618
L139086 89354
" />
<path d="M139086 89354
L134874 89354
" />
<path d="M201374 118354
L201374 126622
" />
<path d="M201374 126622
L205586 126622
" />
<path d="M205586 126622
L205586 118354
" />
<path d="M205586 118354
L201374 118354
" />
<path d="M114393 104374
L114393 124590
" />
<path d="M114393 124590
L121559 124590
" />
<path d="M121559 124590
L121559 104374
" />
<path d="M121559 104374
L114393 104374
" />
<path d="M107874 127354
L107874 135622
" />
<path d="M107874 135622
L112086 135622
" />
<path d="M112086 135622
L112086 127354
" />
<path d="M112086 127354
L107874 127354
" />
<path d="M101374 127354
L101374 134618
" />
<path d="M101374 134618
L105586 134618
" />
<path d="M105586 134618
L105586 127354
" />
<path d="M105586 127354
L101374 127354
" />
<path d="M96374 114854
L96374 125110
" />
<path d="M96374 125110
L100586 125110
" />
<path d="M100586 125110
L100586 114854
" />
<path d="M100586 114854
L96374 114854
" />
<path d="M104874 93354
L104874 100618
" />
<path d="M104874 100618
L109086 100618
" />
<path d="M109086 100618
L109086 93354
" />
<path d="M109086 93354
L104874 93354
" />
<path d="M107913 174374
L107913 178586
" />
<path d="M107913 178586
L112066 178586
" />
<path d="M112066 178586
L112066 174374
" />
<path d="M112066 174374
L107913 174374
" />
<path d="M166874 105854
L166874 116110
" />
<path d="M166874 116110
L171086 116110
" />
<path d="M171086 116110
L171086 105854
" />
<path d="M171086 105854
L166874 105854
" />
<path d="M191393 121874
L191393 136086
" />
<path d="M191393 136086
L198559 136086
" />
<path d="M198559 136086
L198559 121874
" />
<path d="M198559 121874
L191393 121874
" />
<path d="M216374 118354
L216374 125618
" />
<path d="M216374 125618
L220586 125618
" />
<path d="M220586 125618
L220586 118354
" />
<path d="M220586 118354
L216374 118354
" />
<path d="M104874 102854
L104874 110118
" />
<path d="M104874 110118
L109086 110118
" />
<path d="M109086 110118
L109086 102854
" />
<path d="M109086 102854
L104874 102854
" />
<path d="M128874 66854
L128874 74118
" />
<path d="M128874 74118
L133086 74118
" />
<path d="M133086 74118
L133086 66854
" />
<path d="M133086 66854
L128874 66854
" />
<path d="M96374 106354
L96374 114622
" />
<path d="M96374 114622
L100586 114622
" />
<path d="M100586 114622
L100586 106354
" />
<path d="M100586 106354
L96374 106354
" />
<path d="M95594 114614
L95594 106346
" />
<path d="M95594 106346
L91381 106346
" />
<path d="M91381 106346
L91381 114614
" />
<path d="M91381 114614
L95594 114614
" />
<path d="M208374 118354
L208374 125618
" />
<path d="M208374 125618
L212586 125618
" />
<path d="M212586 125618
L212586 118354
" />
<path d="M212586 118354
L208374 118354
" />
<path d="M136417 157224
L136417 165476
" />
<path d="M136417 165476
L140551 165476
" />
<path d="M140551 165476
L140551 157224
" />
<path d="M140551 157224
L136417 157224
" />
<path d="M127417 157224
L127417 165476
" />
<path d="M127417 165476
L131551 165476
" />
<path d="M131551 165476
L131551 157224
" />
<path d="M131551 157224
L127417 157224
" />
<path d="M65011 159141
L81783 159141
" />
<path d="M65011 159141
L65011 178984
" />
<path d="M81783 178984
L81783 159141
" />
<path d="M81783 178984
L65011 178984
" />
<path d="M143035 106346
L143133 106346
" />
<path d="M143133 106346
L143133 106248
" />
<path d="M143035 103393
L143133 103393
" />
<path d="M143133 103393
L143133 103492
" />
<path d="M139393 103492
L139393 103393
" />
<path d="M139393 103393
L139492 103393
" />
<path d="M139393 106248
L139393 106346
" />
<path d="M139393 106346
L139492 106346
" />
<path d="M139492 103393
L143035 103393
" />
<path d="M139393 106248
L139393 103492
" />
<path d="M143035 106346
L139492 106346
" />
<path d="M143133 103492
L143133 106248
" />
<path d="M126535 165846
L126633 165846
" />
<path d="M126633 165846
L126633 165748
" />
<path d="M126535 162893
L126633 162893
" />
<path d="M126633 162893
L126633 162992
" />
<path d="M122893 162992
L122893 162893
" />
<path d="M122893 162893
L122992 162893
" />
<path d="M122893 165748
L122893 165846
" />
<path d="M122893 165846
L122992 165846
" />
<path d="M122992 162893
L126535 162893
" />
<path d="M122893 165748
L122893 162992
" />
<path d="M126535 165846
L122992 165846
" />
<path d="M126633 162992
L126633 165748
" />
<path d="M142074 96070
L140893 96070
" />
<path d="M140893 96070
L140893 99897
" />
<path d="M140893 99897
L142074 99897
" />
<path d="M142074 99897
L142074 96070
" />
<path d="M143074 99570
L141893 99570
" />
<path d="M141893 99570
L141893 103397
" />
<path d="M141893 103397
L143074 103397
" />
<path d="M143074 103397
L143074 99570
" />
<path d="M110570 112393
L110570 113574
" />
<path d="M110570 113574
L114397 113574
" />
<path d="M114397 113574
L114397 112393
" />
<path d="M114397 112393
L110570 112393
" />
<path d="M112897 107074
L112897 105893
" />
<path d="M112897 105893
L109070 105893
" />
<path d="M109070 105893
L109070 107074
" />
<path d="M109070 107074
L112897 107074
" />
<path d="M115570 102393
L115570 103574
" />
<path d="M115570 103574
L119397 103574
" />
<path d="M119397 103574
L119397 102393
" />
<path d="M119397 102393
L115570 102393
" />
<path d="M200070 104893
L200070 106074
" />
<path d="M200070 106074
L203897 106074
" />
<path d="M203897 106074
L203897 104893
" />
<path d="M203897 104893
L200070 104893
" />
<path d="M123094 167393
L123094 168574
" />
<path d="M123094 168574
L126921 168574
" />
<path d="M126921 168574
L126921 167393
" />
<path d="M126921 167393
L123094 167393
" />
<path d="M105070 172893
L105070 174074
" />
<path d="M105070 174074
L108897 174074
" />
<path d="M108897 174074
L108897 172893
" />
<path d="M108897 172893
L105070 172893
" />
<path d="M114070 173893
L114070 175074
" />
<path d="M114070 175074
L117897 175074
" />
<path d="M117897 175074
L117897 173893
" />
<path d="M117897 173893
L114070 173893
" />
<path d="M113570 161393
L113570 162574
" />
<path d="M113570 162574
L117397 162574
" />
<path d="M117397 162574
L117397 161393
" />
<path d="M117397 161393
L113570 161393
" />
<path d="M128570 177393
L128570 178574
" />
<path d="M128570 178574
L132397 178574
" />
<path d="M132397 178574
L132397 177393
" />
<path d="M132397 177393
L128570 177393
" />
<path d="M132070 165893
L132070 167074
" />
<path d="M132070 167074
L135897 167074
" />
<path d="M135897 167074
L135897 165893
" />
<path d="M135897 165893
L132070 165893
" />
<path d="M146074 166070
L144893 166070
" />
<path d="M144893 166070
L144893 169897
" />
<path d="M144893 169897
L146074 169897
" />
<path d="M146074 169897
L146074 166070
" />
<path d="M65574 103070
L64393 103070
" />
<path d="M64393 103070
L64393 106897
" />
<path d="M64393 106897
L65574 106897
" />
<path d="M65574 106897
L65574 103070
" />
<path d="M68074 103070
L66893 103070
" />
<path d="M66893 103070
L66893 106897
" />
<path d="M66893 106897
L68074 106897
" />
<path d="M68074 106897
L68074 103070
" />
<path d="M70574 103070
L69393 103070
" />
<path d="M69393 103070
L69393 106897
" />
<path d="M69393 106897
L70574 106897
" />
<path d="M70574 106897
L70574 103070
" />
<path d="M73074 103070
L71893 103070
" />
<path d="M71893 103070
L71893 106897
" />
<path d="M71893 106897
L73074 106897
" />
<path d="M73074 106897
L73074 103070
" />
<path d="M75574 103070
L74393 103070
" />
<path d="M74393 103070
L74393 106897
" />
<path d="M74393 106897
L75574 106897
" />
<path d="M75574 106897
L75574 103070
" />
<path d="M78074 103070
L76893 103070
" />
<path d="M76893 103070
L76893 106897
" />
<path d="M76893 106897
L78074 106897
" />
<path d="M78074 106897
L78074 103070
" />
<path d="M80574 103070
L79393 103070
" />
<path d="M79393 103070
L79393 106897
" />
<path d="M79393 106897
L80574 106897
" />
<path d="M80574 106897
L80574 103070
" />
<path d="M83074 103070
L81893 103070
" />
<path d="M81893 103070
L81893 106897
" />
<path d="M81893 106897
L83074 106897
" />
<path d="M83074 106897
L83074 103070
" />
<path d="M117917 157224
L117917 165476
" />
<path d="M117917 165476
L122051 165476
" />
<path d="M122051 165476
L122051 157224
" />
<path d="M122051 157224
L117917 157224
" />
<path d="M110212 163728
L105527 166877
" />
<path d="M110212 173531
L105527 170381
" />
<path d="M115173 163728
L119858 166877
" />
<path d="M115173 173531
L119858 170381
" />
<path d="M119817 170410 A2135.17 2135.17 0.0 0 0 119858 166878" />
<path d="M105528 166878 A2135.17 2135.17 0.0 0 0 105568 170410" />
<path d="M110213 173531 A5493.4 5493.4 0.0 0 0 115200 173518" />
<path d="M115200 163742 A5493.4 5493.4 0.0 0 0 110213 163728" />
<path d="M59870 173437
L64275 173437
" />
<path d="M59870 173437
L59870 178531
" />
<path d="M64275 178531
L64275 173437
" />
<path d="M64275 178531
L59870 178531
" />
<path d="M125275 98775
L125275 102181
" />
<path d="M125275 102181
L126692 102181
" />
<path d="M126692 102181
L126692 98775
" />
<path d="M126692 98775
L125275 98775
" />
<path d="M148775 85275
L148775 87696
" />
<path d="M148775 87696
L150192 87696
" />
<path d="M150192 87696
L150192 85275
" />
<path d="M150192 85275
L148775 85275
" />
<path d="M146775 85275
L146775 87696
" />
<path d="M146775 87696
L148192 87696
" />
<path d="M148192 87696
L148192 85275
" />
<path d="M148192 85275
L146775 85275
" />
<path d="M144775 85275
L144775 87696
" />
<path d="M144775 87696
L146192 87696
" />
<path d="M146192 87696
L146192 85275
" />
<path d="M146192 85275
L144775 85275
" />
<path d="M207192 144192
L207192 140787
" />
<path d="M207192 140787
L205775 140787
" />
<path d="M205775 140787
L205775 144192
" />
<path d="M205775 144192
L207192 144192
" />
<path d="M111275 105692
L113696 105692
" />
<path d="M113696 105692
L113696 104275
" />
<path d="M113696 104275
L111275 104275
" />
<path d="M111275 104275
L111275 105692
" />
<path d="M111275 108692
L113696 108692
" />
<path d="M113696 108692
L113696 107275
" />
<path d="M113696 107275
L111275 107275
" />
<path d="M111275 107275
L111275 108692
" />
<path d="M110775 111192
L113196 111192
" />
<path d="M113196 111192
L113196 109775
" />
<path d="M113196 109775
L110775 109775
" />
<path d="M110775 109775
L110775 111192
" />
<path d="M205692 144192
L205692 140787
" />
<path d="M205692 140787
L204275 140787
" />
<path d="M204275 140787
L204275 144192
" />
<path d="M204275 144192
L205692 144192
" />
<path d="M210192 144192
L210192 140787
" />
<path d="M210192 140787
L208775 140787
" />
<path d="M208775 140787
L208775 144192
" />
<path d="M208775 144192
L210192 144192
" />
<path d="M208692 144192
L208692 140787
" />
<path d="M208692 140787
L207275 140787
" />
<path d="M207275 140787
L207275 144192
" />
<path d="M207275 144192
L208692 144192
" />
<path d="M213192 144192
L213192 140787
" />
<path d="M213192 140787
L211775 140787
" />
<path d="M211775 140787
L211775 144192
" />
<path d="M211775 144192
L213192 144192
" />
<path d="M211692 144192
L211692 140787
" />
<path d="M211692 140787
L210275 140787
" />
<path d="M210275 140787
L210275 144192
" />
<path d="M210275 144192
L211692 144192
" />
<path d="M216192 144192
L216192 140787
" />
<path d="M216192 140787
L214775 140787
" />
<path d="M214775 140787
L214775 144192
" />
<path d="M214775 144192
L216192 144192
" />
<path d="M214692 144192
L214692 140787
" />
<path d="M214692 140787
L213275 140787
" />
<path d="M213275 140787
L213275 144192
" />
<path d="M213275 144192
L214692 144192
" />
<path d="M125275 68775
L125275 72181
" />
<path d="M125275 72181
L126692 72181
" />
<path d="M126692 72181
L126692 68775
" />
<path d="M126692 68775
L125275 68775
" />
<path d="M223275 162275
L223275 172688
" />
<path d="M223275 172688
L225696 172688
" />
<path d="M225696 172688
L225696 162275
" />
<path d="M225696 162275
L223275 162275
" />
<path d="M90212 173590
L90114 173590
" />
<path d="M90114 173590
L90114 179496
" />
<path d="M90212 173590
L91196 173590
" />
<path d="M91196 173590
L91196 173196
" />
<path d="M91196 173196
L92771 173196
" />
<path d="M92771 173196
L92771 173590
" />
<path d="M92771 173590
L93854 173590
" />
<path d="M93854 173590
L93854 174377
" />
<path d="M93854 174377
L94641 174377
" />
<path d="M94641 174377
L94641 175952
" />
<path d="M94641 175952
L93854 175952
" />
<path d="M93854 175952
L93854 179496
" />
<path d="M93854 179496
L90114 179496
" />
<path d="M135763 175716
L133204 175716
" />
<path d="M133204 175716
L133204 178255
" />
<path d="M133204 178255
L135763 178255
" />
<path d="M135763 178255
L135763 175716
" />
<path d="M133716 168204
L133716 170763
" />
<path d="M133716 170763
L136255 170763
" />
<path d="M136255 170763
L136255 168204
" />
<path d="M136255 168204
L133716 168204
" />
<path d="M141716 168204
L141716 170763
" />
<path d="M141716 170763
L144255 170763
" />
<path d="M144255 170763
L144255 168204
" />
<path d="M144255 168204
L141716 168204
" />
<path d="M93354 168515
L94614 168515
" />
<path d="M94614 168515
L94614 164452
" />
<path d="M94614 164452
L93354 164452
" />
<path d="M93354 164452
L93354 168515
" />
<path d="M89452 168354
L89452 169614
" />
<path d="M89452 169614
L93515 169614
" />
<path d="M93515 169614
L93515 168354
" />
<path d="M93515 168354
L89452 168354
" />
<path d="M89452 163354
L89452 164614
" />
<path d="M89452 164614
L93515 164614
" />
<path d="M93515 164614
L93515 163354
" />
<path d="M93515 163354
L89452 163354
" />
<path d="M88354 168515
L89614 168515
" />
<path d="M89614 168515
L89614 164452
" />
<path d="M89614 164452
L88354 164452
" />
<path d="M88354 164452
L88354 168515
" />
<circle cx="144476" cy="99484.3" r="1082.68" /> 
<circle cx="97484.3" cy="167492" r="1082.68" /> 
<path d="M139570 101070
L139570 101897
" />
<path d="M139570 101897
L141381 101897
" />
<path d="M141381 101897
L141381 101070
" />
<path d="M141381 101070
L139570 101070
" />
<path d="M144070 103570
L144070 104397
" />
<path d="M144070 104397
L145881 104397
" />
<path d="M145881 104397
L145881 103570
" />
<path d="M145881 103570
L144070 103570
" />
<circle cx="126484" cy="176992" r="1082.68" /> 
<circle cx="119484" cy="176992" r="1082.68" /> 
<path d="M137070 167570
L137070 168397
" />
<path d="M137070 168397
L138881 168397
" />
<path d="M138881 168397
L138881 167570
" />
<path d="M138881 167570
L137070 167570
" />
<path d="M142897 167397
L142897 166570
" />
<path d="M142897 166570
L141086 166570
" />
<path d="M141086 166570
L141086 167397
" />
<path d="M141086 167397
L142897 167397
" />
<path d="M132070 165381
L132897 165381
" />
<path d="M132897 165381
L132897 163570
" />
<path d="M132897 163570
L132070 163570
" />
<path d="M132070 163570
L132070 165381
" />
<g >
</g>
<g >
</g>
<g >
</g>
<g >
</g>
<g >
</g>
<g >
</g>
<g >
</g>
<g >
</g>
<g >
</g>
<g >
</g>
<g >
</g>
<g >
</g>
<g >
</g>
<g >
</g>
<g >
</g>
<g >
</g>
<g >
</g>
<g >
</g>
<g >
</g>
<g >
</g>
<g >
</g>
<g >
</g>
<g >
</g>
<g >
</g>
<g >
</g>
<g >
</g>
<g >
</g>
<g >
</g>
<g >
</g>
<g >
</g>
<g >
</g>
<g >
</g>
<g >
</g>
<g >
</g>
<g >
</g>
<g >
</g>
<g >
</g>
<g >
</g>
<g >
</g>
<g >
</g>
<g >
</g>
<g >
</g>
<g >
</g>
<g >
</g>
<g >
</g>
<g >
</g>
<g >
</g>
<g >
</g>
<g >
</g>
<g >
</g>
<g >
</g>
<g >
</g>
<g >
</g>
<g >
</g>
<g >
</g>
<g >
</g>
<g >
</g>
<g >
</g>
<g >
</g>
<g >
</g>
<g >
</g>
<g >
</g>
<g >
</g>
<g >
</g>
<g >
</g>
<g >
</g>
<g >
</g>
<g >
</g>
<g >
</g>
<g >
</g>
<g >
</g>
<g >
</g>
<g >
</g>
<g >
</g>
<g >
</g>
<g >
</g>
<g >
</g>
<g >
</g>
<g >
</g>
<g >
</g>
<g >
</g>
<g >
</g>
<g >
</g>
<g >
</g>
<g >
</g>
<g >
</g>
<g >
</g>
<g >
</g>
<g >
</g>
<g >
</g>
<g >
</g>
<g >
</g>
<g >
</g>
<g >
</g>
<g >
</g>
<g >
</g>
<g >
</g>
<g >
</g>
<g >
</g>
<g >
</g>
<g >
</g>
<g >
</g>
<g >
</g>
<g >
</g>
<g >
</g>
<g >
</g>
<g >
</g>
<g >
</g>
<g >
</g>
<g >
</g>
<g >
</g>
<g >
</g>
<g >
</g>
<g >
</g>
<g >
</g>
<g >
</g>
<g >
</g>
<g >
</g>
<g >
</g>
<g >
</g>
<g >
</g>
<g >
</g>
<g >
</g>
<g >
</g>
<g >
</g>
<g >
</g>
<g >
</g>
<g >
</g>
<g >
</g>
<g >
</g>
</g>
<g style="fill:#000000; fill-opacity:0.0; 
stroke:#000000; stroke-width:19.685; stroke-opacity:1; 
stroke-linecap:round; stroke-linejoin:round;">
</g>
<g style="fill:#C2C200; fill-opacity:0.0; 
stroke:#C2C200; stroke-width:19.685; stroke-opacity:1; 
stroke-linecap:round; stroke-linejoin:round;">
</g>
<g style="fill:#C2C200; fill-opacity:0.0; 
stroke:#C2C200; stroke-width:39.3701; stroke-opacity:1; 
stroke-linecap:round; stroke-linejoin:round;">
<circle cx="984.252" cy="984.252" r="656.168" /> 
<path d="M0 984
L1968 984
" />
<path d="M984 0
L984 1968
" />
<circle cx="59984.3" cy="169484" r="656.168" /> 
<path d="M59000 169484
L60968 169484
" />
<path d="M59984 168500
L59984 170468
" />
<circle cx="254984" cy="169484" r="656.168" /> 
<path d="M254000 169484
L255968 169484
" />
<path d="M254984 168500
L254984 170468
" />
<circle cx="254984" cy="74484.3" r="656.168" /> 
<path d="M254000 74484
L255968 74484
" />
<path d="M254984 73500
L254984 75468
" />
<circle cx="59984.3" cy="74484.3" r="656.168" /> 
<path d="M59000 74484
L60968 74484
" />
<path d="M59984 73500
L59984 75468
" />
<path d="M49984 179484
L49984 64484
" />
<path d="M264984 64484
L264984 179484
" />
<path d="M49984 64484
L264984 64484
" />
<path d="M264984 179484
L49984 179484
" />
<g >
</g>
<g >
</g>
<g >
</g>
<g >
</g>
<g >
</g>
<g >
</g>
<g >
</g>
<g >
</g>
<g >
</g>
<g >
</g>
<g >
</g>
<g >
</g>
<g >
</g>
<g >
</g>
<g >
</g>
<g >
</g>
<g >
</g>
<g >
</g>
<g >
</g>
<g >
</g>
<g >
</g>
<g >
</g>
<g >
</g>
<g >
</g>
<g >
</g>
<g >
</g>
<g >
</g>
<g >
</g>
<g >
</g>
<g >
</g>
<g >
</g>
<g >
</g>
<g >
</g>
<g >
</g>
<g >
</g>
<g >
</g>
<g >
</g>
<g >
</g>
<g >
</g>
<g >
</g>
<g >
</g>
<g >
</g>
<g >
</g>
<g >
</g>
<g >
</g>
<g >
</g>
<g >
</g>
<g >
</g>
<g >
</g>
<g >
</g>
<g >
</g>
<g >
</g>
<g >
</g>
<g >
</g>
<g >
</g>
<g >
</g>
<g >
</g>
<g >
</g>
<g >
</g>
<g >
</g>
<g >
</g>
<g >
</g>
<g >
</g>
<g >
</g>
<g >
</g>
<g >
</g>
<g >
</g>
<g >
</g>
<g >
</g>
<g >
</g>
<g >
</g>
<g >
</g>
<g >
</g>
<g >
</g>
<g >
</g>
<g >
</g>
<g >
</g>
<g >
</g>
<g >
</g>
<g >
</g>
<g >
</g>
<g >
</g>
<g >
</g>
<g >
</g>
<g >
</g>
<g >
</g>
<g >
</g>
<g >
</g>
<g >
</g>
<g >
</g>
<g >
</g>
<g >
</g>
<g >
</g>
<g >
</g>
<g >
</g>
<g >
</g>
<g >
</g>
<g >
</g>
<g >
</g>
<g >
</g>
<g >
</g>
<g >
</g>
<g >
</g>
<g >
</g>
<g >
</g>
<g >
</g>
<g >
</g>
<g >
</g>
<g >
</g>
<g >
</g>
<g >
</g>
<g >
</g>
<g >
</g>
<g >
</g>
<g >
</g>
<g >
</g>
<g >
</g>
<g >
</g>
<g >
</g>
<g >
</g>
<g >
</g>
<g >
</g>
<g >
</g>
<g >
</g>
<g >
</g>
<g >
</g>
<g >
</g>
<g >
</g>
<g >
</g>
<g >
</g>
</g> 
</svg>
