<?xml version="1.0" standalone="no"?>
 <!DOCTYPE svg PUBLIC "-//W3C//DTD SVG 1.1//EN" 
 "http://www.w3.org/Graphics/SVG/1.1/DTD/svg11.dtd"> 
<svg
  xmlns:svg="http://www.w3.org/2000/svg"
  xmlns="http://www.w3.org/2000/svg"
  xmlns:xlink="http://www.w3.org/1999/xlink"
  version="1.1"
  width="16.179800cm" height="8.206740cm" viewBox="0 0 63700 32310">
<title>SVG Picture created as Sound-F_Fab.svg date 2022/05/05 13:00:00 </title>
  <desc>Picture generated by PCBNEW </desc>
<g style="fill:#000000; fill-opacity:1;stroke:#000000; stroke-opacity:1;
stroke-linecap:round; stroke-linejoin:round;"
 transform="translate(0 0) scale(1 1)">
</g>
<g style="fill:#000000; fill-opacity:0.0; 
stroke:#000000; stroke-width:-0.000393701; stroke-opacity:1; 
stroke-linecap:round; stroke-linejoin:round;">
</g>
<g style="fill:#848484; fill-opacity:0.0; 
stroke:#848484; stroke-width:-0.000393701; stroke-opacity:1; 
stroke-linecap:round; stroke-linejoin:round;">
</g>
<g style="fill:#848484; fill-opacity:0.0; 
stroke:#848484; stroke-width:39.3701; stroke-opacity:1; 
stroke-linecap:round; stroke-linejoin:round;">
<path d="M57294 29956
L58044 29956
" />
<path d="M58044 29956
L58044 8956
" />
<path d="M58044 8956
L57044 8956
" />
<path d="M57044 8956
L57044 29706
" />
<path d="M57044 29706
L57294 29956
" />
<path d="M55328 29582
L57044 29582
" />
<path d="M55328 29582
L55328 29330
" />
<path d="M55328 29330
L57044 29330
" />
<path d="M58044 29582
L60407 29582
" />
<path d="M60407 29582
L60407 29330
" />
<path d="M58044 29330
L60407 29330
" />
<path d="M55328 28582
L57044 28582
" />
<path d="M55328 28582
L55328 28330
" />
<path d="M55328 28330
L57044 28330
" />
<path d="M58044 28582
L60407 28582
" />
<path d="M60407 28582
L60407 28330
" />
<path d="M58044 28330
L60407 28330
" />
<path d="M55328 27582
L57044 27582
" />
<path d="M55328 27582
L55328 27330
" />
<path d="M55328 27330
L57044 27330
" />
<path d="M58044 27582
L60407 27582
" />
<path d="M60407 27582
L60407 27330
" />
<path d="M58044 27330
L60407 27330
" />
<path d="M55328 26582
L57044 26582
" />
<path d="M55328 26582
L55328 26330
" />
<path d="M55328 26330
L57044 26330
" />
<path d="M58044 26582
L60407 26582
" />
<path d="M60407 26582
L60407 26330
" />
<path d="M58044 26330
L60407 26330
" />
<path d="M55328 25582
L57044 25582
" />
<path d="M55328 25582
L55328 25330
" />
<path d="M55328 25330
L57044 25330
" />
<path d="M58044 25582
L60407 25582
" />
<path d="M60407 25582
L60407 25330
" />
<path d="M58044 25330
L60407 25330
" />
<path d="M55328 24582
L57044 24582
" />
<path d="M55328 24582
L55328 24330
" />
<path d="M55328 24330
L57044 24330
" />
<path d="M58044 24582
L60407 24582
" />
<path d="M60407 24582
L60407 24330
" />
<path d="M58044 24330
L60407 24330
" />
<path d="M55328 23582
L57044 23582
" />
<path d="M55328 23582
L55328 23330
" />
<path d="M55328 23330
L57044 23330
" />
<path d="M58044 23582
L60407 23582
" />
<path d="M60407 23582
L60407 23330
" />
<path d="M58044 23330
L60407 23330
" />
<path d="M55328 22582
L57044 22582
" />
<path d="M55328 22582
L55328 22330
" />
<path d="M55328 22330
L57044 22330
" />
<path d="M58044 22582
L60407 22582
" />
<path d="M60407 22582
L60407 22330
" />
<path d="M58044 22330
L60407 22330
" />
<path d="M55328 21582
L57044 21582
" />
<path d="M55328 21582
L55328 21330
" />
<path d="M55328 21330
L57044 21330
" />
<path d="M58044 21582
L60407 21582
" />
<path d="M60407 21582
L60407 21330
" />
<path d="M58044 21330
L60407 21330
" />
<path d="M55328 20582
L57044 20582
" />
<path d="M55328 20582
L55328 20330
" />
<path d="M55328 20330
L57044 20330
" />
<path d="M58044 20582
L60407 20582
" />
<path d="M60407 20582
L60407 20330
" />
<path d="M58044 20330
L60407 20330
" />
<path d="M55328 19582
L57044 19582
" />
<path d="M55328 19582
L55328 19330
" />
<path d="M55328 19330
L57044 19330
" />
<path d="M58044 19582
L60407 19582
" />
<path d="M60407 19582
L60407 19330
" />
<path d="M58044 19330
L60407 19330
" />
<path d="M55328 18582
L57044 18582
" />
<path d="M55328 18582
L55328 18330
" />
<path d="M55328 18330
L57044 18330
" />
<path d="M58044 18582
L60407 18582
" />
<path d="M60407 18582
L60407 18330
" />
<path d="M58044 18330
L60407 18330
" />
<path d="M55328 17582
L57044 17582
" />
<path d="M55328 17582
L55328 17330
" />
<path d="M55328 17330
L57044 17330
" />
<path d="M58044 17582
L60407 17582
" />
<path d="M60407 17582
L60407 17330
" />
<path d="M58044 17330
L60407 17330
" />
<path d="M55328 16582
L57044 16582
" />
<path d="M55328 16582
L55328 16330
" />
<path d="M55328 16330
L57044 16330
" />
<path d="M58044 16582
L60407 16582
" />
<path d="M60407 16582
L60407 16330
" />
<path d="M58044 16330
L60407 16330
" />
<path d="M55328 15582
L57044 15582
" />
<path d="M55328 15582
L55328 15330
" />
<path d="M55328 15330
L57044 15330
" />
<path d="M58044 15582
L60407 15582
" />
<path d="M60407 15582
L60407 15330
" />
<path d="M58044 15330
L60407 15330
" />
<path d="M55328 14582
L57044 14582
" />
<path d="M55328 14582
L55328 14330
" />
<path d="M55328 14330
L57044 14330
" />
<path d="M58044 14582
L60407 14582
" />
<path d="M60407 14582
L60407 14330
" />
<path d="M58044 14330
L60407 14330
" />
<path d="M55328 13582
L57044 13582
" />
<path d="M55328 13582
L55328 13330
" />
<path d="M55328 13330
L57044 13330
" />
<path d="M58044 13582
L60407 13582
" />
<path d="M60407 13582
L60407 13330
" />
<path d="M58044 13330
L60407 13330
" />
<path d="M55328 12582
L57044 12582
" />
<path d="M55328 12582
L55328 12330
" />
<path d="M55328 12330
L57044 12330
" />
<path d="M58044 12582
L60407 12582
" />
<path d="M60407 12582
L60407 12330
" />
<path d="M58044 12330
L60407 12330
" />
<path d="M55328 11582
L57044 11582
" />
<path d="M55328 11582
L55328 11330
" />
<path d="M55328 11330
L57044 11330
" />
<path d="M58044 11582
L60407 11582
" />
<path d="M60407 11582
L60407 11330
" />
<path d="M58044 11330
L60407 11330
" />
<path d="M55328 10582
L57044 10582
" />
<path d="M55328 10582
L55328 10330
" />
<path d="M55328 10330
L57044 10330
" />
<path d="M58044 10582
L60407 10582
" />
<path d="M60407 10582
L60407 10330
" />
<path d="M58044 10330
L60407 10330
" />
<path d="M55328 9582
L57044 9582
" />
<path d="M55328 9582
L55328 9330
" />
<path d="M55328 9330
L57044 9330
" />
<path d="M58044 9582
L60407 9582
" />
<path d="M60407 9582
L60407 9330
" />
<path d="M58044 9330
L60407 9330
" />
<path d="M21359 8724
L21989 8724
" />
<path d="M21989 8724
L21989 7307
" />
<path d="M21989 7307
L21359 7307
" />
<path d="M21359 7307
L21359 8724
" />
<path d="M21674 9015
L21674 8724
" />
<path d="M21674 7015
L21674 7307
" />
<path d="M28659 4370
L28659 5000
" />
<path d="M28659 5000
L30076 5000
" />
<path d="M30076 5000
L30076 4370
" />
<path d="M30076 4370
L28659 4370
" />
<path d="M28367 4685
L28659 4685
" />
<path d="M30367 4685
L30076 4685
" />
<path d="M23544 9015
L23544 9803
" />
<path d="M23544 9803
L24725 9803
" />
<path d="M24725 9803
L24725 9015
" />
<path d="M24725 9015
L23544 9015
" />
<path d="M18820 3503
L18820 4291
" />
<path d="M18820 4291
L20001 4291
" />
<path d="M20001 4291
L20001 3503
" />
<path d="M20001 3503
L18820 3503
" />
<circle cx="18229.9" cy="23976.4" r="984.252" /> 
<path d="M17389 23548
L17586 23548
" />
<path d="M17488 23449
L17488 23646
" />
<path d="M13702 26338
L13702 27125
" />
<path d="M13702 27125
L14883 27125
" />
<path d="M14883 27125
L14883 26338
" />
<path d="M14883 26338
L13702 26338
" />
<circle cx="21773.2" cy="11771.7" r="984.252" /> 
<path d="M20933 11343
L21130 11343
" />
<path d="M21031 11245
L21031 11441
" />
<path d="M16064 26338
L16064 27125
" />
<path d="M16064 27125
L17245 27125
" />
<path d="M17245 27125
L17245 26338
" />
<path d="M17245 26338
L16064 26338
" />
<path d="M22824 22401
L23115 22401
" />
<path d="M24824 22401
L24533 22401
" />
<path d="M23115 22716
L24533 22716
" />
<path d="M23115 22086
L23115 22716
" />
<path d="M24533 22086
L23115 22086
" />
<path d="M24533 22716
L24533 22086
" />
<path d="M11438 12196
L11438 11905
" />
<path d="M11438 10196
L11438 10488
" />
<path d="M11753 11905
L11753 10488
" />
<path d="M11123 11905
L11753 11905
" />
<path d="M11123 10488
L11123 11905
" />
<path d="M11753 10488
L11123 10488
" />
<path d="M31485 4685
L31777 4685
" />
<path d="M33485 4685
L33194 4685
" />
<path d="M31777 5000
L33194 5000
" />
<path d="M31777 4370
L31777 5000
" />
<path d="M33194 4370
L31777 4370
" />
<path d="M33194 5000
L33194 4370
" />
<path d="M23249 12657
L24037 12657
" />
<path d="M24037 12657
L24037 11476
" />
<path d="M24037 11476
L23249 11476
" />
<path d="M23249 11476
L23249 12657
" />
<circle cx="18131.5" cy="12460.6" r="984.252" /> 
<path d="M17703 13300
L17703 13103
" />
<path d="M17604 13202
L17801 13202
" />
<path d="M7403 21614
L7403 22401
" />
<path d="M7403 22401
L8584 22401
" />
<path d="M8584 22401
L8584 21614
" />
<path d="M8584 21614
L7403 21614
" />
<circle cx="10749.6" cy="22795.3" r="984.252" /> 
<path d="M9909 22367
L10106 22367
" />
<path d="M10008 22268
L10008 22465
" />
<path d="M24105 6362
L24105 7150
" />
<path d="M24105 7150
L25287 7150
" />
<path d="M25287 7150
L25287 6362
" />
<path d="M25287 6362
L24105 6362
" />
<circle cx="19512.2" cy="8406.69" r="984.252" /> 
<path d="M20352 8834
L20155 8834
" />
<path d="M20253 8933
L20253 8736
" />
<path d="M13657 10484
L15763 10484
" />
<path d="M15763 10484
L15763 14484
" />
<path d="M15763 14484
L13263 14484
" />
<path d="M13263 14484
L13263 10877
" />
<path d="M13263 10877
L13657 10484
" />
<path d="M12513 10460
L12513 14507
" />
<path d="M12513 14507
L16513 14507
" />
<path d="M16513 14507
L16513 10460
" />
<path d="M16513 10460
L12513 10460
" />
<path d="M13657 21114
L15763 21114
" />
<path d="M15763 21114
L15763 25114
" />
<path d="M15763 25114
L13263 25114
" />
<path d="M13263 25114
L13263 21507
" />
<path d="M13263 21507
L13657 21114
" />
<path d="M12513 21090
L12513 25137
" />
<path d="M12513 25137
L16513 25137
" />
<path d="M16513 25137
L16513 21090
" />
<path d="M16513 21090
L12513 21090
" />
<path d="M13657 15602
L15763 15602
" />
<path d="M15763 15602
L15763 19602
" />
<path d="M15763 19602
L13263 19602
" />
<path d="M13263 19602
L13263 15996
" />
<path d="M13263 15996
L13657 15602
" />
<path d="M12513 15578
L12513 19625
" />
<path d="M12513 19625
L16513 19625
" />
<path d="M16513 19625
L16513 15578
" />
<path d="M16513 15578
L12513 15578
" />
<path d="M8966 13324
L8966 7025
" />
<path d="M8966 7025
L6013 7025
" />
<path d="M6013 7025
L6013 13324
" />
<path d="M6013 13324
L8966 13324
" />
<path d="M6013 11553
L6013 8797
" />
<path d="M6013 8797
L4045 8797
" />
<path d="M4045 8797
L4045 11553
" />
<path d="M4045 11553
L6013 11553
" />
<path d="M4045 10962
L4045 9387
" />
<path d="M4045 9387
L108 9387
" />
<path d="M108 9387
L108 10962
" />
<path d="M108 10962
L4045 10962
" />
<path d="M11919 20474
L11919 14175
" />
<path d="M11919 14175
L6013 14175
" />
<path d="M6013 14175
L6013 20474
" />
<path d="M6013 20474
L11919 20474
" />
<path d="M6013 18703
L6013 15947
" />
<path d="M6013 15947
L4045 15947
" />
<path d="M4045 15947
L4045 18703
" />
<path d="M4045 18703
L6013 18703
" />
<path d="M4045 18112
L4045 16537
" />
<path d="M4045 16537
L108 16537
" />
<path d="M108 16537
L108 18112
" />
<path d="M108 18112
L4045 18112
" />
<path d="M15277 1459
L17639 1459
" />
<path d="M17639 1459
L17639 3034
" />
<path d="M17639 3034
L17757 3034
" />
<path d="M17757 3034
L17757 8546
" />
<path d="M17757 8546
L14529 8546
" />
<path d="M14529 8546
L14529 3034
" />
<path d="M14529 3034
L15277 3034
" />
<path d="M15277 3034
L15277 1459
" />
<path d="M10227 1509
L12589 1509
" />
<path d="M12589 1509
L12589 3084
" />
<path d="M12589 3084
L12707 3084
" />
<path d="M12707 3084
L12707 8596
" />
<path d="M12707 8596
L9479 8596
" />
<path d="M9479 8596
L9479 3084
" />
<path d="M9479 3084
L10227 3084
" />
<path d="M10227 3084
L10227 1509
" />
<path d="M51012 5049
L51012 30875
" />
<path d="M42382 5049
L51012 5049
" />
<path d="M41996 5505
L42382 5049
" />
<path d="M41996 30875
L41996 5505
" />
<path d="M51012 30875
L41996 30875
" />
<path d="M42756 2962
L42756 5049
" />
<path d="M42126 2962
L42756 2962
" />
<path d="M42126 5368
L42126 2962
" />
<path d="M43346 2175
L42756 2962
" />
<path d="M41535 2175
L42126 2962
" />
<path d="M43346 2175
L43346 757
" />
<path d="M41535 2175
L43346 2175
" />
<path d="M41535 757
L41535 2175
" />
<path d="M43346 757
L41535 757
" />
<path d="M42835 206
L43346 757
" />
<path d="M42047 206
L42835 206
" />
<path d="M41535 757
L42047 206
" />
<path d="M26836 21350
L30836 21350
" />
<path d="M26836 14303
L26836 21350
" />
<path d="M30836 14303
L26836 14303
" />
<path d="M30836 21350
L30836 14303
" />
<path d="M30086 20933
L29692 21326
" />
<path d="M30086 14326
L30086 20933
" />
<path d="M27586 14326
L30086 14326
" />
<path d="M27586 21326
L27586 14326
" />
<path d="M29692 21326
L27586 21326
" />
<path d="M26355 14003
L22355 14003
" />
<path d="M26355 21051
L26355 14003
" />
<path d="M22355 21051
L26355 21051
" />
<path d="M22355 14003
L22355 21051
" />
<path d="M23105 14421
L23499 14027
" />
<path d="M23105 21027
L23105 14421
" />
<path d="M25605 21027
L23105 21027
" />
<path d="M25605 14027
L25605 21027
" />
<path d="M23499 14027
L25605 14027
" />
<path d="M21631 14791
L17631 14791
" />
<path d="M21631 21838
L21631 14791
" />
<path d="M17631 21838
L21631 21838
" />
<path d="M17631 14791
L17631 21838
" />
<path d="M18381 15208
L18775 14814
" />
<path d="M18381 21814
L18381 15208
" />
<path d="M20881 21814
L18381 21814
" />
<path d="M20881 14814
L20881 21814
" />
<path d="M18775 14814
L20881 14814
" />
<path d="M26836 13082
L30836 13082
" />
<path d="M26836 6035
L26836 13082
" />
<path d="M30836 6035
L26836 6035
" />
<path d="M30836 13082
L30836 6035
" />
<path d="M30086 12665
L29692 13059
" />
<path d="M30086 6059
L30086 12665
" />
<path d="M27586 6059
L30086 6059
" />
<path d="M27586 13059
L27586 6059
" />
<path d="M29692 13059
L27586 13059
" />
<path d="M31896 24414
L31896 6579
" />
<path d="M40526 24414
L31896 24414
" />
<path d="M40912 23957
L40526 24414
" />
<path d="M40912 6579
L40912 23957
" />
<path d="M31896 6579
L40912 6579
" />
<path d="M40152 26500
L40152 24414
" />
<path d="M40782 26500
L40152 26500
" />
<path d="M40782 24095
L40782 26500
" />
<path d="M39561 27288
L40152 26500
" />
<path d="M41372 27288
L40782 26500
" />
<path d="M39561 27288
L39561 28705
" />
<path d="M41372 27288
L39561 27288
" />
<path d="M41372 28705
L41372 27288
" />
<path d="M39561 28705
L41372 28705
" />
<path d="M40073 29256
L39561 28705
" />
<path d="M40861 29256
L40073 29256
" />
<path d="M41372 28705
L40861 29256
" />
<g >
</g>
<g >
</g>
<g >
</g>
<g >
</g>
<g >
</g>
<g >
</g>
<g >
</g>
<g >
</g>
<g >
</g>
<g >
</g>
<g >
</g>
<g >
</g>
<g >
</g>
<g >
</g>
<g >
</g>
<g >
</g>
<g >
</g>
<g >
</g>
<g >
</g>
<g >
</g>
<g >
</g>
<g >
</g>
<g >
</g>
<g >
</g>
<g >
</g>
<g >
</g>
<g >
</g>
<g >
</g>
<g >
</g>
<g >
</g>
<g >
</g>
<g >
</g>
<g >
</g>
<g >
</g>
<g >
</g>
</g>
<g style="fill:#848484; fill-opacity:0.0; 
stroke:#848484; stroke-width:39.3701; stroke-opacity:1; 
stroke-linecap:round; stroke-linejoin:round;">
</g>
<g style="fill:#848484; fill-opacity:0.0; 
stroke:#848484; stroke-width:59.0551; stroke-opacity:1; 
stroke-linecap:round; stroke-linejoin:round;">
<text x="57454.3" y="30653.5"
textLength="6300.99" font-size="524.934" lengthAdjust="spacingAndGlyphs"
text-anchor="middle" opacity="0">Expansion_Connector</text>
<path d="M54435 30428
L54567 30428
" />
<path d="M54623 30634
L54435 30634
L54435 30241
L54623 30241
" />
<path d="M54754 30634
L54960 30372
" />
<path d="M54754 30372
L54960 30634
" />
<path d="M55110 30372
L55110 30766
" />
<path d="M55110 30391
L55148 30372
L55223 30372
L55260 30391
L55279 30409
L55298 30447
L55298 30559
L55279 30597
L55260 30616
L55223 30634
L55148 30634
L55110 30616
" />
<path d="M55635 30634
L55635 30428
L55617 30391
L55579 30372
L55504 30372
L55467 30391
" />
<path d="M55635 30616
L55598 30634
L55504 30634
L55467 30616
L55448 30578
L55448 30541
L55467 30503
L55504 30484
L55598 30484
L55635 30466
" />
<path d="M55823 30372
L55823 30634
" />
<path d="M55823 30409
L55842 30391
L55879 30372
L55935 30372
L55973 30391
L55992 30428
L55992 30634
" />
<path d="M56160 30616
L56198 30634
L56273 30634
L56310 30616
L56329 30578
L56329 30559
L56310 30522
L56273 30503
L56216 30503
L56179 30484
L56160 30447
L56160 30428
L56179 30391
L56216 30372
L56273 30372
L56310 30391
" />
<path d="M56498 30634
L56498 30372
" />
<path d="M56498 30241
L56479 30259
L56498 30278
L56516 30259
L56498 30241
L56498 30278
" />
<path d="M56741 30634
L56704 30616
L56685 30597
L56666 30559
L56666 30447
L56685 30409
L56704 30391
L56741 30372
L56798 30372
L56835 30391
L56854 30409
L56873 30447
L56873 30559
L56854 30597
L56835 30616
L56798 30634
L56741 30634
" />
<path d="M57041 30372
L57041 30634
" />
<path d="M57041 30409
L57060 30391
L57098 30372
L57154 30372
L57191 30391
L57210 30428
L57210 30634
" />
<path d="M57304 30672
L57604 30672
" />
<path d="M57923 30597
L57904 30616
L57848 30634
L57810 30634
L57754 30616
L57716 30578
L57698 30541
L57679 30466
L57679 30409
L57698 30334
L57716 30297
L57754 30259
L57810 30241
L57848 30241
L57904 30259
L57923 30278
" />
<path d="M58147 30634
L58110 30616
L58091 30597
L58073 30559
L58073 30447
L58091 30409
L58110 30391
L58147 30372
L58204 30372
L58241 30391
L58260 30409
L58279 30447
L58279 30559
L58260 30597
L58241 30616
L58204 30634
L58147 30634
" />
<path d="M58447 30372
L58447 30634
" />
<path d="M58447 30409
L58466 30391
L58504 30372
L58560 30372
L58597 30391
L58616 30428
L58616 30634
" />
<path d="M58804 30372
L58804 30634
" />
<path d="M58804 30409
L58822 30391
L58860 30372
L58916 30372
L58954 30391
L58972 30428
L58972 30634
" />
<path d="M59310 30616
L59272 30634
L59197 30634
L59160 30616
L59141 30578
L59141 30428
L59160 30391
L59197 30372
L59272 30372
L59310 30391
L59329 30428
L59329 30466
L59141 30503
" />
<path d="M59666 30616
L59629 30634
L59554 30634
L59516 30616
L59497 30597
L59479 30559
L59479 30447
L59497 30409
L59516 30391
L59554 30372
L59629 30372
L59666 30391
" />
<path d="M59779 30372
L59929 30372
" />
<path d="M59835 30241
L59835 30578
L59854 30616
L59891 30634
L59929 30634
" />
<path d="M60116 30634
L60079 30616
L60060 30597
L60041 30559
L60041 30447
L60060 30409
L60079 30391
L60116 30372
L60172 30372
L60210 30391
L60228 30409
L60247 30447
L60247 30559
L60228 30597
L60210 30616
L60172 30634
L60116 30634
" />
<path d="M60416 30634
L60416 30372
" />
<path d="M60416 30447
L60435 30409
L60453 30391
L60491 30372
L60528 30372
" />
<g transform="rotate(-90 57544.9 19456.7)">
<text x="57544.9" y="19653.5"
textLength="751.687" font-size="524.934" lengthAdjust="spacingAndGlyphs"
text-anchor="middle" opacity="0">J1</text>
</g>
<path d="M57329 19587
L57610 19587
L57666 19606
L57704 19644
L57722 19700
L57722 19737
" />
<path d="M57722 19194
L57722 19419
" />
<path d="M57722 19306
L57329 19306
L57385 19344
L57423 19381
L57441 19419
" />
<g transform="rotate(-90 22430.7 8015.75)">
<text x="22430.7" y="8212.6"
textLength="1576.58" font-size="524.934" lengthAdjust="spacingAndGlyphs"
text-anchor="middle" opacity="0">10 Ω</text>
</g>
<path d="M22608 8465
L22608 8690
" />
<path d="M22608 8578
L22215 8578
L22271 8615
L22308 8653
L22327 8690
" />
<path d="M22215 8221
L22215 8184
L22233 8146
L22252 8128
L22290 8109
L22365 8090
L22458 8090
L22533 8109
L22571 8128
L22590 8146
L22608 8184
L22608 8221
L22590 8259
L22571 8278
L22533 8296
L22458 8315
L22365 8315
L22290 8296
L22252 8278
L22233 8259
L22215 8221
" />
<path d="M22608 7640
L22608 7547
L22533 7547
L22515 7584
L22477 7622
L22421 7640
L22327 7640
L22271 7622
L22233 7584
L22215 7528
L22215 7453
L22233 7397
L22271 7359
L22327 7340
L22421 7340
L22477 7359
L22515 7397
L22533 7434
L22608 7434
L22608 7340
" />
</g>
<g style="fill:#848484; fill-opacity:0.0; 
stroke:#848484; stroke-width:42.5197; stroke-opacity:1; 
stroke-linecap:round; stroke-linejoin:round;">
<g transform="rotate(-90 21674.8 8015.75)">
<text x="21674.8" y="8157.48"
textLength="630.202" font-size="377.953" lengthAdjust="spacingAndGlyphs"
text-anchor="middle" opacity="0">R5</text>
</g>
<path d="M21803 8062
L21668 8157
" />
<path d="M21803 8224
L21519 8224
L21519 8116
L21533 8089
L21546 8076
L21573 8062
L21614 8062
L21641 8076
L21654 8089
L21668 8116
L21668 8224
" />
<path d="M21519 7806
L21519 7941
L21654 7955
L21641 7941
L21627 7914
L21627 7847
L21641 7820
L21654 7806
L21681 7793
L21749 7793
L21776 7806
L21789 7820
L21803 7847
L21803 7914
L21789 7941
L21776 7955
" />
</g>
<g style="fill:#848484; fill-opacity:0.0; 
stroke:#848484; stroke-width:59.0551; stroke-opacity:1; 
stroke-linecap:round; stroke-linejoin:round;">
<text x="29367.7" y="5637.8"
textLength="1142.64" font-size="524.934" lengthAdjust="spacingAndGlyphs"
text-anchor="middle" opacity="0">? Ω</text>
<path d="M28974 5581
L28992 5600
L28974 5619
L28955 5600
L28974 5581
L28974 5619
" />
<path d="M28899 5244
L28936 5225
L29030 5225
L29067 5244
L29086 5281
L29086 5319
L29067 5356
L29049 5375
L29011 5394
L28992 5412
L28974 5450
L28974 5469
" />
<path d="M29536 5619
L29630 5619
L29630 5544
L29592 5525
L29555 5487
L29536 5431
L29536 5337
L29555 5281
L29592 5244
L29648 5225
L29723 5225
L29780 5244
L29817 5281
L29836 5337
L29836 5431
L29817 5487
L29780 5525
L29742 5544
L29742 5619
L29836 5619
" />
</g>
<g style="fill:#848484; fill-opacity:0.0; 
stroke:#848484; stroke-width:42.5197; stroke-opacity:1; 
stroke-linecap:round; stroke-linejoin:round;">
<text x="29367.7" y="4826.77"
textLength="630.202" font-size="377.953" lengthAdjust="spacingAndGlyphs"
text-anchor="middle" opacity="0">R4</text>
<path d="M29320 4813
L29225 4678
" />
<path d="M29158 4813
L29158 4529
L29266 4529
L29293 4543
L29306 4556
L29320 4583
L29320 4624
L29306 4651
L29293 4664
L29266 4678
L29158 4678
" />
<path d="M29563 4624
L29563 4813
" />
<path d="M29495 4516
L29428 4718
L29603 4718
" />
</g>
<g style="fill:#848484; fill-opacity:0.0; 
stroke:#848484; stroke-width:59.0551; stroke-opacity:1; 
stroke-linecap:round; stroke-linejoin:round;">
<text x="24135.4" y="10492.1"
textLength="2792.43" font-size="524.934" lengthAdjust="spacingAndGlyphs"
text-anchor="middle" opacity="0">0.033 µF</text>
<path d="M22935 10079
L22973 10079
L23010 10098
L23029 10117
L23048 10154
L23066 10229
L23066 10323
L23048 10398
L23029 10435
L23010 10454
L22973 10473
L22935 10473
L22898 10454
L22879 10435
L22860 10398
L22841 10323
L22841 10229
L22860 10154
L22879 10117
L22898 10098
L22935 10079
" />
<path d="M23235 10435
L23254 10454
L23235 10473
L23216 10454
L23235 10435
L23235 10473
" />
<path d="M23498 10079
L23535 10079
L23573 10098
L23591 10117
L23610 10154
L23629 10229
L23629 10323
L23610 10398
L23591 10435
L23573 10454
L23535 10473
L23498 10473
L23460 10454
L23441 10435
L23423 10398
L23404 10323
L23404 10229
L23423 10154
L23441 10117
L23460 10098
L23498 10079
" />
<path d="M23760 10079
L24004 10079
L23872 10229
L23929 10229
L23966 10248
L23985 10267
L24004 10304
L24004 10398
L23985 10435
L23966 10454
L23929 10473
L23816 10473
L23779 10454
L23760 10435
" />
<path d="M24135 10079
L24379 10079
L24247 10229
L24304 10229
L24341 10248
L24360 10267
L24379 10304
L24379 10398
L24360 10435
L24341 10454
L24304 10473
L24191 10473
L24154 10454
L24135 10435
" />
<path d="M24847 10210
L24847 10604
" />
<path d="M25035 10417
L25054 10454
L25091 10473
" />
<path d="M24847 10417
L24866 10454
L24904 10473
L24979 10473
L25016 10454
L25035 10417
L25035 10210
" />
<path d="M25391 10267
L25260 10267
" />
<path d="M25260 10473
L25260 10079
L25447 10079
" />
</g>
<g style="fill:#848484; fill-opacity:0.0; 
stroke:#848484; stroke-width:35.4331; stroke-opacity:1; 
stroke-linecap:round; stroke-linejoin:round;">
<text x="24135.4" y="9527.56"
textLength="762.936" font-size="314.961" lengthAdjust="spacingAndGlyphs"
text-anchor="middle" opacity="0">C12</text>
<path d="M23983 9493
L23972 9505
L23938 9516
L23916 9516
L23882 9505
L23859 9482
L23848 9460
L23837 9415
L23837 9381
L23848 9336
L23859 9313
L23882 9291
L23916 9280
L23938 9280
L23972 9291
L23983 9302
" />
<path d="M24208 9516
L24073 9516
" />
<path d="M24141 9516
L24141 9280
L24118 9313
L24096 9336
L24073 9347
" />
<path d="M24298 9302
L24309 9291
L24332 9280
L24388 9280
L24411 9291
L24422 9302
L24433 9325
L24433 9347
L24422 9381
L24287 9516
L24433 9516
" />
</g>
<g style="fill:#848484; fill-opacity:0.0; 
stroke:#848484; stroke-width:59.0551; stroke-opacity:1; 
stroke-linecap:round; stroke-linejoin:round;">
<text x="19411" y="4980.32"
textLength="2033.31" font-size="524.934" lengthAdjust="spacingAndGlyphs"
text-anchor="middle" opacity="0">0.1 µF</text>
<path d="M18586 4567
L18623 4567
L18661 4586
L18679 4605
L18698 4642
L18717 4717
L18717 4811
L18698 4886
L18679 4924
L18661 4942
L18623 4961
L18586 4961
L18548 4942
L18529 4924
L18511 4886
L18492 4811
L18492 4717
L18511 4642
L18529 4605
L18548 4586
L18586 4567
" />
<path d="M18886 4924
L18904 4942
L18886 4961
L18867 4942
L18886 4924
L18886 4961
" />
<path d="M19279 4961
L19054 4961
" />
<path d="M19167 4961
L19167 4567
L19129 4624
L19092 4661
L19054 4680
" />
<path d="M19748 4699
L19748 5092
" />
<path d="M19935 4905
L19954 4942
L19992 4961
" />
<path d="M19748 4905
L19767 4942
L19804 4961
L19879 4961
L19917 4942
L19935 4905
L19935 4699
" />
<path d="M20292 4755
L20160 4755
" />
<path d="M20160 4961
L20160 4567
L20348 4567
" />
</g>
<g style="fill:#848484; fill-opacity:0.0; 
stroke:#848484; stroke-width:35.4331; stroke-opacity:1; 
stroke-linecap:round; stroke-linejoin:round;">
<text x="19411" y="4015.75"
textLength="762.936" font-size="314.961" lengthAdjust="spacingAndGlyphs"
text-anchor="middle" opacity="0">C11</text>
<path d="M19259 3982
L19247 3993
L19214 4004
L19191 4004
L19157 3993
L19135 3970
L19124 3948
L19112 3903
L19112 3869
L19124 3824
L19135 3802
L19157 3779
L19191 3768
L19214 3768
L19247 3779
L19259 3790
" />
<path d="M19484 4004
L19349 4004
" />
<path d="M19416 4004
L19416 3768
L19394 3802
L19371 3824
L19349 3835
" />
<path d="M19709 4004
L19574 4004
" />
<path d="M19641 4004
L19641 3768
L19619 3802
L19596 3824
L19574 3835
" />
</g>
<g style="fill:#848484; fill-opacity:0.0; 
stroke:#848484; stroke-width:59.0551; stroke-opacity:1; 
stroke-linecap:round; stroke-linejoin:round;">
<text x="18229.9" y="25649.6"
textLength="1845.84" font-size="524.934" lengthAdjust="spacingAndGlyphs"
text-anchor="middle" opacity="0">10 µF</text>
<path d="M17629 25630
L17405 25630
" />
<path d="M17517 25630
L17517 25237
L17480 25293
L17442 25330
L17405 25349
" />
<path d="M17873 25237
L17911 25237
L17948 25255
L17967 25274
L17986 25312
L18004 25387
L18004 25480
L17986 25555
L17967 25593
L17948 25612
L17911 25630
L17873 25630
L17836 25612
L17817 25593
L17798 25555
L17779 25480
L17779 25387
L17798 25312
L17817 25274
L17836 25255
L17873 25237
" />
<path d="M18473 25368
L18473 25762
" />
<path d="M18661 25574
L18679 25612
L18717 25630
" />
<path d="M18473 25574
L18492 25612
L18529 25630
L18604 25630
L18642 25612
L18661 25574
L18661 25368
" />
<path d="M19017 25424
L18886 25424
" />
<path d="M18886 25630
L18886 25237
L19073 25237
" />
<text x="18229.9" y="24173.2"
textLength="1220.38" font-size="524.934" lengthAdjust="spacingAndGlyphs"
text-anchor="middle" opacity="0">C10</text>
<path d="M17976 24116
L17958 24135
L17901 24154
L17864 24154
L17808 24135
L17770 24098
L17751 24060
L17733 23985
L17733 23929
L17751 23854
L17770 23817
L17808 23779
L17864 23760
L17901 23760
L17958 23779
L17976 23798
" />
<path d="M18351 24154
L18126 24154
" />
<path d="M18239 24154
L18239 23760
L18201 23817
L18164 23854
L18126 23873
" />
<path d="M18595 23760
L18632 23760
L18670 23779
L18689 23798
L18707 23835
L18726 23910
L18726 24004
L18707 24079
L18689 24116
L18670 24135
L18632 24154
L18595 24154
L18558 24135
L18539 24116
L18520 24079
L18501 24004
L18501 23910
L18520 23835
L18539 23798
L18558 23779
L18595 23760
" />
<text x="14292.9" y="27815"
textLength="2064.02" font-size="524.934" lengthAdjust="spacingAndGlyphs"
text-anchor="middle" opacity="0">0.1 µF</text>
<path d="M13468 27402
L13505 27402
L13543 27421
L13561 27440
L13580 27477
L13599 27552
L13599 27646
L13580 27721
L13561 27758
L13543 27777
L13505 27796
L13468 27796
L13430 27777
L13411 27758
L13393 27721
L13374 27646
L13374 27552
L13393 27477
L13411 27440
L13430 27421
L13468 27402
" />
<path d="M13767 27758
L13786 27777
L13767 27796
L13749 27777
L13767 27758
L13767 27796
" />
<path d="M14161 27796
L13936 27796
" />
<path d="M14049 27796
L14049 27402
L14011 27458
L13974 27496
L13936 27514
" />
<path d="M14630 27533
L14630 27927
" />
<path d="M14817 27739
L14836 27777
L14874 27796
" />
<path d="M14630 27739
L14649 27777
L14686 27796
L14761 27796
L14799 27777
L14817 27739
L14817 27533
" />
<path d="M15174 27589
L15042 27589
" />
<path d="M15042 27796
L15042 27402
L15230 27402
" />
</g>
<g style="fill:#848484; fill-opacity:0.0; 
stroke:#848484; stroke-width:35.4331; stroke-opacity:1; 
stroke-linecap:round; stroke-linejoin:round;">
<text x="14292.9" y="26850.4"
textLength="537.964" font-size="314.961" lengthAdjust="spacingAndGlyphs"
text-anchor="middle" opacity="0">C9</text>
<path d="M14253 26816
L14242 26827
L14208 26839
L14186 26839
L14152 26827
L14129 26805
L14118 26782
L14107 26737
L14107 26704
L14118 26659
L14129 26636
L14152 26614
L14186 26602
L14208 26602
L14242 26614
L14253 26625
" />
<path d="M14366 26839
L14411 26839
L14433 26827
L14444 26816
L14467 26782
L14478 26737
L14478 26647
L14467 26625
L14456 26614
L14433 26602
L14388 26602
L14366 26614
L14354 26625
L14343 26647
L14343 26704
L14354 26726
L14366 26737
L14388 26749
L14433 26749
L14456 26737
L14467 26726
L14478 26704
" />
</g>
<g style="fill:#848484; fill-opacity:0.0; 
stroke:#848484; stroke-width:59.0551; stroke-opacity:1; 
stroke-linecap:round; stroke-linejoin:round;">
<text x="21773.2" y="13444.9"
textLength="1845.84" font-size="524.934" lengthAdjust="spacingAndGlyphs"
text-anchor="middle" opacity="0">10 µF</text>
<path d="M21173 13426
L20948 13426
" />
<path d="M21060 13426
L21060 13032
L21023 13088
L20985 13126
L20948 13144
" />
<path d="M21417 13032
L21454 13032
L21492 13051
L21510 13069
L21529 13107
L21548 13182
L21548 13276
L21529 13351
L21510 13388
L21492 13407
L21454 13426
L21417 13426
L21379 13407
L21360 13388
L21342 13351
L21323 13276
L21323 13182
L21342 13107
L21360 13069
L21379 13051
L21417 13032
" />
<path d="M22016 13163
L22016 13557
" />
<path d="M22204 13369
L22223 13407
L22260 13426
" />
<path d="M22016 13369
L22035 13407
L22073 13426
L22148 13426
L22185 13407
L22204 13369
L22204 13163
" />
<path d="M22560 13219
L22429 13219
" />
<path d="M22429 13426
L22429 13032
L22616 13032
" />
<text x="21773.2" y="11968.5"
textLength="845.426" font-size="524.934" lengthAdjust="spacingAndGlyphs"
text-anchor="middle" opacity="0">C8</text>
<path d="M21707 11912
L21688 11931
L21632 11949
L21595 11949
L21538 11931
L21501 11893
L21482 11856
L21463 11781
L21463 11724
L21482 11649
L21501 11612
L21538 11574
L21595 11556
L21632 11556
L21688 11574
L21707 11593
" />
<path d="M21932 11724
L21895 11706
L21876 11687
L21857 11649
L21857 11631
L21876 11593
L21895 11574
L21932 11556
L22007 11556
L22045 11574
L22063 11593
L22082 11631
L22082 11649
L22063 11687
L22045 11706
L22007 11724
L21932 11724
L21895 11743
L21876 11762
L21857 11799
L21857 11874
L21876 11912
L21895 11931
L21932 11949
L22007 11949
L22045 11931
L22063 11912
L22082 11874
L22082 11799
L22063 11762
L22045 11743
L22007 11724
" />
<text x="16655.1" y="27815"
textLength="2064.02" font-size="524.934" lengthAdjust="spacingAndGlyphs"
text-anchor="middle" opacity="0">0.1 µF</text>
<path d="M15830 27402
L15867 27402
L15905 27421
L15923 27440
L15942 27477
L15961 27552
L15961 27646
L15942 27721
L15923 27758
L15905 27777
L15867 27796
L15830 27796
L15792 27777
L15773 27758
L15755 27721
L15736 27646
L15736 27552
L15755 27477
L15773 27440
L15792 27421
L15830 27402
" />
<path d="M16130 27758
L16148 27777
L16130 27796
L16111 27777
L16130 27758
L16130 27796
" />
<path d="M16523 27796
L16298 27796
" />
<path d="M16411 27796
L16411 27402
L16373 27458
L16336 27496
L16298 27514
" />
<path d="M16992 27533
L16992 27927
" />
<path d="M17180 27739
L17198 27777
L17236 27796
" />
<path d="M16992 27739
L17011 27777
L17048 27796
L17123 27796
L17161 27777
L17180 27739
L17180 27533
" />
<path d="M17536 27589
L17405 27589
" />
<path d="M17405 27796
L17405 27402
L17592 27402
" />
</g>
<g style="fill:#848484; fill-opacity:0.0; 
stroke:#848484; stroke-width:35.4331; stroke-opacity:1; 
stroke-linecap:round; stroke-linejoin:round;">
<text x="16655.1" y="26850.4"
textLength="537.964" font-size="314.961" lengthAdjust="spacingAndGlyphs"
text-anchor="middle" opacity="0">C7</text>
<path d="M16615 26816
L16604 26827
L16570 26839
L16548 26839
L16514 26827
L16492 26805
L16480 26782
L16469 26737
L16469 26704
L16480 26659
L16492 26636
L16514 26614
L16548 26602
L16570 26602
L16604 26614
L16615 26625
" />
<path d="M16694 26602
L16851 26602
L16750 26839
" />
</g>
<g style="fill:#848484; fill-opacity:0.0; 
stroke:#848484; stroke-width:59.0551; stroke-opacity:1; 
stroke-linecap:round; stroke-linejoin:round;">
<text x="23824.4" y="21842.5"
textLength="1545.88" font-size="524.934" lengthAdjust="spacingAndGlyphs"
text-anchor="middle" opacity="0">10 Ω</text>
<path d="M23374 21823
L23149 21823
" />
<path d="M23261 21823
L23261 21430
L23224 21486
L23186 21523
L23149 21542
" />
<path d="M23618 21430
L23655 21430
L23693 21448
L23711 21467
L23730 21505
L23749 21580
L23749 21673
L23730 21748
L23711 21786
L23693 21805
L23655 21823
L23618 21823
L23580 21805
L23561 21786
L23543 21748
L23524 21673
L23524 21580
L23543 21505
L23561 21467
L23580 21448
L23618 21430
" />
<path d="M24199 21823
L24293 21823
L24293 21748
L24255 21730
L24218 21692
L24199 21636
L24199 21542
L24218 21486
L24255 21448
L24311 21430
L24386 21430
L24443 21448
L24480 21486
L24499 21542
L24499 21636
L24480 21692
L24443 21730
L24405 21748
L24405 21823
L24499 21823
" />
</g>
<g style="fill:#848484; fill-opacity:0.0; 
stroke:#848484; stroke-width:42.5197; stroke-opacity:1; 
stroke-linecap:round; stroke-linejoin:round;">
<text x="23824.4" y="22543.3"
textLength="630.202" font-size="377.953" lengthAdjust="spacingAndGlyphs"
text-anchor="middle" opacity="0">R3</text>
<path d="M23777 22529
L23682 22394
" />
<path d="M23615 22529
L23615 22246
L23723 22246
L23750 22259
L23763 22273
L23777 22300
L23777 22340
L23763 22367
L23750 22381
L23723 22394
L23615 22394
" />
<path d="M23871 22246
L24047 22246
L23952 22354
L23993 22354
L24020 22367
L24033 22381
L24047 22408
L24047 22475
L24033 22502
L24020 22516
L23993 22529
L23912 22529
L23885 22516
L23871 22502
" />
</g>
<g style="fill:#848484; fill-opacity:0.0; 
stroke:#848484; stroke-width:59.0551; stroke-opacity:1; 
stroke-linecap:round; stroke-linejoin:round;">
<g transform="rotate(-90 10682.7 11196.9)">
<text x="10682.7" y="11393.7"
textLength="1555.09" font-size="524.934" lengthAdjust="spacingAndGlyphs"
text-anchor="middle" opacity="0">10 Ω</text>
</g>
<path d="M10860 11646
L10860 11871
" />
<path d="M10860 11759
L10467 11759
L10523 11796
L10560 11834
L10579 11871
" />
<path d="M10467 11403
L10467 11365
L10485 11328
L10504 11309
L10542 11290
L10617 11271
L10710 11271
L10785 11290
L10823 11309
L10842 11328
L10860 11365
L10860 11403
L10842 11440
L10823 11459
L10785 11478
L10710 11496
L10617 11496
L10542 11478
L10504 11459
L10485 11440
L10467 11403
" />
<path d="M10860 10821
L10860 10728
L10785 10728
L10767 10765
L10729 10803
L10673 10821
L10579 10821
L10523 10803
L10485 10765
L10467 10709
L10467 10634
L10485 10578
L10523 10540
L10579 10521
L10673 10521
L10729 10540
L10767 10578
L10785 10615
L10860 10615
L10860 10521
" />
</g>
<g style="fill:#848484; fill-opacity:0.0; 
stroke:#848484; stroke-width:42.5197; stroke-opacity:1; 
stroke-linecap:round; stroke-linejoin:round;">
<g transform="rotate(-90 11438.6 11196.9)">
<text x="11438.6" y="11338.6"
textLength="630.202" font-size="377.953" lengthAdjust="spacingAndGlyphs"
text-anchor="middle" opacity="0">R2</text>
</g>
<path d="M11566 11244
L11431 11338
" />
<path d="M11566 11406
L11283 11406
L11283 11298
L11296 11271
L11310 11257
L11337 11244
L11377 11244
L11404 11257
L11418 11271
L11431 11298
L11431 11406
" />
<path d="M11310 11136
L11296 11122
L11283 11095
L11283 11028
L11296 11001
L11310 10987
L11337 10974
L11364 10974
L11404 10987
L11566 11149
L11566 10974
" />
</g>
<g style="fill:#848484; fill-opacity:0.0; 
stroke:#848484; stroke-width:59.0551; stroke-opacity:1; 
stroke-linecap:round; stroke-linejoin:round;">
<text x="32485.8" y="4125.98"
textLength="1555.09" font-size="524.934" lengthAdjust="spacingAndGlyphs"
text-anchor="middle" opacity="0">10 Ω</text>
<path d="M32035 4107
L31810 4107
" />
<path d="M31923 4107
L31923 3713
L31885 3769
L31848 3807
L31810 3826
" />
<path d="M32279 3713
L32317 3713
L32354 3732
L32373 3751
L32392 3788
L32410 3863
L32410 3957
L32392 4032
L32373 4069
L32354 4088
L32317 4107
L32279 4107
L32242 4088
L32223 4069
L32204 4032
L32185 3957
L32185 3863
L32204 3788
L32223 3751
L32242 3732
L32279 3713
" />
<path d="M32860 4107
L32954 4107
L32954 4032
L32917 4013
L32879 3976
L32860 3919
L32860 3826
L32879 3769
L32917 3732
L32973 3713
L33048 3713
L33104 3732
L33141 3769
L33160 3826
L33160 3919
L33141 3976
L33104 4013
L33067 4032
L33067 4107
L33160 4107
" />
</g>
<g style="fill:#848484; fill-opacity:0.0; 
stroke:#848484; stroke-width:42.5197; stroke-opacity:1; 
stroke-linecap:round; stroke-linejoin:round;">
<text x="32485.8" y="4826.77"
textLength="630.202" font-size="377.953" lengthAdjust="spacingAndGlyphs"
text-anchor="middle" opacity="0">R1</text>
<path d="M32438 4813
L32344 4678
" />
<path d="M32276 4813
L32276 4529
L32384 4529
L32411 4543
L32425 4556
L32438 4583
L32438 4624
L32425 4651
L32411 4664
L32384 4678
L32276 4678
" />
<path d="M32708 4813
L32546 4813
" />
<path d="M32627 4813
L32627 4529
L32600 4570
L32573 4597
L32546 4610
" />
</g>
<g style="fill:#848484; fill-opacity:0.0; 
stroke:#848484; stroke-width:59.0551; stroke-opacity:1; 
stroke-linecap:round; stroke-linejoin:round;">
<g transform="rotate(-90 24529.1 12066.9)">
<text x="24529.1" y="12263.8"
textLength="2417.48" font-size="524.934" lengthAdjust="spacingAndGlyphs"
text-anchor="middle" opacity="0">0.05 µF</text>
</g>
<path d="M24313 13079
L24313 13041
L24332 13004
L24351 12985
L24388 12966
L24463 12948
L24557 12948
L24632 12966
L24669 12985
L24688 13004
L24707 13041
L24707 13079
L24688 13116
L24669 13135
L24632 13154
L24557 13173
L24463 13173
L24388 13154
L24351 13135
L24332 13116
L24313 13079
" />
<path d="M24669 12779
L24688 12760
L24707 12779
L24688 12798
L24669 12779
L24707 12779
" />
<path d="M24313 12516
L24313 12479
L24332 12441
L24351 12423
L24388 12404
L24463 12385
L24557 12385
L24632 12404
L24669 12423
L24688 12441
L24707 12479
L24707 12516
L24688 12554
L24669 12573
L24632 12591
L24557 12610
L24463 12610
L24388 12591
L24351 12573
L24332 12554
L24313 12516
" />
<path d="M24313 12029
L24313 12216
L24501 12235
L24482 12216
L24463 12179
L24463 12085
L24482 12048
L24501 12029
L24538 12010
L24632 12010
L24669 12029
L24688 12048
L24707 12085
L24707 12179
L24688 12216
L24669 12235
" />
<path d="M24444 11541
L24838 11541
" />
<path d="M24650 11354
L24688 11335
L24707 11298
" />
<path d="M24650 11541
L24688 11523
L24707 11485
L24707 11410
L24688 11373
L24650 11354
L24444 11354
" />
<path d="M24501 10998
L24501 11129
" />
<path d="M24707 11129
L24313 11129
L24313 10942
" />
</g>
<g style="fill:#848484; fill-opacity:0.0; 
stroke:#848484; stroke-width:35.4331; stroke-opacity:1; 
stroke-linecap:round; stroke-linejoin:round;">
<g transform="rotate(-90 23643.3 12066.9)">
<text x="23643.3" y="12185"
textLength="537.964" font-size="314.961" lengthAdjust="spacingAndGlyphs"
text-anchor="middle" opacity="0">C6</text>
</g>
<path d="M23727 12106
L23738 12117
L23750 12151
L23750 12173
L23738 12207
L23716 12230
L23693 12241
L23648 12252
L23615 12252
L23570 12241
L23547 12230
L23525 12207
L23513 12173
L23513 12151
L23525 12117
L23536 12106
" />
<path d="M23513 11903
L23513 11948
L23525 11971
L23536 11982
L23570 12005
L23615 12016
L23705 12016
L23727 12005
L23738 11993
L23750 11971
L23750 11926
L23738 11903
L23727 11892
L23705 11881
L23648 11881
L23626 11892
L23615 11903
L23603 11926
L23603 11971
L23615 11993
L23626 12005
L23648 12016
" />
</g>
<g style="fill:#848484; fill-opacity:0.0; 
stroke:#848484; stroke-width:59.0551; stroke-opacity:1; 
stroke-linecap:round; stroke-linejoin:round;">
<g transform="rotate(-90 19607.9 12460.6)">
<text x="19607.9" y="12657.5"
textLength="2220.79" font-size="524.934" lengthAdjust="spacingAndGlyphs"
text-anchor="middle" opacity="0">250 µF</text>
</g>
<path d="M19429 13473
L19411 13454
L19392 13416
L19392 13323
L19411 13285
L19429 13266
L19467 13248
L19504 13248
L19561 13266
L19785 13491
L19785 13248
" />
<path d="M19392 12891
L19392 13079
L19579 13098
L19561 13079
L19542 13041
L19542 12948
L19561 12910
L19579 12891
L19617 12873
L19710 12873
L19748 12891
L19767 12910
L19785 12948
L19785 13041
L19767 13079
L19748 13098
" />
<path d="M19392 12629
L19392 12591
L19411 12554
L19429 12535
L19467 12516
L19542 12498
L19635 12498
L19710 12516
L19748 12535
L19767 12554
L19785 12591
L19785 12629
L19767 12666
L19748 12685
L19710 12704
L19635 12723
L19542 12723
L19467 12704
L19429 12685
L19411 12666
L19392 12629
" />
<path d="M19523 12029
L19917 12029
" />
<path d="M19729 11841
L19767 11823
L19785 11785
" />
<path d="M19729 12029
L19767 12010
L19785 11973
L19785 11898
L19767 11860
L19729 11841
L19523 11841
" />
<path d="M19579 11485
L19579 11616
" />
<path d="M19785 11616
L19392 11616
L19392 11429
" />
<g transform="rotate(-90 18131.5 12460.6)">
<text x="18131.5" y="12657.5"
textLength="845.426" font-size="524.934" lengthAdjust="spacingAndGlyphs"
text-anchor="middle" opacity="0">C5</text>
</g>
<path d="M18272 12526
L18290 12544
L18309 12601
L18309 12638
L18290 12694
L18253 12732
L18215 12751
L18140 12769
L18084 12769
L18009 12751
L17972 12732
L17934 12694
L17915 12638
L17915 12601
L17934 12544
L17953 12526
" />
<path d="M17915 12170
L17915 12357
L18103 12376
L18084 12357
L18065 12320
L18065 12226
L18084 12188
L18103 12170
L18140 12151
L18234 12151
L18272 12170
L18290 12188
L18309 12226
L18309 12320
L18290 12357
L18272 12376
" />
<text x="7993.7" y="23090.6"
textLength="2438.98" font-size="524.934" lengthAdjust="spacingAndGlyphs"
text-anchor="middle" opacity="0">0.05 µF</text>
<path d="M6981 22678
L7018 22678
L7056 22696
L7075 22715
L7093 22753
L7112 22828
L7112 22921
L7093 22996
L7075 23034
L7056 23053
L7018 23071
L6981 23071
L6943 23053
L6925 23034
L6906 22996
L6887 22921
L6887 22828
L6906 22753
L6925 22715
L6943 22696
L6981 22678
" />
<path d="M7281 23034
L7300 23053
L7281 23071
L7262 23053
L7281 23034
L7281 23071
" />
<path d="M7543 22678
L7581 22678
L7618 22696
L7637 22715
L7656 22753
L7674 22828
L7674 22921
L7656 22996
L7637 23034
L7618 23053
L7581 23071
L7543 23071
L7506 23053
L7487 23034
L7468 22996
L7450 22921
L7450 22828
L7468 22753
L7487 22715
L7506 22696
L7543 22678
" />
<path d="M8031 22678
L7843 22678
L7824 22865
L7843 22846
L7881 22828
L7974 22828
L8012 22846
L8031 22865
L8049 22903
L8049 22996
L8031 23034
L8012 23053
L7974 23071
L7881 23071
L7843 23053
L7824 23034
" />
<path d="M8518 22809
L8518 23203
" />
<path d="M8706 23015
L8724 23053
L8762 23071
" />
<path d="M8518 23015
L8537 23053
L8574 23071
L8649 23071
L8687 23053
L8706 23015
L8706 22809
" />
<path d="M9062 22865
L8931 22865
" />
<path d="M8931 23071
L8931 22678
L9118 22678
" />
</g>
<g style="fill:#848484; fill-opacity:0.0; 
stroke:#848484; stroke-width:35.4331; stroke-opacity:1; 
stroke-linecap:round; stroke-linejoin:round;">
<text x="7993.7" y="22126"
textLength="537.964" font-size="314.961" lengthAdjust="spacingAndGlyphs"
text-anchor="middle" opacity="0">C4</text>
<path d="M7954 22092
L7943 22103
L7909 22114
L7886 22114
L7853 22103
L7830 22080
L7819 22058
L7808 22013
L7808 21979
L7819 21934
L7830 21912
L7853 21889
L7886 21878
L7909 21878
L7943 21889
L7954 21901
" />
<path d="M8156 21957
L8156 22114
" />
<path d="M8100 21867
L8044 22035
L8190 22035
" />
</g>
<g style="fill:#848484; fill-opacity:0.0; 
stroke:#848484; stroke-width:59.0551; stroke-opacity:1; 
stroke-linecap:round; stroke-linejoin:round;">
<text x="10749.6" y="24468.5"
textLength="2220.79" font-size="524.934" lengthAdjust="spacingAndGlyphs"
text-anchor="middle" opacity="0">250 µF</text>
<path d="M9737 24093
L9755 24074
L9793 24056
L9887 24056
L9924 24074
L9943 24093
L9962 24131
L9962 24168
L9943 24224
L9718 24449
L9962 24449
" />
<path d="M10318 24056
L10130 24056
L10112 24243
L10130 24224
L10168 24206
L10262 24206
L10299 24224
L10318 24243
L10337 24281
L10337 24374
L10318 24412
L10299 24431
L10262 24449
L10168 24449
L10130 24431
L10112 24412
" />
<path d="M10580 24056
L10618 24056
L10655 24074
L10674 24093
L10693 24131
L10712 24206
L10712 24299
L10693 24374
L10674 24412
L10655 24431
L10618 24449
L10580 24449
L10543 24431
L10524 24412
L10505 24374
L10487 24299
L10487 24206
L10505 24131
L10524 24093
L10543 24074
L10580 24056
" />
<path d="M11180 24187
L11180 24580
" />
<path d="M11368 24393
L11387 24431
L11424 24449
" />
<path d="M11180 24393
L11199 24431
L11237 24449
L11312 24449
L11349 24431
L11368 24393
L11368 24187
" />
<path d="M11724 24243
L11593 24243
" />
<path d="M11593 24449
L11593 24056
L11780 24056
" />
<text x="10749.6" y="22992.1"
textLength="845.426" font-size="524.934" lengthAdjust="spacingAndGlyphs"
text-anchor="middle" opacity="0">C3</text>
<path d="M10683 22935
L10665 22954
L10608 22973
L10571 22973
L10515 22954
L10477 22917
L10459 22879
L10440 22804
L10440 22748
L10459 22673
L10477 22635
L10515 22598
L10571 22579
L10608 22579
L10665 22598
L10683 22617
" />
<path d="M10815 22579
L11058 22579
L10927 22729
L10983 22729
L11021 22748
L11040 22767
L11058 22804
L11058 22898
L11040 22935
L11021 22954
L10983 22973
L10871 22973
L10833 22954
L10815 22935
" />
<text x="24696.5" y="7839.37"
textLength="2438.98" font-size="524.934" lengthAdjust="spacingAndGlyphs"
text-anchor="middle" opacity="0">0.05 µF</text>
<path d="M23684 7426
L23721 7426
L23759 7445
L23777 7464
L23796 7501
L23815 7576
L23815 7670
L23796 7745
L23777 7783
L23759 7801
L23721 7820
L23684 7820
L23646 7801
L23627 7783
L23609 7745
L23590 7670
L23590 7576
L23609 7501
L23627 7464
L23646 7445
L23684 7426
" />
<path d="M23984 7783
L24002 7801
L23984 7820
L23965 7801
L23984 7783
L23984 7820
" />
<path d="M24246 7426
L24284 7426
L24321 7445
L24340 7464
L24358 7501
L24377 7576
L24377 7670
L24358 7745
L24340 7783
L24321 7801
L24284 7820
L24246 7820
L24209 7801
L24190 7783
L24171 7745
L24152 7670
L24152 7576
L24171 7501
L24190 7464
L24209 7445
L24246 7426
" />
<path d="M24733 7426
L24546 7426
L24527 7614
L24546 7595
L24583 7576
L24677 7576
L24715 7595
L24733 7614
L24752 7651
L24752 7745
L24733 7783
L24715 7801
L24677 7820
L24583 7820
L24546 7801
L24527 7783
" />
<path d="M25221 7558
L25221 7951
" />
<path d="M25408 7764
L25427 7801
L25465 7820
" />
<path d="M25221 7764
L25240 7801
L25277 7820
L25352 7820
L25390 7801
L25408 7764
L25408 7558
" />
<path d="M25765 7614
L25633 7614
" />
<path d="M25633 7820
L25633 7426
L25821 7426
" />
</g>
<g style="fill:#848484; fill-opacity:0.0; 
stroke:#848484; stroke-width:35.4331; stroke-opacity:1; 
stroke-linecap:round; stroke-linejoin:round;">
<text x="24696.5" y="6874.8"
textLength="537.964" font-size="314.961" lengthAdjust="spacingAndGlyphs"
text-anchor="middle" opacity="0">C2</text>
<path d="M24657 6841
L24645 6852
L24612 6863
L24589 6863
L24555 6852
L24533 6829
L24522 6807
L24510 6762
L24510 6728
L24522 6683
L24533 6661
L24555 6638
L24589 6627
L24612 6627
L24645 6638
L24657 6649
" />
<path d="M24747 6649
L24758 6638
L24780 6627
L24837 6627
L24859 6638
L24870 6649
L24882 6672
L24882 6694
L24870 6728
L24735 6863
L24882 6863
" />
</g>
<g style="fill:#848484; fill-opacity:0.0; 
stroke:#848484; stroke-width:59.0551; stroke-opacity:1; 
stroke-linecap:round; stroke-linejoin:round;">
<text x="19512.2" y="7127.17"
textLength="2220.79" font-size="524.934" lengthAdjust="spacingAndGlyphs"
text-anchor="middle" opacity="0">250 µF</text>
<path d="M18499 6752
L18518 6733
L18556 6714
L18649 6714
L18687 6733
L18706 6752
L18724 6789
L18724 6827
L18706 6883
L18481 7108
L18724 7108
" />
<path d="M19081 6714
L18893 6714
L18874 6902
L18893 6883
L18931 6864
L19024 6864
L19062 6883
L19081 6902
L19099 6939
L19099 7033
L19081 7070
L19062 7089
L19024 7108
L18931 7108
L18893 7089
L18874 7070
" />
<path d="M19343 6714
L19380 6714
L19418 6733
L19437 6752
L19455 6789
L19474 6864
L19474 6958
L19455 7033
L19437 7070
L19418 7089
L19380 7108
L19343 7108
L19305 7089
L19287 7070
L19268 7033
L19249 6958
L19249 6864
L19268 6789
L19287 6752
L19305 6733
L19343 6714
" />
<path d="M19943 6845
L19943 7239
" />
<path d="M20130 7052
L20149 7089
L20187 7108
" />
<path d="M19943 7052
L19962 7089
L19999 7108
L20074 7108
L20112 7089
L20130 7052
L20130 6845
" />
<path d="M20487 6902
L20355 6902
" />
<path d="M20355 7108
L20355 6714
L20543 6714
" />
<text x="19512.2" y="8603.54"
textLength="845.426" font-size="524.934" lengthAdjust="spacingAndGlyphs"
text-anchor="middle" opacity="0">C1</text>
<path d="M19446 8547
L19427 8566
L19371 8584
L19334 8584
L19277 8566
L19240 8528
L19221 8491
L19202 8416
L19202 8359
L19221 8284
L19240 8247
L19277 8209
L19334 8191
L19371 8191
L19427 8209
L19446 8228
" />
<path d="M19821 8584
L19596 8584
" />
<path d="M19709 8584
L19709 8191
L19671 8247
L19634 8284
L19596 8303
" />
<text x="14513.4" y="15098.4"
textLength="1970.29" font-size="524.934" lengthAdjust="spacingAndGlyphs"
text-anchor="middle" opacity="0">LM386</text>
<path d="M13847 15079
L13660 15079
L13660 14685
" />
<path d="M13979 15079
L13979 14685
L14110 14967
L14241 14685
L14241 15079
" />
<path d="M14391 14685
L14635 14685
L14504 14835
L14560 14835
L14597 14854
L14616 14873
L14635 14910
L14635 15004
L14616 15042
L14597 15060
L14560 15079
L14447 15079
L14410 15060
L14391 15042
" />
<path d="M14860 14854
L14822 14835
L14803 14817
L14785 14779
L14785 14760
L14803 14723
L14822 14704
L14860 14685
L14935 14685
L14972 14704
L14991 14723
L15010 14760
L15010 14779
L14991 14817
L14972 14835
L14935 14854
L14860 14854
L14822 14873
L14803 14892
L14785 14929
L14785 15004
L14803 15042
L14822 15060
L14860 15079
L14935 15079
L14972 15060
L14991 15042
L15010 15004
L15010 14929
L14991 14892
L14972 14873
L14935 14854
" />
<path d="M15347 14685
L15272 14685
L15235 14704
L15216 14723
L15178 14779
L15160 14854
L15160 15004
L15178 15042
L15197 15060
L15235 15079
L15310 15079
L15347 15060
L15366 15042
L15385 15004
L15385 14910
L15366 14873
L15347 14854
L15310 14835
L15235 14835
L15197 14854
L15178 14873
L15160 14910
" />
<text x="14513.4" y="12681.1"
textLength="864.173" font-size="524.934" lengthAdjust="spacingAndGlyphs"
text-anchor="middle" opacity="0">U7</text>
<path d="M14213 12268
L14213 12587
L14232 12624
L14250 12643
L14288 12662
L14363 12662
L14400 12643
L14419 12624
L14438 12587
L14438 12268
" />
<path d="M14588 12268
L14850 12268
L14682 12662
" />
<text x="14513.4" y="25728.3"
textLength="1970.29" font-size="524.934" lengthAdjust="spacingAndGlyphs"
text-anchor="middle" opacity="0">LM386</text>
<path d="M13847 25709
L13660 25709
L13660 25315
" />
<path d="M13979 25709
L13979 25315
L14110 25597
L14241 25315
L14241 25709
" />
<path d="M14391 25315
L14635 25315
L14504 25465
L14560 25465
L14597 25484
L14616 25503
L14635 25540
L14635 25634
L14616 25672
L14597 25690
L14560 25709
L14447 25709
L14410 25690
L14391 25672
" />
<path d="M14860 25484
L14822 25465
L14803 25447
L14785 25409
L14785 25390
L14803 25353
L14822 25334
L14860 25315
L14935 25315
L14972 25334
L14991 25353
L15010 25390
L15010 25409
L14991 25447
L14972 25465
L14935 25484
L14860 25484
L14822 25503
L14803 25522
L14785 25559
L14785 25634
L14803 25672
L14822 25690
L14860 25709
L14935 25709
L14972 25690
L14991 25672
L15010 25634
L15010 25559
L14991 25522
L14972 25503
L14935 25484
" />
<path d="M15347 25315
L15272 25315
L15235 25334
L15216 25353
L15178 25409
L15160 25484
L15160 25634
L15178 25672
L15197 25690
L15235 25709
L15310 25709
L15347 25690
L15366 25672
L15385 25634
L15385 25540
L15366 25503
L15347 25484
L15310 25465
L15235 25465
L15197 25484
L15178 25503
L15160 25540
" />
<text x="14513.4" y="23311"
textLength="864.173" font-size="524.934" lengthAdjust="spacingAndGlyphs"
text-anchor="middle" opacity="0">U6</text>
<path d="M14213 22898
L14213 23217
L14232 23254
L14250 23273
L14288 23292
L14363 23292
L14400 23273
L14419 23254
L14438 23217
L14438 22898
" />
<path d="M14794 22898
L14719 22898
L14682 22917
L14663 22936
L14625 22992
L14607 23067
L14607 23217
L14625 23254
L14644 23273
L14682 23292
L14757 23292
L14794 23273
L14813 23254
L14832 23217
L14832 23123
L14813 23086
L14794 23067
L14757 23048
L14682 23048
L14644 23067
L14625 23086
L14607 23123
" />
<text x="14513.4" y="20216.5"
textLength="1970.29" font-size="524.934" lengthAdjust="spacingAndGlyphs"
text-anchor="middle" opacity="0">LM386</text>
<path d="M13847 20197
L13660 20197
L13660 19804
" />
<path d="M13979 20197
L13979 19804
L14110 20085
L14241 19804
L14241 20197
" />
<path d="M14391 19804
L14635 19804
L14504 19954
L14560 19954
L14597 19972
L14616 19991
L14635 20029
L14635 20122
L14616 20160
L14597 20179
L14560 20197
L14447 20197
L14410 20179
L14391 20160
" />
<path d="M14860 19972
L14822 19954
L14803 19935
L14785 19897
L14785 19879
L14803 19841
L14822 19822
L14860 19804
L14935 19804
L14972 19822
L14991 19841
L15010 19879
L15010 19897
L14991 19935
L14972 19954
L14935 19972
L14860 19972
L14822 19991
L14803 20010
L14785 20047
L14785 20122
L14803 20160
L14822 20179
L14860 20197
L14935 20197
L14972 20179
L14991 20160
L15010 20122
L15010 20047
L14991 20010
L14972 19991
L14935 19972
" />
<path d="M15347 19804
L15272 19804
L15235 19822
L15216 19841
L15178 19897
L15160 19972
L15160 20122
L15178 20160
L15197 20179
L15235 20197
L15310 20197
L15347 20179
L15366 20160
L15385 20122
L15385 20029
L15366 19991
L15347 19972
L15310 19954
L15235 19954
L15197 19972
L15178 19991
L15160 20029
" />
<text x="14513.4" y="17799.2"
textLength="864.173" font-size="524.934" lengthAdjust="spacingAndGlyphs"
text-anchor="middle" opacity="0">U5</text>
<path d="M14213 17386
L14213 17705
L14232 17742
L14250 17761
L14288 17780
L14363 17780
L14400 17761
L14419 17742
L14438 17705
L14438 17386
" />
<path d="M14813 17386
L14625 17386
L14607 17574
L14625 17555
L14663 17536
L14757 17536
L14794 17555
L14813 17574
L14832 17611
L14832 17705
L14813 17742
L14794 17761
L14757 17780
L14663 17780
L14625 17761
L14607 17742
" />
<text x="6604.33" y="6730.32"
textLength="1895.29" font-size="524.934" lengthAdjust="spacingAndGlyphs"
text-anchor="middle" opacity="0">10k Ω</text>
<path d="M5995 6711
L5770 6711
" />
<path d="M5882 6711
L5882 6317
L5845 6374
L5807 6411
L5770 6430
" />
<path d="M6238 6317
L6276 6317
L6313 6336
L6332 6355
L6351 6392
L6369 6467
L6369 6561
L6351 6636
L6332 6674
L6313 6692
L6276 6711
L6238 6711
L6201 6692
L6182 6674
L6163 6636
L6145 6561
L6145 6467
L6163 6392
L6182 6355
L6201 6336
L6238 6317
" />
<path d="M6538 6711
L6538 6317
" />
<path d="M6576 6561
L6688 6711
" />
<path d="M6688 6449
L6538 6599
" />
<path d="M7138 6711
L7232 6711
L7232 6636
L7194 6617
L7157 6580
L7138 6524
L7138 6430
L7157 6374
L7194 6336
L7251 6317
L7326 6317
L7382 6336
L7419 6374
L7438 6430
L7438 6524
L7419 6580
L7382 6617
L7344 6636
L7344 6711
L7438 6711
" />
<text x="7490.16" y="10372"
textLength="4220" font-size="524.934" lengthAdjust="spacingAndGlyphs"
text-anchor="middle" opacity="0">SUB_VOLUME1</text>
<path d="M5493 10334
L5549 10353
L5643 10353
L5681 10334
L5699 10315
L5718 10278
L5718 10240
L5699 10203
L5681 10184
L5643 10165
L5568 10147
L5531 10128
L5512 10109
L5493 10072
L5493 10034
L5512 9997
L5531 9978
L5568 9959
L5662 9959
L5718 9978
" />
<path d="M5887 9959
L5887 10278
L5905 10315
L5924 10334
L5962 10353
L6037 10353
L6074 10334
L6093 10315
L6112 10278
L6112 9959
" />
<path d="M6430 10147
L6487 10165
L6505 10184
L6524 10222
L6524 10278
L6505 10315
L6487 10334
L6449 10353
L6299 10353
L6299 9959
L6430 9959
L6468 9978
L6487 9997
L6505 10034
L6505 10072
L6487 10109
L6468 10128
L6430 10147
L6299 10147
" />
<path d="M6599 10390
L6899 10390
" />
<path d="M6937 9959
L7068 10353
L7199 9959
" />
<path d="M7405 9959
L7480 9959
L7518 9978
L7555 10015
L7574 10090
L7574 10222
L7555 10297
L7518 10334
L7480 10353
L7405 10353
L7368 10334
L7330 10297
L7312 10222
L7312 10090
L7330 10015
L7368 9978
L7405 9959
" />
<path d="M7930 10353
L7743 10353
L7743 9959
" />
<path d="M8061 9959
L8061 10278
L8080 10315
L8099 10334
L8136 10353
L8211 10353
L8249 10334
L8268 10315
L8286 10278
L8286 9959
" />
<path d="M8474 10353
L8474 9959
L8605 10240
L8736 9959
L8736 10353
" />
<path d="M8924 10147
L9055 10147
" />
<path d="M9111 10353
L8924 10353
L8924 9959
L9111 9959
" />
<path d="M9486 10353
L9261 10353
" />
<path d="M9374 10353
L9374 9959
L9336 10015
L9299 10053
L9261 10072
" />
<text x="6604.33" y="13880.3"
textLength="1895.29" font-size="524.934" lengthAdjust="spacingAndGlyphs"
text-anchor="middle" opacity="0">10k Ω</text>
<path d="M5995 13861
L5770 13861
" />
<path d="M5882 13861
L5882 13467
L5845 13524
L5807 13561
L5770 13580
" />
<path d="M6238 13467
L6276 13467
L6313 13486
L6332 13505
L6351 13542
L6369 13617
L6369 13711
L6351 13786
L6332 13824
L6313 13842
L6276 13861
L6238 13861
L6201 13842
L6182 13824
L6163 13786
L6145 13711
L6145 13617
L6163 13542
L6182 13505
L6201 13486
L6238 13467
" />
<path d="M6538 13861
L6538 13467
" />
<path d="M6576 13711
L6688 13861
" />
<path d="M6688 13599
L6538 13749
" />
<path d="M7138 13861
L7232 13861
L7232 13786
L7194 13767
L7157 13730
L7138 13674
L7138 13580
L7157 13524
L7194 13486
L7251 13467
L7326 13467
L7382 13486
L7419 13524
L7438 13580
L7438 13674
L7419 13730
L7382 13767
L7344 13786
L7344 13861
L7438 13861
" />
<text x="8966.54" y="17522"
textLength="5738.56" font-size="524.934" lengthAdjust="spacingAndGlyphs"
text-anchor="middle" opacity="0">LINE_OUT_VOLUME1</text>
<path d="M6416 17503
L6229 17503
L6229 17109
" />
<path d="M6548 17503
L6548 17109
" />
<path d="M6735 17503
L6735 17109
L6960 17503
L6960 17109
" />
<path d="M7148 17297
L7279 17297
" />
<path d="M7335 17503
L7148 17503
L7148 17109
L7335 17109
" />
<path d="M7410 17540
L7710 17540
" />
<path d="M7879 17109
L7954 17109
L7991 17128
L8029 17165
L8047 17240
L8047 17372
L8029 17447
L7991 17484
L7954 17503
L7879 17503
L7841 17484
L7804 17447
L7785 17372
L7785 17240
L7804 17165
L7841 17128
L7879 17109
" />
<path d="M8216 17109
L8216 17428
L8235 17465
L8254 17484
L8291 17503
L8366 17503
L8404 17484
L8422 17465
L8441 17428
L8441 17109
" />
<path d="M8572 17109
L8797 17109
" />
<path d="M8685 17503
L8685 17109
" />
<path d="M8835 17540
L9135 17540
" />
<path d="M9172 17109
L9303 17503
L9435 17109
" />
<path d="M9641 17109
L9716 17109
L9753 17128
L9791 17165
L9810 17240
L9810 17372
L9791 17447
L9753 17484
L9716 17503
L9641 17503
L9603 17484
L9566 17447
L9547 17372
L9547 17240
L9566 17165
L9603 17128
L9641 17109
" />
<path d="M10166 17503
L9978 17503
L9978 17109
" />
<path d="M10297 17109
L10297 17428
L10316 17465
L10335 17484
L10372 17503
L10447 17503
L10485 17484
L10503 17465
L10522 17428
L10522 17109
" />
<path d="M10710 17503
L10710 17109
L10841 17390
L10972 17109
L10972 17503
" />
<path d="M11160 17297
L11291 17297
" />
<path d="M11347 17503
L11160 17503
L11160 17109
L11347 17109
" />
<path d="M11722 17503
L11497 17503
" />
<path d="M11609 17503
L11609 17109
L11572 17165
L11534 17203
L11497 17222
" />
<text x="16143.7" y="9235.04"
textLength="2682.7" font-size="524.934" lengthAdjust="spacingAndGlyphs"
text-anchor="middle" opacity="0">SUB OUT</text>
<path d="M14915 9197
L14971 9216
L15065 9216
L15103 9197
L15121 9178
L15140 9141
L15140 9103
L15121 9066
L15103 9047
L15065 9028
L14990 9010
L14953 8991
L14934 8972
L14915 8935
L14915 8897
L14934 8860
L14953 8841
L14990 8822
L15084 8822
L15140 8841
" />
<path d="M15309 8822
L15309 9141
L15328 9178
L15346 9197
L15384 9216
L15459 9216
L15496 9197
L15515 9178
L15534 9141
L15534 8822
" />
<path d="M15853 9010
L15909 9028
L15928 9047
L15946 9085
L15946 9141
L15928 9178
L15909 9197
L15871 9216
L15721 9216
L15721 8822
L15853 8822
L15890 8841
L15909 8860
L15928 8897
L15928 8935
L15909 8972
L15890 8991
L15853 9010
L15721 9010
" />
<path d="M16490 8822
L16565 8822
L16603 8841
L16640 8878
L16659 8953
L16659 9085
L16640 9160
L16603 9197
L16565 9216
L16490 9216
L16453 9197
L16415 9160
L16396 9085
L16396 8953
L16415 8878
L16453 8841
L16490 8822
" />
<path d="M16827 8822
L16827 9141
L16846 9178
L16865 9197
L16902 9216
L16977 9216
L17015 9197
L17034 9178
L17052 9141
L17052 8822
" />
<path d="M17184 8822
L17409 8822
" />
<path d="M17296 9216
L17296 8822
" />
<text x="13218.9" y="2803.54"
textLength="3057.65" font-size="524.934" lengthAdjust="spacingAndGlyphs"
text-anchor="middle" opacity="0">SUB_OUT1</text>
<path d="M11803 2766
L11859 2784
L11953 2784
L11990 2766
L12009 2747
L12028 2709
L12028 2672
L12009 2634
L11990 2616
L11953 2597
L11878 2578
L11840 2559
L11822 2541
L11803 2503
L11803 2466
L11822 2428
L11840 2409
L11878 2391
L11972 2391
L12028 2409
" />
<path d="M12197 2391
L12197 2709
L12215 2747
L12234 2766
L12272 2784
L12347 2784
L12384 2766
L12403 2747
L12422 2709
L12422 2391
" />
<path d="M12740 2578
L12797 2597
L12815 2616
L12834 2653
L12834 2709
L12815 2747
L12797 2766
L12759 2784
L12609 2784
L12609 2391
L12740 2391
L12778 2409
L12797 2428
L12815 2466
L12815 2503
L12797 2541
L12778 2559
L12740 2578
L12609 2578
" />
<path d="M12909 2822
L13209 2822
" />
<path d="M13378 2391
L13453 2391
L13490 2409
L13528 2447
L13546 2522
L13546 2653
L13528 2728
L13490 2766
L13453 2784
L13378 2784
L13340 2766
L13303 2728
L13284 2653
L13284 2522
L13303 2447
L13340 2409
L13378 2391
" />
<path d="M13715 2391
L13715 2709
L13734 2747
L13753 2766
L13790 2784
L13865 2784
L13903 2766
L13921 2747
L13940 2709
L13940 2391
" />
<path d="M14071 2391
L14296 2391
" />
<path d="M14184 2784
L14184 2391
" />
<path d="M14634 2784
L14409 2784
" />
<path d="M14521 2784
L14521 2391
L14484 2447
L14446 2484
L14409 2503
" />
<text x="11093.7" y="9285.04"
textLength="2776.43" font-size="524.934" lengthAdjust="spacingAndGlyphs"
text-anchor="middle" opacity="0">LINE OUT</text>
<path d="M10025 9266
L9837 9266
L9837 8872
" />
<path d="M10156 9266
L10156 8872
" />
<path d="M10343 9266
L10343 8872
L10568 9266
L10568 8872
" />
<path d="M10756 9060
L10887 9060
" />
<path d="M10943 9266
L10756 9266
L10756 8872
L10943 8872
" />
<path d="M11487 8872
L11562 8872
L11599 8891
L11637 8928
L11656 9003
L11656 9135
L11637 9210
L11599 9247
L11562 9266
L11487 9266
L11449 9247
L11412 9210
L11393 9135
L11393 9003
L11412 8928
L11449 8891
L11487 8872
" />
<path d="M11824 8872
L11824 9191
L11843 9228
L11862 9247
L11899 9266
L11974 9266
L12012 9247
L12031 9228
L12049 9191
L12049 8872
" />
<path d="M12181 8872
L12406 8872
" />
<path d="M12293 9266
L12293 8872
" />
<text x="11093.7" y="5249.61"
textLength="3151.39" font-size="524.934" lengthAdjust="spacingAndGlyphs"
text-anchor="middle" opacity="0">LINE_OUT1</text>
<path d="M9837 5230
L9650 5230
L9650 4837
" />
<path d="M9968 5230
L9968 4837
" />
<path d="M10156 5230
L10156 4837
L10381 5230
L10381 4837
" />
<path d="M10568 5024
L10700 5024
" />
<path d="M10756 5230
L10568 5230
L10568 4837
L10756 4837
" />
<path d="M10831 5268
L11131 5268
" />
<path d="M11299 4837
L11374 4837
L11412 4855
L11449 4893
L11468 4968
L11468 5099
L11449 5174
L11412 5212
L11374 5230
L11299 5230
L11262 5212
L11224 5174
L11206 5099
L11206 4968
L11224 4893
L11262 4855
L11299 4837
" />
<path d="M11637 4837
L11637 5155
L11656 5193
L11674 5212
L11712 5230
L11787 5230
L11824 5212
L11843 5193
L11862 5155
L11862 4837
" />
<path d="M11993 4837
L12218 4837
" />
<path d="M12106 5230
L12106 4837
" />
<path d="M12556 5230
L12331 5230
" />
<path d="M12443 5230
L12443 4837
L12406 4893
L12368 4930
L12331 4949
" />
</g>
<g style="fill:#848484; fill-opacity:0.0; 
stroke:#848484; stroke-width:35.4331; stroke-opacity:1; 
stroke-linecap:round; stroke-linejoin:round;">
<text x="46504.3" y="31387.8"
textLength="1719.07" font-size="314.961" lengthAdjust="spacingAndGlyphs"
text-anchor="middle" opacity="0">WD65C22</text>
<path d="M45716 31140
L45773 31376
L45818 31207
L45863 31376
L45919 31140
" />
<path d="M46009 31376
L46009 31140
L46065 31140
L46099 31151
L46121 31174
L46133 31196
L46144 31241
L46144 31275
L46133 31320
L46121 31342
L46099 31365
L46065 31376
L46009 31376
" />
<path d="M46346 31140
L46301 31140
L46279 31151
L46268 31162
L46245 31196
L46234 31241
L46234 31331
L46245 31354
L46256 31365
L46279 31376
L46324 31376
L46346 31365
L46358 31354
L46369 31331
L46369 31275
L46358 31252
L46346 31241
L46324 31230
L46279 31230
L46256 31241
L46245 31252
L46234 31275
" />
<path d="M46583 31140
L46470 31140
L46459 31252
L46470 31241
L46493 31230
L46549 31230
L46571 31241
L46583 31252
L46594 31275
L46594 31331
L46583 31354
L46571 31365
L46549 31376
L46493 31376
L46470 31365
L46459 31354
" />
<path d="M46830 31354
L46819 31365
L46785 31376
L46763 31376
L46729 31365
L46706 31342
L46695 31320
L46684 31275
L46684 31241
L46695 31196
L46706 31174
L46729 31151
L46763 31140
L46785 31140
L46819 31151
L46830 31162
" />
<path d="M46920 31162
L46931 31151
L46954 31140
L47010 31140
L47033 31151
L47044 31162
L47055 31185
L47055 31207
L47044 31241
L46909 31376
L47055 31376
" />
<path d="M47145 31162
L47156 31151
L47179 31140
L47235 31140
L47257 31151
L47269 31162
L47280 31185
L47280 31207
L47269 31241
L47134 31376
L47280 31376
" />
</g>
<g style="fill:#848484; fill-opacity:0.0; 
stroke:#848484; stroke-width:59.0551; stroke-opacity:1; 
stroke-linecap:round; stroke-linejoin:round;">
<text x="46504.3" y="18159.4"
textLength="4133.05" font-size="524.934" lengthAdjust="spacingAndGlyphs"
text-anchor="middle" opacity="0">SOUND_CTRL1</text>
<path d="M44535 18121
L44592 18140
L44685 18140
L44723 18121
L44742 18103
L44760 18065
L44760 18028
L44742 17990
L44723 17971
L44685 17953
L44610 17934
L44573 17915
L44554 17896
L44535 17859
L44535 17821
L44554 17784
L44573 17765
L44610 17747
L44704 17747
L44760 17765
" />
<path d="M45004 17747
L45079 17747
L45117 17765
L45154 17803
L45173 17878
L45173 18009
L45154 18084
L45117 18121
L45079 18140
L45004 18140
L44967 18121
L44929 18084
L44910 18009
L44910 17878
L44929 17803
L44967 17765
L45004 17747
" />
<path d="M45341 17747
L45341 18065
L45360 18103
L45379 18121
L45416 18140
L45491 18140
L45529 18121
L45548 18103
L45566 18065
L45566 17747
" />
<path d="M45754 18140
L45754 17747
L45979 18140
L45979 17747
" />
<path d="M46166 18140
L46166 17747
L46260 17747
L46316 17765
L46354 17803
L46373 17840
L46391 17915
L46391 17971
L46373 18046
L46354 18084
L46316 18121
L46260 18140
L46166 18140
" />
<path d="M46466 18178
L46766 18178
" />
<path d="M47085 18103
L47066 18121
L47010 18140
L46973 18140
L46916 18121
L46879 18084
L46860 18046
L46841 17971
L46841 17915
L46860 17840
L46879 17803
L46916 17765
L46973 17747
L47010 17747
L47066 17765
L47085 17784
" />
<path d="M47197 17747
L47422 17747
" />
<path d="M47310 18140
L47310 17747
" />
<path d="M47779 18140
L47647 17953
" />
<path d="M47554 18140
L47554 17747
L47704 17747
L47741 17765
L47760 17784
L47779 17821
L47779 17878
L47760 17915
L47741 17934
L47704 17953
L47554 17953
" />
<path d="M48135 18140
L47947 18140
L47947 17747
" />
<path d="M48472 18140
L48247 18140
" />
<path d="M48360 18140
L48360 17747
L48322 17803
L48285 17840
L48247 17859
" />
<text x="28836.2" y="14106.3"
textLength="2682.7" font-size="524.934" lengthAdjust="spacingAndGlyphs"
text-anchor="middle" opacity="0">74HCT04</text>
<path d="M27589 13693
L27851 13693
L27683 14087
" />
<path d="M28170 13825
L28170 14087
" />
<path d="M28076 13675
L27983 13956
L28226 13956
" />
<path d="M28376 14087
L28376 13693
" />
<path d="M28376 13881
L28601 13881
" />
<path d="M28601 14087
L28601 13693
" />
<path d="M29014 14050
L28995 14068
L28939 14087
L28901 14087
L28845 14068
L28808 14031
L28789 13993
L28770 13918
L28770 13862
L28789 13787
L28808 13750
L28845 13712
L28901 13693
L28939 13693
L28995 13712
L29014 13731
" />
<path d="M29126 13693
L29351 13693
" />
<path d="M29239 14087
L29239 13693
" />
<path d="M29558 13693
L29595 13693
L29632 13712
L29651 13731
L29670 13768
L29689 13843
L29689 13937
L29670 14012
L29651 14050
L29632 14068
L29595 14087
L29558 14087
L29520 14068
L29501 14050
L29483 14012
L29464 13937
L29464 13843
L29483 13768
L29501 13731
L29520 13712
L29558 13693
" />
<path d="M30026 13825
L30026 14087
" />
<path d="M29932 13675
L29839 13956
L30082 13956
" />
<text x="28836.2" y="18023.6"
textLength="864.173" font-size="524.934" lengthAdjust="spacingAndGlyphs"
text-anchor="middle" opacity="0">U4</text>
<path d="M28536 17611
L28536 17929
L28555 17967
L28573 17986
L28611 18004
L28686 18004
L28723 17986
L28742 17967
L28761 17929
L28761 17611
" />
<path d="M29117 17742
L29117 18004
" />
<path d="M29023 17592
L28929 17873
L29173 17873
" />
<text x="24355.9" y="21641.7"
textLength="2682.7" font-size="524.934" lengthAdjust="spacingAndGlyphs"
text-anchor="middle" opacity="0">74HCT21</text>
<path d="M23109 21229
L23371 21229
L23202 21622
" />
<path d="M23690 21360
L23690 21622
" />
<path d="M23596 21210
L23502 21491
L23746 21491
" />
<path d="M23896 21622
L23896 21229
" />
<path d="M23896 21416
L24121 21416
" />
<path d="M24121 21622
L24121 21229
" />
<path d="M24534 21585
L24515 21604
L24459 21622
L24421 21622
L24365 21604
L24327 21566
L24309 21529
L24290 21454
L24290 21398
L24309 21323
L24327 21285
L24365 21248
L24421 21229
L24459 21229
L24515 21248
L24534 21266
" />
<path d="M24646 21229
L24871 21229
" />
<path d="M24758 21622
L24758 21229
" />
<path d="M24983 21266
L25002 21248
L25040 21229
L25133 21229
L25171 21248
L25190 21266
L25208 21304
L25208 21341
L25190 21398
L24965 21622
L25208 21622
" />
<path d="M25583 21622
L25358 21622
" />
<path d="M25471 21622
L25471 21229
L25433 21285
L25396 21323
L25358 21341
" />
<text x="24355.9" y="17724.4"
textLength="864.173" font-size="524.934" lengthAdjust="spacingAndGlyphs"
text-anchor="middle" opacity="0">U3</text>
<path d="M24055 17311
L24055 17630
L24074 17668
L24093 17686
L24130 17705
L24205 17705
L24243 17686
L24262 17668
L24280 17630
L24280 17311
" />
<path d="M24430 17311
L24674 17311
L24543 17461
L24599 17461
L24637 17480
L24655 17499
L24674 17536
L24674 17630
L24655 17668
L24637 17686
L24599 17705
L24487 17705
L24449 17686
L24430 17668
" />
<text x="19631.5" y="22429.1"
textLength="2682.7" font-size="524.934" lengthAdjust="spacingAndGlyphs"
text-anchor="middle" opacity="0">74HCT08</text>
<path d="M18384 22016
L18647 22016
L18478 22410
" />
<path d="M18965 22147
L18965 22410
" />
<path d="M18872 21997
L18778 22279
L19022 22279
" />
<path d="M19172 22410
L19172 22016
" />
<path d="M19172 22204
L19397 22204
" />
<path d="M19397 22410
L19397 22016
" />
<path d="M19809 22372
L19790 22391
L19734 22410
L19697 22410
L19640 22391
L19603 22354
L19584 22316
L19565 22241
L19565 22185
L19584 22110
L19603 22072
L19640 22035
L19697 22016
L19734 22016
L19790 22035
L19809 22054
" />
<path d="M19922 22016
L20147 22016
" />
<path d="M20034 22410
L20034 22016
" />
<path d="M20353 22016
L20390 22016
L20428 22035
L20447 22054
L20465 22091
L20484 22166
L20484 22260
L20465 22335
L20447 22372
L20428 22391
L20390 22410
L20353 22410
L20315 22391
L20297 22372
L20278 22335
L20259 22260
L20259 22166
L20278 22091
L20297 22054
L20315 22035
L20353 22016
" />
<path d="M20709 22185
L20671 22166
L20653 22147
L20634 22110
L20634 22091
L20653 22054
L20671 22035
L20709 22016
L20784 22016
L20821 22035
L20840 22054
L20859 22091
L20859 22110
L20840 22147
L20821 22166
L20784 22185
L20709 22185
L20671 22204
L20653 22222
L20634 22260
L20634 22335
L20653 22372
L20671 22391
L20709 22410
L20784 22410
L20821 22391
L20840 22372
L20859 22335
L20859 22260
L20840 22222
L20821 22204
L20784 22185
" />
<text x="19631.5" y="18511.8"
textLength="864.173" font-size="524.934" lengthAdjust="spacingAndGlyphs"
text-anchor="middle" opacity="0">U2</text>
<path d="M19331 18099
L19331 18418
L19350 18455
L19369 18474
L19406 18493
L19481 18493
L19519 18474
L19537 18455
L19556 18418
L19556 18099
" />
<path d="M19725 18136
L19743 18118
L19781 18099
L19875 18099
L19912 18118
L19931 18136
L19950 18174
L19950 18211
L19931 18268
L19706 18493
L19950 18493
" />
<text x="28836.2" y="5838.58"
textLength="2682.7" font-size="524.934" lengthAdjust="spacingAndGlyphs"
text-anchor="middle" opacity="0">74HCT74</text>
<path d="M27589 5426
L27851 5426
L27683 5819
" />
<path d="M28170 5557
L28170 5819
" />
<path d="M28076 5407
L27983 5688
L28226 5688
" />
<path d="M28376 5819
L28376 5426
" />
<path d="M28376 5613
L28601 5613
" />
<path d="M28601 5819
L28601 5426
" />
<path d="M29014 5782
L28995 5801
L28939 5819
L28901 5819
L28845 5801
L28808 5763
L28789 5726
L28770 5651
L28770 5594
L28789 5519
L28808 5482
L28845 5444
L28901 5426
L28939 5426
L28995 5444
L29014 5463
" />
<path d="M29126 5426
L29351 5426
" />
<path d="M29239 5819
L29239 5426
" />
<path d="M29445 5426
L29707 5426
L29539 5819
" />
<path d="M30026 5557
L30026 5819
" />
<path d="M29932 5407
L29839 5688
L30082 5688
" />
<text x="28836.2" y="9755.91"
textLength="864.173" font-size="524.934" lengthAdjust="spacingAndGlyphs"
text-anchor="middle" opacity="0">U1</text>
<path d="M28536 9343
L28536 9662
L28555 9699
L28573 9718
L28611 9737
L28686 9737
L28723 9718
L28742 9699
L28761 9662
L28761 9343
" />
<path d="M29154 9737
L28929 9737
" />
<path d="M29042 9737
L29042 9343
L29004 9399
L28967 9437
L28929 9455
" />
</g>
<g style="fill:#848484; fill-opacity:0.0; 
stroke:#848484; stroke-width:35.4331; stroke-opacity:1; 
stroke-linecap:round; stroke-linejoin:round;">
<text x="36404.3" y="6303.94"
textLength="1899.04" font-size="314.961" lengthAdjust="spacingAndGlyphs"
text-anchor="middle" opacity="0">AY3-8913</text>
<path d="M35538 6225
L35650 6225
" />
<path d="M35515 6292
L35594 6056
L35673 6292
" />
<path d="M35796 6180
L35796 6292
" />
<path d="M35718 6056
L35796 6180
L35875 6056
" />
<path d="M35931 6056
L36078 6056
L35999 6146
L36033 6146
L36055 6157
L36066 6168
L36078 6191
L36078 6247
L36066 6270
L36055 6281
L36033 6292
L35965 6292
L35943 6281
L35931 6270
" />
<path d="M36179 6202
L36359 6202
" />
<path d="M36505 6157
L36483 6146
L36471 6135
L36460 6112
L36460 6101
L36471 6078
L36483 6067
L36505 6056
L36550 6056
L36573 6067
L36584 6078
L36595 6101
L36595 6112
L36584 6135
L36573 6146
L36550 6157
L36505 6157
L36483 6168
L36471 6180
L36460 6202
L36460 6247
L36471 6270
L36483 6281
L36505 6292
L36550 6292
L36573 6281
L36584 6270
L36595 6247
L36595 6202
L36584 6180
L36573 6168
L36550 6157
" />
<path d="M36708 6292
L36753 6292
L36775 6281
L36786 6270
L36809 6236
L36820 6191
L36820 6101
L36809 6078
L36798 6067
L36775 6056
L36730 6056
L36708 6067
L36696 6078
L36685 6101
L36685 6157
L36696 6180
L36708 6191
L36730 6202
L36775 6202
L36798 6191
L36809 6180
L36820 6157
" />
<path d="M37045 6292
L36910 6292
" />
<path d="M36978 6292
L36978 6056
L36955 6090
L36933 6112
L36910 6123
" />
<path d="M37124 6056
L37270 6056
L37191 6146
L37225 6146
L37247 6157
L37259 6168
L37270 6191
L37270 6247
L37259 6270
L37247 6281
L37225 6292
L37157 6292
L37135 6281
L37124 6270
" />
</g>
<g style="fill:#848484; fill-opacity:0.0; 
stroke:#848484; stroke-width:59.0551; stroke-opacity:1; 
stroke-linecap:round; stroke-linejoin:round;">
<text x="36404.3" y="15693.7"
textLength="3889.33" font-size="524.934" lengthAdjust="spacingAndGlyphs"
text-anchor="middle" opacity="0">SOUND_GEN1</text>
<path d="M34557 15656
L34613 15674
L34707 15674
L34745 15656
L34763 15637
L34782 15599
L34782 15562
L34763 15524
L34745 15506
L34707 15487
L34632 15468
L34595 15449
L34576 15431
L34557 15393
L34557 15356
L34576 15318
L34595 15300
L34632 15281
L34726 15281
L34782 15300
" />
<path d="M35026 15281
L35101 15281
L35138 15300
L35176 15337
L35195 15412
L35195 15543
L35176 15618
L35138 15656
L35101 15674
L35026 15674
L34988 15656
L34951 15618
L34932 15543
L34932 15412
L34951 15337
L34988 15300
L35026 15281
" />
<path d="M35363 15281
L35363 15599
L35382 15637
L35401 15656
L35438 15674
L35513 15674
L35551 15656
L35570 15637
L35588 15599
L35588 15281
" />
<path d="M35776 15674
L35776 15281
L36001 15674
L36001 15281
" />
<path d="M36188 15674
L36188 15281
L36282 15281
L36338 15300
L36376 15337
L36394 15374
L36413 15449
L36413 15506
L36394 15581
L36376 15618
L36338 15656
L36282 15674
L36188 15674
" />
<path d="M36488 15712
L36788 15712
" />
<path d="M37088 15300
L37051 15281
L36994 15281
L36938 15300
L36901 15337
L36882 15374
L36863 15449
L36863 15506
L36882 15581
L36901 15618
L36938 15656
L36994 15674
L37032 15674
L37088 15656
L37107 15637
L37107 15506
L37032 15506
" />
<path d="M37276 15468
L37407 15468
" />
<path d="M37463 15674
L37276 15674
L37276 15281
L37463 15281
" />
<path d="M37632 15674
L37632 15281
L37857 15674
L37857 15281
" />
<path d="M38250 15674
L38026 15674
" />
<path d="M38138 15674
L38138 15281
L38100 15337
L38063 15374
L38026 15393
" />
<g >
</g>
</g>
<g style="fill:#000000; fill-opacity:0.0; 
stroke:#000000; stroke-width:59.0551; stroke-opacity:1; 
stroke-linecap:round; stroke-linejoin:round;">
</g>
<g style="fill:#C2C200; fill-opacity:0.0; 
stroke:#C2C200; stroke-width:59.0551; stroke-opacity:1; 
stroke-linecap:round; stroke-linejoin:round;">
</g>
<g style="fill:#C2C200; fill-opacity:0.0; 
stroke:#C2C200; stroke-width:19.685; stroke-opacity:1; 
stroke-linecap:round; stroke-linejoin:round;">
<path d="M58054 1456
L57454 1456
" />
<path d="M58054 30856
L58054 1456
" />
<path d="M57454 30856
L58054 30856
" />
<path d="M5454 1456
L7454 1456
" />
<path d="M5454 30856
L5454 1456
" />
<path d="M7454 30856
L5454 30856
" />
<path d="M57454 1456
L7454 1456
" />
<path d="M57454 30856
L7454 30856
" />
<g >
</g>
<g >
</g>
<g >
</g>
<g >
</g>
<g >
</g>
<g >
</g>
<g >
</g>
<g >
</g>
<g >
</g>
<g >
</g>
<g >
</g>
<g >
</g>
<g >
</g>
<g >
</g>
<g >
</g>
<g >
</g>
<g >
</g>
<g >
</g>
<g >
</g>
<g >
</g>
<g >
</g>
<g >
</g>
<g >
</g>
<g >
</g>
<g >
</g>
<g >
</g>
<g >
</g>
<g >
</g>
<g >
</g>
<g >
</g>
<g >
</g>
<g >
</g>
<g >
</g>
<g >
</g>
<g >
</g>
<g >
</g>
</g> 
</svg>
