<?xml version="1.0" standalone="no"?>
 <!DOCTYPE svg PUBLIC "-//W3C//DTD SVG 1.1//EN" 
 "http://www.w3.org/Graphics/SVG/1.1/DTD/svg11.dtd"> 
<svg
  xmlns:svg="http://www.w3.org/2000/svg"
  xmlns="http://www.w3.org/2000/svg"
  xmlns:xlink="http://www.w3.org/1999/xlink"
  version="1.1"
  width="16.179800cm" height="8.206740cm" viewBox="0 0 63700 32310">
<title>SVG Picture created as Sound-F_CrtYd.svg date 2022/05/05 13:00:00 </title>
  <desc>Picture generated by PCBNEW </desc>
<g style="fill:#000000; fill-opacity:1;stroke:#000000; stroke-opacity:1;
stroke-linecap:round; stroke-linejoin:round;"
 transform="translate(0 0) scale(1 1)">
</g>
<g style="fill:#000000; fill-opacity:0.0; 
stroke:#000000; stroke-width:-0.000393701; stroke-opacity:1; 
stroke-linecap:round; stroke-linejoin:round;">
</g>
<g style="fill:#C2C2C2; fill-opacity:0.0; 
stroke:#C2C2C2; stroke-width:-0.000393701; stroke-opacity:1; 
stroke-linecap:round; stroke-linejoin:round;">
</g>
<g style="fill:#C2C2C2; fill-opacity:0.0; 
stroke:#C2C2C2; stroke-width:19.685; stroke-opacity:1; 
stroke-linecap:round; stroke-linejoin:round;">
<path d="M54745 30165
L54745 8748
" />
<path d="M54745 8748
L60611 8748
" />
<path d="M60611 8748
L60611 30165
" />
<path d="M60611 30165
L54745 30165
" />
<path d="M21261 9389
L22088 9389
" />
<path d="M22088 9389
L22088 6641
" />
<path d="M22088 6641
L21261 6641
" />
<path d="M21261 6641
L21261 9389
" />
<path d="M27993 4271
L27993 5098
" />
<path d="M27993 5098
L30741 5098
" />
<path d="M30741 5098
L30741 4271
" />
<path d="M30741 4271
L27993 4271
" />
<path d="M23229 8917
L23229 9901
" />
<path d="M23229 9901
L25040 9901
" />
<path d="M25040 9901
L25040 8917
" />
<path d="M25040 8917
L23229 8917
" />
<path d="M18505 3405
L18505 4389
" />
<path d="M18505 4389
L20316 4389
" />
<path d="M20316 4389
L20316 3405
" />
<path d="M20316 3405
L18505 3405
" />
<circle cx="18229.9" cy="23976.4" r="1082.68" /> 
<path d="M13387 26240
L13387 27224
" />
<path d="M13387 27224
L15198 27224
" />
<path d="M15198 27224
L15198 26240
" />
<path d="M15198 26240
L13387 26240
" />
<circle cx="21773.2" cy="11771.7" r="1082.68" /> 
<path d="M15749 26240
L15749 27224
" />
<path d="M15749 27224
L17560 27224
" />
<path d="M17560 27224
L17560 26240
" />
<path d="M17560 26240
L15749 26240
" />
<path d="M22450 22814
L25198 22814
" />
<path d="M22450 21988
L22450 22814
" />
<path d="M25198 21988
L22450 21988
" />
<path d="M25198 22814
L25198 21988
" />
<path d="M11851 12570
L11851 9822
" />
<path d="M11025 12570
L11851 12570
" />
<path d="M11025 9822
L11025 12570
" />
<path d="M11851 9822
L11025 9822
" />
<path d="M31111 5098
L33859 5098
" />
<path d="M31111 4271
L31111 5098
" />
<path d="M33859 4271
L31111 4271
" />
<path d="M33859 5098
L33859 4271
" />
<path d="M23151 12972
L24135 12972
" />
<path d="M24135 12972
L24135 11161
" />
<path d="M24135 11161
L23151 11161
" />
<path d="M23151 11161
L23151 12972
" />
<circle cx="18131.5" cy="12460.6" r="1082.68" /> 
<path d="M7088 21515
L7088 22500
" />
<path d="M7088 22500
L8899 22500
" />
<path d="M8899 22500
L8899 21515
" />
<path d="M8899 21515
L7088 21515
" />
<circle cx="10749.6" cy="22795.3" r="1082.68" /> 
<path d="M23790 6264
L23790 7248
" />
<path d="M23790 7248
L25601 7248
" />
<path d="M25601 7248
L25601 6264
" />
<path d="M25601 6264
L23790 6264
" />
<circle cx="19512.2" cy="8406.69" r="1082.68" /> 
<path d="M12403 10354
L12403 14606
" />
<path d="M12403 14606
L16615 14606
" />
<path d="M16615 14606
L16615 10354
" />
<path d="M16615 10354
L12403 10354
" />
<path d="M12403 20984
L12403 25236
" />
<path d="M12403 25236
L16615 25236
" />
<path d="M16615 25236
L16615 20984
" />
<path d="M16615 20984
L12403 20984
" />
<path d="M12403 15472
L12403 19724
" />
<path d="M12403 19724
L16615 19724
" />
<path d="M16615 19724
L16615 15472
" />
<path d="M16615 15472
L12403 15472
" />
<path d="M9064 13423
L9064 6927
" />
<path d="M9064 6927
L9 6927
" />
<path d="M9 6927
L9 13423
" />
<path d="M9 13423
L9064 13423
" />
<path d="M12017 20573
L12017 14077
" />
<path d="M12017 14077
L9 14077
" />
<path d="M9 14077
L9 20573
" />
<path d="M9 20573
L12017 20573
" />
<path d="M14332 1262
L14332 8742
" />
<path d="M14332 8742
L17954 8742
" />
<path d="M17954 8742
L17954 1262
" />
<path d="M17954 1262
L14332 1262
" />
<path d="M9282 1312
L9282 8792
" />
<path d="M9282 8792
L12904 8792
" />
<path d="M12904 8792
L12904 1312
" />
<path d="M12904 1312
L9282 1312
" />
<path d="M41338 7868
L41338 9
" />
<path d="M41799 7868
L41338 7868
" />
<path d="M41799 31072
L41799 7868
" />
<path d="M51209 31072
L41799 31072
" />
<path d="M51209 4852
L51209 31072
" />
<path d="M43543 4852
L51209 4852
" />
<path d="M43543 9
L43543 4852
" />
<path d="M41338 9
L43543 9
" />
<path d="M26733 21456
L30946 21456
" />
<path d="M26733 14192
L26733 21456
" />
<path d="M30946 14192
L26733 14192
" />
<path d="M30946 21456
L30946 14192
" />
<path d="M26458 13897
L22245 13897
" />
<path d="M26458 21161
L26458 13897
" />
<path d="M22245 21161
L26458 21161
" />
<path d="M22245 13897
L22245 21161
" />
<path d="M21733 14685
L17521 14685
" />
<path d="M21733 21948
L21733 14685
" />
<path d="M17521 21948
L21733 21948
" />
<path d="M17521 14685
L17521 21948
" />
<path d="M26733 13188
L30946 13188
" />
<path d="M26733 5925
L26733 13188
" />
<path d="M30946 5925
L26733 5925
" />
<path d="M30946 13188
L30946 5925
" />
<path d="M41569 21595
L41569 29453
" />
<path d="M41109 21595
L41569 21595
" />
<path d="M41109 6382
L41109 21595
" />
<path d="M31699 6382
L41109 6382
" />
<path d="M31699 24611
L31699 6382
" />
<path d="M39364 24611
L31699 24611
" />
<path d="M39364 29453
L39364 24611
" />
<path d="M41569 29453
L39364 29453
" />
<g >
</g>
<g >
</g>
<g >
</g>
<g >
</g>
<g >
</g>
<g >
</g>
<g >
</g>
<g >
</g>
<g >
</g>
<g >
</g>
<g >
</g>
<g >
</g>
<g >
</g>
<g >
</g>
<g >
</g>
<g >
</g>
<g >
</g>
<g >
</g>
<g >
</g>
<g >
</g>
<g >
</g>
<g >
</g>
<g >
</g>
<g >
</g>
<g >
</g>
<g >
</g>
<g >
</g>
<g >
</g>
<g >
</g>
<g >
</g>
<g >
</g>
<g >
</g>
<g >
</g>
<g >
</g>
<g >
</g>
<g >
</g>
</g>
<g style="fill:#000000; fill-opacity:0.0; 
stroke:#000000; stroke-width:19.685; stroke-opacity:1; 
stroke-linecap:round; stroke-linejoin:round;">
</g>
<g style="fill:#C2C200; fill-opacity:0.0; 
stroke:#C2C200; stroke-width:19.685; stroke-opacity:1; 
stroke-linecap:round; stroke-linejoin:round;">
<path d="M58054 1456
L57454 1456
" />
<path d="M58054 30856
L58054 1456
" />
<path d="M57454 30856
L58054 30856
" />
<path d="M5454 1456
L7454 1456
" />
<path d="M5454 30856
L5454 1456
" />
<path d="M7454 30856
L5454 30856
" />
<path d="M57454 1456
L7454 1456
" />
<path d="M57454 30856
L7454 30856
" />
<g >
</g>
<g >
</g>
<g >
</g>
<g >
</g>
<g >
</g>
<g >
</g>
<g >
</g>
<g >
</g>
<g >
</g>
<g >
</g>
<g >
</g>
<g >
</g>
<g >
</g>
<g >
</g>
<g >
</g>
<g >
</g>
<g >
</g>
<g >
</g>
<g >
</g>
<g >
</g>
<g >
</g>
<g >
</g>
<g >
</g>
<g >
</g>
<g >
</g>
<g >
</g>
<g >
</g>
<g >
</g>
<g >
</g>
<g >
</g>
<g >
</g>
<g >
</g>
<g >
</g>
<g >
</g>
<g >
</g>
<g >
</g>
</g> 
</svg>
