<?xml version="1.0" standalone="no"?>
 <!DOCTYPE svg PUBLIC "-//W3C//DTD SVG 1.1//EN" 
 "http://www.w3.org/Graphics/SVG/1.1/DTD/svg11.dtd"> 
<svg
  xmlns:svg="http://www.w3.org/2000/svg"
  xmlns="http://www.w3.org/2000/svg"
  xmlns:xlink="http://www.w3.org/1999/xlink"
  version="1.1"
  width="16.179800cm" height="8.206740cm" viewBox="0 0 63700 32310">
<title>SVG Picture created as Sound-B_Mask.svg date 2022/05/05 13:00:00 </title>
  <desc>Picture generated by PCBNEW </desc>
<g style="fill:#000000; fill-opacity:1;stroke:#000000; stroke-opacity:1;
stroke-linecap:round; stroke-linejoin:round;"
 transform="translate(0 0) scale(1 1)">
</g>
<g style="fill:#000000; fill-opacity:0.0; 
stroke:#000000; stroke-width:-0.000393701; stroke-opacity:1; 
stroke-linecap:round; stroke-linejoin:round;">
<g >
</g>
<g style="fill:#848400; fill-opacity:0.0; 
stroke:#848400; stroke-width:-0.000393701; stroke-opacity:1; 
stroke-linecap:round; stroke-linejoin:round;">
</g>
<g style="fill:#848400; fill-opacity:1.0; 
stroke:#848400; stroke-width:0; stroke-opacity:1; 
stroke-linecap:round; stroke-linejoin:round;">
<circle cx="55454.3" cy="29456.7" r="334.646" /> 
<circle cx="55454.3" cy="9456.69" r="334.646" /> 
<circle cx="56454.3" cy="10456.7" r="334.646" /> 
<circle cx="55454.3" cy="10456.7" r="334.646" /> 
<circle cx="56454.3" cy="11456.7" r="334.646" /> 
<circle cx="55454.3" cy="11456.7" r="334.646" /> 
<circle cx="56454.3" cy="12456.7" r="334.646" /> 
<circle cx="55454.3" cy="12456.7" r="334.646" /> 
<circle cx="56454.3" cy="13456.7" r="334.646" /> 
<circle cx="55454.3" cy="13456.7" r="334.646" /> 
<circle cx="56454.3" cy="14456.7" r="334.646" /> 
<circle cx="55454.3" cy="14456.7" r="334.646" /> 
<circle cx="56454.3" cy="15456.7" r="334.646" /> 
<circle cx="55454.3" cy="15456.7" r="334.646" /> 
<circle cx="56454.3" cy="16456.7" r="334.646" /> 
<circle cx="55454.3" cy="16456.7" r="334.646" /> 
<circle cx="56454.3" cy="17456.7" r="334.646" /> 
<circle cx="55454.3" cy="17456.7" r="334.646" /> 
<circle cx="56454.3" cy="18456.7" r="334.646" /> 
<circle cx="55454.3" cy="18456.7" r="334.646" /> 
<circle cx="56454.3" cy="19456.7" r="334.646" /> 
<circle cx="55454.3" cy="19456.7" r="334.646" /> 
<circle cx="56454.3" cy="20456.7" r="334.646" /> 
<circle cx="55454.3" cy="20456.7" r="334.646" /> 
<circle cx="56454.3" cy="21456.7" r="334.646" /> 
<circle cx="55454.3" cy="21456.7" r="334.646" /> 
<circle cx="56454.3" cy="22456.7" r="334.646" /> 
<circle cx="55454.3" cy="22456.7" r="334.646" /> 
<circle cx="56454.3" cy="23456.7" r="334.646" /> 
<circle cx="55454.3" cy="23456.7" r="334.646" /> 
<circle cx="56454.3" cy="24456.7" r="334.646" /> 
<circle cx="55454.3" cy="24456.7" r="334.646" /> 
<circle cx="56454.3" cy="25456.7" r="334.646" /> 
<circle cx="55454.3" cy="25456.7" r="334.646" /> 
<circle cx="56454.3" cy="26456.7" r="334.646" /> 
<circle cx="55454.3" cy="26456.7" r="334.646" /> 
<circle cx="56454.3" cy="27456.7" r="334.646" /> 
<circle cx="55454.3" cy="27456.7" r="334.646" /> 
<circle cx="56454.3" cy="28456.7" r="334.646" /> 
<circle cx="55454.3" cy="28456.7" r="334.646" /> 
<circle cx="56454.3" cy="29456.7" r="334.646" /> 
<path style="fill:#848400; fill-opacity:1.0; 
stroke:#848400; stroke-width:0; stroke-opacity:1; 
stroke-linecap:round; stroke-linejoin:round;fill-rule:evenodd;"
d="M 56789,9122.05
56789,9791.34
56119.7,9791.34
56119.7,9122.05
Z" /> 
</g>
<g >
</g>
<g >
</g>
<g >
</g>
<g >
</g>
<g >
</g>
<g style="fill:#848400; fill-opacity:1.0; 
stroke:#848400; stroke-width:0; stroke-opacity:1; 
stroke-linecap:round; stroke-linejoin:round;">
<circle cx="21674.8" cy="7015.75" r="275.591" /> 
<circle cx="21674.8" cy="9015.75" r="275.591" /> 
</g>
<g style="fill:#848400; fill-opacity:1.0; 
stroke:#848400; stroke-width:39.3701; stroke-opacity:1; 
stroke-linecap:round; stroke-linejoin:round;">
</g>
<g >
</g>
<g style="fill:#848400; fill-opacity:1.0; 
stroke:#848400; stroke-width:39.3701; stroke-opacity:1; 
stroke-linecap:round; stroke-linejoin:round;">
</g>
<g style="fill:#848400; fill-opacity:1.0; 
stroke:#848400; stroke-width:0; stroke-opacity:1; 
stroke-linecap:round; stroke-linejoin:round;">
<circle cx="30367.7" cy="4685.04" r="275.591" /> 
<circle cx="28367.7" cy="4685.04" r="275.591" /> 
</g>
<g style="fill:#848400; fill-opacity:1.0; 
stroke:#848400; stroke-width:39.3701; stroke-opacity:1; 
stroke-linecap:round; stroke-linejoin:round;">
</g>
<g >
</g>
<g style="fill:#848400; fill-opacity:1.0; 
stroke:#848400; stroke-width:39.3701; stroke-opacity:1; 
stroke-linecap:round; stroke-linejoin:round;">
</g>
<g style="fill:#848400; fill-opacity:1.0; 
stroke:#848400; stroke-width:0; stroke-opacity:1; 
stroke-linecap:round; stroke-linejoin:round;">
<circle cx="24627.6" cy="9409.45" r="314.961" /> 
</g>
<g style="fill:#848400; fill-opacity:1.0; 
stroke:#848400; stroke-width:39.3701; stroke-opacity:1; 
stroke-linecap:round; stroke-linejoin:round;">
</g>
<g style="fill:#848400; fill-opacity:1.0; 
stroke:#848400; stroke-width:0; stroke-opacity:1; 
stroke-linecap:round; stroke-linejoin:round;">
<circle cx="23643.3" cy="9409.45" r="314.961" /> 
</g>
<g style="fill:#848400; fill-opacity:1.0; 
stroke:#848400; stroke-width:39.3701; stroke-opacity:1; 
stroke-linecap:round; stroke-linejoin:round;">
</g>
<g >
</g>
<g style="fill:#848400; fill-opacity:1.0; 
stroke:#848400; stroke-width:39.3701; stroke-opacity:1; 
stroke-linecap:round; stroke-linejoin:round;">
</g>
<g style="fill:#848400; fill-opacity:1.0; 
stroke:#848400; stroke-width:0; stroke-opacity:1; 
stroke-linecap:round; stroke-linejoin:round;">
<circle cx="19903.2" cy="3897.64" r="314.961" /> 
</g>
<g style="fill:#848400; fill-opacity:1.0; 
stroke:#848400; stroke-width:39.3701; stroke-opacity:1; 
stroke-linecap:round; stroke-linejoin:round;">
</g>
<g style="fill:#848400; fill-opacity:1.0; 
stroke:#848400; stroke-width:0; stroke-opacity:1; 
stroke-linecap:round; stroke-linejoin:round;">
<circle cx="18918.9" cy="3897.64" r="314.961" /> 
</g>
<g style="fill:#848400; fill-opacity:1.0; 
stroke:#848400; stroke-width:39.3701; stroke-opacity:1; 
stroke-linecap:round; stroke-linejoin:round;">
</g>
<g >
</g>
<g style="fill:#848400; fill-opacity:1.0; 
stroke:#848400; stroke-width:39.3701; stroke-opacity:1; 
stroke-linecap:round; stroke-linejoin:round;">
</g>
<g style="fill:#848400; fill-opacity:1.0; 
stroke:#848400; stroke-width:0; stroke-opacity:1; 
stroke-linecap:round; stroke-linejoin:round;">
<circle cx="18722" cy="23976.4" r="314.961" /> 
</g>
<g style="fill:#848400; fill-opacity:1.0; 
stroke:#848400; stroke-width:39.3701; stroke-opacity:1; 
stroke-linecap:round; stroke-linejoin:round;">
</g>
<g style="fill:#848400; fill-opacity:1.0; 
stroke:#848400; stroke-width:0; stroke-opacity:1; 
stroke-linecap:round; stroke-linejoin:round;">
<path style="fill:#848400; fill-opacity:1.0; 
stroke:#848400; stroke-width:0; stroke-opacity:1; 
stroke-linecap:round; stroke-linejoin:round;fill-rule:evenodd;"
d="M 17422.8,24291.3
17422.8,23661.4
18052.8,23661.4
18052.8,24291.3
Z" /> 
</g>
<g >
</g>
<g style="fill:#848400; fill-opacity:1.0; 
stroke:#848400; stroke-width:0; stroke-opacity:1; 
stroke-linecap:round; stroke-linejoin:round;">
<circle cx="14785" cy="26732.3" r="314.961" /> 
</g>
<g style="fill:#848400; fill-opacity:1.0; 
stroke:#848400; stroke-width:39.3701; stroke-opacity:1; 
stroke-linecap:round; stroke-linejoin:round;">
</g>
<g style="fill:#848400; fill-opacity:1.0; 
stroke:#848400; stroke-width:0; stroke-opacity:1; 
stroke-linecap:round; stroke-linejoin:round;">
<circle cx="13800.8" cy="26732.3" r="314.961" /> 
</g>
<g style="fill:#848400; fill-opacity:1.0; 
stroke:#848400; stroke-width:39.3701; stroke-opacity:1; 
stroke-linecap:round; stroke-linejoin:round;">
</g>
<g >
</g>
<g style="fill:#848400; fill-opacity:1.0; 
stroke:#848400; stroke-width:39.3701; stroke-opacity:1; 
stroke-linecap:round; stroke-linejoin:round;">
</g>
<g style="fill:#848400; fill-opacity:1.0; 
stroke:#848400; stroke-width:0; stroke-opacity:1; 
stroke-linecap:round; stroke-linejoin:round;">
<circle cx="22265.4" cy="11771.7" r="314.961" /> 
</g>
<g style="fill:#848400; fill-opacity:1.0; 
stroke:#848400; stroke-width:39.3701; stroke-opacity:1; 
stroke-linecap:round; stroke-linejoin:round;">
</g>
<g style="fill:#848400; fill-opacity:1.0; 
stroke:#848400; stroke-width:0; stroke-opacity:1; 
stroke-linecap:round; stroke-linejoin:round;">
<path style="fill:#848400; fill-opacity:1.0; 
stroke:#848400; stroke-width:0; stroke-opacity:1; 
stroke-linecap:round; stroke-linejoin:round;fill-rule:evenodd;"
d="M 20966.1,12086.6
20966.1,11456.7
21596.1,11456.7
21596.1,12086.6
Z" /> 
</g>
<g >
</g>
<g style="fill:#848400; fill-opacity:1.0; 
stroke:#848400; stroke-width:0; stroke-opacity:1; 
stroke-linecap:round; stroke-linejoin:round;">
<circle cx="17147.2" cy="26732.3" r="314.961" /> 
</g>
<g style="fill:#848400; fill-opacity:1.0; 
stroke:#848400; stroke-width:39.3701; stroke-opacity:1; 
stroke-linecap:round; stroke-linejoin:round;">
</g>
<g style="fill:#848400; fill-opacity:1.0; 
stroke:#848400; stroke-width:0; stroke-opacity:1; 
stroke-linecap:round; stroke-linejoin:round;">
<circle cx="16163" cy="26732.3" r="314.961" /> 
</g>
<g style="fill:#848400; fill-opacity:1.0; 
stroke:#848400; stroke-width:39.3701; stroke-opacity:1; 
stroke-linecap:round; stroke-linejoin:round;">
</g>
<g >
</g>
<g style="fill:#848400; fill-opacity:1.0; 
stroke:#848400; stroke-width:39.3701; stroke-opacity:1; 
stroke-linecap:round; stroke-linejoin:round;">
</g>
<g style="fill:#848400; fill-opacity:1.0; 
stroke:#848400; stroke-width:0; stroke-opacity:1; 
stroke-linecap:round; stroke-linejoin:round;">
<circle cx="22824.4" cy="22401.6" r="275.591" /> 
<circle cx="24824.4" cy="22401.6" r="275.591" /> 
</g>
<g style="fill:#848400; fill-opacity:1.0; 
stroke:#848400; stroke-width:39.3701; stroke-opacity:1; 
stroke-linecap:round; stroke-linejoin:round;">
</g>
<g >
</g>
<g style="fill:#848400; fill-opacity:1.0; 
stroke:#848400; stroke-width:39.3701; stroke-opacity:1; 
stroke-linecap:round; stroke-linejoin:round;">
</g>
<g style="fill:#848400; fill-opacity:1.0; 
stroke:#848400; stroke-width:0; stroke-opacity:1; 
stroke-linecap:round; stroke-linejoin:round;">
<circle cx="11438.6" cy="12196.9" r="275.591" /> 
<circle cx="11438.6" cy="10196.9" r="275.591" /> 
</g>
<g style="fill:#848400; fill-opacity:1.0; 
stroke:#848400; stroke-width:39.3701; stroke-opacity:1; 
stroke-linecap:round; stroke-linejoin:round;">
</g>
<g >
</g>
<g style="fill:#848400; fill-opacity:1.0; 
stroke:#848400; stroke-width:39.3701; stroke-opacity:1; 
stroke-linecap:round; stroke-linejoin:round;">
</g>
<g style="fill:#848400; fill-opacity:1.0; 
stroke:#848400; stroke-width:0; stroke-opacity:1; 
stroke-linecap:round; stroke-linejoin:round;">
<circle cx="31485.8" cy="4685.04" r="275.591" /> 
<circle cx="33485.8" cy="4685.04" r="275.591" /> 
</g>
<g style="fill:#848400; fill-opacity:1.0; 
stroke:#848400; stroke-width:39.3701; stroke-opacity:1; 
stroke-linecap:round; stroke-linejoin:round;">
</g>
<g >
</g>
<g style="fill:#848400; fill-opacity:1.0; 
stroke:#848400; stroke-width:39.3701; stroke-opacity:1; 
stroke-linecap:round; stroke-linejoin:round;">
</g>
<g style="fill:#848400; fill-opacity:1.0; 
stroke:#848400; stroke-width:0; stroke-opacity:1; 
stroke-linecap:round; stroke-linejoin:round;">
<circle cx="23643.3" cy="11574.8" r="314.961" /> 
</g>
<g style="fill:#848400; fill-opacity:1.0; 
stroke:#848400; stroke-width:39.3701; stroke-opacity:1; 
stroke-linecap:round; stroke-linejoin:round;">
</g>
<g style="fill:#848400; fill-opacity:1.0; 
stroke:#848400; stroke-width:0; stroke-opacity:1; 
stroke-linecap:round; stroke-linejoin:round;">
<circle cx="23643.3" cy="12559.1" r="314.961" /> 
</g>
<g style="fill:#848400; fill-opacity:1.0; 
stroke:#848400; stroke-width:39.3701; stroke-opacity:1; 
stroke-linecap:round; stroke-linejoin:round;">
</g>
<g >
</g>
<g style="fill:#848400; fill-opacity:1.0; 
stroke:#848400; stroke-width:39.3701; stroke-opacity:1; 
stroke-linecap:round; stroke-linejoin:round;">
</g>
<g style="fill:#848400; fill-opacity:1.0; 
stroke:#848400; stroke-width:0; stroke-opacity:1; 
stroke-linecap:round; stroke-linejoin:round;">
<circle cx="18131.5" cy="11968.5" r="314.961" /> 
</g>
<g style="fill:#848400; fill-opacity:1.0; 
stroke:#848400; stroke-width:39.3701; stroke-opacity:1; 
stroke-linecap:round; stroke-linejoin:round;">
</g>
<g style="fill:#848400; fill-opacity:1.0; 
stroke:#848400; stroke-width:0; stroke-opacity:1; 
stroke-linecap:round; stroke-linejoin:round;">
<path style="fill:#848400; fill-opacity:1.0; 
stroke:#848400; stroke-width:0; stroke-opacity:1; 
stroke-linecap:round; stroke-linejoin:round;fill-rule:evenodd;"
d="M 18446.5,13267.7
17816.5,13267.7
17816.5,12637.8
18446.5,12637.8
Z" /> 
</g>
<g >
</g>
<g style="fill:#848400; fill-opacity:1.0; 
stroke:#848400; stroke-width:0; stroke-opacity:1; 
stroke-linecap:round; stroke-linejoin:round;">
<circle cx="8485.83" cy="22007.9" r="314.961" /> 
</g>
<g style="fill:#848400; fill-opacity:1.0; 
stroke:#848400; stroke-width:39.3701; stroke-opacity:1; 
stroke-linecap:round; stroke-linejoin:round;">
</g>
<g style="fill:#848400; fill-opacity:1.0; 
stroke:#848400; stroke-width:0; stroke-opacity:1; 
stroke-linecap:round; stroke-linejoin:round;">
<circle cx="7501.58" cy="22007.9" r="314.961" /> 
</g>
<g style="fill:#848400; fill-opacity:1.0; 
stroke:#848400; stroke-width:39.3701; stroke-opacity:1; 
stroke-linecap:round; stroke-linejoin:round;">
</g>
<g >
</g>
<g style="fill:#848400; fill-opacity:1.0; 
stroke:#848400; stroke-width:39.3701; stroke-opacity:1; 
stroke-linecap:round; stroke-linejoin:round;">
</g>
<g style="fill:#848400; fill-opacity:1.0; 
stroke:#848400; stroke-width:0; stroke-opacity:1; 
stroke-linecap:round; stroke-linejoin:round;">
<circle cx="11241.7" cy="22795.3" r="314.961" /> 
</g>
<g style="fill:#848400; fill-opacity:1.0; 
stroke:#848400; stroke-width:39.3701; stroke-opacity:1; 
stroke-linecap:round; stroke-linejoin:round;">
</g>
<g style="fill:#848400; fill-opacity:1.0; 
stroke:#848400; stroke-width:0; stroke-opacity:1; 
stroke-linecap:round; stroke-linejoin:round;">
<path style="fill:#848400; fill-opacity:1.0; 
stroke:#848400; stroke-width:0; stroke-opacity:1; 
stroke-linecap:round; stroke-linejoin:round;fill-rule:evenodd;"
d="M 9942.52,23110.2
9942.52,22480.3
10572.4,22480.3
10572.4,23110.2
Z" /> 
</g>
<g >
</g>
<g style="fill:#848400; fill-opacity:1.0; 
stroke:#848400; stroke-width:0; stroke-opacity:1; 
stroke-linecap:round; stroke-linejoin:round;">
<circle cx="25188.6" cy="6756.69" r="314.961" /> 
</g>
<g style="fill:#848400; fill-opacity:1.0; 
stroke:#848400; stroke-width:39.3701; stroke-opacity:1; 
stroke-linecap:round; stroke-linejoin:round;">
</g>
<g style="fill:#848400; fill-opacity:1.0; 
stroke:#848400; stroke-width:0; stroke-opacity:1; 
stroke-linecap:round; stroke-linejoin:round;">
<circle cx="24204.3" cy="6756.69" r="314.961" /> 
</g>
<g style="fill:#848400; fill-opacity:1.0; 
stroke:#848400; stroke-width:39.3701; stroke-opacity:1; 
stroke-linecap:round; stroke-linejoin:round;">
</g>
<g >
</g>
<g style="fill:#848400; fill-opacity:1.0; 
stroke:#848400; stroke-width:39.3701; stroke-opacity:1; 
stroke-linecap:round; stroke-linejoin:round;">
</g>
<g style="fill:#848400; fill-opacity:1.0; 
stroke:#848400; stroke-width:0; stroke-opacity:1; 
stroke-linecap:round; stroke-linejoin:round;">
<circle cx="19020.1" cy="8406.69" r="314.961" /> 
</g>
<g style="fill:#848400; fill-opacity:1.0; 
stroke:#848400; stroke-width:39.3701; stroke-opacity:1; 
stroke-linecap:round; stroke-linejoin:round;">
</g>
<g style="fill:#848400; fill-opacity:1.0; 
stroke:#848400; stroke-width:0; stroke-opacity:1; 
stroke-linecap:round; stroke-linejoin:round;">
<path style="fill:#848400; fill-opacity:1.0; 
stroke:#848400; stroke-width:0; stroke-opacity:1; 
stroke-linecap:round; stroke-linejoin:round;fill-rule:evenodd;"
d="M 20319.3,8091.73
20319.3,8721.65
19689.4,8721.65
19689.4,8091.73
Z" /> 
</g>
<g >
</g>
<g style="fill:#848400; fill-opacity:1.0; 
stroke:#848400; stroke-width:0; stroke-opacity:1; 
stroke-linecap:round; stroke-linejoin:round;">
</g>
<g style="fill:#848400; fill-opacity:1.0; 
stroke:#848400; stroke-width:629.921; stroke-opacity:1; 
stroke-linecap:round; stroke-linejoin:round;">
</g>
<g style="fill:#848400; fill-opacity:0.0; 
stroke:#848400; stroke-width:629.921; stroke-opacity:1; 
stroke-linecap:round; stroke-linejoin:round;">
<path d="M15855 10984
L16170 10984
" />
<path d="M12855 13984
L13170 13984
" />
<path d="M15855 11984
L16170 11984
" />
<path d="M12855 12984
L13170 12984
" />
<path d="M15855 12984
L16170 12984
" />
<path d="M12855 11984
L13170 11984
" />
<path d="M15855 13984
L16170 13984
" />
</g>
<g style="fill:#848400; fill-opacity:0.0; 
stroke:#848400; stroke-width:0; stroke-opacity:1; 
stroke-linecap:round; stroke-linejoin:round;">
</g>
<g style="fill:#848400; fill-opacity:1.0; 
stroke:#848400; stroke-width:0; stroke-opacity:1; 
stroke-linecap:round; stroke-linejoin:round;">
<path style="fill:#848400; fill-opacity:1.0; 
stroke:#848400; stroke-width:0; stroke-opacity:1; 
stroke-linecap:round; stroke-linejoin:round;fill-rule:evenodd;"
d="M 12540.9,11299.2
12540.9,10669.3
13485.8,10669.3
13485.8,11299.2
Z" /> 
</g>
<g >
</g>
<g style="fill:#848400; fill-opacity:1.0; 
stroke:#848400; stroke-width:0; stroke-opacity:1; 
stroke-linecap:round; stroke-linejoin:round;">
</g>
<g style="fill:#848400; fill-opacity:1.0; 
stroke:#848400; stroke-width:629.921; stroke-opacity:1; 
stroke-linecap:round; stroke-linejoin:round;">
</g>
<g style="fill:#848400; fill-opacity:0.0; 
stroke:#848400; stroke-width:629.921; stroke-opacity:1; 
stroke-linecap:round; stroke-linejoin:round;">
<path d="M15855 21614
L16170 21614
" />
<path d="M12855 24614
L13170 24614
" />
<path d="M15855 22614
L16170 22614
" />
<path d="M12855 23614
L13170 23614
" />
<path d="M15855 23614
L16170 23614
" />
<path d="M12855 22614
L13170 22614
" />
<path d="M15855 24614
L16170 24614
" />
</g>
<g style="fill:#848400; fill-opacity:0.0; 
stroke:#848400; stroke-width:0; stroke-opacity:1; 
stroke-linecap:round; stroke-linejoin:round;">
</g>
<g style="fill:#848400; fill-opacity:1.0; 
stroke:#848400; stroke-width:0; stroke-opacity:1; 
stroke-linecap:round; stroke-linejoin:round;">
<path style="fill:#848400; fill-opacity:1.0; 
stroke:#848400; stroke-width:0; stroke-opacity:1; 
stroke-linecap:round; stroke-linejoin:round;fill-rule:evenodd;"
d="M 12540.9,21929.1
12540.9,21299.2
13485.8,21299.2
13485.8,21929.1
Z" /> 
</g>
<g >
</g>
<g style="fill:#848400; fill-opacity:1.0; 
stroke:#848400; stroke-width:0; stroke-opacity:1; 
stroke-linecap:round; stroke-linejoin:round;">
</g>
<g style="fill:#848400; fill-opacity:1.0; 
stroke:#848400; stroke-width:629.921; stroke-opacity:1; 
stroke-linecap:round; stroke-linejoin:round;">
</g>
<g style="fill:#848400; fill-opacity:0.0; 
stroke:#848400; stroke-width:629.921; stroke-opacity:1; 
stroke-linecap:round; stroke-linejoin:round;">
<path d="M15855 16102
L16170 16102
" />
<path d="M12855 19102
L13170 19102
" />
<path d="M15855 17102
L16170 17102
" />
<path d="M12855 18102
L13170 18102
" />
<path d="M15855 18102
L16170 18102
" />
<path d="M12855 17102
L13170 17102
" />
<path d="M15855 19102
L16170 19102
" />
</g>
<g style="fill:#848400; fill-opacity:0.0; 
stroke:#848400; stroke-width:0; stroke-opacity:1; 
stroke-linecap:round; stroke-linejoin:round;">
</g>
<g style="fill:#848400; fill-opacity:1.0; 
stroke:#848400; stroke-width:0; stroke-opacity:1; 
stroke-linecap:round; stroke-linejoin:round;">
<path style="fill:#848400; fill-opacity:1.0; 
stroke:#848400; stroke-width:0; stroke-opacity:1; 
stroke-linecap:round; stroke-linejoin:round;fill-rule:evenodd;"
d="M 12540.9,16417.3
12540.9,15787.4
13485.8,15787.4
13485.8,16417.3
Z" /> 
</g>
<g >
</g>
<g style="fill:#848400; fill-opacity:1.0; 
stroke:#848400; stroke-width:0; stroke-opacity:1; 
stroke-linecap:round; stroke-linejoin:round;">
<circle cx="6604.33" cy="8206.69" r="460.63" /> 
</g>
<g style="fill:#848400; fill-opacity:1.0; 
stroke:#848400; stroke-width:39.3701; stroke-opacity:1; 
stroke-linecap:round; stroke-linejoin:round;">
</g>
<g style="fill:#848400; fill-opacity:1.0; 
stroke:#848400; stroke-width:0; stroke-opacity:1; 
stroke-linecap:round; stroke-linejoin:round;">
<circle cx="6604.33" cy="10175.2" r="460.63" /> 
</g>
<g style="fill:#848400; fill-opacity:1.0; 
stroke:#848400; stroke-width:39.3701; stroke-opacity:1; 
stroke-linecap:round; stroke-linejoin:round;">
</g>
<g style="fill:#848400; fill-opacity:1.0; 
stroke:#848400; stroke-width:0; stroke-opacity:1; 
stroke-linecap:round; stroke-linejoin:round;">
<circle cx="6604.33" cy="12143.7" r="460.63" /> 
</g>
<g style="fill:#848400; fill-opacity:1.0; 
stroke:#848400; stroke-width:39.3701; stroke-opacity:1; 
stroke-linecap:round; stroke-linejoin:round;">
</g>
<g >
</g>
<g style="fill:#848400; fill-opacity:1.0; 
stroke:#848400; stroke-width:39.3701; stroke-opacity:1; 
stroke-linecap:round; stroke-linejoin:round;">
</g>
<g style="fill:#848400; fill-opacity:1.0; 
stroke:#848400; stroke-width:0; stroke-opacity:1; 
stroke-linecap:round; stroke-linejoin:round;">
<circle cx="9557.09" cy="15356.7" r="460.63" /> 
</g>
<g style="fill:#848400; fill-opacity:1.0; 
stroke:#848400; stroke-width:39.3701; stroke-opacity:1; 
stroke-linecap:round; stroke-linejoin:round;">
</g>
<g style="fill:#848400; fill-opacity:1.0; 
stroke:#848400; stroke-width:0; stroke-opacity:1; 
stroke-linecap:round; stroke-linejoin:round;">
<circle cx="9557.09" cy="17325.2" r="460.63" /> 
</g>
<g style="fill:#848400; fill-opacity:1.0; 
stroke:#848400; stroke-width:39.3701; stroke-opacity:1; 
stroke-linecap:round; stroke-linejoin:round;">
</g>
<g style="fill:#848400; fill-opacity:1.0; 
stroke:#848400; stroke-width:0; stroke-opacity:1; 
stroke-linecap:round; stroke-linejoin:round;">
<circle cx="9557.09" cy="19293.7" r="460.63" /> 
</g>
<g style="fill:#848400; fill-opacity:1.0; 
stroke:#848400; stroke-width:39.3701; stroke-opacity:1; 
stroke-linecap:round; stroke-linejoin:round;">
</g>
<g style="fill:#848400; fill-opacity:1.0; 
stroke:#848400; stroke-width:0; stroke-opacity:1; 
stroke-linecap:round; stroke-linejoin:round;">
<circle cx="6604.33" cy="15356.7" r="460.63" /> 
</g>
<g style="fill:#848400; fill-opacity:1.0; 
stroke:#848400; stroke-width:39.3701; stroke-opacity:1; 
stroke-linecap:round; stroke-linejoin:round;">
</g>
<g style="fill:#848400; fill-opacity:1.0; 
stroke:#848400; stroke-width:0; stroke-opacity:1; 
stroke-linecap:round; stroke-linejoin:round;">
<circle cx="6604.33" cy="17325.2" r="460.63" /> 
</g>
<g style="fill:#848400; fill-opacity:1.0; 
stroke:#848400; stroke-width:39.3701; stroke-opacity:1; 
stroke-linecap:round; stroke-linejoin:round;">
</g>
<g style="fill:#848400; fill-opacity:1.0; 
stroke:#848400; stroke-width:0; stroke-opacity:1; 
stroke-linecap:round; stroke-linejoin:round;">
<circle cx="6604.33" cy="19293.7" r="460.63" /> 
</g>
<g style="fill:#848400; fill-opacity:1.0; 
stroke:#848400; stroke-width:39.3701; stroke-opacity:1; 
stroke-linecap:round; stroke-linejoin:round;">
</g>
<g >
</g>
<g style="fill:#848400; fill-opacity:1.0; 
stroke:#848400; stroke-width:39.3701; stroke-opacity:1; 
stroke-linecap:round; stroke-linejoin:round;">
</g>
<g style="fill:#848400; fill-opacity:1.0; 
stroke:#848400; stroke-width:708.661; stroke-opacity:1; 
stroke-linecap:round; stroke-linejoin:round;">
</g>
<g style="fill:#848400; fill-opacity:0.0; 
stroke:#848400; stroke-width:708.661; stroke-opacity:1; 
stroke-linecap:round; stroke-linejoin:round;">
<path d="M16694 6616
L17088 6616
" />
<path d="M16694 4451
L17088 4451
" />
<path d="M15907 3506
L16301 3506
" />
</g>
<g >
</g>
<g style="fill:#848400; fill-opacity:0.0; 
stroke:#848400; stroke-width:708.661; stroke-opacity:1; 
stroke-linecap:round; stroke-linejoin:round;">
<path d="M11644 6666
L12038 6666
" />
<path d="M11644 4501
L12038 4501
" />
<path d="M10857 3556
L11251 3556
" />
</g>
<g >
</g>
<g style="fill:#848400; fill-opacity:0.0; 
stroke:#848400; stroke-width:708.661; stroke-opacity:1; 
stroke-linecap:round; stroke-linejoin:round;">
</g>
<g style="fill:#848400; fill-opacity:0.0; 
stroke:#848400; stroke-width:566.929; stroke-opacity:1; 
stroke-linecap:round; stroke-linejoin:round;">
<path d="M49394 28206
L49614 28206
" />
<path d="M43394 28206
L43614 28206
" />
<path d="M49394 27206
L49614 27206
" />
<path d="M43394 27206
L43614 27206
" />
<path d="M49394 26206
L49614 26206
" />
<path d="M43394 26206
L43614 26206
" />
<path d="M49394 25206
L49614 25206
" />
<path d="M43394 25206
L43614 25206
" />
<path d="M49394 24206
L49614 24206
" />
<path d="M43394 24206
L43614 24206
" />
<path d="M49394 23206
L49614 23206
" />
<path d="M43394 23206
L43614 23206
" />
<path d="M49394 22206
L49614 22206
" />
<path d="M43394 22206
L43614 22206
" />
<path d="M49394 21206
L49614 21206
" />
<path d="M43394 21206
L43614 21206
" />
<path d="M49394 20206
L49614 20206
" />
<path d="M43394 20206
L43614 20206
" />
<path d="M49394 19206
L49614 19206
" />
<path d="M43394 19206
L43614 19206
" />
<path d="M49394 18206
L49614 18206
" />
<path d="M43394 18206
L43614 18206
" />
<path d="M49394 17206
L49614 17206
" />
<path d="M43394 17206
L43614 17206
" />
<path d="M49394 16206
L49614 16206
" />
<path d="M43394 16206
L43614 16206
" />
<path d="M49394 15206
L49614 15206
" />
<path d="M43394 15206
L43614 15206
" />
<path d="M49394 14206
L49614 14206
" />
<path d="M43394 14206
L43614 14206
" />
<path d="M49394 13206
L49614 13206
" />
<path d="M43394 13206
L43614 13206
" />
<path d="M49394 12206
L49614 12206
" />
<path d="M43394 12206
L43614 12206
" />
<path d="M49394 11206
L49614 11206
" />
<path d="M43394 11206
L43614 11206
" />
<path d="M49394 10206
L49614 10206
" />
<path d="M43394 10206
L43614 10206
" />
<path d="M49394 9206
L49614 9206
" />
</g>
<g style="fill:#848400; fill-opacity:0.0; 
stroke:#848400; stroke-width:0; stroke-opacity:1; 
stroke-linecap:round; stroke-linejoin:round;">
</g>
<g style="fill:#848400; fill-opacity:1.0; 
stroke:#848400; stroke-width:0; stroke-opacity:1; 
stroke-linecap:round; stroke-linejoin:round;">
<path style="fill:#848400; fill-opacity:1.0; 
stroke:#848400; stroke-width:0; stroke-opacity:1; 
stroke-linecap:round; stroke-linejoin:round;fill-rule:evenodd;"
d="M 43110.6,9490.16
43110.6,8923.23
43898,8923.23
43898,9490.16
Z" /> 
</g>
<g >
</g>
<g style="fill:#848400; fill-opacity:1.0; 
stroke:#848400; stroke-width:0; stroke-opacity:1; 
stroke-linecap:round; stroke-linejoin:round;">
</g>
<g style="fill:#848400; fill-opacity:1.0; 
stroke:#848400; stroke-width:629.921; stroke-opacity:1; 
stroke-linecap:round; stroke-linejoin:round;">
</g>
<g style="fill:#848400; fill-opacity:0.0; 
stroke:#848400; stroke-width:629.921; stroke-opacity:1; 
stroke-linecap:round; stroke-linejoin:round;">
<path d="M27493 20826
L27178 20826
" />
<path d="M30493 14826
L30178 14826
" />
<path d="M27493 19826
L27178 19826
" />
<path d="M30493 15826
L30178 15826
" />
<path d="M27493 18826
L27178 18826
" />
<path d="M30493 16826
L30178 16826
" />
<path d="M27493 17826
L27178 17826
" />
<path d="M30493 17826
L30178 17826
" />
<path d="M27493 16826
L27178 16826
" />
<path d="M30493 18826
L30178 18826
" />
<path d="M27493 15826
L27178 15826
" />
<path d="M30493 19826
L30178 19826
" />
<path d="M27493 14826
L27178 14826
" />
</g>
<g style="fill:#848400; fill-opacity:0.0; 
stroke:#848400; stroke-width:0; stroke-opacity:1; 
stroke-linecap:round; stroke-linejoin:round;">
</g>
<g style="fill:#848400; fill-opacity:1.0; 
stroke:#848400; stroke-width:0; stroke-opacity:1; 
stroke-linecap:round; stroke-linejoin:round;">
<path style="fill:#848400; fill-opacity:1.0; 
stroke:#848400; stroke-width:0; stroke-opacity:1; 
stroke-linecap:round; stroke-linejoin:round;fill-rule:evenodd;"
d="M 30808.7,20511.8
30808.7,21141.7
29863.8,21141.7
29863.8,20511.8
Z" /> 
</g>
<g >
</g>
<g style="fill:#848400; fill-opacity:1.0; 
stroke:#848400; stroke-width:0; stroke-opacity:1; 
stroke-linecap:round; stroke-linejoin:round;">
</g>
<g style="fill:#848400; fill-opacity:1.0; 
stroke:#848400; stroke-width:629.921; stroke-opacity:1; 
stroke-linecap:round; stroke-linejoin:round;">
</g>
<g style="fill:#848400; fill-opacity:0.0; 
stroke:#848400; stroke-width:629.921; stroke-opacity:1; 
stroke-linecap:round; stroke-linejoin:round;">
<path d="M25698 14527
L26013 14527
" />
<path d="M22698 20527
L23013 20527
" />
<path d="M25698 15527
L26013 15527
" />
<path d="M22698 19527
L23013 19527
" />
<path d="M25698 16527
L26013 16527
" />
<path d="M22698 18527
L23013 18527
" />
<path d="M25698 17527
L26013 17527
" />
<path d="M22698 17527
L23013 17527
" />
<path d="M25698 18527
L26013 18527
" />
<path d="M22698 16527
L23013 16527
" />
<path d="M25698 19527
L26013 19527
" />
<path d="M22698 15527
L23013 15527
" />
<path d="M25698 20527
L26013 20527
" />
</g>
<g style="fill:#848400; fill-opacity:0.0; 
stroke:#848400; stroke-width:0; stroke-opacity:1; 
stroke-linecap:round; stroke-linejoin:round;">
</g>
<g style="fill:#848400; fill-opacity:1.0; 
stroke:#848400; stroke-width:0; stroke-opacity:1; 
stroke-linecap:round; stroke-linejoin:round;">
<path style="fill:#848400; fill-opacity:1.0; 
stroke:#848400; stroke-width:0; stroke-opacity:1; 
stroke-linecap:round; stroke-linejoin:round;fill-rule:evenodd;"
d="M 22383.5,14842.5
22383.5,14212.6
23328.3,14212.6
23328.3,14842.5
Z" /> 
</g>
<g >
</g>
<g style="fill:#848400; fill-opacity:1.0; 
stroke:#848400; stroke-width:0; stroke-opacity:1; 
stroke-linecap:round; stroke-linejoin:round;">
</g>
<g style="fill:#848400; fill-opacity:1.0; 
stroke:#848400; stroke-width:629.921; stroke-opacity:1; 
stroke-linecap:round; stroke-linejoin:round;">
</g>
<g style="fill:#848400; fill-opacity:0.0; 
stroke:#848400; stroke-width:629.921; stroke-opacity:1; 
stroke-linecap:round; stroke-linejoin:round;">
<path d="M20974 15314
L21288 15314
" />
<path d="M17974 21314
L18288 21314
" />
<path d="M20974 16314
L21288 16314
" />
<path d="M17974 20314
L18288 20314
" />
<path d="M20974 17314
L21288 17314
" />
<path d="M17974 19314
L18288 19314
" />
<path d="M20974 18314
L21288 18314
" />
<path d="M17974 18314
L18288 18314
" />
<path d="M20974 19314
L21288 19314
" />
<path d="M17974 17314
L18288 17314
" />
<path d="M20974 20314
L21288 20314
" />
<path d="M17974 16314
L18288 16314
" />
<path d="M20974 21314
L21288 21314
" />
</g>
<g style="fill:#848400; fill-opacity:0.0; 
stroke:#848400; stroke-width:0; stroke-opacity:1; 
stroke-linecap:round; stroke-linejoin:round;">
</g>
<g style="fill:#848400; fill-opacity:1.0; 
stroke:#848400; stroke-width:0; stroke-opacity:1; 
stroke-linecap:round; stroke-linejoin:round;">
<path style="fill:#848400; fill-opacity:1.0; 
stroke:#848400; stroke-width:0; stroke-opacity:1; 
stroke-linecap:round; stroke-linejoin:round;fill-rule:evenodd;"
d="M 17659.1,15629.9
17659.1,15000
18603.9,15000
18603.9,15629.9
Z" /> 
</g>
<g >
</g>
<g style="fill:#848400; fill-opacity:1.0; 
stroke:#848400; stroke-width:0; stroke-opacity:1; 
stroke-linecap:round; stroke-linejoin:round;">
</g>
<g style="fill:#848400; fill-opacity:1.0; 
stroke:#848400; stroke-width:629.921; stroke-opacity:1; 
stroke-linecap:round; stroke-linejoin:round;">
</g>
<g style="fill:#848400; fill-opacity:0.0; 
stroke:#848400; stroke-width:629.921; stroke-opacity:1; 
stroke-linecap:round; stroke-linejoin:round;">
<path d="M27493 12559
L27178 12559
" />
<path d="M30493 6559
L30178 6559
" />
<path d="M27493 11559
L27178 11559
" />
<path d="M30493 7559
L30178 7559
" />
<path d="M27493 10559
L27178 10559
" />
<path d="M30493 8559
L30178 8559
" />
<path d="M27493 9559
L27178 9559
" />
<path d="M30493 9559
L30178 9559
" />
<path d="M27493 8559
L27178 8559
" />
<path d="M30493 10559
L30178 10559
" />
<path d="M27493 7559
L27178 7559
" />
<path d="M30493 11559
L30178 11559
" />
<path d="M27493 6559
L27178 6559
" />
</g>
<g style="fill:#848400; fill-opacity:0.0; 
stroke:#848400; stroke-width:0; stroke-opacity:1; 
stroke-linecap:round; stroke-linejoin:round;">
</g>
<g style="fill:#848400; fill-opacity:1.0; 
stroke:#848400; stroke-width:0; stroke-opacity:1; 
stroke-linecap:round; stroke-linejoin:round;">
<path style="fill:#848400; fill-opacity:1.0; 
stroke:#848400; stroke-width:0; stroke-opacity:1; 
stroke-linecap:round; stroke-linejoin:round;fill-rule:evenodd;"
d="M 30808.7,12244.1
30808.7,12874
29863.8,12874
29863.8,12244.1
Z" /> 
</g>
<g >
</g>
<g style="fill:#848400; fill-opacity:1.0; 
stroke:#848400; stroke-width:0; stroke-opacity:1; 
stroke-linecap:round; stroke-linejoin:round;">
</g>
<g style="fill:#848400; fill-opacity:1.0; 
stroke:#848400; stroke-width:566.929; stroke-opacity:1; 
stroke-linecap:round; stroke-linejoin:round;">
</g>
<g style="fill:#848400; fill-opacity:0.0; 
stroke:#848400; stroke-width:566.929; stroke-opacity:1; 
stroke-linecap:round; stroke-linejoin:round;">
<path d="M33514 9256
L33294 9256
" />
<path d="M39514 9256
L39294 9256
" />
<path d="M33514 10256
L33294 10256
" />
<path d="M39514 10256
L39294 10256
" />
<path d="M33514 11256
L33294 11256
" />
<path d="M39514 11256
L39294 11256
" />
<path d="M33514 12256
L33294 12256
" />
<path d="M39514 12256
L39294 12256
" />
<path d="M33514 13256
L33294 13256
" />
<path d="M39514 13256
L39294 13256
" />
<path d="M33514 14256
L33294 14256
" />
<path d="M39514 14256
L39294 14256
" />
<path d="M33514 15256
L33294 15256
" />
<path d="M39514 15256
L39294 15256
" />
<path d="M33514 16256
L33294 16256
" />
<path d="M39514 16256
L39294 16256
" />
<path d="M33514 17256
L33294 17256
" />
<path d="M39514 17256
L39294 17256
" />
<path d="M33514 18256
L33294 18256
" />
<path d="M39514 18256
L39294 18256
" />
<path d="M33514 19256
L33294 19256
" />
<path d="M39514 19256
L39294 19256
" />
<path d="M33514 20256
L33294 20256
" />
</g>
<g style="fill:#848400; fill-opacity:0.0; 
stroke:#848400; stroke-width:0; stroke-opacity:1; 
stroke-linecap:round; stroke-linejoin:round;">
</g>
<g style="fill:#848400; fill-opacity:1.0; 
stroke:#848400; stroke-width:0; stroke-opacity:1; 
stroke-linecap:round; stroke-linejoin:round;">
<path style="fill:#848400; fill-opacity:1.0; 
stroke:#848400; stroke-width:0; stroke-opacity:1; 
stroke-linecap:round; stroke-linejoin:round;fill-rule:evenodd;"
d="M 39798,19973.2
39798,20540.2
39010.6,20540.2
39010.6,19973.2
Z" /> 
</g>
<g >
</g>
<g >
</g>
<g >
</g>
</g>
<g style="fill:#000000; fill-opacity:1.0; 
stroke:#000000; stroke-width:0; stroke-opacity:1; 
stroke-linecap:round; stroke-linejoin:round;">
</g>
<g style="fill:#C2C200; fill-opacity:1.0; 
stroke:#C2C200; stroke-width:0; stroke-opacity:1; 
stroke-linecap:round; stroke-linejoin:round;">
</g>
<g style="fill:#C2C200; fill-opacity:1.0; 
stroke:#C2C200; stroke-width:19.685; stroke-opacity:1; 
stroke-linecap:round; stroke-linejoin:round;">
</g>
<g style="fill:#C2C200; fill-opacity:0.0; 
stroke:#C2C200; stroke-width:19.685; stroke-opacity:1; 
stroke-linecap:round; stroke-linejoin:round;">
<path d="M58054 1456
L57454 1456
" />
<path d="M58054 30856
L58054 1456
" />
<path d="M57454 30856
L58054 30856
" />
<path d="M5454 1456
L7454 1456
" />
<path d="M5454 30856
L5454 1456
" />
<path d="M7454 30856
L5454 30856
" />
<path d="M57454 1456
L7454 1456
" />
<path d="M57454 30856
L7454 30856
" />
<g >
</g>
<g >
</g>
<g >
</g>
<g >
</g>
<g >
</g>
<g >
</g>
<g >
</g>
<g >
</g>
<g >
</g>
<g >
</g>
<g >
</g>
<g >
</g>
<g >
</g>
<g >
</g>
<g >
</g>
<g >
</g>
<g >
</g>
<g >
</g>
<g >
</g>
<g >
</g>
<g >
</g>
<g >
</g>
<g >
</g>
<g >
</g>
<g >
</g>
<g >
</g>
<g >
</g>
<g >
</g>
<g >
</g>
<g >
</g>
<g >
</g>
<g >
</g>
<g >
</g>
<g >
</g>
<g >
</g>
<g >
</g>
</g> 
</svg>
