<?xml version="1.0" standalone="no"?>
 <!DOCTYPE svg PUBLIC "-//W3C//DTD SVG 1.1//EN" 
 "http://www.w3.org/Graphics/SVG/1.1/DTD/svg11.dtd"> 
<svg
  xmlns:svg="http://www.w3.org/2000/svg"
  xmlns="http://www.w3.org/2000/svg"
  xmlns:xlink="http://www.w3.org/1999/xlink"
  version="1.1"
  width="16.179800cm" height="8.206740cm" viewBox="0 0 63700 32310">
<title>SVG Picture created as Sound-Dwgs_User.svg date 2022/05/05 13:00:00 </title>
  <desc>Picture generated by PCBNEW </desc>
<g style="fill:#000000; fill-opacity:1;stroke:#000000; stroke-opacity:1;
stroke-linecap:round; stroke-linejoin:round;"
 transform="translate(0 0) scale(1 1)">
</g>
<g style="fill:#000000; fill-opacity:0.0; 
stroke:#000000; stroke-width:-0.000393701; stroke-opacity:1; 
stroke-linecap:round; stroke-linejoin:round;">
</g>
<g style="fill:#C2C2C2; fill-opacity:0.0; 
stroke:#C2C2C2; stroke-width:-0.000393701; stroke-opacity:1; 
stroke-linecap:round; stroke-linejoin:round;">
</g>
<g style="fill:#C2C2C2; fill-opacity:0.0; 
stroke:#C2C2C2; stroke-width:59.0551; stroke-opacity:1; 
stroke-linecap:round; stroke-linejoin:round;">
<g transform="rotate(-90 61966.1 16156.7)">
<text x="61966.1" y="16353.5"
textLength="3488.85" font-size="524.934" lengthAdjust="spacingAndGlyphs"
text-anchor="middle" opacity="0">74.676 mm</text>
</g>
<path d="M61750 17806
L61750 17544
L62144 17712
" />
<path d="M61881 17225
L62144 17225
" />
<path d="M61731 17319
L62013 17412
L62013 17169
" />
<path d="M62106 17019
L62125 17000
L62144 17019
L62125 17037
L62106 17019
L62144 17019
" />
<path d="M61750 16662
L61750 16737
L61769 16775
L61788 16794
L61844 16831
L61919 16850
L62069 16850
L62106 16831
L62125 16812
L62144 16775
L62144 16700
L62125 16662
L62106 16644
L62069 16625
L61975 16625
L61938 16644
L61919 16662
L61900 16700
L61900 16775
L61919 16812
L61938 16831
L61975 16850
" />
<path d="M61750 16494
L61750 16231
L62144 16400
" />
<path d="M61750 15912
L61750 15987
L61769 16025
L61788 16044
L61844 16081
L61919 16100
L62069 16100
L62106 16081
L62125 16062
L62144 16025
L62144 15950
L62125 15912
L62106 15894
L62069 15875
L61975 15875
L61938 15894
L61919 15912
L61900 15950
L61900 16025
L61919 16062
L61938 16081
L61975 16100
" />
<path d="M62144 15406
L61881 15406
" />
<path d="M61919 15406
L61900 15388
L61881 15350
L61881 15294
L61900 15256
L61938 15238
L62144 15238
" />
<path d="M61938 15238
L61900 15219
L61881 15181
L61881 15125
L61900 15088
L61938 15069
L62144 15069
" />
<path d="M62144 14881
L61881 14881
" />
<path d="M61919 14881
L61900 14863
L61881 14825
L61881 14769
L61900 14731
L61938 14713
L62144 14713
" />
<path d="M61938 14713
L61900 14694
L61881 14656
L61881 14600
L61900 14563
L61938 14544
L62144 14544
" />
<path d="M61454 30856
L61454 1456
" />
<path d="M61454 30856
L61685 30856
" />
<path d="M61454 1456
L61685 1456
" />
<path d="M61454 1456
L61685 1900
" />
<path d="M61454 1456
L61223 1900
" />
<path d="M61454 30856
L61685 30413
" />
<path d="M61454 30856
L61223 30413
" />
<text x="31754.3" y="32165.4"
textLength="3863.8" font-size="524.934" lengthAdjust="spacingAndGlyphs"
text-anchor="middle" opacity="0">133.604 mm</text>
<path d="M30160 32146
L29935 32146
" />
<path d="M30048 32146
L30048 31752
L30010 31809
L29973 31846
L29935 31865
" />
<path d="M30292 31752
L30535 31752
L30404 31902
L30460 31902
L30498 31921
L30516 31940
L30535 31977
L30535 32071
L30516 32109
L30498 32127
L30460 32146
L30348 32146
L30310 32127
L30292 32109
" />
<path d="M30666 31752
L30910 31752
L30779 31902
L30835 31902
L30873 31921
L30891 31940
L30910 31977
L30910 32071
L30891 32109
L30873 32127
L30835 32146
L30723 32146
L30685 32127
L30666 32109
" />
<path d="M31079 32109
L31098 32127
L31079 32146
L31060 32127
L31079 32109
L31079 32146
" />
<path d="M31435 31752
L31360 31752
L31323 31771
L31304 31790
L31266 31846
L31248 31921
L31248 32071
L31266 32109
L31285 32127
L31323 32146
L31398 32146
L31435 32127
L31454 32109
L31473 32071
L31473 31977
L31454 31940
L31435 31921
L31398 31902
L31323 31902
L31285 31921
L31266 31940
L31248 31977
" />
<path d="M31716 31752
L31754 31752
L31791 31771
L31810 31790
L31829 31827
L31848 31902
L31848 31996
L31829 32071
L31810 32109
L31791 32127
L31754 32146
L31716 32146
L31679 32127
L31660 32109
L31641 32071
L31623 31996
L31623 31902
L31641 31827
L31660 31790
L31679 31771
L31716 31752
" />
<path d="M32185 31884
L32185 32146
" />
<path d="M32091 31734
L31998 32015
L32241 32015
" />
<path d="M32691 32146
L32691 31884
" />
<path d="M32691 31921
L32710 31902
L32747 31884
L32804 31884
L32841 31902
L32860 31940
L32860 32146
" />
<path d="M32860 31940
L32879 31902
L32916 31884
L32972 31884
L33010 31902
L33029 31940
L33029 32146
" />
<path d="M33216 32146
L33216 31884
" />
<path d="M33216 31921
L33235 31902
L33272 31884
L33329 31884
L33366 31902
L33385 31940
L33385 32146
" />
<path d="M33385 31940
L33404 31902
L33441 31884
L33497 31884
L33535 31902
L33554 31940
L33554 32146
" />
<path d="M5454 31456
L58054 31456
" />
<path d="M5454 31456
L5454 31687
" />
<path d="M58054 31456
L58054 31687
" />
<path d="M58054 31456
L57610 31687
" />
<path d="M58054 31456
L57610 31225
" />
<path d="M5454 31456
L5897 31687
" />
<path d="M5454 31456
L5897 31225
" />
<g >
</g>
<g >
</g>
<g >
</g>
<g >
</g>
<g >
</g>
<g >
</g>
<g >
</g>
<g >
</g>
<g >
</g>
<g >
</g>
<g >
</g>
<g >
</g>
<g >
</g>
<g >
</g>
<g >
</g>
<g >
</g>
<g >
</g>
<g >
</g>
<g >
</g>
<g >
</g>
<g >
</g>
<g >
</g>
<g >
</g>
<g >
</g>
<g >
</g>
<g >
</g>
<g >
</g>
<g >
</g>
<g >
</g>
<g >
</g>
<g >
</g>
<g >
</g>
<g >
</g>
<g >
</g>
<g >
</g>
<g >
</g>
</g>
<g style="fill:#000000; fill-opacity:0.0; 
stroke:#000000; stroke-width:59.0551; stroke-opacity:1; 
stroke-linecap:round; stroke-linejoin:round;">
</g>
<g style="fill:#C2C200; fill-opacity:0.0; 
stroke:#C2C200; stroke-width:59.0551; stroke-opacity:1; 
stroke-linecap:round; stroke-linejoin:round;">
</g>
<g style="fill:#C2C200; fill-opacity:0.0; 
stroke:#C2C200; stroke-width:19.685; stroke-opacity:1; 
stroke-linecap:round; stroke-linejoin:round;">
<path d="M58054 1456
L57454 1456
" />
<path d="M58054 30856
L58054 1456
" />
<path d="M57454 30856
L58054 30856
" />
<path d="M5454 1456
L7454 1456
" />
<path d="M5454 30856
L5454 1456
" />
<path d="M7454 30856
L5454 30856
" />
<path d="M57454 1456
L7454 1456
" />
<path d="M57454 30856
L7454 30856
" />
<g >
</g>
<g >
</g>
<g >
</g>
<g >
</g>
<g >
</g>
<g >
</g>
<g >
</g>
<g >
</g>
<g >
</g>
<g >
</g>
<g >
</g>
<g >
</g>
<g >
</g>
<g >
</g>
<g >
</g>
<g >
</g>
<g >
</g>
<g >
</g>
<g >
</g>
<g >
</g>
<g >
</g>
<g >
</g>
<g >
</g>
<g >
</g>
<g >
</g>
<g >
</g>
<g >
</g>
<g >
</g>
<g >
</g>
<g >
</g>
<g >
</g>
<g >
</g>
<g >
</g>
<g >
</g>
<g >
</g>
<g >
</g>
</g> 
</svg>
