%TF.GenerationSoftware,KiCad,Pcbnew,(5.1.10)-1*%
%TF.CreationDate,2022-04-25T14:42:15+01:00*%
%TF.ProjectId,Motherboard,4d6f7468-6572-4626-9f61-72642e6b6963,2.2*%
%TF.SameCoordinates,Original*%
%TF.FileFunction,Soldermask,Top*%
%TF.FilePolarity,Negative*%
%FSLAX46Y46*%
G04 Gerber Fmt 4.6, Leading zero omitted, Abs format (unit mm)*
G04 Created by KiCad (PCBNEW (5.1.10)-1) date 2022-04-25 14:42:15*
%MOMM*%
%LPD*%
G01*
G04 APERTURE LIST*
%ADD10O,2.400000X1.600000*%
%ADD11R,2.400000X1.600000*%
%ADD12C,2.700000*%
%ADD13C,3.000000*%
%ADD14C,1.600000*%
%ADD15R,1.600000X1.600000*%
%ADD16C,3.200000*%
%ADD17O,1.700000X1.700000*%
%ADD18R,1.700000X1.700000*%
%ADD19O,1.600000X2.400000*%
%ADD20R,1.600000X2.400000*%
%ADD21O,1.600000X1.600000*%
%ADD22O,2.000000X1.440000*%
%ADD23R,2.000000X1.440000*%
%ADD24O,1.905000X2.000000*%
%ADD25R,1.905000X2.000000*%
%ADD26O,3.500000X3.500000*%
%ADD27C,2.500000*%
%ADD28R,2.500000X2.500000*%
%ADD29C,2.000000*%
%ADD30C,6.350000*%
%ADD31C,2.600000*%
%ADD32R,2.600000X2.600000*%
%ADD33O,1.980000X3.960000*%
%ADD34R,1.980000X3.960000*%
%ADD35R,3.500000X3.500000*%
%ADD36C,1.800000*%
%ADD37R,1.800000X1.800000*%
%ADD38O,2.200000X2.200000*%
%ADD39R,2.200000X2.200000*%
G04 APERTURE END LIST*
D10*
%TO.C,U20*%
X441960000Y-275564600D03*
X434340000Y-293344600D03*
X441960000Y-278104600D03*
X434340000Y-290804600D03*
X441960000Y-280644600D03*
X434340000Y-288264600D03*
X441960000Y-283184600D03*
X434340000Y-285724600D03*
X441960000Y-285724600D03*
X434340000Y-283184600D03*
X441960000Y-288264600D03*
X434340000Y-280644600D03*
X441960000Y-290804600D03*
X434340000Y-278104600D03*
X441960000Y-293344600D03*
D11*
X434340000Y-275564600D03*
%TD*%
D12*
%TO.C,F1*%
X53619400Y-289507000D03*
D13*
X53619400Y-300757000D03*
X53619400Y-278257000D03*
%TD*%
D14*
%TO.C,SW1*%
X156031800Y-288217600D03*
X156031800Y-290717600D03*
X156031800Y-293217600D03*
X152831800Y-288217600D03*
X152831800Y-290717600D03*
D15*
X152831800Y-293217600D03*
%TD*%
D16*
%TO.C,REF\u002A\u002A*%
X304800000Y-309829200D03*
%TD*%
%TO.C,REF\u002A\u002A*%
X304800000Y-35509200D03*
%TD*%
%TO.C,REF\u002A\u002A*%
X35560000Y-35509200D03*
%TD*%
%TO.C,REF\u002A\u002A*%
X563880000Y-35509200D03*
%TD*%
%TO.C,REF\u002A\u002A*%
X563880000Y-309829200D03*
%TD*%
%TO.C,REF\u002A\u002A*%
X35560000Y-309829200D03*
%TD*%
D10*
%TO.C,U15*%
X535940000Y-285750000D03*
X528320000Y-300990000D03*
X535940000Y-288290000D03*
X528320000Y-298450000D03*
X535940000Y-290830000D03*
X528320000Y-295910000D03*
X535940000Y-293370000D03*
X528320000Y-293370000D03*
X535940000Y-295910000D03*
X528320000Y-290830000D03*
X535940000Y-298450000D03*
X528320000Y-288290000D03*
X535940000Y-300990000D03*
D11*
X528320000Y-285750000D03*
%TD*%
D17*
%TO.C,J9*%
X520648800Y-100228400D03*
X518108800Y-100228400D03*
X520648800Y-97688400D03*
X518108800Y-97688400D03*
X520648800Y-95148400D03*
X518108800Y-95148400D03*
X520648800Y-92608400D03*
X518108800Y-92608400D03*
X520648800Y-90068400D03*
X518108800Y-90068400D03*
X520648800Y-87528400D03*
X518108800Y-87528400D03*
X520648800Y-84988400D03*
X518108800Y-84988400D03*
X520648800Y-82448400D03*
X518108800Y-82448400D03*
X520648800Y-79908400D03*
X518108800Y-79908400D03*
X520648800Y-77368400D03*
X518108800Y-77368400D03*
X520648800Y-74828400D03*
X518108800Y-74828400D03*
X520648800Y-72288400D03*
X518108800Y-72288400D03*
X520648800Y-69748400D03*
X518108800Y-69748400D03*
X520648800Y-67208400D03*
X518108800Y-67208400D03*
X520648800Y-64668400D03*
X518108800Y-64668400D03*
X520648800Y-62128400D03*
X518108800Y-62128400D03*
X520648800Y-59588400D03*
X518108800Y-59588400D03*
X520648800Y-57048400D03*
X518108800Y-57048400D03*
X520648800Y-54508400D03*
X518108800Y-54508400D03*
X520648800Y-51968400D03*
X518108800Y-51968400D03*
X520648800Y-49428400D03*
D18*
X518108800Y-49428400D03*
%TD*%
D17*
%TO.C,J8*%
X495414000Y-100228400D03*
X492874000Y-100228400D03*
X495414000Y-97688400D03*
X492874000Y-97688400D03*
X495414000Y-95148400D03*
X492874000Y-95148400D03*
X495414000Y-92608400D03*
X492874000Y-92608400D03*
X495414000Y-90068400D03*
X492874000Y-90068400D03*
X495414000Y-87528400D03*
X492874000Y-87528400D03*
X495414000Y-84988400D03*
X492874000Y-84988400D03*
X495414000Y-82448400D03*
X492874000Y-82448400D03*
X495414000Y-79908400D03*
X492874000Y-79908400D03*
X495414000Y-77368400D03*
X492874000Y-77368400D03*
X495414000Y-74828400D03*
X492874000Y-74828400D03*
X495414000Y-72288400D03*
X492874000Y-72288400D03*
X495414000Y-69748400D03*
X492874000Y-69748400D03*
X495414000Y-67208400D03*
X492874000Y-67208400D03*
X495414000Y-64668400D03*
X492874000Y-64668400D03*
X495414000Y-62128400D03*
X492874000Y-62128400D03*
X495414000Y-59588400D03*
X492874000Y-59588400D03*
X495414000Y-57048400D03*
X492874000Y-57048400D03*
X495414000Y-54508400D03*
X492874000Y-54508400D03*
X495414000Y-51968400D03*
X492874000Y-51968400D03*
X495414000Y-49428400D03*
D18*
X492874000Y-49428400D03*
%TD*%
D17*
%TO.C,J7*%
X470026800Y-100177600D03*
X467486800Y-100177600D03*
X470026800Y-97637600D03*
X467486800Y-97637600D03*
X470026800Y-95097600D03*
X467486800Y-95097600D03*
X470026800Y-92557600D03*
X467486800Y-92557600D03*
X470026800Y-90017600D03*
X467486800Y-90017600D03*
X470026800Y-87477600D03*
X467486800Y-87477600D03*
X470026800Y-84937600D03*
X467486800Y-84937600D03*
X470026800Y-82397600D03*
X467486800Y-82397600D03*
X470026800Y-79857600D03*
X467486800Y-79857600D03*
X470026800Y-77317600D03*
X467486800Y-77317600D03*
X470026800Y-74777600D03*
X467486800Y-74777600D03*
X470026800Y-72237600D03*
X467486800Y-72237600D03*
X470026800Y-69697600D03*
X467486800Y-69697600D03*
X470026800Y-67157600D03*
X467486800Y-67157600D03*
X470026800Y-64617600D03*
X467486800Y-64617600D03*
X470026800Y-62077600D03*
X467486800Y-62077600D03*
X470026800Y-59537600D03*
X467486800Y-59537600D03*
X470026800Y-56997600D03*
X467486800Y-56997600D03*
X470026800Y-54457600D03*
X467486800Y-54457600D03*
X470026800Y-51917600D03*
X467486800Y-51917600D03*
X470026800Y-49377600D03*
D18*
X467486800Y-49377600D03*
%TD*%
D17*
%TO.C,J6*%
X445808000Y-100177600D03*
X443268000Y-100177600D03*
X445808000Y-97637600D03*
X443268000Y-97637600D03*
X445808000Y-95097600D03*
X443268000Y-95097600D03*
X445808000Y-92557600D03*
X443268000Y-92557600D03*
X445808000Y-90017600D03*
X443268000Y-90017600D03*
X445808000Y-87477600D03*
X443268000Y-87477600D03*
X445808000Y-84937600D03*
X443268000Y-84937600D03*
X445808000Y-82397600D03*
X443268000Y-82397600D03*
X445808000Y-79857600D03*
X443268000Y-79857600D03*
X445808000Y-77317600D03*
X443268000Y-77317600D03*
X445808000Y-74777600D03*
X443268000Y-74777600D03*
X445808000Y-72237600D03*
X443268000Y-72237600D03*
X445808000Y-69697600D03*
X443268000Y-69697600D03*
X445808000Y-67157600D03*
X443268000Y-67157600D03*
X445808000Y-64617600D03*
X443268000Y-64617600D03*
X445808000Y-62077600D03*
X443268000Y-62077600D03*
X445808000Y-59537600D03*
X443268000Y-59537600D03*
X445808000Y-56997600D03*
X443268000Y-56997600D03*
X445808000Y-54457600D03*
X443268000Y-54457600D03*
X445808000Y-51917600D03*
X443268000Y-51917600D03*
X445808000Y-49377600D03*
D18*
X443268000Y-49377600D03*
%TD*%
D17*
%TO.C,J5*%
X420420800Y-100025200D03*
X417880800Y-100025200D03*
X420420800Y-97485200D03*
X417880800Y-97485200D03*
X420420800Y-94945200D03*
X417880800Y-94945200D03*
X420420800Y-92405200D03*
X417880800Y-92405200D03*
X420420800Y-89865200D03*
X417880800Y-89865200D03*
X420420800Y-87325200D03*
X417880800Y-87325200D03*
X420420800Y-84785200D03*
X417880800Y-84785200D03*
X420420800Y-82245200D03*
X417880800Y-82245200D03*
X420420800Y-79705200D03*
X417880800Y-79705200D03*
X420420800Y-77165200D03*
X417880800Y-77165200D03*
X420420800Y-74625200D03*
X417880800Y-74625200D03*
X420420800Y-72085200D03*
X417880800Y-72085200D03*
X420420800Y-69545200D03*
X417880800Y-69545200D03*
X420420800Y-67005200D03*
X417880800Y-67005200D03*
X420420800Y-64465200D03*
X417880800Y-64465200D03*
X420420800Y-61925200D03*
X417880800Y-61925200D03*
X420420800Y-59385200D03*
X417880800Y-59385200D03*
X420420800Y-56845200D03*
X417880800Y-56845200D03*
X420420800Y-54305200D03*
X417880800Y-54305200D03*
X420420800Y-51765200D03*
X417880800Y-51765200D03*
X420420800Y-49225200D03*
D18*
X417880800Y-49225200D03*
%TD*%
D10*
%TO.C,U33*%
X205740000Y-71120000D03*
X190500000Y-119380000D03*
X205740000Y-73660000D03*
X190500000Y-116840000D03*
X205740000Y-76200000D03*
X190500000Y-114300000D03*
X205740000Y-78740000D03*
X190500000Y-111760000D03*
X205740000Y-81280000D03*
X190500000Y-109220000D03*
X205740000Y-83820000D03*
X190500000Y-106680000D03*
X205740000Y-86360000D03*
X190500000Y-104140000D03*
X205740000Y-88900000D03*
X190500000Y-101600000D03*
X205740000Y-91440000D03*
X190500000Y-99060000D03*
X205740000Y-93980000D03*
X190500000Y-96520000D03*
X205740000Y-96520000D03*
X190500000Y-93980000D03*
X205740000Y-99060000D03*
X190500000Y-91440000D03*
X205740000Y-101600000D03*
X190500000Y-88900000D03*
X205740000Y-104140000D03*
X190500000Y-86360000D03*
X205740000Y-106680000D03*
X190500000Y-83820000D03*
X205740000Y-109220000D03*
X190500000Y-81280000D03*
X205740000Y-111760000D03*
X190500000Y-78740000D03*
X205740000Y-114300000D03*
X190500000Y-76200000D03*
X205740000Y-116840000D03*
X190500000Y-73660000D03*
X205740000Y-119380000D03*
D11*
X190500000Y-71120000D03*
%TD*%
D10*
%TO.C,U21*%
X205740000Y-128270000D03*
X190500000Y-176530000D03*
X205740000Y-130810000D03*
X190500000Y-173990000D03*
X205740000Y-133350000D03*
X190500000Y-171450000D03*
X205740000Y-135890000D03*
X190500000Y-168910000D03*
X205740000Y-138430000D03*
X190500000Y-166370000D03*
X205740000Y-140970000D03*
X190500000Y-163830000D03*
X205740000Y-143510000D03*
X190500000Y-161290000D03*
X205740000Y-146050000D03*
X190500000Y-158750000D03*
X205740000Y-148590000D03*
X190500000Y-156210000D03*
X205740000Y-151130000D03*
X190500000Y-153670000D03*
X205740000Y-153670000D03*
X190500000Y-151130000D03*
X205740000Y-156210000D03*
X190500000Y-148590000D03*
X205740000Y-158750000D03*
X190500000Y-146050000D03*
X205740000Y-161290000D03*
X190500000Y-143510000D03*
X205740000Y-163830000D03*
X190500000Y-140970000D03*
X205740000Y-166370000D03*
X190500000Y-138430000D03*
X205740000Y-168910000D03*
X190500000Y-135890000D03*
X205740000Y-171450000D03*
X190500000Y-133350000D03*
X205740000Y-173990000D03*
X190500000Y-130810000D03*
X205740000Y-176530000D03*
D11*
X190500000Y-128270000D03*
%TD*%
D10*
%TO.C,U9*%
X401320000Y-172720000D03*
X386080000Y-205740000D03*
X401320000Y-175260000D03*
X386080000Y-203200000D03*
X401320000Y-177800000D03*
X386080000Y-200660000D03*
X401320000Y-180340000D03*
X386080000Y-198120000D03*
X401320000Y-182880000D03*
X386080000Y-195580000D03*
X401320000Y-185420000D03*
X386080000Y-193040000D03*
X401320000Y-187960000D03*
X386080000Y-190500000D03*
X401320000Y-190500000D03*
X386080000Y-187960000D03*
X401320000Y-193040000D03*
X386080000Y-185420000D03*
X401320000Y-195580000D03*
X386080000Y-182880000D03*
X401320000Y-198120000D03*
X386080000Y-180340000D03*
X401320000Y-200660000D03*
X386080000Y-177800000D03*
X401320000Y-203200000D03*
X386080000Y-175260000D03*
X401320000Y-205740000D03*
D11*
X386080000Y-172720000D03*
%TD*%
D19*
%TO.C,U27*%
X455930000Y-243840000D03*
X504190000Y-259080000D03*
X458470000Y-243840000D03*
X501650000Y-259080000D03*
X461010000Y-243840000D03*
X499110000Y-259080000D03*
X463550000Y-243840000D03*
X496570000Y-259080000D03*
X466090000Y-243840000D03*
X494030000Y-259080000D03*
X468630000Y-243840000D03*
X491490000Y-259080000D03*
X471170000Y-243840000D03*
X488950000Y-259080000D03*
X473710000Y-243840000D03*
X486410000Y-259080000D03*
X476250000Y-243840000D03*
X483870000Y-259080000D03*
X478790000Y-243840000D03*
X481330000Y-259080000D03*
X481330000Y-243840000D03*
X478790000Y-259080000D03*
X483870000Y-243840000D03*
X476250000Y-259080000D03*
X486410000Y-243840000D03*
X473710000Y-259080000D03*
X488950000Y-243840000D03*
X471170000Y-259080000D03*
X491490000Y-243840000D03*
X468630000Y-259080000D03*
X494030000Y-243840000D03*
X466090000Y-259080000D03*
X496570000Y-243840000D03*
X463550000Y-259080000D03*
X499110000Y-243840000D03*
X461010000Y-259080000D03*
X501650000Y-243840000D03*
X458470000Y-259080000D03*
X504190000Y-243840000D03*
D20*
X455930000Y-259080000D03*
%TD*%
D17*
%TO.C,J3*%
X36830000Y-158750000D03*
X39370000Y-156210000D03*
X36830000Y-156210000D03*
X39370000Y-153670000D03*
X36830000Y-153670000D03*
X39370000Y-151130000D03*
X36830000Y-151130000D03*
X39370000Y-148590000D03*
D18*
X36830000Y-148590000D03*
%TD*%
D21*
%TO.C,R22*%
X300990000Y-198120000D03*
D14*
X308610000Y-198120000D03*
%TD*%
D10*
%TO.C,U16*%
X139700000Y-154940000D03*
X132080000Y-177800000D03*
X139700000Y-157480000D03*
X132080000Y-175260000D03*
X139700000Y-160020000D03*
X132080000Y-172720000D03*
X139700000Y-162560000D03*
X132080000Y-170180000D03*
X139700000Y-165100000D03*
X132080000Y-167640000D03*
X139700000Y-167640000D03*
X132080000Y-165100000D03*
X139700000Y-170180000D03*
X132080000Y-162560000D03*
X139700000Y-172720000D03*
X132080000Y-160020000D03*
X139700000Y-175260000D03*
X132080000Y-157480000D03*
X139700000Y-177800000D03*
D11*
X132080000Y-154940000D03*
%TD*%
D14*
%TO.C,C1*%
X220980000Y-278170000D03*
X220980000Y-280670000D03*
%TD*%
D17*
%TO.C,J4*%
X196850000Y-63500000D03*
X199390000Y-63500000D03*
X196850000Y-60960000D03*
X199390000Y-60960000D03*
X196850000Y-58420000D03*
X199390000Y-58420000D03*
X196850000Y-55880000D03*
X199390000Y-55880000D03*
X196850000Y-53340000D03*
X199390000Y-53340000D03*
X196850000Y-50800000D03*
X199390000Y-50800000D03*
X196850000Y-48260000D03*
X199390000Y-48260000D03*
X196850000Y-45720000D03*
X199390000Y-45720000D03*
X196850000Y-43180000D03*
X199390000Y-43180000D03*
X196850000Y-40640000D03*
X199390000Y-40640000D03*
X196850000Y-38100000D03*
D18*
X199390000Y-38100000D03*
%TD*%
D19*
%TO.C,U32*%
X87630000Y-205740000D03*
X72390000Y-198120000D03*
X85090000Y-205740000D03*
X74930000Y-198120000D03*
X82550000Y-205740000D03*
X77470000Y-198120000D03*
X80010000Y-205740000D03*
X80010000Y-198120000D03*
X77470000Y-205740000D03*
X82550000Y-198120000D03*
X74930000Y-205740000D03*
X85090000Y-198120000D03*
X72390000Y-205740000D03*
D20*
X87630000Y-198120000D03*
%TD*%
D22*
%TO.C,U19*%
X316230000Y-167640000D03*
X331470000Y-167640000D03*
X316230000Y-170180000D03*
X331470000Y-170180000D03*
X316230000Y-172720000D03*
X331470000Y-172720000D03*
X316230000Y-175260000D03*
X331470000Y-175260000D03*
X316230000Y-177800000D03*
X331470000Y-177800000D03*
X316230000Y-180340000D03*
X331470000Y-180340000D03*
X316230000Y-182880000D03*
X331470000Y-182880000D03*
X316230000Y-185420000D03*
X331470000Y-185420000D03*
X316230000Y-187960000D03*
X331470000Y-187960000D03*
X316230000Y-190500000D03*
X331470000Y-190500000D03*
X316230000Y-193040000D03*
X331470000Y-193040000D03*
X316230000Y-195580000D03*
X331470000Y-195580000D03*
X316230000Y-198120000D03*
X331470000Y-198120000D03*
X316230000Y-200660000D03*
D23*
X331470000Y-200660000D03*
%TD*%
D22*
%TO.C,U11*%
X401320000Y-160020000D03*
X386080000Y-160020000D03*
X401320000Y-157480000D03*
X386080000Y-157480000D03*
X401320000Y-154940000D03*
X386080000Y-154940000D03*
X401320000Y-152400000D03*
X386080000Y-152400000D03*
X401320000Y-149860000D03*
X386080000Y-149860000D03*
X401320000Y-147320000D03*
X386080000Y-147320000D03*
X401320000Y-144780000D03*
X386080000Y-144780000D03*
X401320000Y-142240000D03*
X386080000Y-142240000D03*
X401320000Y-139700000D03*
X386080000Y-139700000D03*
X401320000Y-137160000D03*
X386080000Y-137160000D03*
X401320000Y-134620000D03*
X386080000Y-134620000D03*
X401320000Y-132080000D03*
X386080000Y-132080000D03*
X401320000Y-129540000D03*
X386080000Y-129540000D03*
X401320000Y-127000000D03*
D23*
X386080000Y-127000000D03*
%TD*%
D24*
%TO.C,U13*%
X213360000Y-312420000D03*
X210820000Y-312420000D03*
D25*
X208280000Y-312420000D03*
D26*
X210820000Y-295760000D03*
%TD*%
D27*
%TO.C,X2*%
X66040000Y-205740000D03*
X66040000Y-198120000D03*
X50800000Y-198120000D03*
D28*
X50800000Y-205740000D03*
%TD*%
D27*
%TO.C,X1*%
X264160000Y-69850000D03*
X264160000Y-62230000D03*
X248920000Y-62230000D03*
D28*
X248920000Y-69850000D03*
%TD*%
D10*
%TO.C,U43*%
X542290000Y-151130000D03*
X534670000Y-166370000D03*
X542290000Y-153670000D03*
X534670000Y-163830000D03*
X542290000Y-156210000D03*
X534670000Y-161290000D03*
X542290000Y-158750000D03*
X534670000Y-158750000D03*
X542290000Y-161290000D03*
X534670000Y-156210000D03*
X542290000Y-163830000D03*
X534670000Y-153670000D03*
X542290000Y-166370000D03*
D11*
X534670000Y-151130000D03*
%TD*%
D10*
%TO.C,U31*%
X549910000Y-256540000D03*
X542290000Y-271780000D03*
X549910000Y-259080000D03*
X542290000Y-269240000D03*
X549910000Y-261620000D03*
X542290000Y-266700000D03*
X549910000Y-264160000D03*
X542290000Y-264160000D03*
X549910000Y-266700000D03*
X542290000Y-261620000D03*
X549910000Y-269240000D03*
X542290000Y-259080000D03*
X549910000Y-271780000D03*
D11*
X542290000Y-256540000D03*
%TD*%
D10*
%TO.C,U38*%
X541020000Y-203200000D03*
X533400000Y-218440000D03*
X541020000Y-205740000D03*
X533400000Y-215900000D03*
X541020000Y-208280000D03*
X533400000Y-213360000D03*
X541020000Y-210820000D03*
X533400000Y-210820000D03*
X541020000Y-213360000D03*
X533400000Y-208280000D03*
X541020000Y-215900000D03*
X533400000Y-205740000D03*
X541020000Y-218440000D03*
D11*
X533400000Y-203200000D03*
%TD*%
D10*
%TO.C,U42*%
X516890000Y-168910000D03*
X509270000Y-184150000D03*
X516890000Y-171450000D03*
X509270000Y-181610000D03*
X516890000Y-173990000D03*
X509270000Y-179070000D03*
X516890000Y-176530000D03*
X509270000Y-176530000D03*
X516890000Y-179070000D03*
X509270000Y-173990000D03*
X516890000Y-181610000D03*
X509270000Y-171450000D03*
X516890000Y-184150000D03*
D11*
X509270000Y-168910000D03*
%TD*%
D10*
%TO.C,U36*%
X516890000Y-214630000D03*
X509270000Y-229870000D03*
X516890000Y-217170000D03*
X509270000Y-227330000D03*
X516890000Y-219710000D03*
X509270000Y-224790000D03*
X516890000Y-222250000D03*
X509270000Y-222250000D03*
X516890000Y-224790000D03*
X509270000Y-219710000D03*
X516890000Y-227330000D03*
X509270000Y-217170000D03*
X516890000Y-229870000D03*
D11*
X509270000Y-214630000D03*
%TD*%
D10*
%TO.C,U39*%
X542290000Y-175260000D03*
X534670000Y-190500000D03*
X542290000Y-177800000D03*
X534670000Y-187960000D03*
X542290000Y-180340000D03*
X534670000Y-185420000D03*
X542290000Y-182880000D03*
X534670000Y-182880000D03*
X542290000Y-185420000D03*
X534670000Y-180340000D03*
X542290000Y-187960000D03*
X534670000Y-177800000D03*
X542290000Y-190500000D03*
D11*
X534670000Y-175260000D03*
%TD*%
D10*
%TO.C,U35*%
X533400000Y-229870000D03*
X525780000Y-245110000D03*
X533400000Y-232410000D03*
X525780000Y-242570000D03*
X533400000Y-234950000D03*
X525780000Y-240030000D03*
X533400000Y-237490000D03*
X525780000Y-237490000D03*
X533400000Y-240030000D03*
X525780000Y-234950000D03*
X533400000Y-242570000D03*
X525780000Y-232410000D03*
X533400000Y-245110000D03*
D11*
X525780000Y-229870000D03*
%TD*%
D10*
%TO.C,U37*%
X516890000Y-191770000D03*
X509270000Y-207010000D03*
X516890000Y-194310000D03*
X509270000Y-204470000D03*
X516890000Y-196850000D03*
X509270000Y-201930000D03*
X516890000Y-199390000D03*
X509270000Y-199390000D03*
X516890000Y-201930000D03*
X509270000Y-196850000D03*
X516890000Y-204470000D03*
X509270000Y-194310000D03*
X516890000Y-207010000D03*
D11*
X509270000Y-191770000D03*
%TD*%
D10*
%TO.C,U40*%
X519430000Y-248920000D03*
X511810000Y-264160000D03*
X519430000Y-251460000D03*
X511810000Y-261620000D03*
X519430000Y-254000000D03*
X511810000Y-259080000D03*
X519430000Y-256540000D03*
X511810000Y-256540000D03*
X519430000Y-259080000D03*
X511810000Y-254000000D03*
X519430000Y-261620000D03*
X511810000Y-251460000D03*
X519430000Y-264160000D03*
D11*
X511810000Y-248920000D03*
%TD*%
D19*
%TO.C,U29*%
X45720000Y-146050000D03*
X73660000Y-161290000D03*
X48260000Y-146050000D03*
X71120000Y-161290000D03*
X50800000Y-146050000D03*
X68580000Y-161290000D03*
X53340000Y-146050000D03*
X66040000Y-161290000D03*
X55880000Y-146050000D03*
X63500000Y-161290000D03*
X58420000Y-146050000D03*
X60960000Y-161290000D03*
X60960000Y-146050000D03*
X58420000Y-161290000D03*
X63500000Y-146050000D03*
X55880000Y-161290000D03*
X66040000Y-146050000D03*
X53340000Y-161290000D03*
X68580000Y-146050000D03*
X50800000Y-161290000D03*
X71120000Y-146050000D03*
X48260000Y-161290000D03*
X73660000Y-146050000D03*
D20*
X45720000Y-161290000D03*
%TD*%
D10*
%TO.C,U28*%
X457200000Y-189230000D03*
X449580000Y-207010000D03*
X457200000Y-191770000D03*
X449580000Y-204470000D03*
X457200000Y-194310000D03*
X449580000Y-201930000D03*
X457200000Y-196850000D03*
X449580000Y-199390000D03*
X457200000Y-199390000D03*
X449580000Y-196850000D03*
X457200000Y-201930000D03*
X449580000Y-194310000D03*
X457200000Y-204470000D03*
X449580000Y-191770000D03*
X457200000Y-207010000D03*
D11*
X449580000Y-189230000D03*
%TD*%
D10*
%TO.C,U26*%
X250190000Y-111760000D03*
X242570000Y-119380000D03*
X250190000Y-114300000D03*
X242570000Y-116840000D03*
X250190000Y-116840000D03*
X242570000Y-114300000D03*
X250190000Y-119380000D03*
D11*
X242570000Y-111760000D03*
%TD*%
D19*
%TO.C,U25*%
X85090000Y-185420000D03*
X52070000Y-170180000D03*
X82550000Y-185420000D03*
X54610000Y-170180000D03*
X80010000Y-185420000D03*
X57150000Y-170180000D03*
X77470000Y-185420000D03*
X59690000Y-170180000D03*
X74930000Y-185420000D03*
X62230000Y-170180000D03*
X72390000Y-185420000D03*
X64770000Y-170180000D03*
X69850000Y-185420000D03*
X67310000Y-170180000D03*
X67310000Y-185420000D03*
X69850000Y-170180000D03*
X64770000Y-185420000D03*
X72390000Y-170180000D03*
X62230000Y-185420000D03*
X74930000Y-170180000D03*
X59690000Y-185420000D03*
X77470000Y-170180000D03*
X57150000Y-185420000D03*
X80010000Y-170180000D03*
X54610000Y-185420000D03*
X82550000Y-170180000D03*
X52070000Y-185420000D03*
D20*
X85090000Y-170180000D03*
%TD*%
D10*
%TO.C,U24*%
X280670000Y-57150000D03*
X273050000Y-72390000D03*
X280670000Y-59690000D03*
X273050000Y-69850000D03*
X280670000Y-62230000D03*
X273050000Y-67310000D03*
X280670000Y-64770000D03*
X273050000Y-64770000D03*
X280670000Y-67310000D03*
X273050000Y-62230000D03*
X280670000Y-69850000D03*
X273050000Y-59690000D03*
X280670000Y-72390000D03*
D11*
X273050000Y-57150000D03*
%TD*%
D10*
%TO.C,U23*%
X250190000Y-90170000D03*
X242570000Y-105410000D03*
X250190000Y-92710000D03*
X242570000Y-102870000D03*
X250190000Y-95250000D03*
X242570000Y-100330000D03*
X250190000Y-97790000D03*
X242570000Y-97790000D03*
X250190000Y-100330000D03*
X242570000Y-95250000D03*
X250190000Y-102870000D03*
X242570000Y-92710000D03*
X250190000Y-105410000D03*
D11*
X242570000Y-90170000D03*
%TD*%
D10*
%TO.C,U22*%
X419100000Y-163830000D03*
X411480000Y-181610000D03*
X419100000Y-166370000D03*
X411480000Y-179070000D03*
X419100000Y-168910000D03*
X411480000Y-176530000D03*
X419100000Y-171450000D03*
X411480000Y-173990000D03*
X419100000Y-173990000D03*
X411480000Y-171450000D03*
X419100000Y-176530000D03*
X411480000Y-168910000D03*
X419100000Y-179070000D03*
X411480000Y-166370000D03*
X419100000Y-181610000D03*
D11*
X411480000Y-163830000D03*
%TD*%
D10*
%TO.C,U18*%
X165100000Y-186690000D03*
X157480000Y-201930000D03*
X165100000Y-189230000D03*
X157480000Y-199390000D03*
X165100000Y-191770000D03*
X157480000Y-196850000D03*
X165100000Y-194310000D03*
X157480000Y-194310000D03*
X165100000Y-196850000D03*
X157480000Y-191770000D03*
X165100000Y-199390000D03*
X157480000Y-189230000D03*
X165100000Y-201930000D03*
D11*
X157480000Y-186690000D03*
%TD*%
D10*
%TO.C,U17*%
X152400000Y-154940000D03*
X144780000Y-177800000D03*
X152400000Y-157480000D03*
X144780000Y-175260000D03*
X152400000Y-160020000D03*
X144780000Y-172720000D03*
X152400000Y-162560000D03*
X144780000Y-170180000D03*
X152400000Y-165100000D03*
X144780000Y-167640000D03*
X152400000Y-167640000D03*
X144780000Y-165100000D03*
X152400000Y-170180000D03*
X144780000Y-162560000D03*
X152400000Y-172720000D03*
X144780000Y-160020000D03*
X152400000Y-175260000D03*
X144780000Y-157480000D03*
X152400000Y-177800000D03*
D11*
X144780000Y-154940000D03*
%TD*%
D10*
%TO.C,U14*%
X173990000Y-100330000D03*
X166370000Y-115570000D03*
X173990000Y-102870000D03*
X166370000Y-113030000D03*
X173990000Y-105410000D03*
X166370000Y-110490000D03*
X173990000Y-107950000D03*
X166370000Y-107950000D03*
X173990000Y-110490000D03*
X166370000Y-105410000D03*
X173990000Y-113030000D03*
X166370000Y-102870000D03*
X173990000Y-115570000D03*
D11*
X166370000Y-100330000D03*
%TD*%
D10*
%TO.C,U12*%
X181610000Y-306070000D03*
X173990000Y-313690000D03*
X181610000Y-308610000D03*
X173990000Y-311150000D03*
X181610000Y-311150000D03*
X173990000Y-308610000D03*
X181610000Y-313690000D03*
D11*
X173990000Y-306070000D03*
%TD*%
D10*
%TO.C,U10*%
X331470000Y-132080000D03*
X323850000Y-154940000D03*
X331470000Y-134620000D03*
X323850000Y-152400000D03*
X331470000Y-137160000D03*
X323850000Y-149860000D03*
X331470000Y-139700000D03*
X323850000Y-147320000D03*
X331470000Y-142240000D03*
X323850000Y-144780000D03*
X331470000Y-144780000D03*
X323850000Y-142240000D03*
X331470000Y-147320000D03*
X323850000Y-139700000D03*
X331470000Y-149860000D03*
X323850000Y-137160000D03*
X331470000Y-152400000D03*
X323850000Y-134620000D03*
X331470000Y-154940000D03*
D11*
X323850000Y-132080000D03*
%TD*%
D10*
%TO.C,U8*%
X457200000Y-163830000D03*
X449580000Y-179070000D03*
X457200000Y-166370000D03*
X449580000Y-176530000D03*
X457200000Y-168910000D03*
X449580000Y-173990000D03*
X457200000Y-171450000D03*
X449580000Y-171450000D03*
X457200000Y-173990000D03*
X449580000Y-168910000D03*
X457200000Y-176530000D03*
X449580000Y-166370000D03*
X457200000Y-179070000D03*
D11*
X449580000Y-163830000D03*
%TD*%
D10*
%TO.C,U7*%
X173990000Y-124460000D03*
X166370000Y-139700000D03*
X173990000Y-127000000D03*
X166370000Y-137160000D03*
X173990000Y-129540000D03*
X166370000Y-134620000D03*
X173990000Y-132080000D03*
X166370000Y-132080000D03*
X173990000Y-134620000D03*
X166370000Y-129540000D03*
X173990000Y-137160000D03*
X166370000Y-127000000D03*
X173990000Y-139700000D03*
D11*
X166370000Y-124460000D03*
%TD*%
D10*
%TO.C,U6*%
X234950000Y-33020000D03*
X227330000Y-48260000D03*
X234950000Y-35560000D03*
X227330000Y-45720000D03*
X234950000Y-38100000D03*
X227330000Y-43180000D03*
X234950000Y-40640000D03*
X227330000Y-40640000D03*
X234950000Y-43180000D03*
X227330000Y-38100000D03*
X234950000Y-45720000D03*
X227330000Y-35560000D03*
X234950000Y-48260000D03*
D11*
X227330000Y-33020000D03*
%TD*%
D10*
%TO.C,U5*%
X152400000Y-133350000D03*
X144780000Y-151130000D03*
X152400000Y-135890000D03*
X144780000Y-148590000D03*
X152400000Y-138430000D03*
X144780000Y-146050000D03*
X152400000Y-140970000D03*
X144780000Y-143510000D03*
X152400000Y-143510000D03*
X144780000Y-140970000D03*
X152400000Y-146050000D03*
X144780000Y-138430000D03*
X152400000Y-148590000D03*
X144780000Y-135890000D03*
X152400000Y-151130000D03*
D11*
X144780000Y-133350000D03*
%TD*%
D10*
%TO.C,U4*%
X132080000Y-151130000D03*
X139700000Y-133350000D03*
X132080000Y-148590000D03*
X139700000Y-135890000D03*
X132080000Y-146050000D03*
X139700000Y-138430000D03*
X132080000Y-143510000D03*
X139700000Y-140970000D03*
X132080000Y-140970000D03*
X139700000Y-143510000D03*
X132080000Y-138430000D03*
X139700000Y-146050000D03*
X132080000Y-135890000D03*
X139700000Y-148590000D03*
X132080000Y-133350000D03*
D11*
X139700000Y-151130000D03*
%TD*%
D10*
%TO.C,U3*%
X436880000Y-163830000D03*
X429260000Y-179070000D03*
X436880000Y-166370000D03*
X429260000Y-176530000D03*
X436880000Y-168910000D03*
X429260000Y-173990000D03*
X436880000Y-171450000D03*
X429260000Y-171450000D03*
X436880000Y-173990000D03*
X429260000Y-168910000D03*
X436880000Y-176530000D03*
X429260000Y-166370000D03*
X436880000Y-179070000D03*
D11*
X429260000Y-163830000D03*
%TD*%
D24*
%TO.C,U2*%
X252730000Y-280670000D03*
X250190000Y-280670000D03*
D25*
X247650000Y-280670000D03*
D26*
X250190000Y-264010000D03*
%TD*%
D24*
%TO.C,U1*%
X229870000Y-280670000D03*
X227330000Y-280670000D03*
D25*
X224790000Y-280670000D03*
D26*
X227330000Y-264010000D03*
%TD*%
D13*
%TO.C,TR1*%
X98620000Y-283530000D03*
X98620000Y-288530000D03*
X98620000Y-293530000D03*
X98620000Y-298530000D03*
X71120000Y-283530000D03*
X71120000Y-288530000D03*
X71120000Y-293530000D03*
X71120000Y-298530000D03*
X98620000Y-303530000D03*
X98620000Y-278530000D03*
X71120000Y-278480000D03*
X71120000Y-303530000D03*
%TD*%
D29*
%TO.C,SW3*%
X260500000Y-125730000D03*
X260500000Y-130230000D03*
X254000000Y-125730000D03*
X254000000Y-130230000D03*
%TD*%
%TO.C,SW2*%
X217320000Y-276860000D03*
X217320000Y-281360000D03*
X210820000Y-276860000D03*
X210820000Y-281360000D03*
%TD*%
D21*
%TO.C,R21*%
X257810000Y-114300000D03*
D14*
X257810000Y-106680000D03*
%TD*%
D21*
%TO.C,R20*%
X260350000Y-123190000D03*
D14*
X260350000Y-115570000D03*
%TD*%
D21*
%TO.C,R19*%
X187960000Y-148590000D03*
D14*
X180340000Y-148590000D03*
%TD*%
D21*
%TO.C,R18*%
X176530000Y-132080000D03*
D14*
X184150000Y-132080000D03*
%TD*%
D21*
%TO.C,R17*%
X200660000Y-123190000D03*
D14*
X193040000Y-123190000D03*
%TD*%
D21*
%TO.C,R16*%
X415290000Y-129540000D03*
D14*
X407670000Y-129540000D03*
%TD*%
D21*
%TO.C,R15*%
X219770000Y-288290000D03*
D14*
X212150000Y-288290000D03*
%TD*%
D21*
%TO.C,R14*%
X173990000Y-302260000D03*
D14*
X166370000Y-302260000D03*
%TD*%
D21*
%TO.C,R13*%
X196850000Y-304800000D03*
D14*
X189230000Y-304800000D03*
%TD*%
D21*
%TO.C,R12*%
X195580000Y-273050000D03*
D14*
X187960000Y-273050000D03*
%TD*%
D21*
%TO.C,R11*%
X233680000Y-313690000D03*
D14*
X226060000Y-313690000D03*
%TD*%
D21*
%TO.C,R10*%
X242570000Y-284480000D03*
D14*
X234950000Y-284480000D03*
%TD*%
D21*
%TO.C,R9*%
X267970000Y-292100000D03*
D14*
X267970000Y-284480000D03*
%TD*%
D21*
%TO.C,R8*%
X63500000Y-132080000D03*
D14*
X63500000Y-124460000D03*
%TD*%
D21*
%TO.C,R7*%
X69850000Y-132080000D03*
D14*
X69850000Y-124460000D03*
%TD*%
D21*
%TO.C,R6*%
X76200000Y-132080000D03*
D14*
X76200000Y-124460000D03*
%TD*%
D21*
%TO.C,R5*%
X82550000Y-132080000D03*
D14*
X82550000Y-124460000D03*
%TD*%
D21*
%TO.C,R4*%
X88900000Y-132080000D03*
D14*
X88900000Y-124460000D03*
%TD*%
D21*
%TO.C,R3*%
X95250000Y-132080000D03*
D14*
X95250000Y-124460000D03*
%TD*%
D21*
%TO.C,R2*%
X101600000Y-132080000D03*
D14*
X101600000Y-124460000D03*
%TD*%
D21*
%TO.C,R1*%
X107950000Y-132080000D03*
D14*
X107950000Y-124460000D03*
%TD*%
D24*
%TO.C,Q2*%
X205740000Y-280670000D03*
X203200000Y-280670000D03*
D25*
X200660000Y-280670000D03*
D26*
X203200000Y-264010000D03*
%TD*%
D30*
%TO.C,Q1*%
X199780000Y-289930000D03*
X169580000Y-289930000D03*
D31*
X182880000Y-295400000D03*
D32*
X182880000Y-284480000D03*
%TD*%
D33*
%TO.C,P1*%
X58492400Y-311251600D03*
D34*
X53492400Y-311251600D03*
%TD*%
D17*
%TO.C,JP16*%
X218440000Y-119380000D03*
X218440000Y-116840000D03*
D18*
X218440000Y-114300000D03*
%TD*%
D17*
%TO.C,JP15*%
X278130000Y-82550000D03*
D18*
X278130000Y-80010000D03*
%TD*%
D17*
%TO.C,JP14*%
X273050000Y-82550000D03*
D18*
X273050000Y-80010000D03*
%TD*%
D17*
%TO.C,JP13*%
X267970000Y-82550000D03*
D18*
X267970000Y-80010000D03*
%TD*%
D17*
%TO.C,JP12*%
X422910000Y-220980000D03*
X422910000Y-223520000D03*
D18*
X422910000Y-226060000D03*
%TD*%
D17*
%TO.C,JP11*%
X185420000Y-128270000D03*
D18*
X182880000Y-128270000D03*
%TD*%
D17*
%TO.C,JP10*%
X185420000Y-135890000D03*
D18*
X182880000Y-135890000D03*
%TD*%
D17*
%TO.C,JP9*%
X184150000Y-142240000D03*
D18*
X181610000Y-142240000D03*
%TD*%
D17*
%TO.C,JP8*%
X419100000Y-220980000D03*
X419100000Y-223520000D03*
D18*
X419100000Y-226060000D03*
%TD*%
D17*
%TO.C,JP7*%
X430530000Y-220980000D03*
X430530000Y-223520000D03*
D18*
X430530000Y-226060000D03*
%TD*%
D17*
%TO.C,JP6*%
X426720000Y-220980000D03*
X426720000Y-223520000D03*
D18*
X426720000Y-226060000D03*
%TD*%
D17*
%TO.C,JP5*%
X438150000Y-220980000D03*
X438150000Y-223520000D03*
D18*
X438150000Y-226060000D03*
%TD*%
D17*
%TO.C,JP4*%
X434340000Y-220980000D03*
X434340000Y-223520000D03*
D18*
X434340000Y-226060000D03*
%TD*%
D17*
%TO.C,JP3*%
X445770000Y-220980000D03*
X445770000Y-223520000D03*
D18*
X445770000Y-226060000D03*
%TD*%
D17*
%TO.C,JP2*%
X441960000Y-220980000D03*
X441960000Y-223520000D03*
D18*
X441960000Y-226060000D03*
%TD*%
D17*
%TO.C,JP1*%
X218440000Y-43180000D03*
X218440000Y-40640000D03*
D18*
X218440000Y-38100000D03*
%TD*%
D17*
%TO.C,J2*%
X469900000Y-298450000D03*
X467360000Y-298450000D03*
X469900000Y-295910000D03*
X467360000Y-295910000D03*
X469900000Y-293370000D03*
X467360000Y-293370000D03*
X469900000Y-290830000D03*
X467360000Y-290830000D03*
X469900000Y-288290000D03*
X467360000Y-288290000D03*
X469900000Y-285750000D03*
X467360000Y-285750000D03*
X469900000Y-283210000D03*
X467360000Y-283210000D03*
X469900000Y-280670000D03*
X467360000Y-280670000D03*
X469900000Y-278130000D03*
X467360000Y-278130000D03*
X469900000Y-275590000D03*
D18*
X467360000Y-275590000D03*
%TD*%
%TO.C,J1*%
G36*
G01*
X137756600Y-310865200D02*
X136006600Y-310865200D01*
G75*
G02*
X135131600Y-309990200I0J875000D01*
G01*
X135131600Y-308240200D01*
G75*
G02*
X136006600Y-307365200I875000J0D01*
G01*
X137756600Y-307365200D01*
G75*
G02*
X138631600Y-308240200I0J-875000D01*
G01*
X138631600Y-309990200D01*
G75*
G02*
X137756600Y-310865200I-875000J0D01*
G01*
G37*
G36*
G01*
X133181600Y-313615200D02*
X131181600Y-313615200D01*
G75*
G02*
X130431600Y-312865200I0J750000D01*
G01*
X130431600Y-311365200D01*
G75*
G02*
X131181600Y-310615200I750000J0D01*
G01*
X133181600Y-310615200D01*
G75*
G02*
X133931600Y-311365200I0J-750000D01*
G01*
X133931600Y-312865200D01*
G75*
G02*
X133181600Y-313615200I-750000J0D01*
G01*
G37*
D35*
X132181600Y-306115200D03*
%TD*%
D36*
%TO.C,D7*%
X240030000Y-312420000D03*
D37*
X240030000Y-309880000D03*
%TD*%
D36*
%TO.C,D6*%
X242570000Y-292100000D03*
D37*
X240030000Y-292100000D03*
%TD*%
D36*
%TO.C,D5*%
X262890000Y-292100000D03*
D37*
X260350000Y-292100000D03*
%TD*%
D38*
%TO.C,D4*%
X137160000Y-280670000D03*
D39*
X137160000Y-288290000D03*
%TD*%
D38*
%TO.C,D3*%
X134620000Y-290830000D03*
D39*
X127000000Y-290830000D03*
%TD*%
D38*
%TO.C,D2*%
X134620000Y-278130000D03*
D39*
X127000000Y-278130000D03*
%TD*%
D38*
%TO.C,D1*%
X124460000Y-280670000D03*
D39*
X124460000Y-288290000D03*
%TD*%
D14*
%TO.C,CP2*%
X266660000Y-114300000D03*
D15*
X264160000Y-114300000D03*
%TD*%
D14*
%TO.C,CP1*%
X146024600Y-285637600D03*
D15*
X146024600Y-288137600D03*
%TD*%
D14*
%TO.C,C8*%
X256500000Y-119380000D03*
X254000000Y-119380000D03*
%TD*%
%TO.C,C7*%
X267930000Y-125730000D03*
X265430000Y-125730000D03*
%TD*%
%TO.C,C6*%
X219710000Y-309920000D03*
D15*
X219710000Y-312420000D03*
%TD*%
D14*
%TO.C,C5*%
X201930000Y-309920000D03*
D15*
X201930000Y-312420000D03*
%TD*%
D14*
%TO.C,C4*%
X250150000Y-288290000D03*
X247650000Y-288290000D03*
%TD*%
%TO.C,C3*%
X257850000Y-285750000D03*
X260350000Y-285750000D03*
%TD*%
%TO.C,C2*%
X234950000Y-278130000D03*
X234950000Y-280630000D03*
%TD*%
M02*
