%FSLAX45Y45*%
G04 Gerber Fmt 4.5, Leading zero omitted, Abs format (unit mm)*
G04 Created by KiCad (PCBNEW (5.1.10)-1) date 2022-04-25 14:41:34*
%MOMM*%
%LPD*%
G01*
G04 APERTURE LIST*
%TA.AperFunction,Profile*%
%ADD10C,0.100000*%
%TD*%
%ADD11C,0.200000*%
%ADD12C,0.300000*%
G04 APERTURE END LIST*
D10*
X2540000Y-31998920D02*
X2540000Y-31750000D01*
X55880000Y-31998920D02*
X2540000Y-31998920D01*
X57404000Y-31998920D02*
X55880000Y-31998920D01*
X57404000Y-31744920D02*
X57404000Y-31998920D01*
X57404000Y-31750000D02*
X57404000Y-31734760D01*
X57404000Y-2540000D02*
X57404000Y-31744920D01*
X57150000Y-2540000D02*
X57404000Y-2540000D01*
X2540000Y-31750000D02*
X2540000Y-2540000D01*
X2540000Y-2540000D02*
X57150000Y-2540000D01*
D11*
X5226940Y-28815700D02*
X5496940Y-29085700D01*
X5496940Y-28815700D02*
X5226940Y-29085700D01*
X3716000Y-3550920D02*
G75*
G03*
X3716000Y-3550920I-160000J0D01*
G01*
X3716000Y-30982920D02*
G75*
G03*
X3716000Y-30982920I-160000J0D01*
G01*
X30640000Y-3550920D02*
G75*
G03*
X30640000Y-3550920I-160000J0D01*
G01*
X30640000Y-30982920D02*
G75*
G03*
X30640000Y-30982920I-160000J0D01*
G01*
X56548000Y-3550920D02*
G75*
G03*
X56548000Y-3550920I-160000J0D01*
G01*
X56548000Y-30982920D02*
G75*
G03*
X56548000Y-30982920I-160000J0D01*
G01*
X20320000Y-26226000D02*
X20320000Y-26576000D01*
X20145000Y-26401000D02*
X20495000Y-26401000D01*
X21082000Y-29401000D02*
X21082000Y-29751000D01*
X20907000Y-29576000D02*
X21257000Y-29576000D01*
X22733000Y-26226000D02*
X22733000Y-26576000D01*
X22558000Y-26401000D02*
X22908000Y-26401000D01*
X25019000Y-26226000D02*
X25019000Y-26576000D01*
X24844000Y-26401000D02*
X25194000Y-26401000D01*
D12*
X-9869571Y-32469634D02*
X-9869571Y-32169634D01*
X-9798143Y-32169634D01*
X-9755286Y-32183920D01*
X-9726714Y-32212491D01*
X-9712429Y-32241063D01*
X-9698143Y-32298206D01*
X-9698143Y-32341063D01*
X-9712429Y-32398206D01*
X-9726714Y-32426777D01*
X-9755286Y-32455349D01*
X-9798143Y-32469634D01*
X-9869571Y-32469634D01*
X-9569571Y-32469634D02*
X-9569571Y-32269634D01*
X-9569571Y-32326777D02*
X-9555286Y-32298206D01*
X-9541000Y-32283920D01*
X-9512429Y-32269634D01*
X-9483857Y-32269634D01*
X-9383857Y-32469634D02*
X-9383857Y-32269634D01*
X-9383857Y-32169634D02*
X-9398143Y-32183920D01*
X-9383857Y-32198206D01*
X-9369571Y-32183920D01*
X-9383857Y-32169634D01*
X-9383857Y-32198206D01*
X-9198143Y-32469634D02*
X-9226714Y-32455349D01*
X-9241000Y-32426777D01*
X-9241000Y-32169634D01*
X-9041000Y-32469634D02*
X-9069571Y-32455349D01*
X-9083857Y-32426777D01*
X-9083857Y-32169634D01*
X-8698143Y-32469634D02*
X-8698143Y-32169634D01*
X-8598143Y-32383920D01*
X-8498143Y-32169634D01*
X-8498143Y-32469634D01*
X-8226714Y-32469634D02*
X-8226714Y-32312491D01*
X-8241000Y-32283920D01*
X-8269571Y-32269634D01*
X-8326714Y-32269634D01*
X-8355286Y-32283920D01*
X-8226714Y-32455349D02*
X-8255286Y-32469634D01*
X-8326714Y-32469634D01*
X-8355286Y-32455349D01*
X-8369571Y-32426777D01*
X-8369571Y-32398206D01*
X-8355286Y-32369634D01*
X-8326714Y-32355349D01*
X-8255286Y-32355349D01*
X-8226714Y-32341063D01*
X-8083857Y-32269634D02*
X-8083857Y-32569634D01*
X-8083857Y-32283920D02*
X-8055286Y-32269634D01*
X-7998143Y-32269634D01*
X-7969571Y-32283920D01*
X-7955286Y-32298206D01*
X-7941000Y-32326777D01*
X-7941000Y-32412491D01*
X-7955286Y-32441063D01*
X-7969571Y-32455349D01*
X-7998143Y-32469634D01*
X-8055286Y-32469634D01*
X-8083857Y-32455349D01*
X-7812428Y-32441063D02*
X-7798143Y-32455349D01*
X-7812428Y-32469634D01*
X-7826714Y-32455349D01*
X-7812428Y-32441063D01*
X-7812428Y-32469634D01*
X-7812428Y-32283920D02*
X-7798143Y-32298206D01*
X-7812428Y-32312491D01*
X-7826714Y-32298206D01*
X-7812428Y-32283920D01*
X-7812428Y-32312491D01*
X-10426000Y-32828920D02*
X-10156000Y-33098920D01*
X-10156000Y-32828920D02*
X-10426000Y-33098920D01*
X-9883857Y-32828206D02*
X-9869571Y-32813920D01*
X-9841000Y-32799634D01*
X-9769571Y-32799634D01*
X-9741000Y-32813920D01*
X-9726714Y-32828206D01*
X-9712429Y-32856777D01*
X-9712429Y-32885349D01*
X-9726714Y-32928206D01*
X-9898143Y-33099634D01*
X-9712429Y-33099634D01*
X-9583857Y-33071063D02*
X-9569571Y-33085349D01*
X-9583857Y-33099634D01*
X-9598143Y-33085349D01*
X-9583857Y-33071063D01*
X-9583857Y-33099634D01*
X-9469571Y-32799634D02*
X-9269571Y-32799634D01*
X-9398143Y-33099634D01*
X-9098143Y-32799634D02*
X-9069571Y-32799634D01*
X-9041000Y-32813920D01*
X-9026714Y-32828206D01*
X-9012429Y-32856777D01*
X-8998143Y-32913920D01*
X-8998143Y-32985349D01*
X-9012429Y-33042491D01*
X-9026714Y-33071063D01*
X-9041000Y-33085349D01*
X-9069571Y-33099634D01*
X-9098143Y-33099634D01*
X-9126714Y-33085349D01*
X-9141000Y-33071063D01*
X-9155286Y-33042491D01*
X-9169571Y-32985349D01*
X-9169571Y-32913920D01*
X-9155286Y-32856777D01*
X-9141000Y-32828206D01*
X-9126714Y-32813920D01*
X-9098143Y-32799634D01*
X-8812429Y-32799634D02*
X-8783857Y-32799634D01*
X-8755286Y-32813920D01*
X-8741000Y-32828206D01*
X-8726714Y-32856777D01*
X-8712429Y-32913920D01*
X-8712429Y-32985349D01*
X-8726714Y-33042491D01*
X-8741000Y-33071063D01*
X-8755286Y-33085349D01*
X-8783857Y-33099634D01*
X-8812429Y-33099634D01*
X-8841000Y-33085349D01*
X-8855286Y-33071063D01*
X-8869571Y-33042491D01*
X-8883857Y-32985349D01*
X-8883857Y-32913920D01*
X-8869571Y-32856777D01*
X-8855286Y-32828206D01*
X-8841000Y-32813920D01*
X-8812429Y-32799634D01*
X-8583857Y-33099634D02*
X-8583857Y-32899634D01*
X-8583857Y-32928206D02*
X-8569571Y-32913920D01*
X-8541000Y-32899634D01*
X-8498143Y-32899634D01*
X-8469571Y-32913920D01*
X-8455286Y-32942491D01*
X-8455286Y-33099634D01*
X-8455286Y-32942491D02*
X-8441000Y-32913920D01*
X-8412429Y-32899634D01*
X-8369571Y-32899634D01*
X-8341000Y-32913920D01*
X-8326714Y-32942491D01*
X-8326714Y-33099634D01*
X-8183857Y-33099634D02*
X-8183857Y-32899634D01*
X-8183857Y-32928206D02*
X-8169571Y-32913920D01*
X-8141000Y-32899634D01*
X-8098143Y-32899634D01*
X-8069571Y-32913920D01*
X-8055286Y-32942491D01*
X-8055286Y-33099634D01*
X-8055286Y-32942491D02*
X-8041000Y-32913920D01*
X-8012428Y-32899634D01*
X-7969571Y-32899634D01*
X-7941000Y-32913920D01*
X-7926714Y-32942491D01*
X-7926714Y-33099634D01*
X-7341000Y-32785349D02*
X-7598143Y-33171063D01*
X-6955286Y-32799634D02*
X-6926714Y-32799634D01*
X-6898143Y-32813920D01*
X-6883857Y-32828206D01*
X-6869571Y-32856777D01*
X-6855286Y-32913920D01*
X-6855286Y-32985349D01*
X-6869571Y-33042491D01*
X-6883857Y-33071063D01*
X-6898143Y-33085349D01*
X-6926714Y-33099634D01*
X-6955286Y-33099634D01*
X-6983857Y-33085349D01*
X-6998143Y-33071063D01*
X-7012428Y-33042491D01*
X-7026714Y-32985349D01*
X-7026714Y-32913920D01*
X-7012428Y-32856777D01*
X-6998143Y-32828206D01*
X-6983857Y-32813920D01*
X-6955286Y-32799634D01*
X-6726714Y-33071063D02*
X-6712428Y-33085349D01*
X-6726714Y-33099634D01*
X-6741000Y-33085349D01*
X-6726714Y-33071063D01*
X-6726714Y-33099634D01*
X-6426714Y-33099634D02*
X-6598143Y-33099634D01*
X-6512428Y-33099634D02*
X-6512428Y-32799634D01*
X-6541000Y-32842491D01*
X-6569571Y-32871063D01*
X-6598143Y-32885349D01*
X-6241000Y-32799634D02*
X-6212428Y-32799634D01*
X-6183857Y-32813920D01*
X-6169571Y-32828206D01*
X-6155286Y-32856777D01*
X-6141000Y-32913920D01*
X-6141000Y-32985349D01*
X-6155286Y-33042491D01*
X-6169571Y-33071063D01*
X-6183857Y-33085349D01*
X-6212428Y-33099634D01*
X-6241000Y-33099634D01*
X-6269571Y-33085349D01*
X-6283857Y-33071063D01*
X-6298143Y-33042491D01*
X-6312428Y-32985349D01*
X-6312428Y-32913920D01*
X-6298143Y-32856777D01*
X-6283857Y-32828206D01*
X-6269571Y-32813920D01*
X-6241000Y-32799634D01*
X-5883857Y-32799634D02*
X-5941000Y-32799634D01*
X-5969571Y-32813920D01*
X-5983857Y-32828206D01*
X-6012428Y-32871063D01*
X-6026714Y-32928206D01*
X-6026714Y-33042491D01*
X-6012428Y-33071063D01*
X-5998143Y-33085349D01*
X-5969571Y-33099634D01*
X-5912428Y-33099634D01*
X-5883857Y-33085349D01*
X-5869571Y-33071063D01*
X-5855286Y-33042491D01*
X-5855286Y-32971063D01*
X-5869571Y-32942491D01*
X-5883857Y-32928206D01*
X-5912428Y-32913920D01*
X-5969571Y-32913920D01*
X-5998143Y-32928206D01*
X-6012428Y-32942491D01*
X-6026714Y-32971063D01*
X-5755286Y-32799634D02*
X-5569571Y-32799634D01*
X-5669571Y-32913920D01*
X-5626714Y-32913920D01*
X-5598143Y-32928206D01*
X-5583857Y-32942491D01*
X-5569571Y-32971063D01*
X-5569571Y-33042491D01*
X-5583857Y-33071063D01*
X-5598143Y-33085349D01*
X-5626714Y-33099634D01*
X-5712428Y-33099634D01*
X-5741000Y-33085349D01*
X-5755286Y-33071063D01*
X-5455286Y-32799634D02*
X-5455286Y-32856777D01*
X-5341000Y-32799634D02*
X-5341000Y-32856777D01*
X-4898143Y-33213920D02*
X-4912429Y-33199634D01*
X-4941000Y-33156777D01*
X-4955286Y-33128206D01*
X-4969571Y-33085349D01*
X-4983857Y-33013920D01*
X-4983857Y-32956777D01*
X-4969571Y-32885349D01*
X-4955286Y-32842491D01*
X-4941000Y-32813920D01*
X-4912429Y-32771063D01*
X-4898143Y-32756777D01*
X-4626714Y-33099634D02*
X-4798143Y-33099634D01*
X-4712429Y-33099634D02*
X-4712429Y-32799634D01*
X-4741000Y-32842491D01*
X-4769571Y-32871063D01*
X-4798143Y-32885349D01*
X-4269571Y-33099634D02*
X-4269571Y-32799634D01*
X-4141000Y-33099634D02*
X-4141000Y-32942491D01*
X-4155286Y-32913920D01*
X-4183857Y-32899634D01*
X-4226714Y-32899634D01*
X-4255286Y-32913920D01*
X-4269571Y-32928206D01*
X-3955286Y-33099634D02*
X-3983857Y-33085349D01*
X-3998143Y-33071063D01*
X-4012428Y-33042491D01*
X-4012428Y-32956777D01*
X-3998143Y-32928206D01*
X-3983857Y-32913920D01*
X-3955286Y-32899634D01*
X-3912428Y-32899634D01*
X-3883857Y-32913920D01*
X-3869571Y-32928206D01*
X-3855286Y-32956777D01*
X-3855286Y-33042491D01*
X-3869571Y-33071063D01*
X-3883857Y-33085349D01*
X-3912428Y-33099634D01*
X-3955286Y-33099634D01*
X-3683857Y-33099634D02*
X-3712428Y-33085349D01*
X-3726714Y-33056777D01*
X-3726714Y-32799634D01*
X-3455286Y-33085349D02*
X-3483857Y-33099634D01*
X-3541000Y-33099634D01*
X-3569571Y-33085349D01*
X-3583857Y-33056777D01*
X-3583857Y-32942491D01*
X-3569571Y-32913920D01*
X-3541000Y-32899634D01*
X-3483857Y-32899634D01*
X-3455286Y-32913920D01*
X-3441000Y-32942491D01*
X-3441000Y-32971063D01*
X-3583857Y-32999634D01*
X-3341000Y-33213920D02*
X-3326714Y-33199634D01*
X-3298143Y-33156777D01*
X-3283857Y-33128206D01*
X-3269571Y-33085349D01*
X-3255286Y-33013920D01*
X-3255286Y-32956777D01*
X-3269571Y-32885349D01*
X-3283857Y-32842491D01*
X-3298143Y-32813920D01*
X-3326714Y-32771063D01*
X-3341000Y-32756777D01*
X-2798143Y-33213920D02*
X-2812428Y-33199634D01*
X-2841000Y-33156777D01*
X-2855286Y-33128206D01*
X-2869571Y-33085349D01*
X-2883857Y-33013920D01*
X-2883857Y-32956777D01*
X-2869571Y-32885349D01*
X-2855286Y-32842491D01*
X-2841000Y-32813920D01*
X-2812428Y-32771063D01*
X-2798143Y-32756777D01*
X-2683857Y-32899634D02*
X-2683857Y-33099634D01*
X-2683857Y-32928206D02*
X-2669571Y-32913920D01*
X-2641000Y-32899634D01*
X-2598143Y-32899634D01*
X-2569571Y-32913920D01*
X-2555286Y-32942491D01*
X-2555286Y-33099634D01*
X-2369571Y-33099634D02*
X-2398143Y-33085349D01*
X-2412429Y-33071063D01*
X-2426714Y-33042491D01*
X-2426714Y-32956777D01*
X-2412429Y-32928206D01*
X-2398143Y-32913920D01*
X-2369571Y-32899634D01*
X-2326714Y-32899634D01*
X-2298143Y-32913920D01*
X-2283857Y-32928206D01*
X-2269571Y-32956777D01*
X-2269571Y-33042491D01*
X-2283857Y-33071063D01*
X-2298143Y-33085349D01*
X-2326714Y-33099634D01*
X-2369571Y-33099634D01*
X-2183857Y-32899634D02*
X-2069571Y-32899634D01*
X-2141000Y-32799634D02*
X-2141000Y-33056777D01*
X-2126714Y-33085349D01*
X-2098143Y-33099634D01*
X-2069571Y-33099634D01*
X-1741000Y-32899634D02*
X-1741000Y-33199634D01*
X-1741000Y-32913920D02*
X-1712428Y-32899634D01*
X-1655286Y-32899634D01*
X-1626714Y-32913920D01*
X-1612428Y-32928206D01*
X-1598143Y-32956777D01*
X-1598143Y-33042491D01*
X-1612428Y-33071063D01*
X-1626714Y-33085349D01*
X-1655286Y-33099634D01*
X-1712428Y-33099634D01*
X-1741000Y-33085349D01*
X-1426714Y-33099634D02*
X-1455286Y-33085349D01*
X-1469571Y-33056777D01*
X-1469571Y-32799634D01*
X-1183857Y-33099634D02*
X-1183857Y-32942491D01*
X-1198143Y-32913920D01*
X-1226714Y-32899634D01*
X-1283857Y-32899634D01*
X-1312429Y-32913920D01*
X-1183857Y-33085349D02*
X-1212429Y-33099634D01*
X-1283857Y-33099634D01*
X-1312429Y-33085349D01*
X-1326714Y-33056777D01*
X-1326714Y-33028206D01*
X-1312429Y-32999634D01*
X-1283857Y-32985349D01*
X-1212429Y-32985349D01*
X-1183857Y-32971063D01*
X-1083857Y-32899634D02*
X-969571Y-32899634D01*
X-1041000Y-32799634D02*
X-1041000Y-33056777D01*
X-1026714Y-33085349D01*
X-998143Y-33099634D01*
X-969571Y-33099634D01*
X-755286Y-33085349D02*
X-783857Y-33099634D01*
X-841000Y-33099634D01*
X-869571Y-33085349D01*
X-883857Y-33056777D01*
X-883857Y-32942491D01*
X-869571Y-32913920D01*
X-841000Y-32899634D01*
X-783857Y-32899634D01*
X-755286Y-32913920D01*
X-741000Y-32942491D01*
X-741000Y-32971063D01*
X-883857Y-32999634D01*
X-483857Y-33099634D02*
X-483857Y-32799634D01*
X-483857Y-33085349D02*
X-512428Y-33099634D01*
X-569571Y-33099634D01*
X-598143Y-33085349D01*
X-612429Y-33071063D01*
X-626714Y-33042491D01*
X-626714Y-32956777D01*
X-612429Y-32928206D01*
X-598143Y-32913920D01*
X-569571Y-32899634D01*
X-512428Y-32899634D01*
X-483857Y-32913920D01*
X-369571Y-33213920D02*
X-355286Y-33199634D01*
X-326714Y-33156777D01*
X-312429Y-33128206D01*
X-298143Y-33085349D01*
X-283857Y-33013920D01*
X-283857Y-32956777D01*
X-298143Y-32885349D01*
X-312429Y-32842491D01*
X-326714Y-32813920D01*
X-355286Y-32771063D01*
X-369571Y-32756777D01*
X-10156000Y-33363920D02*
G75*
G03*
X-10156000Y-33363920I-160000J0D01*
G01*
X-9898143Y-33199634D02*
X-9712429Y-33199634D01*
X-9812429Y-33313920D01*
X-9769571Y-33313920D01*
X-9741000Y-33328206D01*
X-9726714Y-33342491D01*
X-9712429Y-33371063D01*
X-9712429Y-33442491D01*
X-9726714Y-33471063D01*
X-9741000Y-33485349D01*
X-9769571Y-33499634D01*
X-9855286Y-33499634D01*
X-9883857Y-33485349D01*
X-9898143Y-33471063D01*
X-9583857Y-33471063D02*
X-9569571Y-33485349D01*
X-9583857Y-33499634D01*
X-9598143Y-33485349D01*
X-9583857Y-33471063D01*
X-9583857Y-33499634D01*
X-9455286Y-33228206D02*
X-9441000Y-33213920D01*
X-9412429Y-33199634D01*
X-9341000Y-33199634D01*
X-9312429Y-33213920D01*
X-9298143Y-33228206D01*
X-9283857Y-33256777D01*
X-9283857Y-33285349D01*
X-9298143Y-33328206D01*
X-9469571Y-33499634D01*
X-9283857Y-33499634D01*
X-9098143Y-33199634D02*
X-9069571Y-33199634D01*
X-9041000Y-33213920D01*
X-9026714Y-33228206D01*
X-9012429Y-33256777D01*
X-8998143Y-33313920D01*
X-8998143Y-33385349D01*
X-9012429Y-33442491D01*
X-9026714Y-33471063D01*
X-9041000Y-33485349D01*
X-9069571Y-33499634D01*
X-9098143Y-33499634D01*
X-9126714Y-33485349D01*
X-9141000Y-33471063D01*
X-9155286Y-33442491D01*
X-9169571Y-33385349D01*
X-9169571Y-33313920D01*
X-9155286Y-33256777D01*
X-9141000Y-33228206D01*
X-9126714Y-33213920D01*
X-9098143Y-33199634D01*
X-8812429Y-33199634D02*
X-8783857Y-33199634D01*
X-8755286Y-33213920D01*
X-8741000Y-33228206D01*
X-8726714Y-33256777D01*
X-8712429Y-33313920D01*
X-8712429Y-33385349D01*
X-8726714Y-33442491D01*
X-8741000Y-33471063D01*
X-8755286Y-33485349D01*
X-8783857Y-33499634D01*
X-8812429Y-33499634D01*
X-8841000Y-33485349D01*
X-8855286Y-33471063D01*
X-8869571Y-33442491D01*
X-8883857Y-33385349D01*
X-8883857Y-33313920D01*
X-8869571Y-33256777D01*
X-8855286Y-33228206D01*
X-8841000Y-33213920D01*
X-8812429Y-33199634D01*
X-8583857Y-33499634D02*
X-8583857Y-33299634D01*
X-8583857Y-33328206D02*
X-8569571Y-33313920D01*
X-8541000Y-33299634D01*
X-8498143Y-33299634D01*
X-8469571Y-33313920D01*
X-8455286Y-33342491D01*
X-8455286Y-33499634D01*
X-8455286Y-33342491D02*
X-8441000Y-33313920D01*
X-8412429Y-33299634D01*
X-8369571Y-33299634D01*
X-8341000Y-33313920D01*
X-8326714Y-33342491D01*
X-8326714Y-33499634D01*
X-8183857Y-33499634D02*
X-8183857Y-33299634D01*
X-8183857Y-33328206D02*
X-8169571Y-33313920D01*
X-8141000Y-33299634D01*
X-8098143Y-33299634D01*
X-8069571Y-33313920D01*
X-8055286Y-33342491D01*
X-8055286Y-33499634D01*
X-8055286Y-33342491D02*
X-8041000Y-33313920D01*
X-8012428Y-33299634D01*
X-7969571Y-33299634D01*
X-7941000Y-33313920D01*
X-7926714Y-33342491D01*
X-7926714Y-33499634D01*
X-7341000Y-33185349D02*
X-7598143Y-33571063D01*
X-6955286Y-33199634D02*
X-6926714Y-33199634D01*
X-6898143Y-33213920D01*
X-6883857Y-33228206D01*
X-6869571Y-33256777D01*
X-6855286Y-33313920D01*
X-6855286Y-33385349D01*
X-6869571Y-33442491D01*
X-6883857Y-33471063D01*
X-6898143Y-33485349D01*
X-6926714Y-33499634D01*
X-6955286Y-33499634D01*
X-6983857Y-33485349D01*
X-6998143Y-33471063D01*
X-7012428Y-33442491D01*
X-7026714Y-33385349D01*
X-7026714Y-33313920D01*
X-7012428Y-33256777D01*
X-6998143Y-33228206D01*
X-6983857Y-33213920D01*
X-6955286Y-33199634D01*
X-6726714Y-33471063D02*
X-6712428Y-33485349D01*
X-6726714Y-33499634D01*
X-6741000Y-33485349D01*
X-6726714Y-33471063D01*
X-6726714Y-33499634D01*
X-6426714Y-33499634D02*
X-6598143Y-33499634D01*
X-6512428Y-33499634D02*
X-6512428Y-33199634D01*
X-6541000Y-33242491D01*
X-6569571Y-33271063D01*
X-6598143Y-33285349D01*
X-6312428Y-33228206D02*
X-6298143Y-33213920D01*
X-6269571Y-33199634D01*
X-6198143Y-33199634D01*
X-6169571Y-33213920D01*
X-6155286Y-33228206D01*
X-6141000Y-33256777D01*
X-6141000Y-33285349D01*
X-6155286Y-33328206D01*
X-6326714Y-33499634D01*
X-6141000Y-33499634D01*
X-5883857Y-33199634D02*
X-5941000Y-33199634D01*
X-5969571Y-33213920D01*
X-5983857Y-33228206D01*
X-6012428Y-33271063D01*
X-6026714Y-33328206D01*
X-6026714Y-33442491D01*
X-6012428Y-33471063D01*
X-5998143Y-33485349D01*
X-5969571Y-33499634D01*
X-5912428Y-33499634D01*
X-5883857Y-33485349D01*
X-5869571Y-33471063D01*
X-5855286Y-33442491D01*
X-5855286Y-33371063D01*
X-5869571Y-33342491D01*
X-5883857Y-33328206D01*
X-5912428Y-33313920D01*
X-5969571Y-33313920D01*
X-5998143Y-33328206D01*
X-6012428Y-33342491D01*
X-6026714Y-33371063D01*
X-5669571Y-33199634D02*
X-5641000Y-33199634D01*
X-5612428Y-33213920D01*
X-5598143Y-33228206D01*
X-5583857Y-33256777D01*
X-5569571Y-33313920D01*
X-5569571Y-33385349D01*
X-5583857Y-33442491D01*
X-5598143Y-33471063D01*
X-5612428Y-33485349D01*
X-5641000Y-33499634D01*
X-5669571Y-33499634D01*
X-5698143Y-33485349D01*
X-5712428Y-33471063D01*
X-5726714Y-33442491D01*
X-5741000Y-33385349D01*
X-5741000Y-33313920D01*
X-5726714Y-33256777D01*
X-5712428Y-33228206D01*
X-5698143Y-33213920D01*
X-5669571Y-33199634D01*
X-5455286Y-33199634D02*
X-5455286Y-33256777D01*
X-5341000Y-33199634D02*
X-5341000Y-33256777D01*
X-4898143Y-33613920D02*
X-4912429Y-33599634D01*
X-4941000Y-33556777D01*
X-4955286Y-33528206D01*
X-4969571Y-33485349D01*
X-4983857Y-33413920D01*
X-4983857Y-33356777D01*
X-4969571Y-33285349D01*
X-4955286Y-33242491D01*
X-4941000Y-33213920D01*
X-4912429Y-33171063D01*
X-4898143Y-33156777D01*
X-4655286Y-33199634D02*
X-4712429Y-33199634D01*
X-4741000Y-33213920D01*
X-4755286Y-33228206D01*
X-4783857Y-33271063D01*
X-4798143Y-33328206D01*
X-4798143Y-33442491D01*
X-4783857Y-33471063D01*
X-4769571Y-33485349D01*
X-4741000Y-33499634D01*
X-4683857Y-33499634D01*
X-4655286Y-33485349D01*
X-4641000Y-33471063D01*
X-4626714Y-33442491D01*
X-4626714Y-33371063D01*
X-4641000Y-33342491D01*
X-4655286Y-33328206D01*
X-4683857Y-33313920D01*
X-4741000Y-33313920D01*
X-4769571Y-33328206D01*
X-4783857Y-33342491D01*
X-4798143Y-33371063D01*
X-4269571Y-33499634D02*
X-4269571Y-33199634D01*
X-4141000Y-33499634D02*
X-4141000Y-33342491D01*
X-4155286Y-33313920D01*
X-4183857Y-33299634D01*
X-4226714Y-33299634D01*
X-4255286Y-33313920D01*
X-4269571Y-33328206D01*
X-3955286Y-33499634D02*
X-3983857Y-33485349D01*
X-3998143Y-33471063D01*
X-4012428Y-33442491D01*
X-4012428Y-33356777D01*
X-3998143Y-33328206D01*
X-3983857Y-33313920D01*
X-3955286Y-33299634D01*
X-3912428Y-33299634D01*
X-3883857Y-33313920D01*
X-3869571Y-33328206D01*
X-3855286Y-33356777D01*
X-3855286Y-33442491D01*
X-3869571Y-33471063D01*
X-3883857Y-33485349D01*
X-3912428Y-33499634D01*
X-3955286Y-33499634D01*
X-3683857Y-33499634D02*
X-3712428Y-33485349D01*
X-3726714Y-33456777D01*
X-3726714Y-33199634D01*
X-3455286Y-33485349D02*
X-3483857Y-33499634D01*
X-3541000Y-33499634D01*
X-3569571Y-33485349D01*
X-3583857Y-33456777D01*
X-3583857Y-33342491D01*
X-3569571Y-33313920D01*
X-3541000Y-33299634D01*
X-3483857Y-33299634D01*
X-3455286Y-33313920D01*
X-3441000Y-33342491D01*
X-3441000Y-33371063D01*
X-3583857Y-33399634D01*
X-3326714Y-33485349D02*
X-3298143Y-33499634D01*
X-3241000Y-33499634D01*
X-3212428Y-33485349D01*
X-3198143Y-33456777D01*
X-3198143Y-33442491D01*
X-3212428Y-33413920D01*
X-3241000Y-33399634D01*
X-3283857Y-33399634D01*
X-3312428Y-33385349D01*
X-3326714Y-33356777D01*
X-3326714Y-33342491D01*
X-3312428Y-33313920D01*
X-3283857Y-33299634D01*
X-3241000Y-33299634D01*
X-3212428Y-33313920D01*
X-3098143Y-33613920D02*
X-3083857Y-33599634D01*
X-3055286Y-33556777D01*
X-3041000Y-33528206D01*
X-3026714Y-33485349D01*
X-3012428Y-33413920D01*
X-3012428Y-33356777D01*
X-3026714Y-33285349D01*
X-3041000Y-33242491D01*
X-3055286Y-33213920D01*
X-3083857Y-33171063D01*
X-3098143Y-33156777D01*
X-2555286Y-33613920D02*
X-2569571Y-33599634D01*
X-2598143Y-33556777D01*
X-2612429Y-33528206D01*
X-2626714Y-33485349D01*
X-2641000Y-33413920D01*
X-2641000Y-33356777D01*
X-2626714Y-33285349D01*
X-2612429Y-33242491D01*
X-2598143Y-33213920D01*
X-2569571Y-33171063D01*
X-2555286Y-33156777D01*
X-2441000Y-33299634D02*
X-2441000Y-33499634D01*
X-2441000Y-33328206D02*
X-2426714Y-33313920D01*
X-2398143Y-33299634D01*
X-2355286Y-33299634D01*
X-2326714Y-33313920D01*
X-2312429Y-33342491D01*
X-2312429Y-33499634D01*
X-2126714Y-33499634D02*
X-2155286Y-33485349D01*
X-2169571Y-33471063D01*
X-2183857Y-33442491D01*
X-2183857Y-33356777D01*
X-2169571Y-33328206D01*
X-2155286Y-33313920D01*
X-2126714Y-33299634D01*
X-2083857Y-33299634D01*
X-2055286Y-33313920D01*
X-2041000Y-33328206D01*
X-2026714Y-33356777D01*
X-2026714Y-33442491D01*
X-2041000Y-33471063D01*
X-2055286Y-33485349D01*
X-2083857Y-33499634D01*
X-2126714Y-33499634D01*
X-1941000Y-33299634D02*
X-1826714Y-33299634D01*
X-1898143Y-33199634D02*
X-1898143Y-33456777D01*
X-1883857Y-33485349D01*
X-1855286Y-33499634D01*
X-1826714Y-33499634D01*
X-1498143Y-33299634D02*
X-1498143Y-33599634D01*
X-1498143Y-33313920D02*
X-1469571Y-33299634D01*
X-1412428Y-33299634D01*
X-1383857Y-33313920D01*
X-1369571Y-33328206D01*
X-1355286Y-33356777D01*
X-1355286Y-33442491D01*
X-1369571Y-33471063D01*
X-1383857Y-33485349D01*
X-1412428Y-33499634D01*
X-1469571Y-33499634D01*
X-1498143Y-33485349D01*
X-1183857Y-33499634D02*
X-1212429Y-33485349D01*
X-1226714Y-33456777D01*
X-1226714Y-33199634D01*
X-941000Y-33499634D02*
X-941000Y-33342491D01*
X-955286Y-33313920D01*
X-983857Y-33299634D01*
X-1041000Y-33299634D01*
X-1069571Y-33313920D01*
X-941000Y-33485349D02*
X-969571Y-33499634D01*
X-1041000Y-33499634D01*
X-1069571Y-33485349D01*
X-1083857Y-33456777D01*
X-1083857Y-33428206D01*
X-1069571Y-33399634D01*
X-1041000Y-33385349D01*
X-969571Y-33385349D01*
X-941000Y-33371063D01*
X-841000Y-33299634D02*
X-726714Y-33299634D01*
X-798143Y-33199634D02*
X-798143Y-33456777D01*
X-783857Y-33485349D01*
X-755286Y-33499634D01*
X-726714Y-33499634D01*
X-512428Y-33485349D02*
X-541000Y-33499634D01*
X-598143Y-33499634D01*
X-626714Y-33485349D01*
X-641000Y-33456777D01*
X-641000Y-33342491D01*
X-626714Y-33313920D01*
X-598143Y-33299634D01*
X-541000Y-33299634D01*
X-512428Y-33313920D01*
X-498143Y-33342491D01*
X-498143Y-33371063D01*
X-641000Y-33399634D01*
X-241000Y-33499634D02*
X-241000Y-33199634D01*
X-241000Y-33485349D02*
X-269571Y-33499634D01*
X-326714Y-33499634D01*
X-355286Y-33485349D01*
X-369571Y-33471063D01*
X-383857Y-33442491D01*
X-383857Y-33356777D01*
X-369571Y-33328206D01*
X-355286Y-33313920D01*
X-326714Y-33299634D01*
X-269571Y-33299634D01*
X-241000Y-33313920D01*
X-126714Y-33613920D02*
X-112428Y-33599634D01*
X-83857Y-33556777D01*
X-69571Y-33528206D01*
X-55286Y-33485349D01*
X-41000Y-33413920D01*
X-41000Y-33356777D01*
X-55286Y-33285349D01*
X-69571Y-33242491D01*
X-83857Y-33213920D01*
X-112428Y-33171063D01*
X-126714Y-33156777D01*
X-10331000Y-33638920D02*
X-10331000Y-33988920D01*
X-10506000Y-33813920D02*
X-10156000Y-33813920D01*
X-9898143Y-33649634D02*
X-9712429Y-33649634D01*
X-9812429Y-33763920D01*
X-9769571Y-33763920D01*
X-9741000Y-33778206D01*
X-9726714Y-33792492D01*
X-9712429Y-33821063D01*
X-9712429Y-33892492D01*
X-9726714Y-33921063D01*
X-9741000Y-33935349D01*
X-9769571Y-33949634D01*
X-9855286Y-33949634D01*
X-9883857Y-33935349D01*
X-9898143Y-33921063D01*
X-9583857Y-33921063D02*
X-9569571Y-33935349D01*
X-9583857Y-33949634D01*
X-9598143Y-33935349D01*
X-9583857Y-33921063D01*
X-9583857Y-33949634D01*
X-9298143Y-33649634D02*
X-9441000Y-33649634D01*
X-9455286Y-33792492D01*
X-9441000Y-33778206D01*
X-9412429Y-33763920D01*
X-9341000Y-33763920D01*
X-9312429Y-33778206D01*
X-9298143Y-33792492D01*
X-9283857Y-33821063D01*
X-9283857Y-33892492D01*
X-9298143Y-33921063D01*
X-9312429Y-33935349D01*
X-9341000Y-33949634D01*
X-9412429Y-33949634D01*
X-9441000Y-33935349D01*
X-9455286Y-33921063D01*
X-9098143Y-33649634D02*
X-9069571Y-33649634D01*
X-9041000Y-33663920D01*
X-9026714Y-33678206D01*
X-9012429Y-33706777D01*
X-8998143Y-33763920D01*
X-8998143Y-33835349D01*
X-9012429Y-33892492D01*
X-9026714Y-33921063D01*
X-9041000Y-33935349D01*
X-9069571Y-33949634D01*
X-9098143Y-33949634D01*
X-9126714Y-33935349D01*
X-9141000Y-33921063D01*
X-9155286Y-33892492D01*
X-9169571Y-33835349D01*
X-9169571Y-33763920D01*
X-9155286Y-33706777D01*
X-9141000Y-33678206D01*
X-9126714Y-33663920D01*
X-9098143Y-33649634D01*
X-8812429Y-33649634D02*
X-8783857Y-33649634D01*
X-8755286Y-33663920D01*
X-8741000Y-33678206D01*
X-8726714Y-33706777D01*
X-8712429Y-33763920D01*
X-8712429Y-33835349D01*
X-8726714Y-33892492D01*
X-8741000Y-33921063D01*
X-8755286Y-33935349D01*
X-8783857Y-33949634D01*
X-8812429Y-33949634D01*
X-8841000Y-33935349D01*
X-8855286Y-33921063D01*
X-8869571Y-33892492D01*
X-8883857Y-33835349D01*
X-8883857Y-33763920D01*
X-8869571Y-33706777D01*
X-8855286Y-33678206D01*
X-8841000Y-33663920D01*
X-8812429Y-33649634D01*
X-8583857Y-33949634D02*
X-8583857Y-33749634D01*
X-8583857Y-33778206D02*
X-8569571Y-33763920D01*
X-8541000Y-33749634D01*
X-8498143Y-33749634D01*
X-8469571Y-33763920D01*
X-8455286Y-33792492D01*
X-8455286Y-33949634D01*
X-8455286Y-33792492D02*
X-8441000Y-33763920D01*
X-8412429Y-33749634D01*
X-8369571Y-33749634D01*
X-8341000Y-33763920D01*
X-8326714Y-33792492D01*
X-8326714Y-33949634D01*
X-8183857Y-33949634D02*
X-8183857Y-33749634D01*
X-8183857Y-33778206D02*
X-8169571Y-33763920D01*
X-8141000Y-33749634D01*
X-8098143Y-33749634D01*
X-8069571Y-33763920D01*
X-8055286Y-33792492D01*
X-8055286Y-33949634D01*
X-8055286Y-33792492D02*
X-8041000Y-33763920D01*
X-8012428Y-33749634D01*
X-7969571Y-33749634D01*
X-7941000Y-33763920D01*
X-7926714Y-33792492D01*
X-7926714Y-33949634D01*
X-7341000Y-33635349D02*
X-7598143Y-34021063D01*
X-6955286Y-33649634D02*
X-6926714Y-33649634D01*
X-6898143Y-33663920D01*
X-6883857Y-33678206D01*
X-6869571Y-33706777D01*
X-6855286Y-33763920D01*
X-6855286Y-33835349D01*
X-6869571Y-33892492D01*
X-6883857Y-33921063D01*
X-6898143Y-33935349D01*
X-6926714Y-33949634D01*
X-6955286Y-33949634D01*
X-6983857Y-33935349D01*
X-6998143Y-33921063D01*
X-7012428Y-33892492D01*
X-7026714Y-33835349D01*
X-7026714Y-33763920D01*
X-7012428Y-33706777D01*
X-6998143Y-33678206D01*
X-6983857Y-33663920D01*
X-6955286Y-33649634D01*
X-6726714Y-33921063D02*
X-6712428Y-33935349D01*
X-6726714Y-33949634D01*
X-6741000Y-33935349D01*
X-6726714Y-33921063D01*
X-6726714Y-33949634D01*
X-6426714Y-33949634D02*
X-6598143Y-33949634D01*
X-6512428Y-33949634D02*
X-6512428Y-33649634D01*
X-6541000Y-33692492D01*
X-6569571Y-33721063D01*
X-6598143Y-33735349D01*
X-6326714Y-33649634D02*
X-6141000Y-33649634D01*
X-6241000Y-33763920D01*
X-6198143Y-33763920D01*
X-6169571Y-33778206D01*
X-6155286Y-33792492D01*
X-6141000Y-33821063D01*
X-6141000Y-33892492D01*
X-6155286Y-33921063D01*
X-6169571Y-33935349D01*
X-6198143Y-33949634D01*
X-6283857Y-33949634D01*
X-6312428Y-33935349D01*
X-6326714Y-33921063D01*
X-6041000Y-33649634D02*
X-5841000Y-33649634D01*
X-5969571Y-33949634D01*
X-5683857Y-33778206D02*
X-5712428Y-33763920D01*
X-5726714Y-33749634D01*
X-5741000Y-33721063D01*
X-5741000Y-33706777D01*
X-5726714Y-33678206D01*
X-5712428Y-33663920D01*
X-5683857Y-33649634D01*
X-5626714Y-33649634D01*
X-5598143Y-33663920D01*
X-5583857Y-33678206D01*
X-5569571Y-33706777D01*
X-5569571Y-33721063D01*
X-5583857Y-33749634D01*
X-5598143Y-33763920D01*
X-5626714Y-33778206D01*
X-5683857Y-33778206D01*
X-5712428Y-33792492D01*
X-5726714Y-33806777D01*
X-5741000Y-33835349D01*
X-5741000Y-33892492D01*
X-5726714Y-33921063D01*
X-5712428Y-33935349D01*
X-5683857Y-33949634D01*
X-5626714Y-33949634D01*
X-5598143Y-33935349D01*
X-5583857Y-33921063D01*
X-5569571Y-33892492D01*
X-5569571Y-33835349D01*
X-5583857Y-33806777D01*
X-5598143Y-33792492D01*
X-5626714Y-33778206D01*
X-5455286Y-33649634D02*
X-5455286Y-33706777D01*
X-5341000Y-33649634D02*
X-5341000Y-33706777D01*
X-4898143Y-34063920D02*
X-4912429Y-34049634D01*
X-4941000Y-34006777D01*
X-4955286Y-33978206D01*
X-4969571Y-33935349D01*
X-4983857Y-33863920D01*
X-4983857Y-33806777D01*
X-4969571Y-33735349D01*
X-4955286Y-33692492D01*
X-4941000Y-33663920D01*
X-4912429Y-33621063D01*
X-4898143Y-33606777D01*
X-4655286Y-33749634D02*
X-4655286Y-33949634D01*
X-4726714Y-33635349D02*
X-4798143Y-33849634D01*
X-4612429Y-33849634D01*
X-4269571Y-33949634D02*
X-4269571Y-33649634D01*
X-4141000Y-33949634D02*
X-4141000Y-33792492D01*
X-4155286Y-33763920D01*
X-4183857Y-33749634D01*
X-4226714Y-33749634D01*
X-4255286Y-33763920D01*
X-4269571Y-33778206D01*
X-3955286Y-33949634D02*
X-3983857Y-33935349D01*
X-3998143Y-33921063D01*
X-4012428Y-33892492D01*
X-4012428Y-33806777D01*
X-3998143Y-33778206D01*
X-3983857Y-33763920D01*
X-3955286Y-33749634D01*
X-3912428Y-33749634D01*
X-3883857Y-33763920D01*
X-3869571Y-33778206D01*
X-3855286Y-33806777D01*
X-3855286Y-33892492D01*
X-3869571Y-33921063D01*
X-3883857Y-33935349D01*
X-3912428Y-33949634D01*
X-3955286Y-33949634D01*
X-3683857Y-33949634D02*
X-3712428Y-33935349D01*
X-3726714Y-33906777D01*
X-3726714Y-33649634D01*
X-3455286Y-33935349D02*
X-3483857Y-33949634D01*
X-3541000Y-33949634D01*
X-3569571Y-33935349D01*
X-3583857Y-33906777D01*
X-3583857Y-33792492D01*
X-3569571Y-33763920D01*
X-3541000Y-33749634D01*
X-3483857Y-33749634D01*
X-3455286Y-33763920D01*
X-3441000Y-33792492D01*
X-3441000Y-33821063D01*
X-3583857Y-33849634D01*
X-3326714Y-33935349D02*
X-3298143Y-33949634D01*
X-3241000Y-33949634D01*
X-3212428Y-33935349D01*
X-3198143Y-33906777D01*
X-3198143Y-33892492D01*
X-3212428Y-33863920D01*
X-3241000Y-33849634D01*
X-3283857Y-33849634D01*
X-3312428Y-33835349D01*
X-3326714Y-33806777D01*
X-3326714Y-33792492D01*
X-3312428Y-33763920D01*
X-3283857Y-33749634D01*
X-3241000Y-33749634D01*
X-3212428Y-33763920D01*
X-3098143Y-34063920D02*
X-3083857Y-34049634D01*
X-3055286Y-34006777D01*
X-3041000Y-33978206D01*
X-3026714Y-33935349D01*
X-3012428Y-33863920D01*
X-3012428Y-33806777D01*
X-3026714Y-33735349D01*
X-3041000Y-33692492D01*
X-3055286Y-33663920D01*
X-3083857Y-33621063D01*
X-3098143Y-33606777D01*
X-2555286Y-34063920D02*
X-2569571Y-34049634D01*
X-2598143Y-34006777D01*
X-2612429Y-33978206D01*
X-2626714Y-33935349D01*
X-2641000Y-33863920D01*
X-2641000Y-33806777D01*
X-2626714Y-33735349D01*
X-2612429Y-33692492D01*
X-2598143Y-33663920D01*
X-2569571Y-33621063D01*
X-2555286Y-33606777D01*
X-2441000Y-33749634D02*
X-2441000Y-33949634D01*
X-2441000Y-33778206D02*
X-2426714Y-33763920D01*
X-2398143Y-33749634D01*
X-2355286Y-33749634D01*
X-2326714Y-33763920D01*
X-2312429Y-33792492D01*
X-2312429Y-33949634D01*
X-2126714Y-33949634D02*
X-2155286Y-33935349D01*
X-2169571Y-33921063D01*
X-2183857Y-33892492D01*
X-2183857Y-33806777D01*
X-2169571Y-33778206D01*
X-2155286Y-33763920D01*
X-2126714Y-33749634D01*
X-2083857Y-33749634D01*
X-2055286Y-33763920D01*
X-2041000Y-33778206D01*
X-2026714Y-33806777D01*
X-2026714Y-33892492D01*
X-2041000Y-33921063D01*
X-2055286Y-33935349D01*
X-2083857Y-33949634D01*
X-2126714Y-33949634D01*
X-1941000Y-33749634D02*
X-1826714Y-33749634D01*
X-1898143Y-33649634D02*
X-1898143Y-33906777D01*
X-1883857Y-33935349D01*
X-1855286Y-33949634D01*
X-1826714Y-33949634D01*
X-1498143Y-33749634D02*
X-1498143Y-34049634D01*
X-1498143Y-33763920D02*
X-1469571Y-33749634D01*
X-1412428Y-33749634D01*
X-1383857Y-33763920D01*
X-1369571Y-33778206D01*
X-1355286Y-33806777D01*
X-1355286Y-33892492D01*
X-1369571Y-33921063D01*
X-1383857Y-33935349D01*
X-1412428Y-33949634D01*
X-1469571Y-33949634D01*
X-1498143Y-33935349D01*
X-1183857Y-33949634D02*
X-1212429Y-33935349D01*
X-1226714Y-33906777D01*
X-1226714Y-33649634D01*
X-941000Y-33949634D02*
X-941000Y-33792492D01*
X-955286Y-33763920D01*
X-983857Y-33749634D01*
X-1041000Y-33749634D01*
X-1069571Y-33763920D01*
X-941000Y-33935349D02*
X-969571Y-33949634D01*
X-1041000Y-33949634D01*
X-1069571Y-33935349D01*
X-1083857Y-33906777D01*
X-1083857Y-33878206D01*
X-1069571Y-33849634D01*
X-1041000Y-33835349D01*
X-969571Y-33835349D01*
X-941000Y-33821063D01*
X-841000Y-33749634D02*
X-726714Y-33749634D01*
X-798143Y-33649634D02*
X-798143Y-33906777D01*
X-783857Y-33935349D01*
X-755286Y-33949634D01*
X-726714Y-33949634D01*
X-512428Y-33935349D02*
X-541000Y-33949634D01*
X-598143Y-33949634D01*
X-626714Y-33935349D01*
X-641000Y-33906777D01*
X-641000Y-33792492D01*
X-626714Y-33763920D01*
X-598143Y-33749634D01*
X-541000Y-33749634D01*
X-512428Y-33763920D01*
X-498143Y-33792492D01*
X-498143Y-33821063D01*
X-641000Y-33849634D01*
X-241000Y-33949634D02*
X-241000Y-33649634D01*
X-241000Y-33935349D02*
X-269571Y-33949634D01*
X-326714Y-33949634D01*
X-355286Y-33935349D01*
X-369571Y-33921063D01*
X-383857Y-33892492D01*
X-383857Y-33806777D01*
X-369571Y-33778206D01*
X-355286Y-33763920D01*
X-326714Y-33749634D01*
X-269571Y-33749634D01*
X-241000Y-33763920D01*
X-126714Y-34063920D02*
X-112428Y-34049634D01*
X-83857Y-34006777D01*
X-69571Y-33978206D01*
X-55286Y-33935349D01*
X-41000Y-33863920D01*
X-41000Y-33806777D01*
X-55286Y-33735349D01*
X-69571Y-33692492D01*
X-83857Y-33663920D01*
X-112428Y-33621063D01*
X-126714Y-33606777D01*
M02*
