%TF.GenerationSoftware,KiCad,Pcbnew,(5.1.10)-1*%
%TF.CreationDate,2022-04-25T14:41:32+01:00*%
%TF.ProjectId,Motherboard,4d6f7468-6572-4626-9f61-72642e6b6963,2.2*%
%TF.SameCoordinates,Original*%
%TF.FileFunction,Plated,1,8,PTH,Mixed*%
%TF.FilePolarity,Positive*%
%FSLAX46Y46*%
G04 Gerber Fmt 4.6, Leading zero omitted, Abs format (unit mm)*
G04 Created by KiCad (PCBNEW (5.1.10)-1) date 2022-04-25 14:41:32*
%MOMM*%
%LPD*%
G01*
G04 APERTURE LIST*
%TA.AperFunction,ViaDrill*%
%ADD10C,0.400000*%
%TD*%
%TA.AperFunction,ComponentDrill*%
%ADD11C,0.800000*%
%TD*%
%TA.AperFunction,ComponentDrill*%
%ADD12C,0.900000*%
%TD*%
%TA.AperFunction,ComponentDrill*%
%ADD13C,1.000000*%
%TD*%
G04 aperture for slot hole*
%TA.AperFunction,ComponentDrill*%
%ADD14C,1.000000*%
%TD*%
%TA.AperFunction,ComponentDrill*%
%ADD15C,1.100000*%
%TD*%
%TA.AperFunction,ComponentDrill*%
%ADD16C,1.200000*%
%TD*%
%TA.AperFunction,ComponentDrill*%
%ADD17C,1.300000*%
%TD*%
%TA.AperFunction,ComponentDrill*%
%ADD18C,1.320000*%
%TD*%
%TA.AperFunction,ComponentDrill*%
%ADD19C,4.000000*%
%TD*%
G04 APERTURE END LIST*
D10*
X30480000Y-139700000D03*
X30480000Y-172720000D03*
X31750000Y-140970000D03*
X31750000Y-190500000D03*
X33020000Y-142240000D03*
X33020000Y-187960000D03*
X34290000Y-143510000D03*
X34290000Y-200660000D03*
X45720000Y-153670000D03*
X48260000Y-142240000D03*
X48260000Y-151130000D03*
X50800000Y-152400000D03*
X53340000Y-157480000D03*
X54610000Y-181610000D03*
X54610000Y-190500000D03*
X55880000Y-143510000D03*
X55880000Y-156210000D03*
X57150000Y-163830000D03*
X57150000Y-187960000D03*
X58420000Y-167640000D03*
X59690000Y-172720000D03*
X60960000Y-149860000D03*
X60960000Y-166370000D03*
X62230000Y-165100000D03*
X62230000Y-172720000D03*
X63500000Y-135890000D03*
X63500000Y-140970000D03*
X63500000Y-165100000D03*
X64770000Y-167640000D03*
X64770000Y-173990000D03*
X66040000Y-163830000D03*
X67310000Y-166370000D03*
X67310000Y-175260000D03*
X68580000Y-139700000D03*
X68580000Y-148590000D03*
X69850000Y-138430000D03*
X69850000Y-176530000D03*
X72390000Y-177800000D03*
X74930000Y-179070000D03*
X76200000Y-140970000D03*
X77470000Y-128270000D03*
X77470000Y-180340000D03*
X78740000Y-161290000D03*
X78740000Y-167640000D03*
X80010000Y-200660000D03*
X82550000Y-143510000D03*
X83820000Y-195580000D03*
X87630000Y-157480000D03*
X87630000Y-171450000D03*
X88900000Y-149860000D03*
X88900000Y-160020000D03*
X88900000Y-172720000D03*
X90170000Y-162560000D03*
X90170000Y-173990000D03*
X91440000Y-165100000D03*
X91440000Y-175260000D03*
X92710000Y-167640000D03*
X92710000Y-176530000D03*
X93980000Y-170180000D03*
X93980000Y-177800000D03*
X95250000Y-147320000D03*
X95250000Y-172720000D03*
X95250000Y-179070000D03*
X96520000Y-175260000D03*
X96520000Y-180340000D03*
X97790000Y-181610000D03*
X97790000Y-185420000D03*
X99060000Y-161290000D03*
X99060000Y-181610000D03*
X107950000Y-142240000D03*
X124460000Y-290830000D03*
X124460000Y-297180000D03*
X125730000Y-120650000D03*
X125730000Y-138430000D03*
X128270000Y-123190000D03*
X128270000Y-143510000D03*
X133350000Y-194310000D03*
X134620000Y-140970000D03*
X134620000Y-238760000D03*
X135890000Y-149860000D03*
X135890000Y-194310000D03*
X137160000Y-278130000D03*
X139700000Y-191770000D03*
X142240000Y-144780000D03*
X142240000Y-167640000D03*
X142980000Y-160020000D03*
X143690001Y-144780000D03*
X146050000Y-100330000D03*
X146050000Y-118110000D03*
X146580000Y-146050000D03*
X147320000Y-31750000D03*
X147320000Y-100330000D03*
X147320000Y-138430000D03*
X148590000Y-154940000D03*
X148590000Y-199390000D03*
X149860000Y-137160000D03*
X149860000Y-143510000D03*
X149860000Y-146050000D03*
X149860000Y-165100000D03*
X151130000Y-139700000D03*
X153670000Y-196850000D03*
X153670000Y-209550000D03*
X156210000Y-118110000D03*
X156210000Y-142240000D03*
X157480000Y-123190000D03*
X157480000Y-140970000D03*
X159994600Y-246380000D03*
X162560000Y-118110000D03*
X162560000Y-134620000D03*
X162560000Y-135890000D03*
X162560000Y-189230000D03*
X163830000Y-35560000D03*
X163830000Y-132080000D03*
X166370000Y-33020000D03*
X166370000Y-97790000D03*
X166370000Y-119380000D03*
X167640000Y-38100000D03*
X167640000Y-73660000D03*
X168910000Y-40640000D03*
X168910000Y-78740000D03*
X168910000Y-97790000D03*
X168910000Y-132080000D03*
X168910000Y-135890000D03*
X168910000Y-151130000D03*
X168910000Y-181610000D03*
X168910000Y-199390000D03*
X168910000Y-205740000D03*
X170180000Y-44450000D03*
X170180000Y-137160000D03*
X170180000Y-138430000D03*
X170180000Y-147320000D03*
X170180000Y-196850000D03*
X170180000Y-208280000D03*
X171450000Y-43180000D03*
X171450000Y-83820000D03*
X171450000Y-110490000D03*
X172720000Y-45720000D03*
X172720000Y-88900000D03*
X173990000Y-48260000D03*
X173990000Y-93980000D03*
X173990000Y-118110000D03*
X175260000Y-50800000D03*
X175260000Y-99060000D03*
X176530000Y-53340000D03*
X176530000Y-102870000D03*
X176530000Y-120650000D03*
X176530000Y-124460000D03*
X176530000Y-142240000D03*
X176530000Y-181610000D03*
X177800000Y-55880000D03*
X177800000Y-107950000D03*
X177800000Y-120650000D03*
X177800000Y-182880000D03*
X179070000Y-102870000D03*
X179070000Y-135890000D03*
X180340000Y-123190000D03*
X180340000Y-128270000D03*
X182880000Y-110490000D03*
X182880000Y-120650000D03*
X184150000Y-114300000D03*
X185420000Y-41910000D03*
X185420000Y-119380000D03*
X185420000Y-189230000D03*
X185420000Y-295910000D03*
X186690000Y-113030000D03*
X186690000Y-165100000D03*
X187960000Y-198120000D03*
X187960000Y-208280000D03*
X190500000Y-123190000D03*
X190500000Y-125730000D03*
X190500000Y-201930000D03*
X191770000Y-179070000D03*
X193040000Y-57150000D03*
X193040000Y-111760000D03*
X193040000Y-130810000D03*
X193040000Y-143510000D03*
X193040000Y-179070000D03*
X194310000Y-76200000D03*
X194310000Y-148590000D03*
X194310000Y-185420000D03*
X195580000Y-60960000D03*
X195580000Y-78740000D03*
X195580000Y-151130000D03*
X195580000Y-166370000D03*
X195580000Y-182880000D03*
X196452447Y-121195000D03*
X196850000Y-114300000D03*
X198120000Y-81280000D03*
X198120000Y-153670000D03*
X199390000Y-57330003D03*
X199390000Y-83820000D03*
X199390000Y-152400000D03*
X199390000Y-156210000D03*
X199390000Y-181610000D03*
X200660000Y-66040000D03*
X200660000Y-116840000D03*
X200660000Y-154940000D03*
X200660000Y-158750000D03*
X200660000Y-166370000D03*
X201930000Y-161290000D03*
X203200000Y-59690000D03*
X203200000Y-71120000D03*
X203200000Y-106680000D03*
X203200000Y-163830000D03*
X204470000Y-63500000D03*
X204470000Y-66040000D03*
X204470000Y-182880000D03*
X204470000Y-195580000D03*
X205740000Y-60960000D03*
X205740000Y-68580000D03*
X208280000Y-55880000D03*
X208280000Y-68580000D03*
X208280000Y-73660000D03*
X208280000Y-106680000D03*
X208280000Y-120650000D03*
X208280000Y-134620000D03*
X208280000Y-146050000D03*
X208280000Y-157480000D03*
X209550000Y-53340000D03*
X209550000Y-100330000D03*
X209550000Y-109220000D03*
X209550000Y-130810000D03*
X209550000Y-137160000D03*
X209550000Y-148590000D03*
X209550000Y-160020000D03*
X209550000Y-195580000D03*
X209550000Y-209550000D03*
X210820000Y-50800000D03*
X210820000Y-95250000D03*
X210820000Y-139700000D03*
X210820000Y-151130000D03*
X210820000Y-162560000D03*
X212090000Y-48260000D03*
X212090000Y-90170000D03*
X212090000Y-142240000D03*
X212090000Y-153670000D03*
X212090000Y-165100000D03*
X213360000Y-45720000D03*
X213360000Y-85090000D03*
X213360000Y-144780000D03*
X213360000Y-156210000D03*
X213360000Y-167640000D03*
X214630000Y-43180000D03*
X214630000Y-80010000D03*
X214630000Y-105410000D03*
X214630000Y-114300000D03*
X214630000Y-147320000D03*
X214630000Y-158750000D03*
X214630000Y-170180000D03*
X214630000Y-187960000D03*
X215747849Y-131927849D03*
X215900000Y-40640000D03*
X215900000Y-74930000D03*
X215900000Y-76200000D03*
X215900000Y-149860000D03*
X215900000Y-161290000D03*
X215900000Y-172720000D03*
X217170000Y-83820000D03*
X217170000Y-140970000D03*
X217170000Y-152400000D03*
X217170000Y-163830000D03*
X217170000Y-175260000D03*
X218440000Y-154940000D03*
X218440000Y-157480000D03*
X218440000Y-158750000D03*
X218440000Y-179070000D03*
X222250000Y-30480000D03*
X222250000Y-40640000D03*
X223520000Y-114300000D03*
X223520000Y-124460000D03*
X224790000Y-107950000D03*
X224790000Y-152400000D03*
X226060000Y-102870000D03*
X226060000Y-149860000D03*
X227330000Y-101600000D03*
X227330000Y-147320000D03*
X228600000Y-99060000D03*
X228600000Y-144780000D03*
X229870000Y-31750000D03*
X229870000Y-96520000D03*
X229870000Y-142240000D03*
X231140000Y-104140000D03*
X231140000Y-176530000D03*
X233680000Y-93980000D03*
X233680000Y-139700000D03*
X234950000Y-91440000D03*
X234950000Y-137160000D03*
X236220000Y-88900000D03*
X236220000Y-134620000D03*
X237490000Y-86360000D03*
X237490000Y-92710000D03*
X237490000Y-128270000D03*
X237490000Y-247650000D03*
X238760000Y-82550000D03*
X238760000Y-135890000D03*
X240030000Y-83820000D03*
X240030000Y-86360000D03*
X240030000Y-90170000D03*
X240030000Y-116840000D03*
X246380000Y-95250000D03*
X246380000Y-102870000D03*
X246380000Y-106680000D03*
X247650000Y-92710000D03*
X247650000Y-97790000D03*
X266700000Y-76200000D03*
X267970000Y-96520000D03*
X267970000Y-111760000D03*
X267970000Y-280670000D03*
X269240000Y-95250000D03*
X269240000Y-110490000D03*
X270510000Y-101600000D03*
X270510000Y-113030000D03*
X270510000Y-125730000D03*
X270510000Y-157480000D03*
X279400000Y-76200000D03*
X283210000Y-43180000D03*
X283210000Y-78740000D03*
X299720000Y-173990000D03*
X299720000Y-204470000D03*
X300990000Y-168910000D03*
X300990000Y-203200000D03*
X302260000Y-152400000D03*
X302260000Y-177800000D03*
X303530000Y-149860000D03*
X303530000Y-175260000D03*
X304800000Y-147320000D03*
X304800000Y-172720000D03*
X304800000Y-195580000D03*
X304800000Y-299720000D03*
X306070000Y-144780000D03*
X306070000Y-170180000D03*
X306070000Y-170180000D03*
X307340000Y-142240000D03*
X307340000Y-167640000D03*
X308610000Y-139700000D03*
X308610000Y-168910000D03*
X309880000Y-137160000D03*
X309880000Y-171450000D03*
X311150000Y-134620000D03*
X311150000Y-173990000D03*
X320040000Y-146050000D03*
X320040000Y-157480000D03*
X323850000Y-48260000D03*
X325120000Y-158750000D03*
X325120000Y-193040000D03*
X326390000Y-146050000D03*
X326390000Y-148590000D03*
X327660000Y-143510000D03*
X327660000Y-151130000D03*
X328930000Y-40640000D03*
X328930000Y-185420000D03*
X336550000Y-137160000D03*
X336550000Y-177800000D03*
X337820000Y-139700000D03*
X337820000Y-180340000D03*
X339090000Y-142240000D03*
X339090000Y-182880000D03*
X340360000Y-144780000D03*
X340360000Y-185420000D03*
X341630000Y-147320000D03*
X341630000Y-187960000D03*
X342900000Y-149860000D03*
X342900000Y-190500000D03*
X344170000Y-151130000D03*
X344170000Y-193040000D03*
X345440000Y-153670000D03*
X345440000Y-195580000D03*
X346710000Y-173990000D03*
X346710000Y-201930000D03*
X368300000Y-73660000D03*
X368300000Y-82550000D03*
X368300000Y-241300000D03*
X370840000Y-175260000D03*
X370840000Y-204470000D03*
X372110000Y-127000000D03*
X372110000Y-172720000D03*
X372110000Y-203200000D03*
X373380000Y-60960000D03*
X373380000Y-148590000D03*
X373380000Y-153670000D03*
X374650000Y-149860000D03*
X374650000Y-153670000D03*
X374650000Y-157480000D03*
X374650000Y-198120000D03*
X374650000Y-248920000D03*
X375920000Y-140970000D03*
X375920000Y-146050000D03*
X375920000Y-147320000D03*
X375920000Y-156210000D03*
X375920000Y-180340000D03*
X375920000Y-200660000D03*
X375920000Y-250190000D03*
X377190000Y-144780000D03*
X377190000Y-158750000D03*
X377190000Y-182880000D03*
X377190000Y-203200000D03*
X377190000Y-251460000D03*
X378460000Y-102870000D03*
X378460000Y-132080000D03*
X378460000Y-142240000D03*
X378460000Y-157480000D03*
X378460000Y-177800000D03*
X379730000Y-139700000D03*
X379730000Y-154940000D03*
X379730000Y-163830000D03*
X379730000Y-182880000D03*
X381000000Y-137160000D03*
X381000000Y-152400000D03*
X381000000Y-165100000D03*
X381000000Y-180340000D03*
X382270000Y-134620000D03*
X382270000Y-181610000D03*
X382270000Y-186690000D03*
X382270000Y-205740000D03*
X382270000Y-210820000D03*
X383540000Y-137160000D03*
X383540000Y-182880000D03*
X383540000Y-236220000D03*
X386080000Y-91440000D03*
X387350000Y-179070000D03*
X388620000Y-66040000D03*
X388620000Y-125730000D03*
X388620000Y-139700000D03*
X388620000Y-185420000D03*
X388620000Y-237490000D03*
X389890000Y-124460000D03*
X389890000Y-147320000D03*
X389890000Y-195580000D03*
X389890000Y-240030000D03*
X391160000Y-68580000D03*
X391160000Y-137160000D03*
X392430000Y-54610000D03*
X392430000Y-149860000D03*
X393700000Y-71120000D03*
X393700000Y-134620000D03*
X393700000Y-137160000D03*
X393700000Y-182880000D03*
X393700000Y-229870000D03*
X394970000Y-104140000D03*
X394970000Y-125730000D03*
X394970000Y-132080000D03*
X396240000Y-74930000D03*
X396240000Y-99060000D03*
X396240000Y-134620000D03*
X396240000Y-180340000D03*
X397510000Y-104140000D03*
X397510000Y-125730000D03*
X397510000Y-132080000D03*
X397510000Y-190500000D03*
X398780000Y-30480000D03*
X398780000Y-142240000D03*
X398780000Y-179070000D03*
X398780000Y-245110000D03*
X401320000Y-82550000D03*
X401320000Y-252730000D03*
X403860000Y-39370000D03*
X403860000Y-132080000D03*
X403860000Y-154940000D03*
X403860000Y-160020000D03*
X403860000Y-173990000D03*
X403860000Y-185420000D03*
X405130000Y-80010000D03*
X405130000Y-97790000D03*
X405130000Y-144780000D03*
X405130000Y-166370000D03*
X405130000Y-200660000D03*
X406400000Y-139700000D03*
X406400000Y-185420000D03*
X406400000Y-201930000D03*
X406400000Y-242570000D03*
X407670000Y-58420000D03*
X407670000Y-124460000D03*
X407670000Y-157480000D03*
X407670000Y-160020000D03*
X407670000Y-166370000D03*
X407670000Y-183969999D03*
X407670000Y-185420000D03*
X407670000Y-203200000D03*
X407670000Y-254000000D03*
X408940000Y-73660000D03*
X408940000Y-76200000D03*
X408940000Y-149860000D03*
X408940000Y-176530000D03*
X408940000Y-300990000D03*
X410210000Y-77470000D03*
X410210000Y-125730000D03*
X410210000Y-143510000D03*
X410210000Y-160020000D03*
X410210000Y-205740000D03*
X411226000Y-69342000D03*
X411480000Y-60960000D03*
X411480000Y-85090000D03*
X411480000Y-125730000D03*
X411480000Y-128270000D03*
X411480000Y-195399999D03*
X412750000Y-144780000D03*
X412750000Y-194310000D03*
X414020000Y-77470000D03*
X414020000Y-127762000D03*
X414020000Y-132080000D03*
X414020000Y-166370000D03*
X414020000Y-179070000D03*
X414020000Y-209550000D03*
X415290000Y-78740000D03*
X415290000Y-86360000D03*
X415290000Y-181610000D03*
X415290000Y-210820000D03*
X416560000Y-137160000D03*
X416560000Y-179070000D03*
X416560000Y-212090000D03*
X417322000Y-132080000D03*
X417830000Y-129540000D03*
X417830000Y-213360000D03*
X419100000Y-99060000D03*
X420370000Y-139700000D03*
X420370000Y-217170000D03*
X421640000Y-214630000D03*
X422681400Y-271754600D03*
X422732200Y-283159200D03*
X422910000Y-215900000D03*
X422910000Y-217170000D03*
X424180000Y-62230000D03*
X424180000Y-154940000D03*
X424180000Y-160020000D03*
X424180000Y-166370000D03*
X424180000Y-171450000D03*
X425269997Y-220980000D03*
X425450000Y-67310000D03*
X425450000Y-152400000D03*
X425450000Y-179070000D03*
X425450000Y-198120000D03*
X425450000Y-207010000D03*
X426720000Y-143510000D03*
X426720000Y-162560000D03*
X426720000Y-189230000D03*
X426720000Y-215900000D03*
X427990000Y-54610000D03*
X427990000Y-149860000D03*
X427990000Y-156210000D03*
X429260000Y-191770000D03*
X429260000Y-269240000D03*
X429260000Y-288290000D03*
X430530000Y-49530000D03*
X430530000Y-214630000D03*
X430530000Y-246380000D03*
X430530000Y-285750000D03*
X431800000Y-208280000D03*
X432054000Y-59690000D03*
X432054000Y-129540000D03*
X432054000Y-132080000D03*
X432054000Y-143510000D03*
X433070000Y-168910000D03*
X433070000Y-176530000D03*
X433070000Y-222250000D03*
X434340000Y-213360000D03*
X434340000Y-256540000D03*
X436524400Y-55067200D03*
X436880000Y-213360000D03*
X436880000Y-262890000D03*
X436880000Y-278130000D03*
X438150000Y-212090000D03*
X439420000Y-173990000D03*
X439420000Y-222250000D03*
X439420000Y-261620000D03*
X439420000Y-280670000D03*
X440690000Y-176530000D03*
X441960000Y-210820000D03*
X443230000Y-163830000D03*
X444500000Y-166370000D03*
X444500000Y-208280000D03*
X444500000Y-212090000D03*
X445770000Y-165100000D03*
X445770000Y-176530000D03*
X445770000Y-185420000D03*
X445770000Y-209550000D03*
X447040000Y-217170000D03*
X453390000Y-173990000D03*
X453390000Y-181610000D03*
X453390000Y-201930000D03*
X453390000Y-267970000D03*
X454660000Y-204470000D03*
X454660000Y-246380000D03*
X457200000Y-218440000D03*
X457200000Y-236220000D03*
X457200000Y-284480000D03*
X457403200Y-84937600D03*
X458470000Y-278130000D03*
X459740000Y-279400000D03*
X459740000Y-289560000D03*
X459740000Y-295910000D03*
X461010000Y-240030000D03*
X461010000Y-288290000D03*
X461010000Y-293370000D03*
X462280000Y-160020000D03*
X462280000Y-179070000D03*
X462280000Y-203200000D03*
X462280000Y-237490000D03*
X462280000Y-285750000D03*
X462280000Y-289560000D03*
X463550000Y-177800000D03*
X463550000Y-182880000D03*
X463550000Y-193040000D03*
X463550000Y-283210000D03*
X463550000Y-287020000D03*
X464820000Y-280670000D03*
X464820000Y-288290000D03*
X464872008Y-180484990D03*
X466090000Y-262890000D03*
X467360000Y-261620000D03*
X468630000Y-256540000D03*
X468630000Y-262890000D03*
X471144600Y-271729200D03*
X471170000Y-247650000D03*
X473710000Y-248920000D03*
X473710000Y-261620000D03*
X476250000Y-250190000D03*
X476250000Y-262890000D03*
X478790000Y-156210000D03*
X478790000Y-251460000D03*
X481330000Y-252730000D03*
X483870000Y-254000000D03*
X488950000Y-212090000D03*
X490220000Y-105410000D03*
X490220000Y-199390000D03*
X491490000Y-195580000D03*
X491490000Y-237490000D03*
X494030000Y-241300000D03*
X496570000Y-247650000D03*
X499110000Y-246380000D03*
X499110000Y-300990000D03*
X499110000Y-302260000D03*
X501650000Y-223520000D03*
X501650000Y-229870000D03*
X502920000Y-285750000D03*
X504190000Y-113030000D03*
X504190000Y-191770000D03*
X504190000Y-227330000D03*
X504190000Y-236220000D03*
X506730000Y-214630000D03*
X506730000Y-224790000D03*
X509270000Y-218570000D03*
X511810000Y-196850000D03*
X511810000Y-217170000D03*
X513080000Y-194310000D03*
X513080000Y-229870000D03*
X514350000Y-111760000D03*
X514350000Y-194310000D03*
X514350000Y-200660000D03*
X514350000Y-201930000D03*
X514350000Y-223520000D03*
X516890000Y-213230000D03*
X516890000Y-247650000D03*
X516890000Y-264160000D03*
X519430000Y-224790000D03*
X519430000Y-232410000D03*
X519430000Y-269240000D03*
X520700000Y-110490000D03*
X520700000Y-237490000D03*
X521970000Y-175260000D03*
X521970000Y-298450000D03*
X524510000Y-201930000D03*
X524510000Y-208280000D03*
X524510000Y-218440000D03*
X525780000Y-177800000D03*
X525780000Y-179070000D03*
X525780000Y-187960000D03*
X525780000Y-203200000D03*
X525780000Y-204470000D03*
X525780000Y-224790000D03*
X527050000Y-45720000D03*
X527050000Y-220980000D03*
X528320000Y-96520000D03*
X529264999Y-232410000D03*
X529590000Y-105410000D03*
X529590000Y-177800000D03*
X529590000Y-220980000D03*
X530135000Y-289560000D03*
X530860000Y-200660000D03*
X530860000Y-298450000D03*
X532130000Y-267970000D03*
X532130000Y-289560000D03*
X532130000Y-290830000D03*
X537029999Y-210820000D03*
X537029999Y-240030000D03*
X537210000Y-181610000D03*
X537210000Y-190500000D03*
X538480000Y-205740000D03*
X538480000Y-242570000D03*
X538480000Y-295910000D03*
X539350001Y-217569999D03*
X539750000Y-257810000D03*
X541020000Y-224790000D03*
X544830000Y-177800000D03*
X544830000Y-222250000D03*
X544830000Y-238760000D03*
X546100000Y-180340000D03*
X546100000Y-200660000D03*
D11*
%TO.C,U29*%
X45720000Y-146050000D03*
X45720000Y-161290000D03*
X48260000Y-146050000D03*
X48260000Y-161290000D03*
X50800000Y-146050000D03*
X50800000Y-161290000D03*
%TO.C,U25*%
X52070000Y-170180000D03*
X52070000Y-185420000D03*
%TO.C,U29*%
X53340000Y-146050000D03*
X53340000Y-161290000D03*
%TO.C,U25*%
X54610000Y-170180000D03*
X54610000Y-185420000D03*
%TO.C,U29*%
X55880000Y-146050000D03*
X55880000Y-161290000D03*
%TO.C,U25*%
X57150000Y-170180000D03*
X57150000Y-185420000D03*
%TO.C,U29*%
X58420000Y-146050000D03*
X58420000Y-161290000D03*
%TO.C,U25*%
X59690000Y-170180000D03*
X59690000Y-185420000D03*
%TO.C,U29*%
X60960000Y-146050000D03*
X60960000Y-161290000D03*
%TO.C,U25*%
X62230000Y-170180000D03*
X62230000Y-185420000D03*
%TO.C,R8*%
X63500000Y-124460000D03*
X63500000Y-132080000D03*
%TO.C,U29*%
X63500000Y-146050000D03*
X63500000Y-161290000D03*
%TO.C,U25*%
X64770000Y-170180000D03*
X64770000Y-185420000D03*
%TO.C,U29*%
X66040000Y-146050000D03*
X66040000Y-161290000D03*
%TO.C,U25*%
X67310000Y-170180000D03*
X67310000Y-185420000D03*
%TO.C,U29*%
X68580000Y-146050000D03*
X68580000Y-161290000D03*
%TO.C,R7*%
X69850000Y-124460000D03*
X69850000Y-132080000D03*
%TO.C,U25*%
X69850000Y-170180000D03*
X69850000Y-185420000D03*
%TO.C,U29*%
X71120000Y-146050000D03*
X71120000Y-161290000D03*
%TO.C,U25*%
X72390000Y-170180000D03*
X72390000Y-185420000D03*
%TO.C,U32*%
X72390000Y-198120000D03*
X72390000Y-205740000D03*
%TO.C,U29*%
X73660000Y-146050000D03*
X73660000Y-161290000D03*
%TO.C,U25*%
X74930000Y-170180000D03*
X74930000Y-185420000D03*
%TO.C,U32*%
X74930000Y-198120000D03*
X74930000Y-205740000D03*
%TO.C,R6*%
X76200000Y-124460000D03*
X76200000Y-132080000D03*
%TO.C,U25*%
X77470000Y-170180000D03*
X77470000Y-185420000D03*
%TO.C,U32*%
X77470000Y-198120000D03*
X77470000Y-205740000D03*
%TO.C,U25*%
X80010000Y-170180000D03*
X80010000Y-185420000D03*
%TO.C,U32*%
X80010000Y-198120000D03*
X80010000Y-205740000D03*
%TO.C,R5*%
X82550000Y-124460000D03*
X82550000Y-132080000D03*
%TO.C,U25*%
X82550000Y-170180000D03*
X82550000Y-185420000D03*
%TO.C,U32*%
X82550000Y-198120000D03*
X82550000Y-205740000D03*
%TO.C,U25*%
X85090000Y-170180000D03*
X85090000Y-185420000D03*
%TO.C,U32*%
X85090000Y-198120000D03*
X85090000Y-205740000D03*
X87630000Y-198120000D03*
X87630000Y-205740000D03*
%TO.C,R4*%
X88900000Y-124460000D03*
X88900000Y-132080000D03*
%TO.C,R3*%
X95250000Y-124460000D03*
X95250000Y-132080000D03*
%TO.C,R2*%
X101600000Y-124460000D03*
X101600000Y-132080000D03*
%TO.C,R1*%
X107950000Y-124460000D03*
X107950000Y-132080000D03*
%TO.C,U4*%
X132080000Y-133350000D03*
X132080000Y-135890000D03*
X132080000Y-138430000D03*
X132080000Y-140970000D03*
X132080000Y-143510000D03*
X132080000Y-146050000D03*
X132080000Y-148590000D03*
X132080000Y-151130000D03*
%TO.C,U16*%
X132080000Y-154940000D03*
X132080000Y-157480000D03*
X132080000Y-160020000D03*
X132080000Y-162560000D03*
X132080000Y-165100000D03*
X132080000Y-167640000D03*
X132080000Y-170180000D03*
X132080000Y-172720000D03*
X132080000Y-175260000D03*
X132080000Y-177800000D03*
%TO.C,U4*%
X139700000Y-133350000D03*
X139700000Y-135890000D03*
X139700000Y-138430000D03*
X139700000Y-140970000D03*
X139700000Y-143510000D03*
X139700000Y-146050000D03*
X139700000Y-148590000D03*
X139700000Y-151130000D03*
%TO.C,U16*%
X139700000Y-154940000D03*
X139700000Y-157480000D03*
X139700000Y-160020000D03*
X139700000Y-162560000D03*
X139700000Y-165100000D03*
X139700000Y-167640000D03*
X139700000Y-170180000D03*
X139700000Y-172720000D03*
X139700000Y-175260000D03*
X139700000Y-177800000D03*
%TO.C,U5*%
X144780000Y-133350000D03*
X144780000Y-135890000D03*
X144780000Y-138430000D03*
X144780000Y-140970000D03*
X144780000Y-143510000D03*
X144780000Y-146050000D03*
X144780000Y-148590000D03*
X144780000Y-151130000D03*
%TO.C,U17*%
X144780000Y-154940000D03*
X144780000Y-157480000D03*
X144780000Y-160020000D03*
X144780000Y-162560000D03*
X144780000Y-165100000D03*
X144780000Y-167640000D03*
X144780000Y-170180000D03*
X144780000Y-172720000D03*
X144780000Y-175260000D03*
X144780000Y-177800000D03*
%TO.C,CP1*%
X146024600Y-285637600D03*
X146024600Y-288137600D03*
%TO.C,U5*%
X152400000Y-133350000D03*
X152400000Y-135890000D03*
X152400000Y-138430000D03*
X152400000Y-140970000D03*
X152400000Y-143510000D03*
X152400000Y-146050000D03*
X152400000Y-148590000D03*
X152400000Y-151130000D03*
%TO.C,U17*%
X152400000Y-154940000D03*
X152400000Y-157480000D03*
X152400000Y-160020000D03*
X152400000Y-162560000D03*
X152400000Y-165100000D03*
X152400000Y-167640000D03*
X152400000Y-170180000D03*
X152400000Y-172720000D03*
X152400000Y-175260000D03*
X152400000Y-177800000D03*
%TO.C,SW1*%
X152831800Y-288217600D03*
X152831800Y-290717600D03*
X152831800Y-293217600D03*
X156031800Y-288217600D03*
X156031800Y-290717600D03*
X156031800Y-293217600D03*
%TO.C,U18*%
X157480000Y-186690000D03*
X157480000Y-189230000D03*
X157480000Y-191770000D03*
X157480000Y-194310000D03*
X157480000Y-196850000D03*
X157480000Y-199390000D03*
X157480000Y-201930000D03*
X165100000Y-186690000D03*
X165100000Y-189230000D03*
X165100000Y-191770000D03*
X165100000Y-194310000D03*
X165100000Y-196850000D03*
X165100000Y-199390000D03*
X165100000Y-201930000D03*
%TO.C,U14*%
X166370000Y-100330000D03*
X166370000Y-102870000D03*
X166370000Y-105410000D03*
X166370000Y-107950000D03*
X166370000Y-110490000D03*
X166370000Y-113030000D03*
X166370000Y-115570000D03*
%TO.C,U7*%
X166370000Y-124460000D03*
X166370000Y-127000000D03*
X166370000Y-129540000D03*
X166370000Y-132080000D03*
X166370000Y-134620000D03*
X166370000Y-137160000D03*
X166370000Y-139700000D03*
%TO.C,R14*%
X166370000Y-302260000D03*
%TO.C,U14*%
X173990000Y-100330000D03*
X173990000Y-102870000D03*
X173990000Y-105410000D03*
X173990000Y-107950000D03*
X173990000Y-110490000D03*
X173990000Y-113030000D03*
X173990000Y-115570000D03*
%TO.C,U7*%
X173990000Y-124460000D03*
X173990000Y-127000000D03*
X173990000Y-129540000D03*
X173990000Y-132080000D03*
X173990000Y-134620000D03*
X173990000Y-137160000D03*
X173990000Y-139700000D03*
%TO.C,R14*%
X173990000Y-302260000D03*
%TO.C,U12*%
X173990000Y-306070000D03*
X173990000Y-308610000D03*
X173990000Y-311150000D03*
X173990000Y-313690000D03*
%TO.C,R18*%
X176530000Y-132080000D03*
%TO.C,R19*%
X180340000Y-148590000D03*
%TO.C,U12*%
X181610000Y-306070000D03*
X181610000Y-308610000D03*
X181610000Y-311150000D03*
X181610000Y-313690000D03*
%TO.C,R18*%
X184150000Y-132080000D03*
%TO.C,R19*%
X187960000Y-148590000D03*
%TO.C,R12*%
X187960000Y-273050000D03*
%TO.C,R13*%
X189230000Y-304800000D03*
%TO.C,U33*%
X190500000Y-71120000D03*
X190500000Y-73660000D03*
X190500000Y-76200000D03*
X190500000Y-78740000D03*
X190500000Y-81280000D03*
X190500000Y-83820000D03*
X190500000Y-86360000D03*
X190500000Y-88900000D03*
X190500000Y-91440000D03*
X190500000Y-93980000D03*
X190500000Y-96520000D03*
X190500000Y-99060000D03*
X190500000Y-101600000D03*
X190500000Y-104140000D03*
X190500000Y-106680000D03*
X190500000Y-109220000D03*
X190500000Y-111760000D03*
X190500000Y-114300000D03*
X190500000Y-116840000D03*
X190500000Y-119380000D03*
%TO.C,U21*%
X190500000Y-128270000D03*
X190500000Y-130810000D03*
X190500000Y-133350000D03*
X190500000Y-135890000D03*
X190500000Y-138430000D03*
X190500000Y-140970000D03*
X190500000Y-143510000D03*
X190500000Y-146050000D03*
X190500000Y-148590000D03*
X190500000Y-151130000D03*
X190500000Y-153670000D03*
X190500000Y-156210000D03*
X190500000Y-158750000D03*
X190500000Y-161290000D03*
X190500000Y-163830000D03*
X190500000Y-166370000D03*
X190500000Y-168910000D03*
X190500000Y-171450000D03*
X190500000Y-173990000D03*
X190500000Y-176530000D03*
%TO.C,R17*%
X193040000Y-123190000D03*
%TO.C,R12*%
X195580000Y-273050000D03*
%TO.C,R13*%
X196850000Y-304800000D03*
%TO.C,R17*%
X200660000Y-123190000D03*
%TO.C,C5*%
X201930000Y-309920000D03*
X201930000Y-312420000D03*
%TO.C,U33*%
X205740000Y-71120000D03*
X205740000Y-73660000D03*
X205740000Y-76200000D03*
X205740000Y-78740000D03*
X205740000Y-81280000D03*
X205740000Y-83820000D03*
X205740000Y-86360000D03*
X205740000Y-88900000D03*
X205740000Y-91440000D03*
X205740000Y-93980000D03*
X205740000Y-96520000D03*
X205740000Y-99060000D03*
X205740000Y-101600000D03*
X205740000Y-104140000D03*
X205740000Y-106680000D03*
X205740000Y-109220000D03*
X205740000Y-111760000D03*
X205740000Y-114300000D03*
X205740000Y-116840000D03*
X205740000Y-119380000D03*
%TO.C,U21*%
X205740000Y-128270000D03*
X205740000Y-130810000D03*
X205740000Y-133350000D03*
X205740000Y-135890000D03*
X205740000Y-138430000D03*
X205740000Y-140970000D03*
X205740000Y-143510000D03*
X205740000Y-146050000D03*
X205740000Y-148590000D03*
X205740000Y-151130000D03*
X205740000Y-153670000D03*
X205740000Y-156210000D03*
X205740000Y-158750000D03*
X205740000Y-161290000D03*
X205740000Y-163830000D03*
X205740000Y-166370000D03*
X205740000Y-168910000D03*
X205740000Y-171450000D03*
X205740000Y-173990000D03*
X205740000Y-176530000D03*
%TO.C,R15*%
X212150000Y-288290000D03*
%TO.C,C6*%
X219710000Y-309920000D03*
X219710000Y-312420000D03*
%TO.C,R15*%
X219770000Y-288290000D03*
%TO.C,C1*%
X220980000Y-278170000D03*
X220980000Y-280670000D03*
%TO.C,R11*%
X226060000Y-313690000D03*
%TO.C,U6*%
X227330000Y-33020000D03*
X227330000Y-35560000D03*
X227330000Y-38100000D03*
X227330000Y-40640000D03*
X227330000Y-43180000D03*
X227330000Y-45720000D03*
X227330000Y-48260000D03*
%TO.C,R11*%
X233680000Y-313690000D03*
%TO.C,U6*%
X234950000Y-33020000D03*
X234950000Y-35560000D03*
X234950000Y-38100000D03*
X234950000Y-40640000D03*
X234950000Y-43180000D03*
X234950000Y-45720000D03*
X234950000Y-48260000D03*
%TO.C,C2*%
X234950000Y-278130000D03*
X234950000Y-280630000D03*
%TO.C,R10*%
X234950000Y-284480000D03*
%TO.C,U23*%
X242570000Y-90170000D03*
X242570000Y-92710000D03*
X242570000Y-95250000D03*
X242570000Y-97790000D03*
X242570000Y-100330000D03*
X242570000Y-102870000D03*
X242570000Y-105410000D03*
%TO.C,U26*%
X242570000Y-111760000D03*
X242570000Y-114300000D03*
X242570000Y-116840000D03*
X242570000Y-119380000D03*
%TO.C,R10*%
X242570000Y-284480000D03*
%TO.C,C4*%
X247650000Y-288290000D03*
X250150000Y-288290000D03*
%TO.C,U23*%
X250190000Y-90170000D03*
X250190000Y-92710000D03*
X250190000Y-95250000D03*
X250190000Y-97790000D03*
X250190000Y-100330000D03*
X250190000Y-102870000D03*
X250190000Y-105410000D03*
%TO.C,U26*%
X250190000Y-111760000D03*
X250190000Y-114300000D03*
X250190000Y-116840000D03*
X250190000Y-119380000D03*
%TO.C,C8*%
X254000000Y-119380000D03*
X256500000Y-119380000D03*
%TO.C,R21*%
X257810000Y-106680000D03*
X257810000Y-114300000D03*
%TO.C,C3*%
X257850000Y-285750000D03*
%TO.C,R20*%
X260350000Y-115570000D03*
X260350000Y-123190000D03*
%TO.C,C3*%
X260350000Y-285750000D03*
%TO.C,CP2*%
X264160000Y-114300000D03*
%TO.C,C7*%
X265430000Y-125730000D03*
%TO.C,CP2*%
X266660000Y-114300000D03*
%TO.C,C7*%
X267930000Y-125730000D03*
%TO.C,R9*%
X267970000Y-284480000D03*
X267970000Y-292100000D03*
%TO.C,U24*%
X273050000Y-57150000D03*
X273050000Y-59690000D03*
X273050000Y-62230000D03*
X273050000Y-64770000D03*
X273050000Y-67310000D03*
X273050000Y-69850000D03*
X273050000Y-72390000D03*
X280670000Y-57150000D03*
X280670000Y-59690000D03*
X280670000Y-62230000D03*
X280670000Y-64770000D03*
X280670000Y-67310000D03*
X280670000Y-69850000D03*
X280670000Y-72390000D03*
%TO.C,R22*%
X300990000Y-198120000D03*
X308610000Y-198120000D03*
%TO.C,U10*%
X323850000Y-132080000D03*
X323850000Y-134620000D03*
X323850000Y-137160000D03*
X323850000Y-139700000D03*
X323850000Y-142240000D03*
X323850000Y-144780000D03*
X323850000Y-147320000D03*
X323850000Y-149860000D03*
X323850000Y-152400000D03*
X323850000Y-154940000D03*
X331470000Y-132080000D03*
X331470000Y-134620000D03*
X331470000Y-137160000D03*
X331470000Y-139700000D03*
X331470000Y-142240000D03*
X331470000Y-144780000D03*
X331470000Y-147320000D03*
X331470000Y-149860000D03*
X331470000Y-152400000D03*
X331470000Y-154940000D03*
%TO.C,U9*%
X386080000Y-172720000D03*
X386080000Y-175260000D03*
X386080000Y-177800000D03*
X386080000Y-180340000D03*
X386080000Y-182880000D03*
X386080000Y-185420000D03*
X386080000Y-187960000D03*
X386080000Y-190500000D03*
X386080000Y-193040000D03*
X386080000Y-195580000D03*
X386080000Y-198120000D03*
X386080000Y-200660000D03*
X386080000Y-203200000D03*
X386080000Y-205740000D03*
X401320000Y-172720000D03*
X401320000Y-175260000D03*
X401320000Y-177800000D03*
X401320000Y-180340000D03*
X401320000Y-182880000D03*
X401320000Y-185420000D03*
X401320000Y-187960000D03*
X401320000Y-190500000D03*
X401320000Y-193040000D03*
X401320000Y-195580000D03*
X401320000Y-198120000D03*
X401320000Y-200660000D03*
X401320000Y-203200000D03*
X401320000Y-205740000D03*
%TO.C,R16*%
X407670000Y-129540000D03*
%TO.C,U22*%
X411480000Y-163830000D03*
X411480000Y-166370000D03*
X411480000Y-168910000D03*
X411480000Y-171450000D03*
X411480000Y-173990000D03*
X411480000Y-176530000D03*
X411480000Y-179070000D03*
X411480000Y-181610000D03*
%TO.C,R16*%
X415290000Y-129540000D03*
%TO.C,U22*%
X419100000Y-163830000D03*
X419100000Y-166370000D03*
X419100000Y-168910000D03*
X419100000Y-171450000D03*
X419100000Y-173990000D03*
X419100000Y-176530000D03*
X419100000Y-179070000D03*
X419100000Y-181610000D03*
%TO.C,U3*%
X429260000Y-163830000D03*
X429260000Y-166370000D03*
X429260000Y-168910000D03*
X429260000Y-171450000D03*
X429260000Y-173990000D03*
X429260000Y-176530000D03*
X429260000Y-179070000D03*
%TO.C,U20*%
X434340000Y-275564600D03*
X434340000Y-278104600D03*
X434340000Y-280644600D03*
X434340000Y-283184600D03*
X434340000Y-285724600D03*
X434340000Y-288264600D03*
X434340000Y-290804600D03*
X434340000Y-293344600D03*
%TO.C,U3*%
X436880000Y-163830000D03*
X436880000Y-166370000D03*
X436880000Y-168910000D03*
X436880000Y-171450000D03*
X436880000Y-173990000D03*
X436880000Y-176530000D03*
X436880000Y-179070000D03*
%TO.C,U20*%
X441960000Y-275564600D03*
X441960000Y-278104600D03*
X441960000Y-280644600D03*
X441960000Y-283184600D03*
X441960000Y-285724600D03*
X441960000Y-288264600D03*
X441960000Y-290804600D03*
X441960000Y-293344600D03*
%TO.C,U8*%
X449580000Y-163830000D03*
X449580000Y-166370000D03*
X449580000Y-168910000D03*
X449580000Y-171450000D03*
X449580000Y-173990000D03*
X449580000Y-176530000D03*
X449580000Y-179070000D03*
%TO.C,U28*%
X449580000Y-189230000D03*
X449580000Y-191770000D03*
X449580000Y-194310000D03*
X449580000Y-196850000D03*
X449580000Y-199390000D03*
X449580000Y-201930000D03*
X449580000Y-204470000D03*
X449580000Y-207010000D03*
%TO.C,U27*%
X455930000Y-243840000D03*
X455930000Y-259080000D03*
%TO.C,U8*%
X457200000Y-163830000D03*
X457200000Y-166370000D03*
X457200000Y-168910000D03*
X457200000Y-171450000D03*
X457200000Y-173990000D03*
X457200000Y-176530000D03*
X457200000Y-179070000D03*
%TO.C,U28*%
X457200000Y-189230000D03*
X457200000Y-191770000D03*
X457200000Y-194310000D03*
X457200000Y-196850000D03*
X457200000Y-199390000D03*
X457200000Y-201930000D03*
X457200000Y-204470000D03*
X457200000Y-207010000D03*
%TO.C,U27*%
X458470000Y-243840000D03*
X458470000Y-259080000D03*
X461010000Y-243840000D03*
X461010000Y-259080000D03*
X463550000Y-243840000D03*
X463550000Y-259080000D03*
X466090000Y-243840000D03*
X466090000Y-259080000D03*
X468630000Y-243840000D03*
X468630000Y-259080000D03*
X471170000Y-243840000D03*
X471170000Y-259080000D03*
X473710000Y-243840000D03*
X473710000Y-259080000D03*
X476250000Y-243840000D03*
X476250000Y-259080000D03*
X478790000Y-243840000D03*
X478790000Y-259080000D03*
X481330000Y-243840000D03*
X481330000Y-259080000D03*
X483870000Y-243840000D03*
X483870000Y-259080000D03*
X486410000Y-243840000D03*
X486410000Y-259080000D03*
X488950000Y-243840000D03*
X488950000Y-259080000D03*
X491490000Y-243840000D03*
X491490000Y-259080000D03*
X494030000Y-243840000D03*
X494030000Y-259080000D03*
X496570000Y-243840000D03*
X496570000Y-259080000D03*
X499110000Y-243840000D03*
X499110000Y-259080000D03*
X501650000Y-243840000D03*
X501650000Y-259080000D03*
X504190000Y-243840000D03*
X504190000Y-259080000D03*
%TO.C,U42*%
X509270000Y-168910000D03*
X509270000Y-171450000D03*
X509270000Y-173990000D03*
X509270000Y-176530000D03*
X509270000Y-179070000D03*
X509270000Y-181610000D03*
X509270000Y-184150000D03*
%TO.C,U37*%
X509270000Y-191770000D03*
X509270000Y-194310000D03*
X509270000Y-196850000D03*
X509270000Y-199390000D03*
X509270000Y-201930000D03*
X509270000Y-204470000D03*
X509270000Y-207010000D03*
%TO.C,U36*%
X509270000Y-214630000D03*
X509270000Y-217170000D03*
X509270000Y-219710000D03*
X509270000Y-222250000D03*
X509270000Y-224790000D03*
X509270000Y-227330000D03*
X509270000Y-229870000D03*
%TO.C,U40*%
X511810000Y-248920000D03*
X511810000Y-251460000D03*
X511810000Y-254000000D03*
X511810000Y-256540000D03*
X511810000Y-259080000D03*
X511810000Y-261620000D03*
X511810000Y-264160000D03*
%TO.C,U42*%
X516890000Y-168910000D03*
X516890000Y-171450000D03*
X516890000Y-173990000D03*
X516890000Y-176530000D03*
X516890000Y-179070000D03*
X516890000Y-181610000D03*
X516890000Y-184150000D03*
%TO.C,U37*%
X516890000Y-191770000D03*
X516890000Y-194310000D03*
X516890000Y-196850000D03*
X516890000Y-199390000D03*
X516890000Y-201930000D03*
X516890000Y-204470000D03*
X516890000Y-207010000D03*
%TO.C,U36*%
X516890000Y-214630000D03*
X516890000Y-217170000D03*
X516890000Y-219710000D03*
X516890000Y-222250000D03*
X516890000Y-224790000D03*
X516890000Y-227330000D03*
X516890000Y-229870000D03*
%TO.C,U40*%
X519430000Y-248920000D03*
X519430000Y-251460000D03*
X519430000Y-254000000D03*
X519430000Y-256540000D03*
X519430000Y-259080000D03*
X519430000Y-261620000D03*
X519430000Y-264160000D03*
%TO.C,U35*%
X525780000Y-229870000D03*
X525780000Y-232410000D03*
X525780000Y-234950000D03*
X525780000Y-237490000D03*
X525780000Y-240030000D03*
X525780000Y-242570000D03*
X525780000Y-245110000D03*
%TO.C,U15*%
X528320000Y-285750000D03*
X528320000Y-288290000D03*
X528320000Y-290830000D03*
X528320000Y-293370000D03*
X528320000Y-295910000D03*
X528320000Y-298450000D03*
X528320000Y-300990000D03*
%TO.C,U38*%
X533400000Y-203200000D03*
X533400000Y-205740000D03*
X533400000Y-208280000D03*
X533400000Y-210820000D03*
X533400000Y-213360000D03*
X533400000Y-215900000D03*
X533400000Y-218440000D03*
%TO.C,U35*%
X533400000Y-229870000D03*
X533400000Y-232410000D03*
X533400000Y-234950000D03*
X533400000Y-237490000D03*
X533400000Y-240030000D03*
X533400000Y-242570000D03*
X533400000Y-245110000D03*
%TO.C,U43*%
X534670000Y-151130000D03*
X534670000Y-153670000D03*
X534670000Y-156210000D03*
X534670000Y-158750000D03*
X534670000Y-161290000D03*
X534670000Y-163830000D03*
X534670000Y-166370000D03*
%TO.C,U39*%
X534670000Y-175260000D03*
X534670000Y-177800000D03*
X534670000Y-180340000D03*
X534670000Y-182880000D03*
X534670000Y-185420000D03*
X534670000Y-187960000D03*
X534670000Y-190500000D03*
%TO.C,U15*%
X535940000Y-285750000D03*
X535940000Y-288290000D03*
X535940000Y-290830000D03*
X535940000Y-293370000D03*
X535940000Y-295910000D03*
X535940000Y-298450000D03*
X535940000Y-300990000D03*
%TO.C,U38*%
X541020000Y-203200000D03*
X541020000Y-205740000D03*
X541020000Y-208280000D03*
X541020000Y-210820000D03*
X541020000Y-213360000D03*
X541020000Y-215900000D03*
X541020000Y-218440000D03*
%TO.C,U43*%
X542290000Y-151130000D03*
X542290000Y-153670000D03*
X542290000Y-156210000D03*
X542290000Y-158750000D03*
X542290000Y-161290000D03*
X542290000Y-163830000D03*
X542290000Y-166370000D03*
%TO.C,U39*%
X542290000Y-175260000D03*
X542290000Y-177800000D03*
X542290000Y-180340000D03*
X542290000Y-182880000D03*
X542290000Y-185420000D03*
X542290000Y-187960000D03*
X542290000Y-190500000D03*
%TO.C,U31*%
X542290000Y-256540000D03*
X542290000Y-259080000D03*
X542290000Y-261620000D03*
X542290000Y-264160000D03*
X542290000Y-266700000D03*
X542290000Y-269240000D03*
X542290000Y-271780000D03*
X549910000Y-256540000D03*
X549910000Y-259080000D03*
X549910000Y-261620000D03*
X549910000Y-264160000D03*
X549910000Y-266700000D03*
X549910000Y-269240000D03*
X549910000Y-271780000D03*
D12*
%TO.C,D6*%
X240030000Y-292100000D03*
%TO.C,D7*%
X240030000Y-309880000D03*
X240030000Y-312420000D03*
%TO.C,D6*%
X242570000Y-292100000D03*
%TO.C,D5*%
X260350000Y-292100000D03*
X262890000Y-292100000D03*
D13*
%TO.C,J3*%
X36830000Y-148590000D03*
X36830000Y-151130000D03*
X36830000Y-153670000D03*
X36830000Y-156210000D03*
X36830000Y-158750000D03*
X39370000Y-148590000D03*
X39370000Y-151130000D03*
X39370000Y-153670000D03*
X39370000Y-156210000D03*
%TO.C,X2*%
X50800000Y-198120000D03*
X50800000Y-205740000D03*
X66040000Y-198120000D03*
X66040000Y-205740000D03*
D14*
%TO.C,J1*%
X133181600Y-306115200D02*
X131181600Y-306115200D01*
X133181600Y-312115200D02*
X131181600Y-312115200D01*
X136881600Y-308115200D02*
X136881600Y-310115200D01*
D13*
%TO.C,JP9*%
X181610000Y-142240000D03*
%TO.C,JP11*%
X182880000Y-128270000D03*
%TO.C,JP10*%
X182880000Y-135890000D03*
%TO.C,JP9*%
X184150000Y-142240000D03*
%TO.C,JP11*%
X185420000Y-128270000D03*
%TO.C,JP10*%
X185420000Y-135890000D03*
%TO.C,J4*%
X196850000Y-38100000D03*
X196850000Y-40640000D03*
X196850000Y-43180000D03*
X196850000Y-45720000D03*
X196850000Y-48260000D03*
X196850000Y-50800000D03*
X196850000Y-53340000D03*
X196850000Y-55880000D03*
X196850000Y-58420000D03*
X196850000Y-60960000D03*
X196850000Y-63500000D03*
X199390000Y-38100000D03*
X199390000Y-40640000D03*
X199390000Y-43180000D03*
X199390000Y-45720000D03*
X199390000Y-48260000D03*
X199390000Y-50800000D03*
X199390000Y-53340000D03*
X199390000Y-55880000D03*
X199390000Y-58420000D03*
X199390000Y-60960000D03*
X199390000Y-63500000D03*
%TO.C,JP1*%
X218440000Y-38100000D03*
X218440000Y-40640000D03*
X218440000Y-43180000D03*
%TO.C,JP16*%
X218440000Y-114300000D03*
X218440000Y-116840000D03*
X218440000Y-119380000D03*
%TO.C,X1*%
X248920000Y-62230000D03*
X248920000Y-69850000D03*
X264160000Y-62230000D03*
X264160000Y-69850000D03*
%TO.C,JP13*%
X267970000Y-80010000D03*
X267970000Y-82550000D03*
%TO.C,JP14*%
X273050000Y-80010000D03*
X273050000Y-82550000D03*
%TO.C,JP15*%
X278130000Y-80010000D03*
X278130000Y-82550000D03*
%TO.C,U19*%
X316230000Y-167640000D03*
X316230000Y-170180000D03*
X316230000Y-172720000D03*
X316230000Y-175260000D03*
X316230000Y-177800000D03*
X316230000Y-180340000D03*
X316230000Y-182880000D03*
X316230000Y-185420000D03*
X316230000Y-187960000D03*
X316230000Y-190500000D03*
X316230000Y-193040000D03*
X316230000Y-195580000D03*
X316230000Y-198120000D03*
X316230000Y-200660000D03*
X331470000Y-167640000D03*
X331470000Y-170180000D03*
X331470000Y-172720000D03*
X331470000Y-175260000D03*
X331470000Y-177800000D03*
X331470000Y-180340000D03*
X331470000Y-182880000D03*
X331470000Y-185420000D03*
X331470000Y-187960000D03*
X331470000Y-190500000D03*
X331470000Y-193040000D03*
X331470000Y-195580000D03*
X331470000Y-198120000D03*
X331470000Y-200660000D03*
%TO.C,U11*%
X386080000Y-127000000D03*
X386080000Y-129540000D03*
X386080000Y-132080000D03*
X386080000Y-134620000D03*
X386080000Y-137160000D03*
X386080000Y-139700000D03*
X386080000Y-142240000D03*
X386080000Y-144780000D03*
X386080000Y-147320000D03*
X386080000Y-149860000D03*
X386080000Y-152400000D03*
X386080000Y-154940000D03*
X386080000Y-157480000D03*
X386080000Y-160020000D03*
X401320000Y-127000000D03*
X401320000Y-129540000D03*
X401320000Y-132080000D03*
X401320000Y-134620000D03*
X401320000Y-137160000D03*
X401320000Y-139700000D03*
X401320000Y-142240000D03*
X401320000Y-144780000D03*
X401320000Y-147320000D03*
X401320000Y-149860000D03*
X401320000Y-152400000D03*
X401320000Y-154940000D03*
X401320000Y-157480000D03*
X401320000Y-160020000D03*
%TO.C,J5*%
X417880800Y-49225200D03*
X417880800Y-51765200D03*
X417880800Y-54305200D03*
X417880800Y-56845200D03*
X417880800Y-59385200D03*
X417880800Y-61925200D03*
X417880800Y-64465200D03*
X417880800Y-67005200D03*
X417880800Y-69545200D03*
X417880800Y-72085200D03*
X417880800Y-74625200D03*
X417880800Y-77165200D03*
X417880800Y-79705200D03*
X417880800Y-82245200D03*
X417880800Y-84785200D03*
X417880800Y-87325200D03*
X417880800Y-89865200D03*
X417880800Y-92405200D03*
X417880800Y-94945200D03*
X417880800Y-97485200D03*
X417880800Y-100025200D03*
%TO.C,JP8*%
X419100000Y-220980000D03*
X419100000Y-223520000D03*
X419100000Y-226060000D03*
%TO.C,J5*%
X420420800Y-49225200D03*
X420420800Y-51765200D03*
X420420800Y-54305200D03*
X420420800Y-56845200D03*
X420420800Y-59385200D03*
X420420800Y-61925200D03*
X420420800Y-64465200D03*
X420420800Y-67005200D03*
X420420800Y-69545200D03*
X420420800Y-72085200D03*
X420420800Y-74625200D03*
X420420800Y-77165200D03*
X420420800Y-79705200D03*
X420420800Y-82245200D03*
X420420800Y-84785200D03*
X420420800Y-87325200D03*
X420420800Y-89865200D03*
X420420800Y-92405200D03*
X420420800Y-94945200D03*
X420420800Y-97485200D03*
X420420800Y-100025200D03*
%TO.C,JP12*%
X422910000Y-220980000D03*
X422910000Y-223520000D03*
X422910000Y-226060000D03*
%TO.C,JP6*%
X426720000Y-220980000D03*
X426720000Y-223520000D03*
X426720000Y-226060000D03*
%TO.C,JP7*%
X430530000Y-220980000D03*
X430530000Y-223520000D03*
X430530000Y-226060000D03*
%TO.C,JP4*%
X434340000Y-220980000D03*
X434340000Y-223520000D03*
X434340000Y-226060000D03*
%TO.C,JP5*%
X438150000Y-220980000D03*
X438150000Y-223520000D03*
X438150000Y-226060000D03*
%TO.C,JP2*%
X441960000Y-220980000D03*
X441960000Y-223520000D03*
X441960000Y-226060000D03*
%TO.C,J6*%
X443268000Y-49377600D03*
X443268000Y-51917600D03*
X443268000Y-54457600D03*
X443268000Y-56997600D03*
X443268000Y-59537600D03*
X443268000Y-62077600D03*
X443268000Y-64617600D03*
X443268000Y-67157600D03*
X443268000Y-69697600D03*
X443268000Y-72237600D03*
X443268000Y-74777600D03*
X443268000Y-77317600D03*
X443268000Y-79857600D03*
X443268000Y-82397600D03*
X443268000Y-84937600D03*
X443268000Y-87477600D03*
X443268000Y-90017600D03*
X443268000Y-92557600D03*
X443268000Y-95097600D03*
X443268000Y-97637600D03*
X443268000Y-100177600D03*
%TO.C,JP3*%
X445770000Y-220980000D03*
X445770000Y-223520000D03*
X445770000Y-226060000D03*
%TO.C,J6*%
X445808000Y-49377600D03*
X445808000Y-51917600D03*
X445808000Y-54457600D03*
X445808000Y-56997600D03*
X445808000Y-59537600D03*
X445808000Y-62077600D03*
X445808000Y-64617600D03*
X445808000Y-67157600D03*
X445808000Y-69697600D03*
X445808000Y-72237600D03*
X445808000Y-74777600D03*
X445808000Y-77317600D03*
X445808000Y-79857600D03*
X445808000Y-82397600D03*
X445808000Y-84937600D03*
X445808000Y-87477600D03*
X445808000Y-90017600D03*
X445808000Y-92557600D03*
X445808000Y-95097600D03*
X445808000Y-97637600D03*
X445808000Y-100177600D03*
%TO.C,J2*%
X467360000Y-275590000D03*
X467360000Y-278130000D03*
X467360000Y-280670000D03*
X467360000Y-283210000D03*
X467360000Y-285750000D03*
X467360000Y-288290000D03*
X467360000Y-290830000D03*
X467360000Y-293370000D03*
X467360000Y-295910000D03*
X467360000Y-298450000D03*
%TO.C,J7*%
X467486800Y-49377600D03*
X467486800Y-51917600D03*
X467486800Y-54457600D03*
X467486800Y-56997600D03*
X467486800Y-59537600D03*
X467486800Y-62077600D03*
X467486800Y-64617600D03*
X467486800Y-67157600D03*
X467486800Y-69697600D03*
X467486800Y-72237600D03*
X467486800Y-74777600D03*
X467486800Y-77317600D03*
X467486800Y-79857600D03*
X467486800Y-82397600D03*
X467486800Y-84937600D03*
X467486800Y-87477600D03*
X467486800Y-90017600D03*
X467486800Y-92557600D03*
X467486800Y-95097600D03*
X467486800Y-97637600D03*
X467486800Y-100177600D03*
%TO.C,J2*%
X469900000Y-275590000D03*
X469900000Y-278130000D03*
X469900000Y-280670000D03*
X469900000Y-283210000D03*
X469900000Y-285750000D03*
X469900000Y-288290000D03*
X469900000Y-290830000D03*
X469900000Y-293370000D03*
X469900000Y-295910000D03*
X469900000Y-298450000D03*
%TO.C,J7*%
X470026800Y-49377600D03*
X470026800Y-51917600D03*
X470026800Y-54457600D03*
X470026800Y-56997600D03*
X470026800Y-59537600D03*
X470026800Y-62077600D03*
X470026800Y-64617600D03*
X470026800Y-67157600D03*
X470026800Y-69697600D03*
X470026800Y-72237600D03*
X470026800Y-74777600D03*
X470026800Y-77317600D03*
X470026800Y-79857600D03*
X470026800Y-82397600D03*
X470026800Y-84937600D03*
X470026800Y-87477600D03*
X470026800Y-90017600D03*
X470026800Y-92557600D03*
X470026800Y-95097600D03*
X470026800Y-97637600D03*
X470026800Y-100177600D03*
%TO.C,J8*%
X492874000Y-49428400D03*
X492874000Y-51968400D03*
X492874000Y-54508400D03*
X492874000Y-57048400D03*
X492874000Y-59588400D03*
X492874000Y-62128400D03*
X492874000Y-64668400D03*
X492874000Y-67208400D03*
X492874000Y-69748400D03*
X492874000Y-72288400D03*
X492874000Y-74828400D03*
X492874000Y-77368400D03*
X492874000Y-79908400D03*
X492874000Y-82448400D03*
X492874000Y-84988400D03*
X492874000Y-87528400D03*
X492874000Y-90068400D03*
X492874000Y-92608400D03*
X492874000Y-95148400D03*
X492874000Y-97688400D03*
X492874000Y-100228400D03*
X495414000Y-49428400D03*
X495414000Y-51968400D03*
X495414000Y-54508400D03*
X495414000Y-57048400D03*
X495414000Y-59588400D03*
X495414000Y-62128400D03*
X495414000Y-64668400D03*
X495414000Y-67208400D03*
X495414000Y-69748400D03*
X495414000Y-72288400D03*
X495414000Y-74828400D03*
X495414000Y-77368400D03*
X495414000Y-79908400D03*
X495414000Y-82448400D03*
X495414000Y-84988400D03*
X495414000Y-87528400D03*
X495414000Y-90068400D03*
X495414000Y-92608400D03*
X495414000Y-95148400D03*
X495414000Y-97688400D03*
X495414000Y-100228400D03*
%TO.C,J9*%
X518108800Y-49428400D03*
X518108800Y-51968400D03*
X518108800Y-54508400D03*
X518108800Y-57048400D03*
X518108800Y-59588400D03*
X518108800Y-62128400D03*
X518108800Y-64668400D03*
X518108800Y-67208400D03*
X518108800Y-69748400D03*
X518108800Y-72288400D03*
X518108800Y-74828400D03*
X518108800Y-77368400D03*
X518108800Y-79908400D03*
X518108800Y-82448400D03*
X518108800Y-84988400D03*
X518108800Y-87528400D03*
X518108800Y-90068400D03*
X518108800Y-92608400D03*
X518108800Y-95148400D03*
X518108800Y-97688400D03*
X518108800Y-100228400D03*
X520648800Y-49428400D03*
X520648800Y-51968400D03*
X520648800Y-54508400D03*
X520648800Y-57048400D03*
X520648800Y-59588400D03*
X520648800Y-62128400D03*
X520648800Y-64668400D03*
X520648800Y-67208400D03*
X520648800Y-69748400D03*
X520648800Y-72288400D03*
X520648800Y-74828400D03*
X520648800Y-77368400D03*
X520648800Y-79908400D03*
X520648800Y-82448400D03*
X520648800Y-84988400D03*
X520648800Y-87528400D03*
X520648800Y-90068400D03*
X520648800Y-92608400D03*
X520648800Y-95148400D03*
X520648800Y-97688400D03*
X520648800Y-100228400D03*
D15*
%TO.C,D1*%
X124460000Y-280670000D03*
X124460000Y-288290000D03*
%TO.C,D2*%
X127000000Y-278130000D03*
%TO.C,D3*%
X127000000Y-290830000D03*
%TO.C,D2*%
X134620000Y-278130000D03*
%TO.C,D3*%
X134620000Y-290830000D03*
%TO.C,D4*%
X137160000Y-280670000D03*
X137160000Y-288290000D03*
%TO.C,Q2*%
X200660000Y-280670000D03*
X203200000Y-280670000D03*
X205740000Y-280670000D03*
%TO.C,U13*%
X208280000Y-312420000D03*
%TO.C,SW2*%
X210820000Y-276860000D03*
X210820000Y-281360000D03*
%TO.C,U13*%
X210820000Y-312420000D03*
X213360000Y-312420000D03*
%TO.C,SW2*%
X217320000Y-276860000D03*
X217320000Y-281360000D03*
%TO.C,U1*%
X224790000Y-280670000D03*
X227330000Y-280670000D03*
X229870000Y-280670000D03*
%TO.C,U2*%
X247650000Y-280670000D03*
X250190000Y-280670000D03*
X252730000Y-280670000D03*
%TO.C,SW3*%
X254000000Y-125730000D03*
X254000000Y-130230000D03*
X260500000Y-125730000D03*
X260500000Y-130230000D03*
D16*
%TO.C,TR1*%
X71120000Y-278480000D03*
X71120000Y-283530000D03*
X71120000Y-288530000D03*
X71120000Y-293530000D03*
X71120000Y-298530000D03*
X71120000Y-303530000D03*
X98620000Y-278530000D03*
X98620000Y-283530000D03*
X98620000Y-288530000D03*
X98620000Y-293530000D03*
X98620000Y-298530000D03*
X98620000Y-303530000D03*
D17*
%TO.C,F1*%
X53619400Y-278257000D03*
X53619400Y-300757000D03*
%TO.C,Q1*%
X182880000Y-284480000D03*
X182880000Y-295400000D03*
D18*
%TO.C,P1*%
X53492400Y-311251600D03*
X58492400Y-311251600D03*
D19*
%TO.C,Q1*%
X169580000Y-289930000D03*
X199780000Y-289930000D03*
M02*
