M48
; DRILL file {KiCad (5.1.10)-1} date 04/25/22 14:42:10
; FORMAT={-:-/ absolute / inch / decimal}
; #@! TF.CreationDate,2022-04-25T14:42:10+01:00
; #@! TF.GenerationSoftware,Kicad,Pcbnew,(5.1.10)-1
; #@! TF.FileFunction,Plated,1,8,PTH
FMAT,2
INCH
T1C0.0157
T2C0.0315
T3C0.0354
T4C0.0394
T5C0.0433
T6C0.0472
T7C0.0512
T8C0.0520
T9C0.1575
%
G90
G05
T1
X1.2Y-5.5
X1.2Y-6.8
X1.25Y-5.55
X1.25Y-7.5
X1.3Y-5.6
X1.3Y-7.4
X1.35Y-5.65
X1.35Y-7.9
X1.8Y-6.05
X1.9Y-5.6
X1.9Y-5.95
X2.0Y-6.0
X2.1Y-6.2
X2.15Y-7.15
X2.15Y-7.5
X2.2Y-5.65
X2.2Y-6.15
X2.25Y-6.45
X2.25Y-7.4
X2.3Y-6.6
X2.35Y-6.8
X2.4Y-5.9
X2.4Y-6.55
X2.45Y-6.5
X2.45Y-6.8
X2.5Y-5.35
X2.5Y-5.55
X2.5Y-6.5
X2.55Y-6.6
X2.55Y-6.85
X2.6Y-6.45
X2.65Y-6.55
X2.65Y-6.9
X2.7Y-5.5
X2.7Y-5.85
X2.75Y-5.45
X2.75Y-6.95
X2.85Y-7.0
X2.95Y-7.05
X3.0Y-5.55
X3.05Y-5.05
X3.05Y-7.1
X3.1Y-6.35
X3.1Y-6.6
X3.15Y-7.9
X3.25Y-5.65
X3.3Y-7.7
X3.45Y-6.2
X3.45Y-6.75
X3.5Y-5.9
X3.5Y-6.3
X3.5Y-6.8
X3.55Y-6.4
X3.55Y-6.85
X3.6Y-6.5
X3.6Y-6.9
X3.65Y-6.6
X3.65Y-6.95
X3.7Y-6.7
X3.7Y-7.0
X3.75Y-5.8
X3.75Y-6.8
X3.75Y-7.05
X3.8Y-6.9
X3.8Y-7.1
X3.85Y-7.15
X3.85Y-7.3
X3.9Y-6.35
X3.9Y-7.15
X4.25Y-5.6
X4.9Y-11.45
X4.9Y-11.7
X4.95Y-4.75
X4.95Y-5.45
X5.05Y-4.85
X5.05Y-5.65
X5.25Y-7.65
X5.3Y-5.55
X5.3Y-9.4
X5.35Y-5.9
X5.35Y-7.65
X5.4Y-10.95
X5.5Y-7.55
X5.6Y-5.7
X5.6Y-6.6
X5.6291Y-6.3
X5.6571Y-5.7
X5.75Y-3.95
X5.75Y-4.65
X5.7709Y-5.75
X5.8Y-1.25
X5.8Y-3.95
X5.8Y-5.45
X5.85Y-6.1
X5.85Y-7.85
X5.9Y-5.4
X5.9Y-5.65
X5.9Y-5.75
X5.9Y-6.5
X5.95Y-5.5
X6.05Y-7.75
X6.05Y-8.25
X6.15Y-4.65
X6.15Y-5.6
X6.2Y-4.85
X6.2Y-5.55
X6.299Y-9.7
X6.4Y-4.65
X6.4Y-5.3
X6.4Y-5.35
X6.4Y-7.45
X6.45Y-1.4
X6.45Y-5.2
X6.55Y-1.3
X6.55Y-3.85
X6.55Y-4.7
X6.6Y-1.5
X6.6Y-2.9
X6.65Y-1.6
X6.65Y-3.1
X6.65Y-3.85
X6.65Y-5.2
X6.65Y-5.35
X6.65Y-5.95
X6.65Y-7.15
X6.65Y-7.85
X6.65Y-8.1
X6.7Y-1.75
X6.7Y-5.4
X6.7Y-5.45
X6.7Y-5.8
X6.7Y-7.75
X6.7Y-8.2
X6.75Y-1.7
X6.75Y-3.3
X6.75Y-4.35
X6.8Y-1.8
X6.8Y-3.5
X6.85Y-1.9
X6.85Y-3.7
X6.85Y-4.65
X6.9Y-2.0
X6.9Y-3.9
X6.95Y-2.1
X6.95Y-4.05
X6.95Y-4.75
X6.95Y-4.9
X6.95Y-5.6
X6.95Y-7.15
X7.0Y-2.2
X7.0Y-4.25
X7.0Y-4.75
X7.0Y-7.2
X7.05Y-4.05
X7.05Y-5.35
X7.1Y-4.85
X7.1Y-5.05
X7.2Y-4.35
X7.2Y-4.75
X7.25Y-4.5
X7.3Y-1.65
X7.3Y-4.7
X7.3Y-7.45
X7.3Y-11.65
X7.35Y-4.45
X7.35Y-6.5
X7.4Y-7.8
X7.4Y-8.2
X7.5Y-4.85
X7.5Y-4.95
X7.5Y-7.95
X7.55Y-7.05
X7.6Y-2.25
X7.6Y-4.4
X7.6Y-5.15
X7.6Y-5.65
X7.6Y-7.05
X7.65Y-3.0
X7.65Y-5.85
X7.65Y-7.3
X7.7Y-2.4
X7.7Y-3.1
X7.7Y-5.95
X7.7Y-6.55
X7.7Y-7.2
X7.7343Y-4.7715
X7.75Y-4.5
X7.8Y-3.2
X7.8Y-6.05
X7.85Y-2.2571
X7.85Y-3.3
X7.85Y-6.0
X7.85Y-6.15
X7.85Y-7.15
X7.9Y-2.6
X7.9Y-4.6
X7.9Y-6.1
X7.9Y-6.25
X7.9Y-6.55
X7.95Y-6.35
X8.0Y-2.35
X8.0Y-2.8
X8.0Y-4.2
X8.0Y-6.45
X8.05Y-2.5
X8.05Y-2.6
X8.05Y-7.2
X8.05Y-7.7
X8.1Y-2.4
X8.1Y-2.7
X8.2Y-2.2
X8.2Y-2.7
X8.2Y-2.9
X8.2Y-4.2
X8.2Y-4.75
X8.2Y-5.3
X8.2Y-5.75
X8.2Y-6.2
X8.25Y-2.1
X8.25Y-3.95
X8.25Y-4.3
X8.25Y-5.15
X8.25Y-5.4
X8.25Y-5.85
X8.25Y-6.3
X8.25Y-7.7
X8.25Y-8.25
X8.3Y-2.0
X8.3Y-3.75
X8.3Y-5.5
X8.3Y-5.95
X8.3Y-6.4
X8.35Y-1.9
X8.35Y-3.55
X8.35Y-5.6
X8.35Y-6.05
X8.35Y-6.5
X8.4Y-1.8
X8.4Y-3.35
X8.4Y-5.7
X8.4Y-6.15
X8.4Y-6.6
X8.45Y-1.7
X8.45Y-3.15
X8.45Y-4.15
X8.45Y-4.5
X8.45Y-5.8
X8.45Y-6.25
X8.45Y-6.7
X8.45Y-7.4
X8.494Y-5.194
X8.5Y-1.6
X8.5Y-2.95
X8.5Y-3.0
X8.5Y-5.9
X8.5Y-6.35
X8.5Y-6.8
X8.55Y-3.3
X8.55Y-5.55
X8.55Y-6.0
X8.55Y-6.45
X8.55Y-6.9
X8.6Y-6.1
X8.6Y-6.2
X8.6Y-6.25
X8.6Y-7.05
X8.75Y-1.2
X8.75Y-1.6
X8.8Y-4.5
X8.8Y-4.9
X8.85Y-4.25
X8.85Y-6.0
X8.9Y-4.05
X8.9Y-5.9
X8.95Y-4.0
X8.95Y-5.8
X9.0Y-3.9
X9.0Y-5.7
X9.05Y-1.25
X9.05Y-3.8
X9.05Y-5.6
X9.1Y-4.1
X9.1Y-6.95
X9.2Y-3.7
X9.2Y-5.5
X9.25Y-3.6
X9.25Y-5.4
X9.3Y-3.5
X9.3Y-5.3
X9.35Y-3.4
X9.35Y-3.65
X9.35Y-5.05
X9.35Y-9.75
X9.4Y-3.25
X9.4Y-5.35
X9.45Y-3.3
X9.45Y-3.4
X9.45Y-3.55
X9.45Y-4.6
X9.7Y-3.75
X9.7Y-4.05
X9.7Y-4.2
X9.75Y-3.65
X9.75Y-3.85
X10.5Y-3.0
X10.55Y-3.8
X10.55Y-4.4
X10.55Y-11.05
X10.6Y-3.75
X10.6Y-4.35
X10.65Y-4.0
X10.65Y-4.45
X10.65Y-4.95
X10.65Y-6.2
X11.0Y-3.0
X11.15Y-1.7
X11.15Y-3.1
X11.8Y-6.85
X11.8Y-8.05
X11.85Y-6.65
X11.85Y-8.0
X11.9Y-6.0
X11.9Y-7.0
X11.95Y-5.9
X11.95Y-6.9
X12.0Y-5.8
X12.0Y-6.8
X12.0Y-7.7
X12.0Y-11.8
X12.05Y-5.7
X12.05Y-6.7
X12.05Y-6.7
X12.1Y-5.6
X12.1Y-6.6
X12.15Y-5.5
X12.15Y-6.65
X12.2Y-5.4
X12.2Y-6.75
X12.25Y-5.3
X12.25Y-6.85
X12.6Y-5.75
X12.6Y-6.2
X12.75Y-1.9
X12.8Y-6.25
X12.8Y-7.6
X12.85Y-5.75
X12.85Y-5.85
X12.9Y-5.65
X12.9Y-5.95
X12.95Y-1.6
X12.95Y-7.3
X13.25Y-5.4
X13.25Y-7.0
X13.3Y-5.5
X13.3Y-7.1
X13.35Y-5.6
X13.35Y-7.2
X13.4Y-5.7
X13.4Y-7.3
X13.45Y-5.8
X13.45Y-7.4
X13.5Y-5.9
X13.5Y-7.5
X13.55Y-5.95
X13.55Y-7.6
X13.6Y-6.05
X13.6Y-7.7
X13.65Y-6.85
X13.65Y-7.95
X14.5Y-2.9
X14.5Y-3.25
X14.5Y-9.5
X14.6Y-6.9
X14.6Y-8.05
X14.65Y-5.0
X14.65Y-6.8
X14.65Y-8.0
X14.7Y-2.4
X14.7Y-5.85
X14.7Y-6.05
X14.75Y-5.9
X14.75Y-6.05
X14.75Y-6.2
X14.75Y-7.8
X14.75Y-9.8
X14.8Y-5.55
X14.8Y-5.75
X14.8Y-5.8
X14.8Y-6.15
X14.8Y-7.1
X14.8Y-7.9
X14.8Y-9.85
X14.85Y-5.7
X14.85Y-6.25
X14.85Y-7.2
X14.85Y-8.0
X14.85Y-9.9
X14.9Y-4.05
X14.9Y-5.2
X14.9Y-5.6
X14.9Y-6.2
X14.9Y-7.0
X14.95Y-5.5
X14.95Y-6.1
X14.95Y-6.45
X14.95Y-7.2
X15.0Y-5.4
X15.0Y-6.0
X15.0Y-6.5
X15.0Y-7.1
X15.05Y-5.3
X15.05Y-7.15
X15.05Y-7.35
X15.05Y-8.1
X15.05Y-8.3
X15.1Y-5.4
X15.1Y-7.2
X15.1Y-9.3
X15.2Y-3.6
X15.25Y-7.05
X15.3Y-2.6
X15.3Y-4.95
X15.3Y-5.5
X15.3Y-7.3
X15.3Y-9.35
X15.35Y-4.9
X15.35Y-5.8
X15.35Y-7.7
X15.35Y-9.45
X15.4Y-2.7
X15.4Y-5.4
X15.45Y-2.15
X15.45Y-5.9
X15.5Y-2.8
X15.5Y-5.3
X15.5Y-5.4
X15.5Y-7.2
X15.5Y-9.05
X15.55Y-4.1
X15.55Y-4.95
X15.55Y-5.2
X15.6Y-2.95
X15.6Y-3.9
X15.6Y-5.3
X15.6Y-7.1
X15.65Y-4.1
X15.65Y-4.95
X15.65Y-5.2
X15.65Y-7.5
X15.7Y-1.2
X15.7Y-5.6
X15.7Y-7.05
X15.7Y-9.65
X15.8Y-3.25
X15.8Y-9.95
X15.9Y-1.55
X15.9Y-5.2
X15.9Y-6.1
X15.9Y-6.3
X15.9Y-6.85
X15.9Y-7.3
X15.95Y-3.15
X15.95Y-3.85
X15.95Y-5.7
X15.95Y-6.55
X15.95Y-7.9
X16.0Y-5.5
X16.0Y-7.3
X16.0Y-7.95
X16.0Y-9.55
X16.05Y-2.3
X16.05Y-4.9
X16.05Y-6.2
X16.05Y-6.3
X16.05Y-6.55
X16.05Y-7.2429
X16.05Y-7.3
X16.05Y-8.0
X16.05Y-10.0
X16.1Y-2.9
X16.1Y-3.0
X16.1Y-5.9
X16.1Y-6.95
X16.1Y-11.85
X16.15Y-3.05
X16.15Y-4.95
X16.15Y-5.65
X16.15Y-6.3
X16.15Y-8.1
X16.19Y-2.73
X16.2Y-2.4
X16.2Y-3.35
X16.2Y-4.95
X16.2Y-5.05
X16.2Y-7.6929
X16.25Y-5.7
X16.25Y-7.65
X16.3Y-3.05
X16.3Y-5.03
X16.3Y-5.2
X16.3Y-6.55
X16.3Y-7.05
X16.3Y-8.25
X16.35Y-3.1
X16.35Y-3.4
X16.35Y-7.15
X16.35Y-8.3
X16.4Y-5.4
X16.4Y-7.05
X16.4Y-8.35
X16.43Y-5.2
X16.45Y-5.1
X16.45Y-8.4
X16.5Y-3.9
X16.55Y-5.5
X16.55Y-8.55
X16.6Y-8.45
X16.641Y-10.699
X16.643Y-11.148
X16.65Y-8.5
X16.65Y-8.55
X16.7Y-2.45
X16.7Y-6.1
X16.7Y-6.3
X16.7Y-6.55
X16.7Y-6.75
X16.7429Y-8.7
X16.75Y-2.65
X16.75Y-6.0
X16.75Y-7.05
X16.75Y-7.8
X16.75Y-8.15
X16.8Y-5.65
X16.8Y-6.4
X16.8Y-7.45
X16.8Y-8.5
X16.85Y-2.15
X16.85Y-5.9
X16.85Y-6.15
X16.9Y-7.55
X16.9Y-10.6
X16.9Y-11.35
X16.95Y-1.95
X16.95Y-8.45
X16.95Y-9.7
X16.95Y-11.25
X17.0Y-8.2
X17.01Y-2.35
X17.01Y-5.1
X17.01Y-5.2
X17.01Y-5.65
X17.05Y-6.65
X17.05Y-6.95
X17.05Y-8.75
X17.1Y-8.4
X17.1Y-10.1
X17.186Y-2.168
X17.2Y-8.4
X17.2Y-10.35
X17.2Y-10.95
X17.25Y-8.35
X17.3Y-6.85
X17.3Y-8.75
X17.3Y-10.3
X17.3Y-11.05
X17.35Y-6.95
X17.4Y-8.3
X17.45Y-6.45
X17.5Y-6.55
X17.5Y-8.2
X17.5Y-8.35
X17.55Y-6.5
X17.55Y-6.95
X17.55Y-7.3
X17.55Y-8.25
X17.6Y-8.55
X17.85Y-6.85
X17.85Y-7.15
X17.85Y-7.95
X17.85Y-10.55
X17.9Y-8.05
X17.9Y-9.7
X18.0Y-8.6
X18.0Y-9.3
X18.0Y-11.2
X18.008Y-3.344
X18.05Y-10.95
X18.1Y-11.0
X18.1Y-11.4
X18.1Y-11.65
X18.15Y-9.45
X18.15Y-11.35
X18.15Y-11.55
X18.2Y-6.3
X18.2Y-7.05
X18.2Y-8.0
X18.2Y-9.35
X18.2Y-11.25
X18.2Y-11.4
X18.25Y-7.0
X18.25Y-7.2
X18.25Y-7.6
X18.25Y-11.15
X18.25Y-11.3
X18.3Y-11.05
X18.3Y-11.35
X18.302Y-7.1057
X18.35Y-10.35
X18.4Y-10.3
X18.45Y-10.1
X18.45Y-10.35
X18.549Y-10.698
X18.55Y-9.75
X18.65Y-9.8
X18.65Y-10.3
X18.75Y-9.85
X18.75Y-10.35
X18.85Y-6.15
X18.85Y-9.9
X18.95Y-9.95
X19.05Y-10.0
X19.25Y-8.35
X19.3Y-4.15
X19.3Y-7.85
X19.35Y-7.7
X19.35Y-9.35
X19.45Y-9.5
X19.55Y-9.75
X19.65Y-9.7
X19.65Y-11.85
X19.65Y-11.9
X19.75Y-8.8
X19.75Y-9.05
X19.8Y-11.25
X19.85Y-4.45
X19.85Y-7.55
X19.85Y-8.95
X19.85Y-9.3
X19.95Y-8.45
X19.95Y-8.85
X20.05Y-8.6051
X20.15Y-7.75
X20.15Y-8.55
X20.2Y-7.65
X20.2Y-9.05
X20.25Y-4.4
X20.25Y-7.65
X20.25Y-7.9
X20.25Y-7.95
X20.25Y-8.8
X20.35Y-8.3949
X20.35Y-9.75
X20.35Y-10.4
X20.45Y-8.85
X20.45Y-9.15
X20.45Y-10.6
X20.5Y-4.35
X20.5Y-9.35
X20.55Y-6.9
X20.55Y-11.75
X20.65Y-7.95
X20.65Y-8.2
X20.65Y-8.6
X20.7Y-7.0
X20.7Y-7.05
X20.7Y-7.4
X20.7Y-8.0
X20.7Y-8.05
X20.7Y-8.85
X20.75Y-1.8
X20.75Y-8.7
X20.8Y-3.8
X20.8372Y-9.15
X20.85Y-4.15
X20.85Y-7.0
X20.85Y-8.7
X20.8715Y-11.4
X20.9Y-7.9
X20.9Y-11.75
X20.95Y-10.55
X20.95Y-11.4
X20.95Y-11.45
X21.1429Y-8.3
X21.1429Y-9.45
X21.15Y-7.15
X21.15Y-7.5
X21.2Y-8.1
X21.2Y-9.55
X21.2Y-11.65
X21.2343Y-8.5657
X21.25Y-10.15
X21.3Y-8.85
X21.45Y-7.0
X21.45Y-8.75
X21.45Y-9.4
X21.5Y-7.1
X21.5Y-7.9
T2
X1.8Y-5.75
X1.8Y-6.35
X1.9Y-5.75
X1.9Y-6.35
X2.0Y-5.75
X2.0Y-6.35
X2.05Y-6.7
X2.05Y-7.3
X2.1Y-5.75
X2.1Y-6.35
X2.15Y-6.7
X2.15Y-7.3
X2.2Y-5.75
X2.2Y-6.35
X2.25Y-6.7
X2.25Y-7.3
X2.3Y-5.75
X2.3Y-6.35
X2.35Y-6.7
X2.35Y-7.3
X2.4Y-5.75
X2.4Y-6.35
X2.45Y-6.7
X2.45Y-7.3
X2.5Y-4.9
X2.5Y-5.2
X2.5Y-5.75
X2.5Y-6.35
X2.55Y-6.7
X2.55Y-7.3
X2.6Y-5.75
X2.6Y-6.35
X2.65Y-6.7
X2.65Y-7.3
X2.7Y-5.75
X2.7Y-6.35
X2.75Y-4.9
X2.75Y-5.2
X2.75Y-6.7
X2.75Y-7.3
X2.8Y-5.75
X2.8Y-6.35
X2.85Y-6.7
X2.85Y-7.3
X2.85Y-7.8
X2.85Y-8.1
X2.9Y-5.75
X2.9Y-6.35
X2.95Y-6.7
X2.95Y-7.3
X2.95Y-7.8
X2.95Y-8.1
X3.0Y-4.9
X3.0Y-5.2
X3.05Y-6.7
X3.05Y-7.3
X3.05Y-7.8
X3.05Y-8.1
X3.15Y-6.7
X3.15Y-7.3
X3.15Y-7.8
X3.15Y-8.1
X3.25Y-4.9
X3.25Y-5.2
X3.25Y-6.7
X3.25Y-7.3
X3.25Y-7.8
X3.25Y-8.1
X3.35Y-6.7
X3.35Y-7.3
X3.35Y-7.8
X3.35Y-8.1
X3.45Y-7.8
X3.45Y-8.1
X3.5Y-4.9
X3.5Y-5.2
X3.75Y-4.9
X3.75Y-5.2
X4.0Y-4.9
X4.0Y-5.2
X4.25Y-4.9
X4.25Y-5.2
X5.2Y-5.25
X5.2Y-5.35
X5.2Y-5.45
X5.2Y-5.55
X5.2Y-5.65
X5.2Y-5.75
X5.2Y-5.85
X5.2Y-5.95
X5.2Y-6.1
X5.2Y-6.2
X5.2Y-6.3
X5.2Y-6.4
X5.2Y-6.5
X5.2Y-6.6
X5.2Y-6.7
X5.2Y-6.8
X5.2Y-6.9
X5.2Y-7.0
X5.5Y-5.25
X5.5Y-5.35
X5.5Y-5.45
X5.5Y-5.55
X5.5Y-5.65
X5.5Y-5.75
X5.5Y-5.85
X5.5Y-5.95
X5.5Y-6.1
X5.5Y-6.2
X5.5Y-6.3
X5.5Y-6.4
X5.5Y-6.5
X5.5Y-6.6
X5.5Y-6.7
X5.5Y-6.8
X5.5Y-6.9
X5.5Y-7.0
X5.7Y-5.25
X5.7Y-5.35
X5.7Y-5.45
X5.7Y-5.55
X5.7Y-5.65
X5.7Y-5.75
X5.7Y-5.85
X5.7Y-5.95
X5.7Y-6.1
X5.7Y-6.2
X5.7Y-6.3
X5.7Y-6.4
X5.7Y-6.5
X5.7Y-6.6
X5.7Y-6.7
X5.7Y-6.8
X5.7Y-6.9
X5.7Y-7.0
X5.749Y-11.2456
X5.749Y-11.344
X6.0Y-5.25
X6.0Y-5.35
X6.0Y-5.45
X6.0Y-5.55
X6.0Y-5.65
X6.0Y-5.75
X6.0Y-5.85
X6.0Y-5.95
X6.0Y-6.1
X6.0Y-6.2
X6.0Y-6.3
X6.0Y-6.4
X6.0Y-6.5
X6.0Y-6.6
X6.0Y-6.7
X6.0Y-6.8
X6.0Y-6.9
X6.0Y-7.0
X6.017Y-11.3471
X6.017Y-11.4456
X6.017Y-11.544
X6.143Y-11.3471
X6.143Y-11.4456
X6.143Y-11.544
X6.2Y-7.35
X6.2Y-7.45
X6.2Y-7.55
X6.2Y-7.65
X6.2Y-7.75
X6.2Y-7.85
X6.2Y-7.95
X6.5Y-7.35
X6.5Y-7.45
X6.5Y-7.55
X6.5Y-7.65
X6.5Y-7.75
X6.5Y-7.85
X6.5Y-7.95
X6.55Y-3.95
X6.55Y-4.05
X6.55Y-4.15
X6.55Y-4.25
X6.55Y-4.35
X6.55Y-4.45
X6.55Y-4.55
X6.55Y-4.9
X6.55Y-5.0
X6.55Y-5.1
X6.55Y-5.2
X6.55Y-5.3
X6.55Y-5.4
X6.55Y-5.5
X6.55Y-11.9
X6.85Y-3.95
X6.85Y-4.05
X6.85Y-4.15
X6.85Y-4.25
X6.85Y-4.35
X6.85Y-4.45
X6.85Y-4.55
X6.85Y-4.9
X6.85Y-5.0
X6.85Y-5.1
X6.85Y-5.2
X6.85Y-5.3
X6.85Y-5.4
X6.85Y-5.5
X6.85Y-11.9
X6.85Y-12.05
X6.85Y-12.15
X6.85Y-12.25
X6.85Y-12.35
X6.95Y-5.2
X7.1Y-5.85
X7.15Y-12.05
X7.15Y-12.15
X7.15Y-12.25
X7.15Y-12.35
X7.25Y-5.2
X7.4Y-5.85
X7.4Y-10.75
X7.45Y-12.0
X7.5Y-2.8
X7.5Y-2.9
X7.5Y-3.0
X7.5Y-3.1
X7.5Y-3.2
X7.5Y-3.3
X7.5Y-3.4
X7.5Y-3.5
X7.5Y-3.6
X7.5Y-3.7
X7.5Y-3.8
X7.5Y-3.9
X7.5Y-4.0
X7.5Y-4.1
X7.5Y-4.2
X7.5Y-4.3
X7.5Y-4.4
X7.5Y-4.5
X7.5Y-4.6
X7.5Y-4.7
X7.5Y-5.05
X7.5Y-5.15
X7.5Y-5.25
X7.5Y-5.35
X7.5Y-5.45
X7.5Y-5.55
X7.5Y-5.65
X7.5Y-5.75
X7.5Y-5.85
X7.5Y-5.95
X7.5Y-6.05
X7.5Y-6.15
X7.5Y-6.25
X7.5Y-6.35
X7.5Y-6.45
X7.5Y-6.55
X7.5Y-6.65
X7.5Y-6.75
X7.5Y-6.85
X7.5Y-6.95
X7.6Y-4.85
X7.7Y-10.75
X7.75Y-12.0
X7.9Y-4.85
X7.95Y-12.2016
X7.95Y-12.3
X8.1Y-2.8
X8.1Y-2.9
X8.1Y-3.0
X8.1Y-3.1
X8.1Y-3.2
X8.1Y-3.3
X8.1Y-3.4
X8.1Y-3.5
X8.1Y-3.6
X8.1Y-3.7
X8.1Y-3.8
X8.1Y-3.9
X8.1Y-4.0
X8.1Y-4.1
X8.1Y-4.2
X8.1Y-4.3
X8.1Y-4.4
X8.1Y-4.5
X8.1Y-4.6
X8.1Y-4.7
X8.1Y-5.05
X8.1Y-5.15
X8.1Y-5.25
X8.1Y-5.35
X8.1Y-5.45
X8.1Y-5.55
X8.1Y-5.65
X8.1Y-5.75
X8.1Y-5.85
X8.1Y-5.95
X8.1Y-6.05
X8.1Y-6.15
X8.1Y-6.25
X8.1Y-6.35
X8.1Y-6.45
X8.1Y-6.55
X8.1Y-6.65
X8.1Y-6.75
X8.1Y-6.85
X8.1Y-6.95
X8.3524Y-11.35
X8.65Y-12.2016
X8.65Y-12.3
X8.6524Y-11.35
X8.7Y-10.9516
X8.7Y-11.05
X8.9Y-12.35
X8.95Y-1.3
X8.95Y-1.4
X8.95Y-1.5
X8.95Y-1.6
X8.95Y-1.7
X8.95Y-1.8
X8.95Y-1.9
X9.2Y-12.35
X9.25Y-1.3
X9.25Y-1.4
X9.25Y-1.5
X9.25Y-1.6
X9.25Y-1.7
X9.25Y-1.8
X9.25Y-1.9
X9.25Y-10.95
X9.25Y-11.0484
X9.25Y-11.2
X9.55Y-3.55
X9.55Y-3.65
X9.55Y-3.75
X9.55Y-3.85
X9.55Y-3.95
X9.55Y-4.05
X9.55Y-4.15
X9.55Y-4.4
X9.55Y-4.5
X9.55Y-4.6
X9.55Y-4.7
X9.55Y-11.2
X9.75Y-11.35
X9.8484Y-11.35
X9.85Y-3.55
X9.85Y-3.65
X9.85Y-3.75
X9.85Y-3.85
X9.85Y-3.95
X9.85Y-4.05
X9.85Y-4.15
X9.85Y-4.4
X9.85Y-4.5
X9.85Y-4.6
X9.85Y-4.7
X10.0Y-4.7
X10.0984Y-4.7
X10.15Y-4.2
X10.15Y-4.5
X10.1516Y-11.25
X10.25Y-4.55
X10.25Y-4.85
X10.25Y-11.25
X10.4Y-4.5
X10.45Y-4.95
X10.4984Y-4.5
X10.5484Y-4.95
X10.55Y-11.2
X10.55Y-11.5
X10.75Y-2.25
X10.75Y-2.35
X10.75Y-2.45
X10.75Y-2.55
X10.75Y-2.65
X10.75Y-2.75
X10.75Y-2.85
X11.05Y-2.25
X11.05Y-2.35
X11.05Y-2.45
X11.05Y-2.55
X11.05Y-2.65
X11.05Y-2.75
X11.05Y-2.85
X11.85Y-7.8
X12.15Y-7.8
X12.75Y-5.2
X12.75Y-5.3
X12.75Y-5.4
X12.75Y-5.5
X12.75Y-5.6
X12.75Y-5.7
X12.75Y-5.8
X12.75Y-5.9
X12.75Y-6.0
X12.75Y-6.1
X13.05Y-5.2
X13.05Y-5.3
X13.05Y-5.4
X13.05Y-5.5
X13.05Y-5.6
X13.05Y-5.7
X13.05Y-5.8
X13.05Y-5.9
X13.05Y-6.0
X13.05Y-6.1
X15.2Y-6.8
X15.2Y-6.9
X15.2Y-7.0
X15.2Y-7.1
X15.2Y-7.2
X15.2Y-7.3
X15.2Y-7.4
X15.2Y-7.5
X15.2Y-7.6
X15.2Y-7.7
X15.2Y-7.8
X15.2Y-7.9
X15.2Y-8.0
X15.2Y-8.1
X15.8Y-6.8
X15.8Y-6.9
X15.8Y-7.0
X15.8Y-7.1
X15.8Y-7.2
X15.8Y-7.3
X15.8Y-7.4
X15.8Y-7.5
X15.8Y-7.6
X15.8Y-7.7
X15.8Y-7.8
X15.8Y-7.9
X15.8Y-8.0
X15.8Y-8.1
X16.05Y-5.1
X16.2Y-6.45
X16.2Y-6.55
X16.2Y-6.65
X16.2Y-6.75
X16.2Y-6.85
X16.2Y-6.95
X16.2Y-7.05
X16.2Y-7.15
X16.35Y-5.1
X16.5Y-6.45
X16.5Y-6.55
X16.5Y-6.65
X16.5Y-6.75
X16.5Y-6.85
X16.5Y-6.95
X16.5Y-7.05
X16.5Y-7.15
X16.9Y-6.45
X16.9Y-6.55
X16.9Y-6.65
X16.9Y-6.75
X16.9Y-6.85
X16.9Y-6.95
X16.9Y-7.05
X17.1Y-10.849
X17.1Y-10.949
X17.1Y-11.049
X17.1Y-11.149
X17.1Y-11.249
X17.1Y-11.349
X17.1Y-11.449
X17.1Y-11.549
X17.2Y-6.45
X17.2Y-6.55
X17.2Y-6.65
X17.2Y-6.75
X17.2Y-6.85
X17.2Y-6.95
X17.2Y-7.05
X17.4Y-10.849
X17.4Y-10.949
X17.4Y-11.049
X17.4Y-11.149
X17.4Y-11.249
X17.4Y-11.349
X17.4Y-11.449
X17.4Y-11.549
X17.7Y-6.45
X17.7Y-6.55
X17.7Y-6.65
X17.7Y-6.75
X17.7Y-6.85
X17.7Y-6.95
X17.7Y-7.05
X17.7Y-7.45
X17.7Y-7.55
X17.7Y-7.65
X17.7Y-7.75
X17.7Y-7.85
X17.7Y-7.95
X17.7Y-8.05
X17.7Y-8.15
X17.95Y-9.6
X17.95Y-10.2
X18.0Y-6.45
X18.0Y-6.55
X18.0Y-6.65
X18.0Y-6.75
X18.0Y-6.85
X18.0Y-6.95
X18.0Y-7.05
X18.0Y-7.45
X18.0Y-7.55
X18.0Y-7.65
X18.0Y-7.75
X18.0Y-7.85
X18.0Y-7.95
X18.0Y-8.05
X18.0Y-8.15
X18.05Y-9.6
X18.05Y-10.2
X18.15Y-9.6
X18.15Y-10.2
X18.25Y-9.6
X18.25Y-10.2
X18.35Y-9.6
X18.35Y-10.2
X18.45Y-9.6
X18.45Y-10.2
X18.55Y-9.6
X18.55Y-10.2
X18.65Y-9.6
X18.65Y-10.2
X18.75Y-9.6
X18.75Y-10.2
X18.85Y-9.6
X18.85Y-10.2
X18.95Y-9.6
X18.95Y-10.2
X19.05Y-9.6
X19.05Y-10.2
X19.15Y-9.6
X19.15Y-10.2
X19.25Y-9.6
X19.25Y-10.2
X19.35Y-9.6
X19.35Y-10.2
X19.45Y-9.6
X19.45Y-10.2
X19.55Y-9.6
X19.55Y-10.2
X19.65Y-9.6
X19.65Y-10.2
X19.75Y-9.6
X19.75Y-10.2
X19.85Y-9.6
X19.85Y-10.2
X20.05Y-6.65
X20.05Y-6.75
X20.05Y-6.85
X20.05Y-6.95
X20.05Y-7.05
X20.05Y-7.15
X20.05Y-7.25
X20.05Y-7.55
X20.05Y-7.65
X20.05Y-7.75
X20.05Y-7.85
X20.05Y-7.95
X20.05Y-8.05
X20.05Y-8.15
X20.05Y-8.45
X20.05Y-8.55
X20.05Y-8.65
X20.05Y-8.75
X20.05Y-8.85
X20.05Y-8.95
X20.05Y-9.05
X20.15Y-9.8
X20.15Y-9.9
X20.15Y-10.0
X20.15Y-10.1
X20.15Y-10.2
X20.15Y-10.3
X20.15Y-10.4
X20.35Y-6.65
X20.35Y-6.75
X20.35Y-6.85
X20.35Y-6.95
X20.35Y-7.05
X20.35Y-7.15
X20.35Y-7.25
X20.35Y-7.55
X20.35Y-7.65
X20.35Y-7.75
X20.35Y-7.85
X20.35Y-7.95
X20.35Y-8.05
X20.35Y-8.15
X20.35Y-8.45
X20.35Y-8.55
X20.35Y-8.65
X20.35Y-8.75
X20.35Y-8.85
X20.35Y-8.95
X20.35Y-9.05
X20.45Y-9.8
X20.45Y-9.9
X20.45Y-10.0
X20.45Y-10.1
X20.45Y-10.2
X20.45Y-10.3
X20.45Y-10.4
X20.7Y-9.05
X20.7Y-9.15
X20.7Y-9.25
X20.7Y-9.35
X20.7Y-9.45
X20.7Y-9.55
X20.7Y-9.65
X20.8Y-11.25
X20.8Y-11.35
X20.8Y-11.45
X20.8Y-11.55
X20.8Y-11.65
X20.8Y-11.75
X20.8Y-11.85
X21.0Y-8.0
X21.0Y-8.1
X21.0Y-8.2
X21.0Y-8.3
X21.0Y-8.4
X21.0Y-8.5
X21.0Y-8.6
X21.0Y-9.05
X21.0Y-9.15
X21.0Y-9.25
X21.0Y-9.35
X21.0Y-9.45
X21.0Y-9.55
X21.0Y-9.65
X21.05Y-5.95
X21.05Y-6.05
X21.05Y-6.15
X21.05Y-6.25
X21.05Y-6.35
X21.05Y-6.45
X21.05Y-6.55
X21.05Y-6.9
X21.05Y-7.0
X21.05Y-7.1
X21.05Y-7.2
X21.05Y-7.3
X21.05Y-7.4
X21.05Y-7.5
X21.1Y-11.25
X21.1Y-11.35
X21.1Y-11.45
X21.1Y-11.55
X21.1Y-11.65
X21.1Y-11.75
X21.1Y-11.85
X21.3Y-8.0
X21.3Y-8.1
X21.3Y-8.2
X21.3Y-8.3
X21.3Y-8.4
X21.3Y-8.5
X21.3Y-8.6
X21.35Y-5.95
X21.35Y-6.05
X21.35Y-6.15
X21.35Y-6.25
X21.35Y-6.35
X21.35Y-6.45
X21.35Y-6.55
X21.35Y-6.9
X21.35Y-7.0
X21.35Y-7.1
X21.35Y-7.2
X21.35Y-7.3
X21.35Y-7.4
X21.35Y-7.5
X21.35Y-10.1
X21.35Y-10.2
X21.35Y-10.3
X21.35Y-10.4
X21.35Y-10.5
X21.35Y-10.6
X21.35Y-10.7
X21.65Y-10.1
X21.65Y-10.2
X21.65Y-10.3
X21.65Y-10.4
X21.65Y-10.5
X21.65Y-10.6
X21.65Y-10.7
T3
X9.45Y-11.5
X9.45Y-12.2
X9.45Y-12.3
X9.55Y-11.5
X10.25Y-11.5
X10.35Y-11.5
T4
X1.45Y-5.85
X1.45Y-5.95
X1.45Y-6.05
X1.45Y-6.15
X1.45Y-6.25
X1.55Y-5.85
X1.55Y-5.95
X1.55Y-6.05
X1.55Y-6.15
X2.0Y-7.8
X2.0Y-8.1
X2.6Y-7.8
X2.6Y-8.1
X7.15Y-5.6
X7.2Y-5.05
X7.2Y-5.35
X7.25Y-5.6
X7.3Y-5.05
X7.3Y-5.35
X7.75Y-1.5
X7.75Y-1.6
X7.75Y-1.7
X7.75Y-1.8
X7.75Y-1.9
X7.75Y-2.0
X7.75Y-2.1
X7.75Y-2.2
X7.75Y-2.3
X7.75Y-2.4
X7.75Y-2.5
X7.85Y-1.5
X7.85Y-1.6
X7.85Y-1.7
X7.85Y-1.8
X7.85Y-1.9
X7.85Y-2.0
X7.85Y-2.1
X7.85Y-2.2
X7.85Y-2.3
X7.85Y-2.4
X7.85Y-2.5
X8.6Y-1.5
X8.6Y-1.6
X8.6Y-1.7
X8.6Y-4.5
X8.6Y-4.6
X8.6Y-4.7
X9.8Y-2.45
X9.8Y-2.75
X10.4Y-2.45
X10.4Y-2.75
X10.55Y-3.15
X10.55Y-3.25
X10.75Y-3.15
X10.75Y-3.25
X10.95Y-3.15
X10.95Y-3.25
X12.45Y-6.6
X12.45Y-6.7
X12.45Y-6.8
X12.45Y-6.9
X12.45Y-7.0
X12.45Y-7.1
X12.45Y-7.2
X12.45Y-7.3
X12.45Y-7.4
X12.45Y-7.5
X12.45Y-7.6
X12.45Y-7.7
X12.45Y-7.8
X12.45Y-7.9
X13.05Y-6.6
X13.05Y-6.7
X13.05Y-6.8
X13.05Y-6.9
X13.05Y-7.0
X13.05Y-7.1
X13.05Y-7.2
X13.05Y-7.3
X13.05Y-7.4
X13.05Y-7.5
X13.05Y-7.6
X13.05Y-7.7
X13.05Y-7.8
X13.05Y-7.9
X15.2Y-5.0
X15.2Y-5.1
X15.2Y-5.2
X15.2Y-5.3
X15.2Y-5.4
X15.2Y-5.5
X15.2Y-5.6
X15.2Y-5.7
X15.2Y-5.8
X15.2Y-5.9
X15.2Y-6.0
X15.2Y-6.1
X15.2Y-6.2
X15.2Y-6.3
X15.8Y-5.0
X15.8Y-5.1
X15.8Y-5.2
X15.8Y-5.3
X15.8Y-5.4
X15.8Y-5.5
X15.8Y-5.6
X15.8Y-5.7
X15.8Y-5.8
X15.8Y-5.9
X15.8Y-6.0
X15.8Y-6.1
X15.8Y-6.2
X15.8Y-6.3
X16.452Y-1.938
X16.452Y-2.038
X16.452Y-2.138
X16.452Y-2.238
X16.452Y-2.338
X16.452Y-2.438
X16.452Y-2.538
X16.452Y-2.638
X16.452Y-2.738
X16.452Y-2.838
X16.452Y-2.938
X16.452Y-3.038
X16.452Y-3.138
X16.452Y-3.238
X16.452Y-3.338
X16.452Y-3.438
X16.452Y-3.538
X16.452Y-3.638
X16.452Y-3.738
X16.452Y-3.838
X16.452Y-3.938
X16.5Y-8.7
X16.5Y-8.8
X16.5Y-8.9
X16.552Y-1.938
X16.552Y-2.038
X16.552Y-2.138
X16.552Y-2.238
X16.552Y-2.338
X16.552Y-2.438
X16.552Y-2.538
X16.552Y-2.638
X16.552Y-2.738
X16.552Y-2.838
X16.552Y-2.938
X16.552Y-3.038
X16.552Y-3.138
X16.552Y-3.238
X16.552Y-3.338
X16.552Y-3.438
X16.552Y-3.538
X16.552Y-3.638
X16.552Y-3.738
X16.552Y-3.838
X16.552Y-3.938
X16.65Y-8.7
X16.65Y-8.8
X16.65Y-8.9
X16.8Y-8.7
X16.8Y-8.8
X16.8Y-8.9
X16.95Y-8.7
X16.95Y-8.8
X16.95Y-8.9
X17.1Y-8.7
X17.1Y-8.8
X17.1Y-8.9
X17.25Y-8.7
X17.25Y-8.8
X17.25Y-8.9
X17.4Y-8.7
X17.4Y-8.8
X17.4Y-8.9
X17.4515Y-1.944
X17.4515Y-2.044
X17.4515Y-2.144
X17.4515Y-2.244
X17.4515Y-2.344
X17.4515Y-2.444
X17.4515Y-2.544
X17.4515Y-2.644
X17.4515Y-2.744
X17.4515Y-2.844
X17.4515Y-2.944
X17.4515Y-3.044
X17.4515Y-3.144
X17.4515Y-3.244
X17.4515Y-3.344
X17.4515Y-3.444
X17.4515Y-3.544
X17.4515Y-3.644
X17.4515Y-3.744
X17.4515Y-3.844
X17.4515Y-3.944
X17.55Y-8.7
X17.55Y-8.8
X17.55Y-8.9
X17.5515Y-1.944
X17.5515Y-2.044
X17.5515Y-2.144
X17.5515Y-2.244
X17.5515Y-2.344
X17.5515Y-2.444
X17.5515Y-2.544
X17.5515Y-2.644
X17.5515Y-2.744
X17.5515Y-2.844
X17.5515Y-2.944
X17.5515Y-3.044
X17.5515Y-3.144
X17.5515Y-3.244
X17.5515Y-3.344
X17.5515Y-3.444
X17.5515Y-3.544
X17.5515Y-3.644
X17.5515Y-3.744
X17.5515Y-3.844
X17.5515Y-3.944
X18.4Y-10.85
X18.4Y-10.95
X18.4Y-11.05
X18.4Y-11.15
X18.4Y-11.25
X18.4Y-11.35
X18.4Y-11.45
X18.4Y-11.55
X18.4Y-11.65
X18.4Y-11.75
X18.405Y-1.944
X18.405Y-2.044
X18.405Y-2.144
X18.405Y-2.244
X18.405Y-2.344
X18.405Y-2.444
X18.405Y-2.544
X18.405Y-2.644
X18.405Y-2.744
X18.405Y-2.844
X18.405Y-2.944
X18.405Y-3.044
X18.405Y-3.144
X18.405Y-3.244
X18.405Y-3.344
X18.405Y-3.444
X18.405Y-3.544
X18.405Y-3.644
X18.405Y-3.744
X18.405Y-3.844
X18.405Y-3.944
X18.5Y-10.85
X18.5Y-10.95
X18.5Y-11.05
X18.5Y-11.15
X18.5Y-11.25
X18.5Y-11.35
X18.5Y-11.45
X18.5Y-11.55
X18.5Y-11.65
X18.5Y-11.75
X18.505Y-1.944
X18.505Y-2.044
X18.505Y-2.144
X18.505Y-2.244
X18.505Y-2.344
X18.505Y-2.444
X18.505Y-2.544
X18.505Y-2.644
X18.505Y-2.744
X18.505Y-2.844
X18.505Y-2.944
X18.505Y-3.044
X18.505Y-3.144
X18.505Y-3.244
X18.505Y-3.344
X18.505Y-3.444
X18.505Y-3.544
X18.505Y-3.644
X18.505Y-3.744
X18.505Y-3.844
X18.505Y-3.944
X19.4045Y-1.946
X19.4045Y-2.046
X19.4045Y-2.146
X19.4045Y-2.246
X19.4045Y-2.346
X19.4045Y-2.446
X19.4045Y-2.546
X19.4045Y-2.646
X19.4045Y-2.746
X19.4045Y-2.846
X19.4045Y-2.946
X19.4045Y-3.046
X19.4045Y-3.146
X19.4045Y-3.246
X19.4045Y-3.346
X19.4045Y-3.446
X19.4045Y-3.546
X19.4045Y-3.646
X19.4045Y-3.746
X19.4045Y-3.846
X19.4045Y-3.946
X19.5045Y-1.946
X19.5045Y-2.046
X19.5045Y-2.146
X19.5045Y-2.246
X19.5045Y-2.346
X19.5045Y-2.446
X19.5045Y-2.546
X19.5045Y-2.646
X19.5045Y-2.746
X19.5045Y-2.846
X19.5045Y-2.946
X19.5045Y-3.046
X19.5045Y-3.146
X19.5045Y-3.246
X19.5045Y-3.346
X19.5045Y-3.446
X19.5045Y-3.546
X19.5045Y-3.646
X19.5045Y-3.746
X19.5045Y-3.846
X19.5045Y-3.946
X20.398Y-1.946
X20.398Y-2.046
X20.398Y-2.146
X20.398Y-2.246
X20.398Y-2.346
X20.398Y-2.446
X20.398Y-2.546
X20.398Y-2.646
X20.398Y-2.746
X20.398Y-2.846
X20.398Y-2.946
X20.398Y-3.046
X20.398Y-3.146
X20.398Y-3.246
X20.398Y-3.346
X20.398Y-3.446
X20.398Y-3.546
X20.398Y-3.646
X20.398Y-3.746
X20.398Y-3.846
X20.398Y-3.946
X20.498Y-1.946
X20.498Y-2.046
X20.498Y-2.146
X20.498Y-2.246
X20.498Y-2.346
X20.498Y-2.446
X20.498Y-2.546
X20.498Y-2.646
X20.498Y-2.746
X20.498Y-2.846
X20.498Y-2.946
X20.498Y-3.046
X20.498Y-3.146
X20.498Y-3.246
X20.498Y-3.346
X20.498Y-3.446
X20.498Y-3.546
X20.498Y-3.646
X20.498Y-3.746
X20.498Y-3.846
X20.498Y-3.946
T5
X4.9Y-11.05
X4.9Y-11.35
X5.0Y-10.95
X5.0Y-11.45
X5.3Y-10.95
X5.3Y-11.45
X5.4Y-11.05
X5.4Y-11.35
X7.9Y-11.05
X8.0Y-11.05
X8.1Y-11.05
X8.2Y-12.3
X8.3Y-10.9
X8.3Y-11.0772
X8.3Y-12.3
X8.4Y-12.3
X8.5559Y-10.9
X8.5559Y-11.0772
X8.85Y-11.05
X8.95Y-11.05
X9.05Y-11.05
X9.75Y-11.05
X9.85Y-11.05
X9.95Y-11.05
X10.0Y-4.95
X10.0Y-5.1272
X10.2559Y-4.95
X10.2559Y-5.1272
T6
X2.8Y-10.9638
X2.8Y-11.1626
X2.8Y-11.3594
X2.8Y-11.5563
X2.8Y-11.7531
X2.8Y-11.95
X3.8827Y-10.9657
X3.8827Y-11.1626
X3.8827Y-11.3594
X3.8827Y-11.5563
X3.8827Y-11.7531
X3.8827Y-11.95
T7
X2.111Y-10.955
X2.111Y-11.8408
X7.2Y-11.2
X7.2Y-11.6299
T8
X2.106Y-12.254
X2.3029Y-12.254
T9
X6.6764Y-11.4146
X7.8654Y-11.4146
T4
G00X5.1646Y-12.0518
M15
G01X5.2434Y-12.0518
M16
G05
G00X5.1646Y-12.288
M15
G01X5.2434Y-12.288
M16
G05
G00X5.389Y-12.2093
M15
G01X5.389Y-12.1305
M16
G05
T0
M30
